<?xml version="1.0" encoding="UTF-8"?>
<!-- Generator: Adobe Illustrator 29.6.1, SVG Export Plug-In . SVG Version: 9.03 Build 0)  -->
<svg version="1.1" id="Layer_1" xmlns="http://www.w3.org/2000/svg" xmlns:xlink="http://www.w3.org/1999/xlink" x="0px" y="0px"
	 viewBox="0 0 1000 144" style="enable-background:new 0 0 1000 144;" xml:space="preserve">
<g>
	<defs>
		<rect id="SVGID_1_" width="1000" height="144"/>
	</defs>
	<clipPath id="SVGID_00000122688223960168470180000003542517491306756242_">
		<use xlink:href="#SVGID_1_"  style="overflow:visible;"/>
	</clipPath>
	<path style="clip-path:url(#SVGID_00000122688223960168470180000003542517491306756242_);" d="M414.759,115.025v11.825
		c0,0.397-0.133,0.706-0.443,0.927c-0.265,0.221-0.619,0.353-1.062,0.353c-0.265,0-0.664,0-1.106-0.044
		c-0.442-0.044-0.929-0.088-1.372-0.132c-0.442-0.045-0.841-0.177-1.195-0.309c-0.309-0.133-0.486-0.309-0.486-0.486v-12.09
		L398.74,94.903c-0.354-0.706-0.399-1.192-0.133-1.5c0.266-0.309,0.752-0.486,1.46-0.486c0.443,0,0.885,0,1.372,0.044
		c0.443,0,0.885,0.044,1.283,0.133c0.399,0.044,0.753,0.132,1.018,0.22c0.266,0.089,0.487,0.221,0.575,0.441l7.612,15.489
		l7.611-15.444c0.089-0.177,0.265-0.354,0.575-0.442c0.266-0.088,0.62-0.176,1.018-0.264c0.398-0.045,0.841-0.089,1.283-0.133
		c0.443,0,0.93-0.044,1.372-0.044c0.708,0,1.195,0.132,1.461,0.441c0.221,0.309,0.177,0.795-0.178,1.545L414.759,115.025z
		 M384.491,98.521v28.329c0,0.397-0.133,0.706-0.443,0.927c-0.31,0.221-0.619,0.353-1.018,0.353c-0.265,0-0.663,0-1.15-0.044
		c-0.487-0.044-0.974-0.088-1.416-0.132c-0.443-0.045-0.841-0.177-1.151-0.309c-0.354-0.133-0.486-0.309-0.486-0.486V98.565h-8.762
		c-0.354,0-0.62-0.132-0.885-0.397c-0.222-0.265-0.354-0.573-0.354-0.971c0-0.265,0-0.573,0.044-1.015
		c0.044-0.397,0.088-0.838,0.133-1.235c0.044-0.397,0.177-0.75,0.265-1.059c0.133-0.265,0.266-0.441,0.487-0.441h23.453
		c0.354,0,0.62,0.132,0.885,0.397c0.222,0.265,0.354,0.617,0.354,0.971c0,0.264,0,0.573-0.044,1.014
		c-0.044,0.442-0.088,0.839-0.133,1.236c-0.044,0.397-0.132,0.75-0.265,1.015s-0.266,0.441-0.487,0.441H384.491z M364.046,126.85
		c0,0.397-0.132,0.706-0.442,0.927c-0.266,0.221-0.62,0.353-1.062,0.353c-0.266,0-0.664,0-1.151-0.044
		c-0.486-0.044-0.929-0.088-1.416-0.132c-0.442-0.045-0.84-0.177-1.195-0.309c-0.309-0.133-0.486-0.309-0.486-0.486V93.932
		c0-0.177,0.177-0.353,0.486-0.486c0.355-0.132,0.753-0.264,1.195-0.308c0.443-0.044,0.93-0.133,1.416-0.133
		c0.487-0.044,0.841-0.044,1.151-0.044c0.398,0,0.752,0.133,1.062,0.397c0.265,0.265,0.442,0.574,0.442,0.927V126.85z
		 M332.141,122.305c0.265,0.044,0.62,0.177,1.151,0.265c0.531,0.132,1.106,0.265,1.814,0.397c0.664,0.133,1.416,0.221,2.257,0.353
		c0.796,0.088,1.637,0.133,2.434,0.133c0.885,0,1.725-0.089,2.522-0.221c0.796-0.132,1.549-0.397,2.168-0.706
		c0.62-0.353,1.151-0.794,1.505-1.324c0.398-0.574,0.575-1.235,0.575-2.074c0-1.147-0.354-2.118-1.106-2.912
		c-0.753-0.794-1.682-1.545-2.788-2.251c-1.106-0.706-2.345-1.412-3.673-2.118s-2.522-1.544-3.673-2.471
		c-1.15-0.926-2.08-2.03-2.788-3.309c-0.752-1.28-1.106-2.824-1.106-4.678c0-1.544,0.265-2.868,0.841-3.927
		c0.575-1.059,1.327-1.941,2.301-2.647c0.973-0.662,2.168-1.192,3.496-1.501c1.371-0.309,2.876-0.485,4.513-0.485
		c0.354,0,0.885,0,1.593,0.044s1.461,0.088,2.257,0.176c0.797,0.089,1.593,0.177,2.346,0.309c0.796,0.133,1.416,0.309,1.858,0.53
		c0.443,0.176,0.708,0.397,0.797,0.618c0.088,0.22,0.088,0.573,0.044,1.103c-0.044,0.838-0.221,1.5-0.531,2.074
		c-0.266,0.573-0.664,0.794-1.195,0.706c-0.796-0.177-1.681-0.309-2.699-0.486c-1.018-0.132-2.169-0.22-3.408-0.22
		c-1.947,0-3.584,0.309-4.823,0.838c-1.239,0.574-1.859,1.5-1.859,2.824c0,1.059,0.355,1.942,1.107,2.692
		c0.752,0.75,1.681,1.456,2.788,2.118c1.106,0.662,2.345,1.368,3.672,2.074c1.328,0.706,2.523,1.544,3.673,2.515
		c1.107,0.971,2.08,2.118,2.788,3.442c0.752,1.324,1.106,3.001,1.106,4.898c0,1.809-0.354,3.31-1.017,4.457
		c-0.664,1.191-1.593,2.074-2.7,2.736c-1.106,0.662-2.434,1.103-3.894,1.368c-1.46,0.264-3.009,0.397-4.602,0.397
		c-0.708,0-1.505-0.044-2.301-0.088c-0.797-0.045-1.549-0.133-2.345-0.221c-0.753-0.088-1.461-0.221-2.169-0.353
		c-0.664-0.133-1.239-0.265-1.726-0.441c-0.486-0.177-0.752-0.353-0.84-0.53c-0.089-0.221-0.133-0.574-0.045-1.059
		c0.089-0.927,0.266-1.721,0.531-2.339C331.344,122.482,331.698,122.173,332.141,122.305 M313.953,98.477h-6.593v11.429h6.593
		c1.284,0,2.346-0.089,3.098-0.221c0.797-0.132,1.372-0.397,1.814-0.794c0.443-0.397,0.709-0.883,0.841-1.545
		c0.133-0.661,0.221-1.544,0.221-2.603v-1.059c0-1.059-0.088-1.942-0.221-2.648c-0.132-0.661-0.442-1.191-0.841-1.588
		c-0.442-0.397-1.017-0.618-1.814-0.795C316.255,98.565,315.237,98.477,313.953,98.477 M301.652,127.115V94.638
		c0-0.353,0.132-0.618,0.442-0.883c0.31-0.22,0.62-0.352,1.062-0.352h10.488c2.168,0,4.027,0.176,5.575,0.485
		c1.549,0.309,2.788,0.882,3.762,1.677c0.973,0.794,1.681,1.853,2.124,3.177c0.443,1.324,0.664,2.956,0.664,4.986v1.059
		c0,1.5-0.133,2.78-0.354,3.883c-0.222,1.103-0.62,2.074-1.107,2.869c-0.486,0.794-1.194,1.412-2.035,1.897
		s-1.859,0.838-3.009,1.103l6.593,11.385c0.354,0.617,0.531,1.059,0.531,1.368c0,0.176-0.088,0.353-0.221,0.485
		c-0.177,0.132-0.354,0.221-0.531,0.265c-0.177,0.044-0.398,0.088-0.575,0.132c-0.222,0-0.354,0.044-0.443,0.044
		c-0.265,0-0.664,0-1.106-0.044c-0.443-0.044-0.885-0.088-1.328-0.176c-0.442-0.089-0.885-0.177-1.239-0.353
		c-0.354-0.177-0.619-0.398-0.796-0.662l-6.992-11.914h-5.841v11.914c0,0.397-0.133,0.662-0.443,0.882
		c-0.265,0.221-0.619,0.353-1.018,0.353c-0.265,0-0.663,0-1.15-0.044c-0.487-0.044-0.929-0.088-1.416-0.132
		c-0.443-0.044-0.841-0.177-1.195-0.309C301.829,127.468,301.652,127.336,301.652,127.115 M273.773,126.586V94.638
		c0-0.397,0.133-0.706,0.443-0.927c0.265-0.22,0.619-0.308,1.062-0.308h19.072c0.354,0,0.664,0.132,0.885,0.441
		c0.221,0.265,0.354,0.617,0.354,0.971c0,0.264,0,0.573-0.044,1.014c-0.044,0.442-0.089,0.839-0.133,1.236
		c-0.044,0.397-0.177,0.75-0.265,1.015c-0.133,0.265-0.31,0.441-0.487,0.441h-15.134v9.178h12.966c0.309,0,0.575,0.133,0.84,0.397
		c0.222,0.265,0.354,0.574,0.354,0.927c0,0.265,0,0.574-0.044,1.015c-0.044,0.441-0.088,0.838-0.133,1.236
		c-0.044,0.397-0.177,0.75-0.265,1.059c-0.133,0.264-0.266,0.441-0.487,0.441h-13.275v9.708h14.824c0.354,0,0.664,0.132,0.885,0.397
		c0.221,0.265,0.354,0.574,0.354,0.971c0,0.264,0,0.573-0.044,1.015c-0.045,0.397-0.089,0.838-0.133,1.235
		c-0.044,0.397-0.177,0.75-0.266,1.059c-0.132,0.309-0.309,0.441-0.486,0.441h-18.675c-0.442,0-0.929-0.088-1.416-0.309
		C273.994,127.027,273.773,126.806,273.773,126.586 M256.338,118.466l7.169-24.578c0.442-0.442,0.973-0.706,1.548-0.839
		c0.576-0.088,1.239-0.176,2.036-0.176c0.31,0,0.664,0,0.974,0.044c0.353,0.044,0.619,0.088,0.84,0.221
		c0.222,0.132,0.399,0.265,0.531,0.485c0.133,0.221,0.089,0.486,0,0.883l-11.018,32.874c-0.045,0.265-0.222,0.441-0.487,0.574
		c-0.266,0.132-0.531,0.176-0.841,0.176c-1.062,0-1.947-0.044-2.655-0.176c-0.708-0.133-1.151-0.309-1.328-0.53l-10.974-32.918
		c-0.088-0.309-0.088-0.574,0-0.795c0.089-0.22,0.221-0.353,0.442-0.485c0.178-0.132,0.399-0.221,0.664-0.265
		c0.222-0.044,0.443-0.088,0.576-0.088c0.486,0,0.973,0,1.46,0.044s0.929,0.088,1.372,0.177c0.398,0.088,0.752,0.22,1.062,0.352
		c0.265,0.177,0.487,0.354,0.575,0.618l7.346,24.358c0.133,0.397,0.221,0.794,0.265,1.192c0.045,0.441,0.089,0.794,0.177,1.147
		c0.045-0.353,0.089-0.75,0.133-1.147C256.117,119.216,256.205,118.819,256.338,118.466 M237.929,126.85
		c0,0.397-0.133,0.706-0.442,0.927c-0.266,0.221-0.62,0.353-1.062,0.353c-0.266,0-0.664,0-1.151-0.044
		c-0.487-0.044-0.929-0.088-1.416-0.132c-0.442-0.045-0.841-0.177-1.195-0.309c-0.354-0.133-0.487-0.309-0.487-0.486V93.932
		c0-0.177,0.177-0.353,0.487-0.486c0.354-0.132,0.708-0.264,1.195-0.308c0.442-0.044,0.929-0.133,1.416-0.133
		c0.487-0.044,0.841-0.044,1.151-0.044c0.398,0,0.752,0.133,1.062,0.397c0.265,0.265,0.442,0.574,0.442,0.927V126.85z
		 M220.494,117.584V93.755c0-0.176,0.177-0.352,0.531-0.441c0.354-0.132,0.752-0.22,1.239-0.265c0.487-0.044,0.974-0.088,1.46-0.132
		c0.487-0.044,0.885-0.044,1.151-0.044c0.841,0,1.239,0.485,1.239,1.412v32.565c0,0.397-0.133,0.662-0.442,0.883
		c-0.31,0.221-0.62,0.353-0.974,0.353c-0.266,0-0.575,0-1.018-0.044c-0.442-0.044-0.841-0.044-1.283-0.133
		c-0.443-0.088-0.797-0.176-1.151-0.264c-0.354-0.133-0.575-0.265-0.708-0.442l-15.444-23.696v23.343
		c0,0.397-0.132,0.706-0.442,0.927c-0.266,0.221-0.62,0.353-1.018,0.353c-0.265,0-0.664,0-1.15-0.044
		c-0.487-0.044-0.974-0.088-1.417-0.132c-0.442-0.045-0.84-0.177-1.15-0.309c-0.354-0.133-0.487-0.309-0.487-0.486V93.932
		c0-0.177,0.177-0.353,0.487-0.485c0.354-0.133,0.708-0.265,1.15-0.309c0.443-0.044,0.886-0.089,1.372-0.133
		c0.487-0.044,0.841-0.044,1.151-0.044c0.354,0,0.664,0.088,0.885,0.309c0.221,0.221,0.442,0.441,0.575,0.706L220.494,117.584z
		 M187.571,115.466V94.02c0-0.176,0.177-0.353,0.486-0.485c0.355-0.132,0.753-0.265,1.195-0.353
		c0.487-0.088,0.974-0.177,1.416-0.221c0.487-0.044,0.841-0.088,1.151-0.088c0.398,0,0.752,0.132,1.018,0.441
		c0.265,0.309,0.398,0.618,0.398,0.971v21.446c0,2.338-0.266,4.28-0.797,5.868c-0.531,1.589-1.283,2.824-2.345,3.839
		c-1.062,0.971-2.389,1.677-3.983,2.074c-1.593,0.397-3.495,0.618-5.62,0.618h-0.398c-2.08,0-3.938-0.221-5.487-0.618
		c-1.593-0.397-2.876-1.103-3.938-2.074c-1.062-0.97-1.815-2.25-2.346-3.839c-0.531-1.544-0.796-3.53-0.796-5.868V94.02
		c0-0.176,0.177-0.353,0.486-0.485c0.355-0.132,0.708-0.265,1.195-0.353c0.443-0.088,0.93-0.177,1.416-0.221
		c0.487-0.044,0.885-0.088,1.151-0.088c0.398,0,0.708,0.132,1.018,0.441c0.265,0.309,0.442,0.618,0.442,0.971v21.137
		c0,1.367,0.089,2.515,0.31,3.486c0.221,0.97,0.575,1.765,1.106,2.338c0.531,0.618,1.239,1.059,2.124,1.324s1.992,0.441,3.319,0.441
		h0.398c1.372,0,2.479-0.132,3.408-0.441c0.885-0.309,1.637-0.75,2.168-1.324c0.531-0.618,0.93-1.368,1.151-2.338
		C187.482,117.981,187.571,116.834,187.571,115.466 M393.474,38.244v40.994h-11.329V16.622h15.798l15.179,38.567V16.622h11.505
		v62.616h-14.426L393.474,38.244z M360.949,16.622h12.745v62.615h-12.745V16.622z M312.051,16.622h13.098v27.226l16.329-27.226
		h13.674l-18.143,28.815l18.143,33.845h-15.179l-14.824-30.447v30.447h-13.098V16.622z M290.721,65.338H272.49l-3.319,13.944
		h-13.143l17.701-62.66h16.727l17.435,62.66h-13.762L290.721,65.338z M288.11,54.439l-6.283-25.903l-6.594,25.903H288.11z
		 M217.928,16.622h33.94v10.635h-20.665v13.37h19.028v10.899h-19.028v16.68h20.71v11.032h-33.985V16.622z M189.12,16.622
		c16.771,0,21.948,8.87,21.948,31.33c0,22.461-5.221,31.33-21.993,31.33h-21.506v-62.66H189.12z M180.756,68.471h5.974
		c9.78,0,11.019-5.736,11.019-20.74c0-14.958-1.239-20.695-11.019-20.695h-5.974V68.471z"/>
	<path style="clip-path:url(#SVGID_00000122688223960168470180000003542517491306756242_);" d="M71.713,1.288
		C32.549,1.288,0.799,32.947,0.799,72s31.749,70.712,70.913,70.712S142.625,111.053,142.625,72S110.877,1.288,71.713,1.288"/>
	<path style="clip-path:url(#SVGID_00000122688223960168470180000003542517491306756242_);fill:#FFFFFF;" d="M71.713,2.968
		c38.175,0,69.233,30.968,69.233,69.032s-31.058,69.032-69.233,69.032S2.479,110.064,2.479,72S33.538,2.968,71.713,2.968"/>
	<path style="clip-path:url(#SVGID_00000122688223960168470180000003542517491306756242_);" d="M95.076,94.204L68.262,47.816
		l3.533-5.928l30.099,52.316H95.076z M82.396,94.204L61.86,58.843l3.45-5.804l23.655,41.165H82.396z M69.509,94.204L55.416,69.953
		l3.575-6.011l17.336,30.22h-6.818V94.204z M56.539,94.204l-7.567-13.1l3.576-6.011l10.933,19.111H56.539z M41.365,94.204
		l4.614-7.877l4.615,7.877H41.365z M35.503,36.416V85.83c0,19.94,16.213,36.107,36.209,36.107c19.997,0,36.21-16.167,36.21-36.107
		V36.416H35.503z"/>
</g>
<rect x="471.959" y="16.622" width="2" height="110.978"/>
<g>
	<defs>
		<rect id="SVGID_00000178166811863844131600000013863188562237758112_" width="1000" height="144"/>
	</defs>
	<clipPath id="SVGID_00000048490680415643044380000008389925829726118054_">
		<use xlink:href="#SVGID_00000178166811863844131600000013863188562237758112_"  style="overflow:visible;"/>
	</clipPath>
	<path style="clip-path:url(#SVGID_00000048490680415643044380000008389925829726118054_);" d="M943.811,52.759v42.247h22.052
		v-7.027h-13.111v-35.22H943.811z M918.075,71.012c0-5.008,0.4-8.431,1.199-10.269c0.8-1.838,2.276-2.757,4.428-2.757
		c2.19,0,3.68,0.862,4.47,2.585c0.79,1.724,1.186,4.509,1.186,8.355v4.028c0,2.781-0.053,5.484-0.157,8.112
		c-0.105,2.628-0.543,4.69-1.314,6.185c-0.772,1.495-2.186,2.242-4.242,2.242c-1.467,0-2.595-0.438-3.385-1.314
		c-0.791-0.876-1.352-2.228-1.685-4.056c-0.334-1.828-0.5-5.008-0.5-9.541V71.012z M923.502,95.777c2.666,0,4.894-0.314,6.684-0.943
		c1.79-0.628,3.232-1.518,4.328-2.67c1.094-1.152,1.918-2.576,2.47-4.271c0.552-1.694,0.924-3.513,1.114-5.456
		c0.191-1.942,0.286-4.893,0.286-8.855c0-4.417-0.143-7.755-0.428-10.011c-0.286-2.257-0.881-4.294-1.786-6.113
		c-0.904-1.818-2.361-3.242-4.37-4.271c-2.009-1.028-4.727-1.542-8.155-1.542c-3.447,0-6.251,0.667-8.412,1.999
		c-2.162,1.334-3.728,3.438-4.699,6.313c-0.971,2.876-1.457,7.341-1.457,13.397c0,5.142,0.243,8.917,0.728,11.326
		c0.486,2.409,1.224,4.404,2.214,5.984c0.99,1.581,2.423,2.828,4.299,3.742C918.193,95.32,920.588,95.777,923.502,95.777
		 M884.008,71.012c0-5.008,0.4-8.431,1.2-10.269c0.799-1.838,2.275-2.757,4.427-2.757c2.19,0,3.68,0.862,4.47,2.585
		c0.79,1.724,1.186,4.509,1.186,8.355v4.028c0,2.781-0.053,5.484-0.157,8.112c-0.105,2.628-0.543,4.69-1.314,6.185
		c-0.771,1.495-2.185,2.242-4.242,2.242c-1.467,0-2.595-0.438-3.385-1.314c-0.79-0.876-1.352-2.228-1.685-4.056
		c-0.334-1.828-0.5-5.008-0.5-9.541V71.012z M889.435,95.777c2.666,0,4.894-0.314,6.684-0.943c1.79-0.628,3.232-1.518,4.328-2.67
		c1.095-1.152,1.918-2.576,2.471-4.271c0.552-1.694,0.923-3.513,1.114-5.456c0.19-1.942,0.285-4.893,0.285-8.855
		c0-4.417-0.143-7.755-0.428-10.011c-0.286-2.257-0.881-4.294-1.786-6.113c-0.904-1.818-2.361-3.242-4.37-4.271
		c-2.009-1.028-4.727-1.542-8.155-1.542c-3.447,0-6.251,0.667-8.412,1.999c-2.162,1.334-3.728,3.438-4.699,6.313
		c-0.971,2.876-1.457,7.341-1.457,13.397c0,5.142,0.243,8.917,0.728,11.326c0.486,2.409,1.224,4.404,2.214,5.984
		c0.99,1.581,2.423,2.828,4.299,3.742C884.127,95.32,886.522,95.777,889.435,95.777 M841.698,52.759v42.247h8.912V76.41h9.997
		v18.596h8.884V52.759h-8.884v16.739h-9.997V52.759H841.698z M836.67,64.813c0-4.36-1.043-7.564-3.128-9.612
		c-2.085-2.047-5.137-3.07-9.155-3.07c-3.427,0-6.155,0.566-8.183,1.699c-2.028,1.133-3.476,2.662-4.342,4.585
		c-0.867,1.923-1.424,4.009-1.671,6.255c-0.248,2.248-0.371,5.342-0.371,9.284c0,5.008,0.232,8.665,0.699,10.969
		c0.467,2.304,1.181,4.199,2.143,5.684c0.961,1.485,2.356,2.666,4.184,3.542s4.199,1.314,7.113,1.314
		c4.475,0,7.788-1.124,9.94-3.371c2.152-2.247,3.228-5.608,3.228-10.083v-1.228h-8.712v0.485c0,2.724-0.386,4.709-1.157,5.956
		c-0.771,1.247-1.909,1.871-3.413,1.871c-1.791,0-3.067-0.814-3.828-2.442c-0.762-1.628-1.181-3.685-1.257-6.17
		s-0.114-4.471-0.114-5.956c0-4.418,0.114-7.569,0.343-9.455c0.228-1.885,0.7-3.442,1.414-4.67c0.714-1.228,1.842-1.842,3.385-1.842
		c1.351,0,2.394,0.528,3.127,1.585c0.733,1.057,1.1,2.776,1.1,5.156v0.8h8.655V64.813z M801.935,92.735
		c2.38-2.028,3.57-5.07,3.57-9.126c0-2.647-0.514-4.737-1.542-6.27s-2.685-3.014-4.97-4.442l-8.541-5.456
		c-0.933-0.59-1.614-1.266-2.042-2.028c-0.429-0.761-0.643-1.58-0.643-2.456c0-1.429,0.386-2.566,1.157-3.414
		c0.771-0.847,1.814-1.271,3.128-1.271c2.837,0,4.256,1.828,4.256,5.484v1h8.655v-1.457c0-4.075-1.043-6.965-3.128-8.669
		c-2.085-1.704-5.118-2.557-9.098-2.557c-4.456,0-7.898,0.977-10.326,2.928c-2.428,1.953-3.642,4.718-3.642,8.298
		c0,2.647,0.495,4.833,1.485,6.556c0.99,1.724,3.143,3.613,6.456,5.67l6.998,4.285c0.952,0.59,1.671,1.276,2.157,2.056
		c0.486,0.781,0.728,1.733,0.728,2.857c0,1.485-0.404,2.632-1.214,3.442c-0.809,0.809-1.966,1.214-3.47,1.214
		c-1.771,0-3.009-0.524-3.714-1.571c-0.704-1.047-1.057-2.628-1.057-4.742v-1.114h-8.969v2.628c0,3.713,1.086,6.508,3.257,8.383
		c2.17,1.876,5.36,2.814,9.569,2.814C795.908,95.777,799.554,94.763,801.935,92.735 M757.807,92.735
		c2.38-2.028,3.571-5.07,3.571-9.126c0-2.647-0.514-4.737-1.543-6.27c-1.028-1.533-2.685-3.014-4.97-4.442l-8.541-5.456
		c-0.933-0.59-1.614-1.266-2.042-2.028c-0.429-0.761-0.643-1.58-0.643-2.456c0-1.429,0.386-2.566,1.157-3.414
		c0.771-0.847,1.814-1.271,3.128-1.271c2.837,0,4.256,1.828,4.256,5.484v1h8.655v-1.457c0-4.075-1.043-6.965-3.128-8.669
		c-2.085-1.704-5.118-2.557-9.098-2.557c-4.456,0-7.898,0.977-10.326,2.928c-2.428,1.953-3.642,4.718-3.642,8.298
		c0,2.647,0.495,4.833,1.486,6.556c0.99,1.724,3.142,3.613,6.455,5.67l6.999,4.285c0.952,0.59,1.671,1.276,2.156,2.056
		c0.486,0.781,0.729,1.733,0.729,2.857c0,1.485-0.405,2.632-1.214,3.442c-0.81,0.809-1.967,1.214-3.471,1.214
		c-1.771,0-3.009-0.524-3.713-1.571c-0.705-1.047-1.057-2.628-1.057-4.742v-1.114h-8.97v2.628c0,3.713,1.086,6.508,3.257,8.383
		c2.171,1.876,5.36,2.814,9.569,2.814C751.78,95.777,755.426,94.763,757.807,92.735 M726.255,92.735
		c2.38-2.028,3.571-5.07,3.571-9.126c0-2.647-0.515-4.737-1.543-6.27c-1.028-1.533-2.685-3.014-4.97-4.442l-8.541-5.456
		c-0.933-0.59-1.614-1.266-2.042-2.028c-0.429-0.761-0.643-1.58-0.643-2.456c0-1.429,0.386-2.566,1.157-3.414
		c0.771-0.847,1.814-1.271,3.128-1.271c2.837,0,4.256,1.828,4.256,5.484v1h8.655v-1.457c0-4.075-1.043-6.965-3.128-8.669
		c-2.085-1.704-5.118-2.557-9.098-2.557c-4.456,0-7.898,0.977-10.326,2.928c-2.428,1.953-3.642,4.718-3.642,8.298
		c0,2.647,0.495,4.833,1.486,6.556c0.99,1.724,3.142,3.613,6.455,5.67l6.998,4.285c0.952,0.59,1.672,1.276,2.157,2.056
		c0.486,0.781,0.729,1.733,0.729,2.857c0,1.485-0.405,2.632-1.214,3.442c-0.81,0.809-1.967,1.214-3.471,1.214
		c-1.771,0-3.009-0.524-3.713-1.571c-0.705-1.047-1.057-2.628-1.057-4.742v-1.114h-8.97v2.628c0,3.713,1.086,6.508,3.257,8.383
		c2.171,1.876,5.36,2.814,9.569,2.814C720.228,95.777,723.874,94.763,726.255,92.735 M675.18,52.759v42.247h23.508v-6.599h-14.682
		V76.182h13.111v-6.513h-13.111V59.272h14.225v-6.513H675.18z M637.702,52.759v42.247h8.198V64.128l11.569,30.878h11.597V52.759
		h-8.198v29.25l-11.283-29.25H637.702z M622.815,95.006h8.826V52.759h-8.826V95.006z M614.469,92.735
		c2.38-2.028,3.57-5.07,3.57-9.126c0-2.647-0.514-4.737-1.542-6.27c-1.029-1.533-2.685-3.014-4.97-4.442l-8.541-5.456
		c-0.933-0.59-1.614-1.266-2.043-2.028c-0.428-0.761-0.642-1.58-0.642-2.456c0-1.429,0.385-2.566,1.157-3.414
		c0.771-0.847,1.813-1.271,3.127-1.271c2.838,0,4.257,1.828,4.257,5.484v1h8.655v-1.457c0-4.075-1.043-6.965-3.128-8.669
		c-2.085-1.704-5.118-2.557-9.098-2.557c-4.456,0-7.898,0.977-10.326,2.928c-2.428,1.953-3.642,4.718-3.642,8.298
		c0,2.647,0.495,4.833,1.485,6.556c0.99,1.724,3.142,3.613,6.456,5.67l6.998,4.285c0.952,0.59,1.671,1.276,2.157,2.056
		c0.485,0.781,0.728,1.733,0.728,2.857c0,1.485-0.405,2.632-1.214,3.442c-0.809,0.809-1.966,1.214-3.47,1.214
		c-1.771,0-3.009-0.524-3.714-1.571c-0.704-1.047-1.057-2.628-1.057-4.742v-1.114h-8.969v2.628c0,3.713,1.086,6.508,3.256,8.383
		c2.171,1.876,5.361,2.814,9.57,2.814C608.442,95.777,612.088,94.763,614.469,92.735 M557.393,52.759v28.279
		c0,4.97,1.147,8.669,3.442,11.097c2.295,2.428,5.842,3.642,10.64,3.642c5.028,0,8.712-1.195,11.055-3.585
		c2.342-2.389,3.513-6.088,3.513-11.097V52.759h-8.598v28.507c0,2.724-0.476,4.775-1.428,6.156
		c-0.952,1.381-2.419,2.071-4.399,2.071c-1.847,0-3.209-0.681-4.085-2.042c-0.876-1.362-1.314-3.442-1.314-6.242v-28.45H557.393z
		 M532.568,76.525h4.399c2.38,0,4.085,0.428,5.113,1.285c1.029,0.857,1.543,2.399,1.543,4.627c0,2.153-0.467,3.704-1.4,4.656
		c-0.933,0.953-2.961,1.429-6.084,1.429h-3.571V76.525z M532.568,70.04V59.272h3.799c2.723,0,4.537,0.428,5.442,1.285
		c0.904,0.857,1.357,2.124,1.357,3.799c0,1.619-0.196,2.747-0.586,3.385s-0.976,1.181-1.757,1.628
		c-0.781,0.448-1.971,0.671-3.57,0.671H532.568z M523.799,52.759v42.247h15.739c4.475,0,7.75-0.919,9.826-2.757
		c2.076-1.837,3.114-4.736,3.114-8.698c0-3.275-0.643-5.745-1.928-7.412c-1.286-1.666-3.281-2.69-5.985-3.071
		c2.381-0.495,4.175-1.552,5.385-3.17c1.209-1.619,1.814-3.78,1.814-6.484c0-3.733-1.048-6.442-3.142-8.127
		c-2.096-1.685-5.418-2.528-9.969-2.528H523.799z"/>
	<path style="clip-path:url(#SVGID_00000048490680415643044380000008389925829726118054_);" d="M607.66,16.797
		c-0.101-0.141-0.212-0.262-0.333-0.363c-0.121-0.1-0.262-0.151-0.423-0.151c-0.182,0-0.378,0.01-0.59,0.03
		c-0.212,0.021-0.419,0.056-0.62,0.106c-0.202,0.051-0.368,0.111-0.499,0.181c-0.131,0.071-0.196,0.147-0.196,0.227v21.408
		c0,0.101,0.07,0.181,0.211,0.242c0.141,0.06,0.313,0.111,0.514,0.151c0.202,0.04,0.413,0.071,0.635,0.091
		c0.222,0.02,0.413,0.03,0.575,0.03c0.222,0,0.398-0.081,0.529-0.242c0.131-0.161,0.197-0.352,0.197-0.574v-16.54l10.855,16.872
		c0.06,0.081,0.166,0.151,0.317,0.212c0.151,0.06,0.328,0.111,0.529,0.151c0.202,0.04,0.403,0.071,0.605,0.091
		c0.201,0.02,0.373,0.03,0.514,0.03c0.201,0,0.368-0.075,0.499-0.227c0.131-0.151,0.197-0.337,0.197-0.559V17.13
		c0-0.242-0.046-0.444-0.137-0.605c-0.09-0.161-0.247-0.242-0.468-0.242c-0.182,0-0.393,0.01-0.635,0.03
		c-0.242,0.021-0.469,0.051-0.681,0.091c-0.211,0.041-0.388,0.091-0.529,0.151c-0.141,0.061-0.211,0.131-0.211,0.212V33.7
		L607.66,16.797z M600.509,17.099c0-0.221-0.066-0.413-0.197-0.574c-0.131-0.161-0.307-0.242-0.529-0.242
		c-0.181,0-0.383,0.01-0.605,0.03c-0.222,0.021-0.438,0.056-0.65,0.106c-0.211,0.051-0.388,0.111-0.529,0.181
		c-0.141,0.071-0.211,0.147-0.211,0.227v21.408c0,0.101,0.07,0.181,0.211,0.242c0.141,0.06,0.318,0.111,0.529,0.151
		c0.212,0.04,0.428,0.071,0.65,0.091c0.222,0.02,0.424,0.03,0.605,0.03c0.222,0,0.398-0.081,0.529-0.242
		c0.131-0.161,0.197-0.352,0.197-0.574V17.099z M581.351,27.35l10.069,10.855c0.221,0.242,0.534,0.393,0.937,0.453
		c0.403,0.061,0.836,0.091,1.3,0.091c0.141,0,0.303-0.02,0.484-0.06c0.181-0.041,0.272-0.162,0.272-0.363
		c0-0.222-0.161-0.504-0.484-0.847l-9.706-10.432l8.86-9.494c0.342-0.363,0.514-0.645,0.514-0.847c0-0.201-0.091-0.322-0.272-0.363
		c-0.182-0.04-0.353-0.06-0.514-0.06c-0.444,0-0.873,0.03-1.285,0.091c-0.414,0.06-0.731,0.211-0.953,0.453l-9.222,9.948v-9.676
		c0-0.221-0.066-0.413-0.197-0.574c-0.131-0.161-0.307-0.242-0.529-0.242c-0.181,0-0.383,0.01-0.605,0.03
		c-0.222,0.021-0.438,0.056-0.65,0.106c-0.211,0.051-0.388,0.111-0.529,0.181c-0.141,0.071-0.212,0.147-0.212,0.227v21.408
		c0,0.101,0.071,0.181,0.212,0.242c0.141,0.06,0.318,0.111,0.529,0.151c0.212,0.04,0.428,0.071,0.65,0.091
		c0.222,0.02,0.424,0.03,0.605,0.03c0.222,0,0.398-0.081,0.529-0.242c0.131-0.161,0.197-0.352,0.197-0.574V27.35z M566.411,20.304
		c0.02-0.201,0.05-0.382,0.091-0.544c0,0.101,0.025,0.283,0.075,0.544c0.05,0.263,0.096,0.444,0.136,0.545l2.903,8.799h-6.259
		l2.933-8.799C566.35,20.688,566.39,20.506,566.411,20.304 M573.033,38.643c0.342,0.071,0.796,0.106,1.36,0.106
		c0.182,0,0.358-0.035,0.53-0.106c0.171-0.071,0.257-0.196,0.257-0.378c0-0.121-0.011-0.211-0.031-0.272l-7.257-21.136
		c-0.121-0.382-0.352-0.574-0.695-0.574c-0.383,0-0.801,0.035-1.255,0.106c-0.453,0.071-0.721,0.217-0.801,0.438l-7.287,21.166
		c-0.041,0.121-0.061,0.212-0.061,0.272c0,0.182,0.086,0.307,0.257,0.378c0.171,0.071,0.358,0.106,0.56,0.106
		c0.463,0,0.881-0.02,1.254-0.06c0.373-0.041,0.6-0.182,0.681-0.424l2.116-6.259h7.681l2.026,6.138
		C572.468,38.406,572.69,38.572,573.033,38.643 M542.031,38.235c0.282,0.101,0.554,0.151,0.816,0.151h11.4
		c0.08,0,0.151-0.06,0.211-0.181c0.061-0.121,0.111-0.272,0.151-0.454c0.041-0.181,0.071-0.372,0.091-0.574
		c0.02-0.201,0.03-0.383,0.03-0.544c0-0.202-0.07-0.363-0.211-0.484c-0.142-0.121-0.303-0.182-0.484-0.182h-9.706v-7.438h8.98
		c0.081,0,0.151-0.06,0.212-0.181c0.06-0.121,0.116-0.273,0.166-0.454s0.086-0.373,0.106-0.575c0.02-0.201,0.03-0.372,0.03-0.514
		c0-0.221-0.071-0.393-0.211-0.514c-0.142-0.121-0.313-0.181-0.514-0.181h-8.769v-7.045h9.918c0.08,0,0.151-0.061,0.211-0.182
		c0.061-0.121,0.111-0.272,0.151-0.453c0.041-0.182,0.071-0.373,0.091-0.575c0.02-0.201,0.03-0.382,0.03-0.544
		c0-0.222-0.07-0.388-0.211-0.499c-0.142-0.11-0.303-0.166-0.484-0.166h-11.702c-0.484,0-0.726,0.262-0.726,0.786v20.41
		C541.607,38.004,541.747,38.134,542.031,38.235 M531.672,19.352c0.726,0.212,1.315,0.559,1.769,1.043
		c0.453,0.484,0.776,1.114,0.967,1.89c0.192,0.776,0.288,1.719,0.288,2.827v4.778c0,1.108-0.096,2.051-0.288,2.827
		c-0.191,0.776-0.514,1.406-0.967,1.89c-0.454,0.483-1.043,0.831-1.769,1.043c-0.726,0.211-1.633,0.317-2.721,0.317h-4.143V19.035
		h4.143C530.039,19.035,530.945,19.14,531.672,19.352 M522.359,16.797c-0.181,0.121-0.272,0.323-0.272,0.605v20.44
		c0,0.162,0.136,0.292,0.408,0.393c0.272,0.101,0.549,0.151,0.832,0.151h5.624c1.451,0,2.711-0.136,3.779-0.408
		c1.069-0.272,1.955-0.726,2.661-1.361c0.705-0.635,1.229-1.471,1.572-2.509c0.343-1.038,0.515-2.323,0.515-3.856V24.78
		c0-1.532-0.172-2.817-0.515-3.856c-0.343-1.038-0.867-1.874-1.572-2.509c-0.706-0.635-1.592-1.094-2.661-1.376
		c-1.068-0.282-2.328-0.423-3.779-0.423h-5.987C522.742,16.616,522.54,16.676,522.359,16.797"/>
</g>
<metadata><?xpacket begin="?" id="W5M0MpCehiHzreSzNTczkc9d"?>
		<x:xmpmeta xmlns:x="adobe:ns:meta/" x:xmptk="Adobe XMP Core 9.1-c003 1.000000, 0000/00/00-00:00:00        ">
		   <rdf:RDF xmlns:rdf="http://www.w3.org/1999/02/22-rdf-syntax-ns#">
		      <rdf:Description rdf:about=""
		            xmlns:dc="http://purl.org/dc/elements/1.1/"
		            xmlns:xmp="http://ns.adobe.com/xap/1.0/"
		            xmlns:xmpMM="http://ns.adobe.com/xap/1.0/mm/"
		            xmlns:stRef="http://ns.adobe.com/xap/1.0/sType/ResourceRef#"
		            xmlns:stEvt="http://ns.adobe.com/xap/1.0/sType/ResourceEvent#"
		            xmlns:xmpRights="http://ns.adobe.com/xap/1.0/rights/"
		            xmlns:pdf="http://ns.adobe.com/pdf/1.3/">
		         <dc:format>application/pdf</dc:format>
		         <dc:creator>
		            <rdf:Seq>
		               <rdf:li>Deakin Automation v1.79</rdf:li>
		            </rdf:Seq>
		         </dc:creator>
		         <dc:title>
		            <rdf:Alt>
		               <rdf:li xml:lang="x-default">Bus-S Logo Stacked Keyline SVG</rdf:li>
		            </rdf:Alt>
		         </dc:title>
		         <dc:subject>
		            <rdf:Bag>
		               <rdf:li>BUSINESS SCHOOL</rdf:li>
		               <rdf:li>Bus-S</rdf:li>
					   <rdf:li>Stacked Keyline, </rdf:li>
					<rdf:li>branding</rdf:li>
					<rdf:li>wordmark</rdf:li>
		            </rdf:Bag>
		         </dc:subject>
		         <dc:description>
		            <rdf:Alt>
		               <rdf:li xml:lang="x-default">This asset is part of the Masterbrand logo wordmark set for this area of Deakin. Refer to the related items below for alternate formats and file types.</rdf:li>
		            </rdf:Alt>
		         </dc:description>
		      </rdf:Description>
		   </rdf:RDF>
		</x:xmpmeta>
		<?xpacket end="w"?></metadata></svg>
