<?xml version="1.0" encoding="iso-8859-1"?>
<!-- Generator: Adobe Illustrator 30.0.0, SVG Export Plug-In . SVG Version: 9.03 Build 0)  -->
<svg version="1.1" id="Layer_1" xmlns="http://www.w3.org/2000/svg" xmlns:xlink="http://www.w3.org/1999/xlink" x="0px" y="0px"
	 viewBox="0 0 1000 144" style="enable-background:new 0 0 1000 144;" xml:space="preserve">
<g>
	<path d="M258.272,52.334c3.356,0,6.054,0.481,8.095,1.442c2.041,0.962,3.562,2.281,4.563,3.959s1.707,3.665,2.119,5.961
		c0.412,2.296,0.618,5.907,0.618,10.832c0,6.417-0.525,10.955-1.575,13.614c-1.05,2.659-2.713,4.612-4.989,5.858
		c-2.276,1.246-5.416,1.869-9.42,1.869H244.29V52.334H258.272z M253.591,89.07h2.208c2.787,0,4.685-0.378,5.696-1.133
		c1.011-0.756,1.771-2.021,2.281-3.797c0.51-1.776,0.765-4.901,0.765-9.375c0-4.71-0.221-8.139-0.662-10.288
		c-0.442-2.149-1.177-3.591-2.208-4.327c-1.03-0.736-2.88-1.104-5.549-1.104h-2.531V89.07z"/>
	<path d="M302.884,52.334v6.711h-14.659V69.76h13.511v6.711h-13.511V89.07h15.13v6.8h-24.226V52.334H302.884z"/>
	<path d="M328.215,52.334l11.804,43.536h-9.596l-2.414-9.655h-12.393l-2.473,9.655h-9.007l12.069-43.536H328.215z M317.353,79.65
		h8.801l-4.533-18.927L317.353,79.65z"/>
	<path d="M351.103,52.334v18.339l10.715-18.339h10.008l-12.157,19.546l12.157,23.99h-10.244l-10.479-22.018V95.87h-9.155V52.334
		H351.103z"/>
	<path d="M383.294,52.334V95.87h-9.096V52.334H383.294z"/>
	<path d="M401.502,52.334l11.627,30.143V52.334h8.448V95.87h-11.951l-11.922-31.82v31.82h-8.448V52.334H401.502z"/>
	<path d="M454.68,66.08h-8.919v-0.824c0-2.453-0.378-4.224-1.133-5.313c-0.756-1.089-1.83-1.634-3.223-1.634
		c-1.59,0-2.752,0.633-3.488,1.899s-1.222,2.87-1.457,4.813c-0.236,1.943-0.353,5.191-0.353,9.743c0,1.531,0.039,3.576,0.118,6.137
		c0.079,2.561,0.51,4.68,1.295,6.358s2.1,2.517,3.944,2.517c1.55,0,2.723-0.643,3.518-1.928c0.795-1.285,1.192-3.331,1.192-6.137
		v-0.5h8.978v1.266c0,4.612-1.109,8.075-3.326,10.391c-2.218,2.316-5.632,3.473-10.244,3.473c-3.002,0-5.446-0.451-7.33-1.354
		c-1.884-0.903-3.321-2.119-4.312-3.65c-0.991-1.531-1.727-3.483-2.208-5.858c-0.481-2.375-0.721-6.142-0.721-11.303
		c0-4.062,0.128-7.251,0.383-9.567c0.255-2.316,0.829-4.464,1.722-6.446s2.384-3.557,4.474-4.724s4.901-1.751,8.433-1.751
		c4.141,0,7.285,1.055,9.434,3.164s3.223,5.411,3.223,9.905V66.08z"/>
	<path d="M460.981,93.25c-1.913-2.276-2.87-6.446-2.87-12.51c0-4.592,0.437-7.938,1.31-10.038c0.873-2.1,2.203-3.635,3.989-4.607
		s4.101-1.457,6.947-1.457c3.199,0,5.701,0.491,7.506,1.472c1.805,0.981,3.106,2.507,3.9,4.577s1.192,5.176,1.192,9.317
		c0,4.71-0.412,8.139-1.236,10.288s-2.173,3.748-4.047,4.798c-1.874,1.05-4.479,1.575-7.815,1.575
		C465.852,96.664,462.894,95.526,460.981,93.25z M474.389,82.064v-3.562c0-3.473-0.285-5.76-0.854-6.859s-1.55-1.648-2.944-1.648
		c-1.374,0-2.379,0.549-3.017,1.648c-0.638,1.099-0.957,3.307-0.957,6.623v2.296c0,3.905,0.216,6.638,0.648,8.198
		c0.432,1.56,1.501,2.34,3.209,2.34c1.433,0,2.443-0.633,3.032-1.899C474.094,87.937,474.389,85.557,474.389,82.064z"/>
	<path d="M493.98,87.922v7.948h-7.065v-7.948H493.98z"/>
</g>
<rect x="191.647" y="16.746" width="2.018" height="111.427"/>
<path style="fill:#FFFFFF;" d="M73.483,1.477c-39.041,0-70.691,31.56-70.691,70.491s31.649,70.491,70.691,70.491
	s70.691-31.56,70.691-70.491S112.524,1.477,73.483,1.477L73.483,1.477z"/>
<g>
	<g>
		<g>
			<path style="fill:#26231E;" d="M60.032,29.977v18.307c0,7.387,5.99,13.377,13.377,13.377c7.387,0,13.377-5.99,13.377-13.377
				V29.977H60.032z M62.198,51.386l1.705-2.918l1.705,2.918H62.198z M67.804,51.386l-2.795-4.853l1.321-2.227l4.039,7.08H67.804z
				 M72.595,51.386l-5.206-8.985l1.321-2.227l6.404,11.196h-2.519V51.386z M77.356,51.386l-7.587-13.101l1.275-2.15l8.739,15.251
				H77.356z M82.041,51.386L72.135,34.2l1.305-2.196l11.119,19.382H82.041z M33.37,86.004h2.073c3.394,0,3.824-1.997,3.824-7.218
				c0-5.206-0.43-7.203-3.824-7.203H33.37V86.004z M36.273,67.958c5.821,0,7.618,3.087,7.618,10.904s-1.812,10.904-7.633,10.904
				h-7.464V67.958H36.273z M46.271,67.958h11.78v3.701h-7.172v4.654h6.604v3.794h-6.604v5.805h7.188v3.84H46.271V67.958z
				 M70.629,81.12l-2.181-9.015L66.16,81.12H70.629z M71.536,84.913h-6.328l-1.152,4.853h-4.561l6.143-21.809h5.805l6.051,21.809
				h-4.776L71.536,84.913z M78.938,67.958h4.546v9.476l5.667-9.476h4.746L87.6,77.987l6.297,11.78h-5.268l-5.145-10.597v10.597
				h-4.546V67.958L78.938,67.958z M95.909,67.958h4.423v21.794h-4.423V67.958z M107.198,75.483v14.268h-3.932V67.958h5.483
				l5.268,13.423V67.958h3.993v21.794h-5.007L107.198,75.483z M35.735,102.361v-7.464c0-0.061,0.061-0.123,0.169-0.169
				c0.123-0.046,0.261-0.092,0.415-0.123c0.169-0.031,0.338-0.061,0.491-0.077c0.169-0.015,0.292-0.031,0.399-0.031
				c0.138,0,0.261,0.046,0.353,0.154c0.092,0.108,0.138,0.215,0.138,0.338v7.464c0,0.814-0.092,1.49-0.276,2.043
				s-0.445,0.983-0.814,1.336c-0.369,0.338-0.829,0.584-1.382,0.722c-0.553,0.138-1.213,0.215-1.951,0.215H33.14
				c-0.722,0-1.367-0.077-1.904-0.215c-0.553-0.138-0.998-0.384-1.367-0.722s-0.63-0.783-0.814-1.336
				c-0.184-0.538-0.276-1.229-0.276-2.043v-7.556c0-0.061,0.061-0.123,0.169-0.169c0.123-0.046,0.246-0.092,0.415-0.123
				c0.154-0.031,0.323-0.061,0.491-0.077s0.307-0.031,0.399-0.031c0.138,0,0.246,0.046,0.353,0.154
				c0.092,0.108,0.154,0.215,0.154,0.338v7.357c0,0.476,0.031,0.875,0.108,1.213s0.2,0.614,0.384,0.814
				c0.184,0.215,0.43,0.369,0.737,0.461s0.691,0.154,1.152,0.154h0.138c0.476,0,0.86-0.046,1.183-0.154
				c0.307-0.108,0.568-0.261,0.753-0.461c0.184-0.215,0.323-0.476,0.399-0.814C35.705,103.236,35.735,102.837,35.735,102.361
				 M47.162,103.098v-8.294c0-0.061,0.061-0.123,0.184-0.154c0.123-0.046,0.261-0.077,0.43-0.092
				c0.169-0.015,0.338-0.031,0.507-0.046s0.307-0.015,0.399-0.015c0.292,0,0.43,0.169,0.43,0.491v11.334
				c0,0.138-0.046,0.23-0.154,0.307c-0.108,0.077-0.215,0.123-0.338,0.123c-0.092,0-0.2,0-0.353-0.015
				c-0.154-0.015-0.292-0.015-0.445-0.046c-0.154-0.031-0.276-0.061-0.399-0.092c-0.123-0.046-0.2-0.092-0.246-0.154l-5.36-8.247
				v8.125c0,0.138-0.046,0.246-0.154,0.323c-0.092,0.077-0.215,0.123-0.353,0.123c-0.092,0-0.23,0-0.399-0.015
				s-0.338-0.031-0.491-0.046c-0.154-0.015-0.292-0.061-0.399-0.108c-0.123-0.046-0.169-0.108-0.169-0.169V94.866
				c0-0.061,0.061-0.123,0.169-0.169c0.123-0.046,0.246-0.092,0.399-0.108s0.307-0.031,0.476-0.046
				c0.169-0.015,0.292-0.015,0.399-0.015c0.123,0,0.23,0.031,0.307,0.108c0.077,0.077,0.154,0.154,0.2,0.246L47.162,103.098z
				 M53.213,106.323c0,0.138-0.046,0.246-0.154,0.323c-0.092,0.077-0.215,0.123-0.369,0.123c-0.092,0-0.23,0-0.399-0.015
				c-0.169-0.015-0.323-0.031-0.491-0.046c-0.154-0.015-0.292-0.061-0.415-0.108s-0.169-0.108-0.169-0.169V94.866
				c0-0.061,0.061-0.123,0.169-0.169c0.123-0.046,0.246-0.092,0.415-0.108c0.154-0.015,0.323-0.046,0.491-0.046
				c0.169-0.015,0.292-0.015,0.399-0.015c0.138,0,0.261,0.046,0.369,0.138c0.092,0.092,0.154,0.2,0.154,0.323V106.323z
				 M59.602,103.405l2.488-8.555c0.154-0.154,0.338-0.246,0.538-0.292c0.2-0.031,0.43-0.061,0.706-0.061c0.108,0,0.23,0,0.338,0.015
				c0.123,0.015,0.215,0.031,0.292,0.077c0.077,0.046,0.138,0.092,0.184,0.169c0.046,0.077,0.031,0.169,0,0.307l-3.824,11.442
				c-0.015,0.092-0.077,0.154-0.169,0.2c-0.092,0.046-0.184,0.061-0.292,0.061c-0.369,0-0.676-0.015-0.922-0.061
				c-0.246-0.046-0.399-0.108-0.461-0.184l-3.809-11.457c-0.031-0.108-0.031-0.2,0-0.276c0.031-0.077,0.077-0.123,0.154-0.169
				c0.061-0.046,0.138-0.077,0.23-0.092c0.077-0.015,0.154-0.031,0.2-0.031c0.169,0,0.338,0,0.507,0.015s0.323,0.031,0.476,0.061
				c0.138,0.031,0.261,0.077,0.369,0.123c0.092,0.061,0.169,0.123,0.2,0.215l2.549,8.478c0.046,0.138,0.077,0.276,0.092,0.415
				c0.015,0.154,0.031,0.276,0.061,0.399c0.015-0.123,0.031-0.261,0.046-0.399C59.525,103.666,59.556,103.528,59.602,103.405
				 M65.653,106.231V95.111c0-0.138,0.046-0.246,0.154-0.323c0.092-0.077,0.215-0.108,0.369-0.108h6.619
				c0.123,0,0.23,0.046,0.307,0.154c0.077,0.092,0.123,0.215,0.123,0.338c0,0.092,0,0.2-0.015,0.353
				c-0.015,0.154-0.031,0.292-0.046,0.43s-0.061,0.261-0.092,0.353c-0.046,0.092-0.108,0.154-0.169,0.154H67.65v3.195h4.5
				c0.108,0,0.2,0.046,0.292,0.138c0.077,0.092,0.123,0.2,0.123,0.323c0,0.092,0,0.2-0.015,0.353
				c-0.015,0.154-0.031,0.292-0.046,0.43c-0.015,0.138-0.061,0.261-0.092,0.369c-0.046,0.092-0.092,0.154-0.169,0.154h-4.608v3.379
				h5.145c0.123,0,0.23,0.046,0.307,0.138c0.077,0.092,0.123,0.2,0.123,0.338c0,0.092,0,0.2-0.015,0.353
				c-0.015,0.138-0.031,0.292-0.046,0.43c-0.015,0.138-0.061,0.261-0.092,0.369c-0.046,0.108-0.108,0.154-0.169,0.154h-6.481
				c-0.154,0-0.323-0.031-0.491-0.108C65.73,106.384,65.653,106.308,65.653,106.231 M75.329,106.415V95.111
				c0-0.123,0.046-0.215,0.154-0.307c0.108-0.077,0.215-0.123,0.369-0.123h3.64c0.753,0,1.398,0.061,1.935,0.169
				c0.538,0.108,0.968,0.307,1.305,0.584s0.584,0.645,0.737,1.106c0.154,0.461,0.23,1.029,0.23,1.735v0.369
				c0,0.522-0.046,0.968-0.123,1.352c-0.077,0.384-0.215,0.722-0.384,0.998c-0.169,0.276-0.415,0.491-0.706,0.66
				c-0.292,0.169-0.645,0.292-1.044,0.384L83.73,106c0.123,0.215,0.184,0.369,0.184,0.476c0,0.061-0.031,0.123-0.077,0.169
				c-0.061,0.046-0.123,0.077-0.184,0.092c-0.061,0.015-0.138,0.031-0.2,0.046c-0.077,0-0.123,0.015-0.154,0.015
				c-0.092,0-0.23,0-0.384-0.015c-0.154-0.015-0.307-0.031-0.461-0.061c-0.154-0.031-0.307-0.061-0.43-0.123
				c-0.123-0.061-0.215-0.138-0.276-0.23l-2.427-4.147h-2.027v4.147c0,0.138-0.046,0.23-0.154,0.307
				c-0.092,0.077-0.215,0.123-0.353,0.123c-0.092,0-0.23,0-0.399-0.015c-0.169-0.015-0.323-0.031-0.491-0.046
				c-0.154-0.015-0.292-0.061-0.415-0.108C75.391,106.538,75.329,106.492,75.329,106.415 M79.599,96.448H77.31v3.978h2.288
				c0.445,0,0.814-0.031,1.075-0.077c0.276-0.046,0.476-0.138,0.63-0.276c0.154-0.138,0.246-0.307,0.292-0.538
				c0.046-0.23,0.077-0.538,0.077-0.906V98.26c0-0.369-0.031-0.676-0.077-0.922c-0.046-0.23-0.154-0.415-0.292-0.553
				c-0.154-0.138-0.353-0.215-0.63-0.276C80.397,96.478,80.044,96.448,79.599,96.448 M85.911,104.741
				c0.092,0.015,0.215,0.061,0.399,0.092c0.184,0.046,0.384,0.092,0.63,0.138c0.23,0.046,0.491,0.077,0.783,0.123
				c0.276,0.031,0.568,0.046,0.845,0.046c0.307,0,0.599-0.031,0.875-0.077c0.276-0.046,0.538-0.138,0.753-0.246
				c0.215-0.123,0.399-0.276,0.522-0.461c0.138-0.2,0.2-0.43,0.2-0.722c0-0.399-0.123-0.737-0.384-1.014
				c-0.261-0.276-0.584-0.538-0.968-0.783c-0.384-0.246-0.814-0.491-1.275-0.737c-0.461-0.246-0.875-0.538-1.275-0.86
				s-0.722-0.706-0.968-1.152c-0.261-0.445-0.384-0.983-0.384-1.628c0-0.538,0.092-0.998,0.292-1.367
				c0.2-0.369,0.461-0.676,0.799-0.922c0.338-0.23,0.753-0.415,1.213-0.522c0.476-0.108,0.998-0.169,1.567-0.169
				c0.123,0,0.307,0,0.553,0.015s0.507,0.031,0.783,0.061c0.276,0.031,0.553,0.061,0.814,0.108c0.276,0.046,0.491,0.108,0.645,0.184
				c0.154,0.061,0.246,0.138,0.276,0.215s0.031,0.2,0.015,0.384c-0.015,0.292-0.077,0.522-0.184,0.722
				c-0.092,0.2-0.23,0.276-0.415,0.246c-0.276-0.061-0.584-0.108-0.937-0.169c-0.353-0.046-0.753-0.077-1.183-0.077
				c-0.676,0-1.244,0.108-1.674,0.292c-0.43,0.2-0.645,0.522-0.645,0.983c0,0.369,0.123,0.676,0.384,0.937s0.584,0.507,0.968,0.737
				c0.384,0.23,0.814,0.476,1.275,0.722c0.461,0.246,0.875,0.538,1.275,0.875c0.384,0.338,0.722,0.737,0.968,1.198
				c0.261,0.461,0.384,1.044,0.384,1.705c0,0.63-0.123,1.152-0.353,1.551c-0.23,0.415-0.553,0.722-0.937,0.952
				s-0.845,0.384-1.352,0.476c-0.507,0.092-1.044,0.138-1.597,0.138c-0.246,0-0.522-0.015-0.799-0.031
				c-0.276-0.015-0.538-0.046-0.814-0.077c-0.261-0.031-0.507-0.077-0.753-0.123c-0.23-0.046-0.43-0.092-0.599-0.154
				c-0.169-0.061-0.261-0.123-0.292-0.184c-0.031-0.077-0.046-0.2-0.015-0.369c0.031-0.323,0.092-0.599,0.184-0.814
				C85.635,104.802,85.757,104.695,85.911,104.741 M96.984,106.323c0,0.138-0.046,0.246-0.154,0.323
				c-0.092,0.077-0.215,0.123-0.369,0.123c-0.092,0-0.23,0-0.399-0.015c-0.169-0.015-0.323-0.031-0.491-0.046
				c-0.154-0.015-0.292-0.061-0.415-0.108c-0.108-0.046-0.169-0.108-0.169-0.169V94.866c0-0.061,0.061-0.123,0.169-0.169
				c0.123-0.046,0.261-0.092,0.415-0.108c0.154-0.015,0.323-0.046,0.491-0.046c0.169-0.015,0.292-0.015,0.399-0.015
				c0.138,0,0.261,0.046,0.369,0.138c0.092,0.092,0.154,0.2,0.154,0.323V106.323z M104.08,96.463v9.86
				c0,0.138-0.046,0.246-0.154,0.323c-0.108,0.077-0.215,0.123-0.353,0.123c-0.092,0-0.23,0-0.399-0.015
				c-0.169-0.015-0.338-0.031-0.491-0.046c-0.154-0.015-0.292-0.061-0.399-0.108c-0.123-0.046-0.169-0.108-0.169-0.169v-9.952
				h-3.041c-0.123,0-0.215-0.046-0.307-0.138c-0.077-0.092-0.123-0.2-0.123-0.338c0-0.092,0-0.2,0.015-0.353
				c0.015-0.138,0.031-0.292,0.046-0.43c0.015-0.138,0.061-0.261,0.092-0.369c0.046-0.092,0.092-0.154,0.169-0.154h8.14
				c0.123,0,0.215,0.046,0.307,0.138c0.077,0.092,0.123,0.215,0.123,0.338c0,0.092,0,0.2-0.015,0.353
				c-0.015,0.154-0.031,0.292-0.046,0.43c-0.015,0.138-0.046,0.261-0.092,0.353c-0.046,0.092-0.092,0.154-0.169,0.154H104.08z
				 M114.585,102.207v4.116c0,0.138-0.046,0.246-0.154,0.323c-0.092,0.077-0.215,0.123-0.369,0.123c-0.092,0-0.23,0-0.384-0.015
				c-0.154-0.015-0.323-0.031-0.476-0.046c-0.154-0.015-0.292-0.061-0.415-0.108c-0.108-0.046-0.169-0.108-0.169-0.169v-4.208
				l-3.594-7.019c-0.123-0.246-0.138-0.415-0.046-0.522c0.092-0.108,0.261-0.169,0.507-0.169c0.154,0,0.307,0,0.476,0.015
				c0.154,0,0.307,0.015,0.445,0.046c0.138,0.015,0.261,0.046,0.353,0.077c0.092,0.031,0.169,0.077,0.2,0.154l2.642,5.391
				l2.642-5.375c0.031-0.061,0.092-0.123,0.2-0.154c0.092-0.031,0.215-0.061,0.353-0.092c0.138-0.015,0.292-0.031,0.445-0.046
				c0.154,0,0.323-0.015,0.476-0.015c0.246,0,0.415,0.046,0.507,0.154c0.077,0.108,0.061,0.276-0.061,0.538L114.585,102.207z"/>
		</g>
		<path d="M73.483,3.152c38.056,0,69.016,30.871,69.016,68.816s-30.961,68.816-69.016,68.816S4.466,109.914,4.466,71.968
			S35.427,3.152,73.483,3.152 M73.483,1.477c-39.041,0-70.691,31.56-70.691,70.491s31.649,70.491,70.691,70.491
			s70.691-31.56,70.691-70.491S112.524,1.477,73.483,1.477L73.483,1.477z"/>
	</g>
</g>
</svg>
