<?xml version="1.0" encoding="iso-8859-1"?>
<!-- Generator: Adobe Illustrator 29.5.1, SVG Export Plug-In . SVG Version: 9.03 Build 0)  -->
<svg version="1.1" id="Layer_1" xmlns="http://www.w3.org/2000/svg" xmlns:xlink="http://www.w3.org/1999/xlink" x="0px" y="0px"
	 viewBox="0 0 720 144" style="enable-background:new 0 0 720 144;" xml:space="preserve">
<g>
	<defs>
		<rect id="SVGID_1_" width="720" height="144"/>
	</defs>
	<clipPath id="SVGID_00000036250456794707288940000005039641598191923851_">
		<use xlink:href="#SVGID_1_"  style="overflow:visible;"/>
	</clipPath>
	<path style="clip-path:url(#SVGID_00000036250456794707288940000005039641598191923851_);fill:#FFFFFF;" d="M72.921,1.3
		C33.757,1.3,2.008,32.959,2.008,72.012s31.749,70.712,70.913,70.712s70.912-31.659,70.912-70.712S112.085,1.3,72.921,1.3"/>
	<path style="clip-path:url(#SVGID_00000036250456794707288940000005039641598191923851_);fill:#FFFFFF;" d="M72.921,2.98
		c38.175,0,69.233,30.968,69.233,69.032s-31.058,69.032-69.233,69.032S3.688,110.076,3.688,72.012S34.746,2.98,72.921,2.98"/>
</g>
<rect x="191.456" y="16.617" style="fill:#FFFFFF;" width="2" height="111.776"/>
<g>
	<defs>
		<rect id="SVGID_00000155851600527102285530000015979773058046581689_" width="720" height="144"/>
	</defs>
	<clipPath id="SVGID_00000153706990562838216300000003313218722198492319_">
		<use xlink:href="#SVGID_00000155851600527102285530000015979773058046581689_"  style="overflow:visible;"/>
	</clipPath>
	<path style="clip-path:url(#SVGID_00000153706990562838216300000003313218722198492319_);" d="M114.152,102.346v4.129
		c0,0.138-0.046,0.246-0.154,0.323c-0.093,0.077-0.216,0.123-0.37,0.123c-0.092,0-0.231,0-0.385-0.015
		c-0.154-0.015-0.323-0.031-0.478-0.046c-0.154-0.015-0.292-0.062-0.416-0.108c-0.107-0.046-0.169-0.108-0.169-0.169v-4.222
		l-3.605-7.041c-0.123-0.246-0.139-0.416-0.046-0.523c0.092-0.108,0.262-0.17,0.508-0.17c0.154,0,0.308,0,0.478,0.015
		c0.154,0,0.308,0.016,0.446,0.047c0.139,0.015,0.262,0.046,0.355,0.077c0.092,0.031,0.169,0.077,0.2,0.154l2.65,5.408l2.65-5.393
		c0.031-0.061,0.092-0.123,0.2-0.154c0.093-0.031,0.216-0.061,0.355-0.092c0.138-0.016,0.292-0.031,0.446-0.047
		c0.154,0,0.324-0.015,0.478-0.015c0.246,0,0.416,0.046,0.508,0.154c0.077,0.108,0.062,0.277-0.061,0.539L114.152,102.346z
		 M103.615,96.584v9.891c0,0.138-0.046,0.246-0.154,0.323c-0.108,0.077-0.216,0.123-0.354,0.123c-0.093,0-0.231,0-0.401-0.015
		c-0.17-0.015-0.339-0.031-0.493-0.046s-0.293-0.062-0.401-0.108c-0.123-0.046-0.169-0.108-0.169-0.169v-9.984h-3.051
		c-0.123,0-0.215-0.046-0.308-0.139c-0.077-0.092-0.123-0.2-0.123-0.338c0-0.093,0-0.201,0.015-0.355
		c0.016-0.138,0.031-0.292,0.047-0.431c0.015-0.139,0.061-0.262,0.092-0.37c0.046-0.092,0.093-0.154,0.17-0.154h8.165
		c0.123,0,0.216,0.046,0.308,0.139c0.077,0.092,0.123,0.215,0.123,0.339c0,0.092,0,0.2-0.015,0.354s-0.031,0.293-0.046,0.431
		c-0.016,0.139-0.046,0.262-0.093,0.355c-0.046,0.092-0.092,0.154-0.169,0.154H103.615z M96.497,106.475
		c0,0.138-0.046,0.246-0.154,0.323c-0.092,0.077-0.216,0.123-0.37,0.123c-0.092,0-0.231,0-0.4-0.015
		c-0.17-0.015-0.324-0.031-0.493-0.046c-0.154-0.015-0.293-0.062-0.416-0.108c-0.108-0.046-0.17-0.108-0.17-0.169V94.981
		c0-0.061,0.062-0.123,0.17-0.169c0.123-0.046,0.262-0.092,0.416-0.108c0.154-0.015,0.323-0.046,0.493-0.046
		c0.169-0.016,0.292-0.016,0.4-0.016c0.139,0,0.262,0.047,0.37,0.139c0.092,0.093,0.154,0.2,0.154,0.324V106.475z M85.389,104.888
		c0.092,0.015,0.216,0.061,0.401,0.092c0.185,0.047,0.385,0.093,0.631,0.139c0.231,0.046,0.493,0.077,0.786,0.123
		c0.277,0.031,0.57,0.046,0.847,0.046c0.309,0,0.601-0.03,0.878-0.077c0.278-0.046,0.54-0.138,0.755-0.246
		c0.216-0.123,0.401-0.277,0.524-0.462c0.139-0.201,0.201-0.432,0.201-0.724c0-0.401-0.124-0.74-0.386-1.017
		c-0.261-0.278-0.585-0.539-0.97-0.786c-0.385-0.246-0.817-0.493-1.279-0.739c-0.462-0.247-0.878-0.54-1.279-0.863
		c-0.4-0.324-0.724-0.709-0.97-1.156c-0.262-0.447-0.385-0.986-0.385-1.633c0-0.539,0.092-1.001,0.292-1.371
		c0.2-0.37,0.463-0.678,0.801-0.924c0.339-0.232,0.755-0.416,1.218-0.524c0.477-0.108,1.001-0.17,1.571-0.17
		c0.123,0,0.308,0,0.555,0.016c0.246,0.015,0.508,0.03,0.785,0.061c0.278,0.031,0.555,0.062,0.817,0.108
		c0.277,0.046,0.493,0.108,0.647,0.185c0.154,0.062,0.247,0.139,0.277,0.216c0.031,0.077,0.031,0.2,0.016,0.385
		c-0.016,0.293-0.077,0.524-0.185,0.724c-0.093,0.2-0.231,0.277-0.416,0.246c-0.278-0.061-0.586-0.107-0.94-0.169
		c-0.354-0.046-0.755-0.077-1.186-0.077c-0.678,0-1.248,0.108-1.68,0.293c-0.431,0.2-0.647,0.523-0.647,0.986
		c0,0.369,0.124,0.678,0.386,0.939c0.261,0.263,0.585,0.509,0.97,0.74s0.817,0.478,1.279,0.724c0.462,0.247,0.878,0.539,1.279,0.878
		c0.385,0.339,0.724,0.74,0.97,1.202c0.262,0.462,0.385,1.048,0.385,1.71c0,0.632-0.123,1.156-0.354,1.556
		c-0.231,0.416-0.555,0.724-0.94,0.955c-0.385,0.232-0.847,0.386-1.356,0.478c-0.508,0.093-1.047,0.139-1.602,0.139
		c-0.246,0-0.524-0.016-0.801-0.031s-0.539-0.046-0.817-0.077c-0.261-0.031-0.508-0.077-0.754-0.123
		c-0.232-0.047-0.432-0.093-0.601-0.154c-0.17-0.062-0.262-0.124-0.293-0.185c-0.031-0.077-0.046-0.201-0.015-0.37
		c0.03-0.324,0.092-0.601,0.184-0.817C85.112,104.949,85.234,104.842,85.389,104.888 M79.057,96.568H76.76v3.991h2.296
		c0.447,0,0.816-0.031,1.078-0.077c0.278-0.047,0.478-0.139,0.632-0.278c0.154-0.138,0.247-0.308,0.293-0.539
		s0.077-0.539,0.077-0.909v-0.37c0-0.369-0.031-0.678-0.077-0.924c-0.046-0.231-0.154-0.416-0.293-0.555
		c-0.154-0.138-0.354-0.215-0.632-0.277C79.857,96.599,79.504,96.568,79.057,96.568 M74.773,106.567V95.228
		c0-0.123,0.046-0.216,0.154-0.308c0.108-0.077,0.216-0.123,0.37-0.123h3.651c0.755,0,1.402,0.061,1.941,0.169
		c0.539,0.108,0.971,0.308,1.31,0.585c0.339,0.278,0.585,0.648,0.739,1.11c0.155,0.462,0.231,1.032,0.231,1.741v0.37
		c0,0.523-0.046,0.97-0.123,1.355s-0.216,0.724-0.385,1.002c-0.169,0.277-0.416,0.493-0.709,0.662
		c-0.292,0.17-0.647,0.293-1.047,0.385l2.295,3.975c0.124,0.216,0.185,0.37,0.185,0.478c0,0.061-0.031,0.123-0.077,0.169
		c-0.061,0.047-0.123,0.077-0.185,0.093c-0.061,0.015-0.138,0.03-0.2,0.046c-0.077,0-0.123,0.015-0.154,0.015
		c-0.093,0-0.231,0-0.385-0.015c-0.154-0.016-0.308-0.031-0.462-0.062c-0.154-0.03-0.309-0.061-0.432-0.123
		c-0.123-0.062-0.216-0.139-0.277-0.231l-2.434-4.16h-2.034v4.16c0,0.139-0.046,0.231-0.154,0.308
		c-0.093,0.077-0.216,0.123-0.354,0.123c-0.093,0-0.232,0-0.401-0.015c-0.17-0.016-0.324-0.031-0.493-0.046
		c-0.154-0.016-0.293-0.062-0.416-0.108C74.836,106.69,74.773,106.644,74.773,106.567 M65.068,106.382V95.228
		c0-0.139,0.046-0.247,0.154-0.324c0.092-0.077,0.216-0.107,0.37-0.107h6.64c0.123,0,0.231,0.046,0.308,0.154
		c0.077,0.092,0.123,0.215,0.123,0.339c0,0.092,0,0.2-0.015,0.354c-0.016,0.154-0.031,0.293-0.046,0.431
		c-0.016,0.139-0.062,0.262-0.093,0.355c-0.046,0.092-0.108,0.154-0.169,0.154h-5.269v3.204h4.514c0.108,0,0.2,0.047,0.292,0.139
		c0.078,0.092,0.124,0.2,0.124,0.323c0,0.093,0,0.201-0.016,0.355c-0.015,0.154-0.03,0.292-0.046,0.431
		c-0.015,0.139-0.062,0.262-0.092,0.37c-0.047,0.092-0.093,0.154-0.17,0.154h-4.622v3.389h5.161c0.124,0,0.232,0.047,0.309,0.139
		c0.077,0.093,0.123,0.2,0.123,0.339c0,0.092,0,0.2-0.016,0.354c-0.015,0.139-0.03,0.293-0.046,0.432
		c-0.015,0.138-0.061,0.262-0.092,0.37c-0.046,0.107-0.108,0.154-0.17,0.154h-6.501c-0.154,0-0.324-0.031-0.493-0.108
		C65.145,106.536,65.068,106.459,65.068,106.382 M58.998,103.547l2.496-8.581c0.154-0.154,0.339-0.246,0.539-0.293
		c0.2-0.031,0.431-0.061,0.709-0.061c0.107,0,0.231,0,0.338,0.015c0.124,0.015,0.216,0.031,0.293,0.077
		c0.077,0.046,0.139,0.093,0.185,0.17c0.046,0.077,0.031,0.169,0,0.308l-3.836,11.478c-0.016,0.092-0.077,0.154-0.17,0.2
		c-0.092,0.046-0.185,0.061-0.292,0.061c-0.37,0-0.678-0.015-0.925-0.061c-0.246-0.046-0.4-0.108-0.462-0.185l-3.821-11.493
		c-0.031-0.108-0.031-0.201,0-0.278c0.031-0.077,0.077-0.123,0.154-0.169c0.062-0.046,0.139-0.077,0.231-0.093
		c0.077-0.015,0.154-0.03,0.201-0.03c0.169,0,0.339,0,0.508,0.015c0.17,0.015,0.324,0.031,0.478,0.062
		c0.138,0.031,0.262,0.077,0.369,0.123c0.093,0.062,0.17,0.123,0.201,0.216l2.557,8.504c0.046,0.139,0.077,0.277,0.093,0.416
		c0.015,0.154,0.031,0.277,0.061,0.401c0.016-0.124,0.031-0.262,0.046-0.401C58.921,103.809,58.951,103.671,58.998,103.547
		 M52.589,106.475c0,0.138-0.047,0.246-0.154,0.323c-0.093,0.077-0.216,0.123-0.37,0.123c-0.093,0-0.231,0-0.401-0.015
		c-0.169-0.015-0.323-0.031-0.493-0.046c-0.154-0.015-0.293-0.062-0.416-0.108s-0.169-0.108-0.169-0.169V94.981
		c0-0.061,0.061-0.123,0.169-0.169c0.123-0.046,0.247-0.092,0.416-0.108c0.154-0.015,0.324-0.046,0.493-0.046
		c0.17-0.016,0.293-0.016,0.401-0.016c0.138,0,0.262,0.047,0.37,0.139c0.092,0.093,0.154,0.2,0.154,0.324V106.475z M46.518,103.239
		V94.92c0-0.062,0.062-0.123,0.185-0.154c0.124-0.046,0.262-0.077,0.432-0.093c0.169-0.015,0.339-0.031,0.508-0.046
		c0.17-0.015,0.308-0.015,0.401-0.015c0.292,0,0.431,0.169,0.431,0.493v11.37c0,0.138-0.046,0.231-0.154,0.308
		c-0.108,0.077-0.216,0.123-0.339,0.123c-0.092,0-0.2,0-0.354-0.015c-0.154-0.016-0.293-0.016-0.447-0.046
		c-0.154-0.031-0.278-0.062-0.401-0.093c-0.123-0.046-0.2-0.092-0.246-0.154l-5.377-8.273v8.15c0,0.138-0.046,0.246-0.154,0.323
		c-0.092,0.077-0.216,0.123-0.355,0.123c-0.092,0-0.231,0-0.4-0.015c-0.17-0.015-0.339-0.031-0.493-0.046s-0.293-0.062-0.401-0.108
		c-0.123-0.046-0.169-0.108-0.169-0.169V94.981c0-0.061,0.061-0.123,0.169-0.169c0.124-0.046,0.247-0.092,0.401-0.108
		c0.154-0.015,0.308-0.031,0.477-0.046c0.17-0.016,0.293-0.016,0.401-0.016c0.123,0,0.231,0.031,0.308,0.108
		c0.077,0.077,0.154,0.154,0.201,0.247L46.518,103.239z M35.056,102.5v-7.488c0-0.061,0.062-0.123,0.169-0.169
		c0.124-0.046,0.262-0.093,0.416-0.123c0.17-0.031,0.339-0.062,0.493-0.078c0.17-0.015,0.293-0.03,0.401-0.03
		c0.139,0,0.262,0.046,0.354,0.154c0.093,0.108,0.139,0.215,0.139,0.339v7.487c0,0.817-0.092,1.495-0.277,2.049
		c-0.185,0.555-0.447,0.986-0.817,1.341c-0.37,0.339-0.832,0.585-1.386,0.724c-0.555,0.139-1.218,0.215-1.957,0.215h-0.139
		c-0.724,0-1.371-0.076-1.91-0.215c-0.555-0.139-1.002-0.385-1.371-0.724c-0.37-0.339-0.632-0.786-0.817-1.341
		c-0.185-0.539-0.277-1.232-0.277-2.049v-7.58c0-0.061,0.061-0.123,0.169-0.169c0.124-0.046,0.247-0.093,0.416-0.123
		c0.154-0.031,0.324-0.062,0.493-0.078c0.17-0.015,0.308-0.03,0.401-0.03c0.138,0,0.246,0.046,0.354,0.154
		c0.093,0.108,0.154,0.215,0.154,0.339v7.379c0,0.478,0.031,0.879,0.108,1.218c0.077,0.338,0.2,0.616,0.385,0.816
		c0.185,0.216,0.432,0.37,0.74,0.462c0.308,0.093,0.693,0.154,1.155,0.154h0.139c0.478,0,0.863-0.046,1.186-0.154
		c0.308-0.108,0.57-0.262,0.755-0.462c0.185-0.216,0.324-0.478,0.401-0.816C35.025,103.378,35.056,102.978,35.056,102.5
		 M106.742,75.538v14.313h-3.944V67.989h5.5l5.285,13.466V67.989h4.006v21.862h-5.023L106.742,75.538z M95.419,67.989h4.437v21.862
		h-4.437V67.989z M78.395,67.989h4.56v9.506l5.685-9.506h4.76L87.084,78.05L93.4,89.867h-5.284l-5.161-10.631v10.631h-4.56V67.989z
		 M70.967,84.998H64.62l-1.156,4.869h-4.575l6.162-21.878h5.824l6.07,21.878h-4.791L70.967,84.998z M70.06,81.193l-2.188-9.044
		l-2.296,9.044H70.06z M45.625,67.989h11.817v3.713h-7.195v4.668h6.625v3.806h-6.625v5.823h7.21v3.852H45.625V67.989z
		 M35.595,67.989c5.839,0,7.642,3.097,7.642,10.939s-1.818,10.939-7.657,10.939h-7.488V67.989H35.595z M32.683,86.092h2.08
		c3.405,0,3.836-2.003,3.836-7.241c0-5.223-0.431-7.226-3.836-7.226h-2.08V86.092z M81.507,51.366l-9.938-17.24l1.31-2.203
		l11.154,19.443H81.507z M76.808,51.366l-7.611-13.142l1.279-2.157l8.766,15.299H76.808z M72.032,51.366l-5.223-9.013l1.325-2.234
		l6.424,11.231h-2.526V51.366z M67.225,51.366l-2.804-4.869l1.325-2.234l4.052,7.103H67.225z M61.601,51.366l1.71-2.928l1.711,2.928
		H61.601z M59.429,29.889v18.365c0,7.41,6.009,13.419,13.419,13.419c7.411,0,13.419-6.009,13.419-13.419V29.889H59.429z"/>
	<path style="clip-path:url(#SVGID_00000153706990562838216300000003313218722198492319_);fill:#FFFFFF;" d="M448.887,94.73
		l8.558,20.805v12.07h6.98v-12.07l9.136-20.805h-7.002l-5.246,13.892l-4.912-13.892H448.887z M433.866,99.798h1.467
		c2.089,0,3.453,0.333,4.09,1c0.637,0.667,0.956,1.815,0.956,3.445c0,1.645-0.323,2.838-0.967,3.579
		c-0.645,0.741-1.96,1.111-3.946,1.111h-1.6V99.798z M426.953,94.73v32.875h6.913v-13.603h1.333c2.06,0,3.46,0.352,4.202,1.055
		c0.74,0.704,1.111,2.005,1.111,3.901v5.046c0,0.889,0.052,1.545,0.156,1.967c0.103,0.423,0.296,0.967,0.578,1.634h6.735
		c-0.149-0.444-0.256-1.03-0.323-1.756c-0.066-0.726-0.122-1.489-0.166-2.289l-0.334-5.646c-0.133-2.119-0.604-3.653-1.411-4.602
		c-0.808-0.948-2.294-1.57-4.457-1.867c2.03-0.385,3.531-1.23,4.501-2.534c0.971-1.304,1.456-3.126,1.456-5.468
		c0-2.964-0.726-5.157-2.178-6.58c-1.453-1.422-3.683-2.133-6.691-2.133H426.953z M405.089,94.73v32.875h18.294v-5.134h-11.425
		v-9.514h10.203v-5.068h-10.203v-8.091h11.069V94.73H405.089z M377.221,94.73l8.113,32.875h8.047l8.691-32.875h-6.78l-5.779,23.917
		l-5.135-23.917H377.221z M359.684,108.933c0-3.897,0.311-6.56,0.934-7.991c0.622-1.43,1.77-2.145,3.445-2.145
		c1.704,0,2.864,0.671,3.479,2.012c0.615,1.341,0.922,3.509,0.922,6.502v3.134c0,2.164-0.041,4.268-0.122,6.313
		c-0.082,2.045-0.422,3.649-1.022,4.812c-0.601,1.164-1.701,1.745-3.301,1.745c-1.142,0-2.02-0.341-2.634-1.022
		c-0.615-0.682-1.053-1.734-1.312-3.157c-0.259-1.422-0.389-3.897-0.389-7.424V108.933z M363.908,128.205
		c2.074,0,3.808-0.244,5.201-0.733c1.393-0.489,2.515-1.182,3.368-2.078c0.852-0.897,1.492-2.004,1.922-3.324
		c0.43-1.318,0.719-2.734,0.867-4.245c0.148-1.512,0.223-3.809,0.223-6.891c0-3.438-0.112-6.035-0.334-7.791
		c-0.222-1.756-0.686-3.342-1.389-4.757c-0.704-1.415-1.838-2.523-3.401-3.323c-1.564-0.8-3.679-1.2-6.346-1.2
		c-2.683,0-4.865,0.519-6.547,1.556c-1.682,1.037-2.9,2.675-3.656,4.912c-0.756,2.238-1.134,5.713-1.134,10.425
		c0,4.001,0.189,6.939,0.567,8.814s0.952,3.427,1.723,4.657c0.77,1.23,1.885,2.2,3.345,2.911
		C359.776,127.85,361.639,128.205,363.908,128.205 M348.934,104.11c0-3.393-0.812-5.887-2.434-7.48
		c-1.623-1.593-3.998-2.389-7.125-2.389c-2.667,0-4.79,0.441-6.368,1.322c-1.578,0.882-2.705,2.071-3.379,3.568
		s-1.108,3.119-1.3,4.868c-0.193,1.749-0.289,4.156-0.289,7.224c0,3.898,0.181,6.743,0.545,8.536
		c0.363,1.793,0.918,3.267,1.667,4.423c0.748,1.156,1.834,2.075,3.256,2.756c1.423,0.682,3.268,1.023,5.535,1.023
		c3.482,0,6.061-0.874,7.735-2.623c1.675-1.748,2.512-4.364,2.512-7.847v-0.955h-6.779v0.377c0,2.12-0.3,3.665-0.901,4.635
		c-0.6,0.971-1.485,1.456-2.656,1.456c-1.393,0-2.386-0.634-2.978-1.901c-0.593-1.267-0.919-2.867-0.979-4.801
		c-0.059-1.934-0.088-3.479-0.088-4.634c0-3.438,0.088-5.891,0.266-7.358c0.178-1.467,0.545-2.679,1.101-3.634
		c0.555-0.956,1.433-1.434,2.634-1.434c1.052,0,1.863,0.411,2.434,1.234c0.57,0.822,0.855,2.16,0.855,4.012v0.622h6.736V104.11z
		 M306.852,94.73v32.875h18.294v-5.134H313.72v-9.514h10.203v-5.068H313.72v-8.091h11.07V94.73H306.852z M289.033,99.798h1.467
		c2.089,0,3.452,0.333,4.09,1c0.637,0.667,0.956,1.815,0.956,3.445c0,1.645-0.323,2.838-0.967,3.579
		c-0.645,0.741-1.96,1.111-3.946,1.111h-1.6V99.798z M282.12,94.73v32.875h6.913v-13.603h1.333c2.06,0,3.46,0.352,4.202,1.055
		c0.74,0.704,1.111,2.005,1.111,3.901v5.046c0,0.889,0.052,1.545,0.156,1.967c0.103,0.423,0.296,0.967,0.578,1.634h6.735
		c-0.149-0.444-0.256-1.03-0.323-1.756c-0.066-0.726-0.122-1.489-0.166-2.289l-0.334-5.646c-0.133-2.119-0.604-3.653-1.411-4.602
		c-0.808-0.948-2.294-1.57-4.457-1.867c2.03-0.385,3.53-1.23,4.501-2.534c0.971-1.304,1.456-3.126,1.456-5.468
		c0-2.964-0.726-5.157-2.178-6.58c-1.453-1.422-3.683-2.133-6.691-2.133H282.12z M257.583,121.003
		c-0.8,0.86-1.589,1.486-2.367,1.879s-1.679,0.589-2.701,0.589c-1.452,0-2.634-0.474-3.545-1.423
		c-0.912-0.948-1.367-2.193-1.367-3.734c0-0.978,0.255-1.912,0.766-2.801c0.512-0.889,1.345-1.793,2.501-2.712L257.583,121.003z
		 M250.359,103.076c-0.386-0.733-0.578-1.418-0.578-2.056c0-0.785,0.263-1.452,0.789-2s1.189-0.823,1.989-0.823
		c0.89,0,1.597,0.252,2.123,0.756s0.789,1.178,0.789,2.023c0,0.889-0.255,1.689-0.767,2.4c-0.511,0.712-1.344,1.445-2.5,2.201
		C251.359,104.643,250.743,103.81,250.359,103.076 M260.206,105.188c0.83-1.267,1.245-2.626,1.245-4.079
		c0-2.178-0.778-3.882-2.334-5.112c-1.556-1.23-3.727-1.845-6.513-1.845c-2.638,0-4.761,0.663-6.368,1.989
		c-1.609,1.326-2.412,3.116-2.412,5.368c0,1.127,0.263,2.268,0.789,3.423c0.526,1.156,1.374,2.431,2.545,3.824
		c-2.238,1.526-3.846,3.012-4.824,4.456c-0.978,1.445-1.467,3.161-1.467,5.146c0,3.142,1.008,5.568,3.023,7.28
		c2.016,1.712,4.861,2.567,8.536,2.567c1.971,0,3.66-0.233,5.068-0.7c1.408-0.467,2.771-1.315,4.09-2.545l2.001,2.645h6.735
		l-4.957-6.779c0.815-1.393,1.389-2.871,1.723-4.435c0.333-1.563,0.5-3.56,0.5-5.99v-0.823h-5.557
		c0.029,0.208,0.044,0.415,0.044,0.622c0,1.053-0.07,2.123-0.211,3.212c-0.141,1.09-0.33,1.998-0.567,2.723l-5.135-6.735
		C258.027,107.859,259.376,106.455,260.206,105.188"/>
	<path style="clip-path:url(#SVGID_00000153706990562838216300000003313218722198492319_);fill:#FFFFFF;" d="M628.152,51.43v32.876
		h18.293v-5.135H635.02v-9.514h10.203v-5.068H635.02v-8.091h11.07V51.43H628.152z M624.143,60.81c0-3.393-0.811-5.886-2.434-7.479
		s-3.998-2.39-7.124-2.39c-2.668,0-4.79,0.441-6.369,1.323c-1.578,0.881-2.704,2.071-3.378,3.567
		c-0.675,1.497-1.108,3.12-1.301,4.868c-0.192,1.749-0.289,4.157-0.289,7.224c0,3.898,0.182,6.743,0.545,8.536
		s0.919,3.268,1.667,4.423c0.748,1.156,1.834,2.075,3.257,2.757c1.422,0.681,3.267,1.022,5.534,1.022
		c3.483,0,6.061-0.874,7.736-2.623c1.674-1.748,2.512-4.364,2.512-7.846v-0.956h-6.78v0.378c0,2.119-0.3,3.664-0.9,4.634
		c-0.6,0.971-1.486,1.456-2.657,1.456c-1.393,0-2.386-0.633-2.978-1.9c-0.593-1.267-0.919-2.868-0.978-4.801
		c-0.06-1.934-0.089-3.479-0.089-4.635c0-3.438,0.089-5.891,0.267-7.358c0.177-1.467,0.544-2.678,1.1-3.634
		c0.556-0.956,1.434-1.434,2.634-1.434c1.052,0,1.863,0.412,2.434,1.234c0.57,0.822,0.856,2.16,0.856,4.012v0.623h6.735V60.81z
		 M574.389,51.43v32.876h6.379V60.277l9.003,24.029h9.024V51.43h-6.379v22.762l-8.78-22.762H574.389z M552.398,51.43v32.876h18.294
		v-5.135h-11.425v-9.514h10.203v-5.068h-10.203v-8.091h11.07V51.43H552.398z M540.656,84.306h6.869V51.43h-6.869V84.306z
		 M520.515,51.43v32.876h17.16v-5.468h-10.203V51.43H520.515z M508.773,84.306h6.869V51.43h-6.869V84.306z M502.087,82.539
		c1.852-1.579,2.778-3.946,2.778-7.102c0-2.06-0.4-3.687-1.2-4.88c-0.8-1.192-2.09-2.345-3.868-3.456l-6.646-4.246
		c-0.726-0.459-1.256-0.985-1.589-1.578c-0.334-0.592-0.501-1.23-0.501-1.911c0-1.112,0.301-1.997,0.901-2.657
		c0.6-0.659,1.411-0.989,2.434-0.989c2.208,0,3.312,1.423,3.312,4.268v0.778h6.735v-1.134c0-3.171-0.811-5.42-2.434-6.746
		c-1.623-1.326-3.983-1.989-7.08-1.989c-3.467,0-6.146,0.759-8.035,2.278c-1.89,1.519-2.834,3.671-2.834,6.457
		c0,2.06,0.385,3.761,1.155,5.102c0.771,1.341,2.445,2.812,5.024,4.412l5.446,3.334c0.741,0.46,1.3,0.993,1.678,1.601
		c0.378,0.607,0.567,1.348,0.567,2.222c0,1.156-0.315,2.049-0.945,2.679c-0.63,0.63-1.53,0.945-2.7,0.945
		c-1.379,0-2.342-0.408-2.89-1.223c-0.549-0.815-0.823-2.045-0.823-3.69v-0.867h-6.979v2.045c0,2.89,0.844,5.065,2.534,6.524
		c1.689,1.46,4.171,2.19,7.446,2.19C497.396,84.906,500.234,84.117,502.087,82.539 M462.154,51.43v32.876h18.294v-5.135h-11.425
		v-9.514h10.202v-5.068h-10.202v-8.091h11.069V51.43H462.154z M444.335,56.498h1.467c2.09,0,3.453,0.333,4.09,1
		c0.637,0.667,0.956,1.816,0.956,3.446c0,1.645-0.322,2.838-0.967,3.578c-0.645,0.742-1.96,1.112-3.946,1.112h-1.6V56.498z
		 M437.422,51.43v32.876h6.913V70.702h1.334c2.059,0,3.46,0.352,4.201,1.056c0.741,0.704,1.111,2.004,1.111,3.901v5.046
		c0,0.889,0.052,1.545,0.156,1.967c0.103,0.422,0.296,0.967,0.578,1.634h6.735c-0.148-0.445-0.256-1.03-0.322-1.756
		c-0.067-0.726-0.123-1.49-0.167-2.29l-0.334-5.646c-0.133-2.119-0.603-3.653-1.411-4.601s-2.293-1.571-4.457-1.867
		c2.03-0.385,3.531-1.23,4.501-2.534c0.971-1.304,1.456-3.127,1.456-5.468c0-2.964-0.726-5.157-2.178-6.58
		c-1.452-1.423-3.683-2.134-6.691-2.134H437.422z M409.996,56.498h1.467c2.089,0,3.452,0.333,4.09,1
		c0.637,0.667,0.956,1.816,0.956,3.446c0,1.645-0.323,2.838-0.967,3.578c-0.645,0.742-1.96,1.112-3.946,1.112h-1.6V56.498z
		 M403.083,51.43v32.876h6.913V70.702h1.333c2.06,0,3.46,0.352,4.202,1.056c0.74,0.704,1.111,2.004,1.111,3.901v5.046
		c0,0.889,0.052,1.545,0.156,1.967c0.103,0.422,0.296,0.967,0.577,1.634h6.736c-0.149-0.445-0.256-1.03-0.323-1.756
		c-0.066-0.726-0.122-1.49-0.166-2.29l-0.334-5.646c-0.133-2.119-0.604-3.653-1.411-4.601c-0.808-0.948-2.294-1.571-4.457-1.867
		c2.03-0.385,3.53-1.23,4.501-2.534c0.971-1.304,1.456-3.127,1.456-5.468c0-2.964-0.726-5.157-2.178-6.58
		c-1.453-1.423-3.683-2.134-6.691-2.134H403.083z M381.219,51.43v32.876h18.294v-5.135h-11.425v-9.514h10.202v-5.068h-10.202v-8.091
		h11.069V51.43H381.219z M355.975,51.43v5.335h7.558v27.541h6.979V56.765h7.647V51.43H355.975z M350.884,82.539
		c1.852-1.579,2.778-3.946,2.778-7.102c0-2.06-0.4-3.687-1.2-4.88c-0.8-1.192-2.09-2.345-3.868-3.456l-6.646-4.246
		c-0.726-0.459-1.256-0.985-1.59-1.578c-0.333-0.592-0.5-1.23-0.5-1.911c0-1.112,0.3-1.997,0.901-2.657
		c0.6-0.659,1.411-0.989,2.434-0.989c2.207,0,3.312,1.423,3.312,4.268v0.778h6.735v-1.134c0-3.171-0.812-5.42-2.434-6.746
		c-1.623-1.326-3.983-1.989-7.08-1.989c-3.468,0-6.146,0.759-8.036,2.278c-1.889,1.519-2.834,3.671-2.834,6.457
		c0,2.06,0.386,3.761,1.156,5.102c0.771,1.341,2.445,2.812,5.024,4.412l5.446,3.334c0.741,0.46,1.3,0.993,1.678,1.601
		c0.378,0.607,0.567,1.348,0.567,2.222c0,1.156-0.315,2.049-0.945,2.679c-0.63,0.63-1.53,0.945-2.701,0.945
		c-1.378,0-2.341-0.408-2.889-1.223c-0.549-0.815-0.823-2.045-0.823-3.69v-0.867h-6.979v2.045c0,2.89,0.844,5.065,2.534,6.524
		c1.689,1.46,4.171,2.19,7.446,2.19C346.193,84.906,349.031,84.117,350.884,82.539 M316.615,57.765l3.423,14.293h-6.646
		L316.615,57.765z M312.525,51.43l-9.113,32.876h6.801l1.868-7.291h9.358l1.822,7.291h7.247l-8.914-32.876H312.525z M298.878,82.539
		c1.852-1.579,2.778-3.946,2.778-7.102c0-2.06-0.4-3.687-1.2-4.88c-0.8-1.192-2.089-2.345-3.868-3.456l-6.646-4.246
		c-0.726-0.459-1.256-0.985-1.589-1.578c-0.334-0.592-0.5-1.23-0.5-1.911c0-1.112,0.3-1.997,0.9-2.657
		c0.6-0.659,1.411-0.989,2.434-0.989c2.208,0,3.312,1.423,3.312,4.268v0.778h6.735v-1.134c0-3.171-0.811-5.42-2.434-6.746
		c-1.623-1.326-3.983-1.989-7.08-1.989c-3.467,0-6.146,0.759-8.035,2.278c-1.89,1.519-2.834,3.671-2.834,6.457
		c0,2.06,0.385,3.761,1.155,5.102c0.771,1.341,2.446,2.812,5.024,4.412l5.446,3.334c0.741,0.46,1.3,0.993,1.678,1.601
		c0.378,0.607,0.567,1.348,0.567,2.222c0,1.156-0.315,2.049-0.945,2.679c-0.63,0.63-1.53,0.945-2.7,0.945
		c-1.378,0-2.342-0.408-2.89-1.223s-0.822-2.045-0.822-3.69v-0.867h-6.98v2.045c0,2.89,0.845,5.065,2.534,6.524
		c1.689,1.46,4.171,2.19,7.446,2.19C294.188,84.906,297.025,84.117,298.878,82.539 M269.583,84.306h6.869V51.43h-6.869V84.306z
		 M250.025,56.498h1.912c2.015,0,3.412,0.278,4.19,0.834c0.778,0.555,1.334,1.645,1.667,3.267c0.333,1.623,0.5,4.212,0.5,7.769
		c0,3.379-0.193,5.739-0.578,7.08c-0.385,1.341-0.96,2.297-1.723,2.867c-0.763,0.571-2.197,0.856-4.301,0.856h-1.667V56.498z
		 M243.001,51.43v32.876h10.114c3.023,0,5.394-0.471,7.113-1.412c1.719-0.941,2.975-2.415,3.768-4.423
		c0.792-2.008,1.189-5.435,1.189-10.281c0-3.719-0.156-6.446-0.467-8.18s-0.845-3.234-1.6-4.501
		c-0.756-1.267-1.905-2.264-3.446-2.99c-1.541-0.726-3.579-1.089-6.113-1.089H243.001z"/>
	<path style="clip-path:url(#SVGID_00000153706990562838216300000003313218722198492319_);fill:#FFFFFF;" d="M514.901,19.201
		c0.575,0.111,1.018,0.313,1.331,0.605c0.312,0.292,0.529,0.695,0.65,1.209s0.181,1.175,0.181,1.981v0.514
		c0,0.806-0.06,1.466-0.181,1.98s-0.338,0.912-0.65,1.195c-0.313,0.282-0.756,0.479-1.331,0.589
		c-0.574,0.111-1.315,0.166-2.222,0.166h-4.656v-8.405h4.656C513.586,19.035,514.328,19.09,514.901,19.201 M505.529,38.447
		c0.151,0.06,0.333,0.115,0.544,0.166c0.212,0.05,0.428,0.086,0.65,0.106c0.222,0.02,0.413,0.03,0.575,0.03
		c0.221,0,0.398-0.075,0.529-0.227c0.131-0.151,0.197-0.337,0.197-0.559v-8.104h4.535l4.596,8.074
		c0.08,0.161,0.212,0.297,0.393,0.408c0.182,0.11,0.378,0.196,0.59,0.257c0.212,0.06,0.428,0.101,0.65,0.121
		c0.222,0.02,0.413,0.03,0.574,0.03c0.141,0,0.318-0.03,0.53-0.091c0.211-0.06,0.317-0.191,0.317-0.393
		c0-0.201-0.091-0.443-0.272-0.725l-4.475-7.953c0.846-0.121,1.547-0.332,2.101-0.635c0.555-0.302,1.003-0.695,1.346-1.179
		c0.342-0.484,0.584-1.078,0.726-1.784c0.14-0.705,0.211-1.532,0.211-2.479v-0.514c0-1.21-0.121-2.223-0.363-3.039
		c-0.242-0.817-0.645-1.471-1.209-1.966c-0.565-0.493-1.315-0.846-2.253-1.058c-0.937-0.212-2.091-0.317-3.462-0.317h-6.501
		c-0.222,0-0.403,0.075-0.544,0.226c-0.141,0.152-0.212,0.338-0.212,0.56v20.803C505.302,38.306,505.378,38.386,505.529,38.447
		 M486.903,21.756c0.192-0.746,0.514-1.346,0.968-1.799c0.453-0.454,1.048-0.776,1.784-0.968c0.735-0.191,1.648-0.287,2.736-0.287
		h0.242c1.089,0,1.996,0.096,2.722,0.287c0.725,0.192,1.315,0.514,1.768,0.968c0.454,0.453,0.776,1.053,0.968,1.799
		c0.191,0.746,0.287,1.673,0.287,2.782v5.956c0,1.109-0.096,2.037-0.287,2.782c-0.192,0.746-0.514,1.346-0.968,1.799
		c-0.453,0.454-1.043,0.777-1.768,0.968c-0.726,0.192-1.633,0.287-2.722,0.287h-0.242c-1.088,0-2.001-0.095-2.736-0.287
		c-0.736-0.191-1.331-0.514-1.784-0.968c-0.454-0.453-0.776-1.053-0.968-1.799c-0.192-0.745-0.287-1.673-0.287-2.782v-5.956
		C486.616,23.429,486.711,22.502,486.903,21.756 M496.383,38.341c1.068-0.272,1.955-0.726,2.66-1.361
		c0.706-0.635,1.235-1.471,1.588-2.509c0.352-1.038,0.529-2.323,0.529-3.856v-6.198c0-1.532-0.177-2.817-0.529-3.855
		c-0.353-1.038-0.882-1.875-1.588-2.51c-0.705-0.635-1.592-1.089-2.66-1.361c-1.069-0.272-2.319-0.408-3.75-0.408h-0.242
		c-1.451,0-2.711,0.136-3.779,0.408c-1.069,0.272-1.956,0.726-2.661,1.361c-0.706,0.635-1.235,1.472-1.588,2.51
		c-0.353,1.038-0.529,2.323-0.529,3.855v6.198c0,1.533,0.176,2.818,0.529,3.856c0.353,1.038,0.882,1.874,1.588,2.509
		c0.705,0.635,1.592,1.089,2.661,1.361c1.068,0.272,2.328,0.408,3.779,0.408h0.242C494.064,38.749,495.314,38.613,496.383,38.341
		 M479.471,28.529c0.081,0,0.151-0.06,0.212-0.181c0.06-0.121,0.11-0.273,0.151-0.454c0.04-0.181,0.071-0.368,0.091-0.559
		c0.02-0.192,0.03-0.368,0.03-0.53c0-0.221-0.071-0.393-0.212-0.514c-0.141-0.121-0.302-0.181-0.483-0.181h-8.346v-7.045h9.918
		c0.08,0,0.151-0.061,0.212-0.182c0.06-0.121,0.11-0.272,0.151-0.453c0.04-0.182,0.07-0.373,0.09-0.575
		c0.02-0.201,0.031-0.382,0.031-0.544c0-0.222-0.071-0.388-0.212-0.499c-0.141-0.11-0.302-0.166-0.484-0.166H469.19
		c-0.666,0-0.998,0.211-0.998,0.635v20.924c0,0.081,0.07,0.156,0.212,0.227c0.14,0.07,0.317,0.125,0.529,0.166
		c0.211,0.04,0.433,0.076,0.665,0.106c0.231,0.03,0.428,0.045,0.589,0.045c0.222,0,0.398-0.086,0.53-0.257
		c0.131-0.171,0.196-0.367,0.196-0.59v-9.373H479.471z M444.427,38.235c0.282,0.101,0.554,0.151,0.816,0.151h11.4
		c0.08,0,0.151-0.06,0.212-0.181c0.06-0.121,0.11-0.272,0.151-0.454c0.04-0.181,0.07-0.372,0.09-0.574
		c0.02-0.201,0.031-0.383,0.031-0.544c0-0.202-0.071-0.363-0.212-0.484c-0.141-0.121-0.302-0.182-0.484-0.182h-9.706v-7.438h8.981
		c0.08,0,0.151-0.06,0.211-0.181c0.061-0.121,0.116-0.273,0.166-0.454c0.051-0.181,0.086-0.373,0.106-0.575
		c0.02-0.201,0.031-0.372,0.031-0.514c0-0.221-0.071-0.393-0.212-0.514c-0.141-0.121-0.313-0.181-0.514-0.181h-8.769v-7.045h9.918
		c0.08,0,0.151-0.061,0.212-0.182c0.06-0.121,0.11-0.272,0.151-0.453c0.04-0.182,0.07-0.373,0.09-0.575
		c0.02-0.201,0.031-0.382,0.031-0.544c0-0.222-0.071-0.388-0.212-0.499c-0.141-0.11-0.302-0.166-0.484-0.166h-11.702
		c-0.483,0-0.725,0.262-0.725,0.786v20.41C444.004,38.004,444.145,38.134,444.427,38.235 M434.953,19.201
		c0.575,0.111,1.018,0.313,1.331,0.605c0.312,0.292,0.529,0.695,0.65,1.209s0.181,1.175,0.181,1.981v0.514
		c0,0.806-0.06,1.466-0.181,1.98s-0.338,0.912-0.65,1.195c-0.313,0.282-0.756,0.479-1.331,0.589
		c-0.574,0.111-1.315,0.166-2.222,0.166h-4.657v-8.405h4.657C433.638,19.035,434.38,19.09,434.953,19.201 M425.581,38.447
		c0.151,0.06,0.332,0.115,0.544,0.166c0.212,0.05,0.428,0.086,0.65,0.106c0.222,0.02,0.413,0.03,0.575,0.03
		c0.221,0,0.397-0.075,0.529-0.227c0.131-0.151,0.196-0.337,0.196-0.559v-8.104h4.536l4.596,8.074
		c0.08,0.161,0.212,0.297,0.393,0.408c0.181,0.11,0.378,0.196,0.59,0.257c0.211,0.06,0.428,0.101,0.65,0.121
		c0.221,0.02,0.413,0.03,0.574,0.03c0.141,0,0.318-0.03,0.529-0.091c0.212-0.06,0.318-0.191,0.318-0.393
		c0-0.201-0.091-0.443-0.272-0.725l-4.475-7.953c0.846-0.121,1.546-0.332,2.101-0.635c0.554-0.302,1.003-0.695,1.346-1.179
		c0.342-0.484,0.584-1.078,0.725-1.784c0.141-0.705,0.212-1.532,0.212-2.479v-0.514c0-1.21-0.121-2.223-0.363-3.039
		c-0.242-0.817-0.645-1.471-1.209-1.966c-0.565-0.493-1.316-0.846-2.253-1.058s-2.092-0.317-3.462-0.317h-6.501
		c-0.222,0-0.404,0.075-0.544,0.226c-0.142,0.152-0.212,0.338-0.212,0.56v20.803C425.354,38.306,425.43,38.386,425.581,38.447
		 M421.596,19.065c0.08,0,0.151-0.061,0.212-0.182c0.06-0.121,0.115-0.272,0.166-0.453c0.05-0.182,0.085-0.373,0.106-0.575
		c0.02-0.201,0.03-0.382,0.03-0.544c0-0.201-0.076-0.363-0.227-0.484s-0.328-0.181-0.529-0.181h-14.665
		c-0.101,0-0.181,0.065-0.242,0.196c-0.06,0.132-0.111,0.288-0.151,0.469c-0.041,0.181-0.071,0.373-0.091,0.575
		c-0.02,0.201-0.03,0.373-0.03,0.514c0,0.201,0.07,0.362,0.212,0.483c0.14,0.121,0.322,0.182,0.544,0.182h5.836v19.17
		c0,0.101,0.07,0.181,0.211,0.242c0.141,0.06,0.318,0.111,0.529,0.151c0.212,0.04,0.434,0.071,0.666,0.091
		c0.231,0.02,0.428,0.03,0.589,0.03c0.222,0,0.398-0.081,0.529-0.242c0.131-0.161,0.197-0.352,0.197-0.574V19.065H421.596z
		 M389.4,16.797c-0.102-0.141-0.212-0.262-0.333-0.363c-0.121-0.1-0.262-0.151-0.423-0.151c-0.182,0-0.378,0.01-0.59,0.03
		c-0.212,0.021-0.419,0.056-0.62,0.106c-0.202,0.051-0.368,0.111-0.499,0.181c-0.131,0.071-0.196,0.147-0.196,0.227v21.408
		c0,0.101,0.07,0.181,0.211,0.242c0.141,0.06,0.313,0.111,0.514,0.151c0.202,0.04,0.413,0.071,0.635,0.091
		c0.222,0.02,0.413,0.03,0.575,0.03c0.221,0,0.398-0.081,0.529-0.242c0.131-0.161,0.197-0.352,0.197-0.574v-16.54l10.855,16.872
		c0.06,0.081,0.166,0.151,0.317,0.212c0.151,0.06,0.328,0.111,0.529,0.151c0.202,0.04,0.403,0.071,0.605,0.091
		c0.201,0.02,0.373,0.03,0.514,0.03c0.201,0,0.368-0.075,0.499-0.227c0.131-0.151,0.197-0.337,0.197-0.559V17.13
		c0-0.242-0.046-0.444-0.136-0.605c-0.091-0.161-0.248-0.242-0.469-0.242c-0.182,0-0.393,0.01-0.635,0.03
		c-0.242,0.021-0.469,0.051-0.68,0.091c-0.212,0.041-0.389,0.091-0.53,0.151c-0.141,0.061-0.211,0.131-0.211,0.212V33.7
		L389.4,16.797z M370.135,38.235c0.282,0.101,0.554,0.151,0.816,0.151h11.399c0.081,0,0.152-0.06,0.212-0.181
		c0.061-0.121,0.111-0.272,0.151-0.454c0.04-0.181,0.071-0.372,0.091-0.574c0.02-0.201,0.03-0.383,0.03-0.544
		c0-0.202-0.071-0.363-0.211-0.484c-0.142-0.121-0.303-0.182-0.484-0.182h-9.706v-7.438h8.98c0.08,0,0.151-0.06,0.212-0.181
		c0.06-0.121,0.116-0.273,0.166-0.454s0.086-0.373,0.106-0.575c0.02-0.201,0.03-0.372,0.03-0.514c0-0.221-0.071-0.393-0.212-0.514
		c-0.141-0.121-0.312-0.181-0.514-0.181h-8.768v-7.045h9.917c0.081,0,0.152-0.061,0.212-0.182c0.061-0.121,0.111-0.272,0.151-0.453
		c0.04-0.182,0.071-0.373,0.091-0.575c0.02-0.201,0.03-0.382,0.03-0.544c0-0.222-0.071-0.388-0.211-0.499
		c-0.142-0.11-0.303-0.166-0.484-0.166h-11.702c-0.484,0-0.726,0.262-0.726,0.786v20.41
		C369.711,38.004,369.853,38.134,370.135,38.235 M355.568,21.877c0.181-0.786,0.488-1.421,0.922-1.905
		c0.433-0.484,1.018-0.836,1.754-1.058c0.735-0.222,1.658-0.333,2.767-0.333h0.241c0.464,0,0.917,0.02,1.361,0.06
		c0.443,0.041,0.851,0.086,1.225,0.137c0.372,0.05,0.7,0.095,0.982,0.136c0.282,0.04,0.494,0.07,0.635,0.09
		c0.182,0.021,0.313-0.161,0.393-0.544c0.081-0.383,0.121-0.796,0.121-1.24c0-0.14-0.176-0.272-0.529-0.393
		c-0.353-0.121-0.786-0.221-1.3-0.302c-0.514-0.08-1.053-0.141-1.618-0.182c-0.564-0.04-1.068-0.06-1.511-0.06h-0.242
		c-1.391,0-2.606,0.136-3.644,0.408c-1.038,0.272-1.895,0.726-2.57,1.361c-0.676,0.635-1.184,1.472-1.527,2.51
		c-0.343,1.038-0.514,2.323-0.514,3.855v6.198c0,1.533,0.166,2.818,0.499,3.856c0.332,1.038,0.836,1.874,1.512,2.509
		c0.675,0.635,1.521,1.089,2.54,1.361c1.017,0.272,2.212,0.408,3.583,0.408h0.242c0.503,0,1.047-0.02,1.632-0.06
		c0.585-0.041,1.129-0.101,1.633-0.182s0.927-0.176,1.27-0.287c0.343-0.111,0.514-0.247,0.514-0.408c0-0.182-0.01-0.378-0.03-0.59
		c-0.02-0.212-0.056-0.413-0.106-0.605c-0.05-0.191-0.116-0.347-0.196-0.468c-0.081-0.121-0.182-0.171-0.303-0.151
		c-0.262,0.04-0.771,0.126-1.527,0.257c-0.756,0.131-1.638,0.196-2.646,0.196h-0.241c-1.089,0-1.991-0.11-2.707-0.333
		c-0.715-0.221-1.29-0.574-1.723-1.058c-0.434-0.484-0.736-1.119-0.907-1.905c-0.172-0.786-0.257-1.754-0.257-2.903V24.78
		C355.296,23.631,355.385,22.663,355.568,21.877 M327.66,16.797c-0.101-0.141-0.212-0.262-0.333-0.363
		c-0.121-0.1-0.262-0.151-0.423-0.151c-0.182,0-0.378,0.01-0.59,0.03c-0.212,0.021-0.419,0.056-0.62,0.106
		c-0.202,0.051-0.368,0.111-0.499,0.181c-0.131,0.071-0.196,0.147-0.196,0.227v21.408c0,0.101,0.07,0.181,0.211,0.242
		c0.141,0.06,0.313,0.111,0.514,0.151c0.202,0.04,0.413,0.071,0.635,0.091c0.222,0.02,0.413,0.03,0.575,0.03
		c0.222,0,0.398-0.081,0.529-0.242c0.131-0.161,0.197-0.352,0.197-0.574v-16.54l10.855,16.872c0.06,0.081,0.166,0.151,0.317,0.212
		c0.151,0.06,0.328,0.111,0.529,0.151c0.202,0.04,0.403,0.071,0.605,0.091c0.201,0.02,0.373,0.03,0.514,0.03
		c0.201,0,0.368-0.075,0.499-0.227c0.131-0.151,0.197-0.337,0.197-0.559V17.13c0-0.242-0.046-0.444-0.136-0.605
		c-0.091-0.161-0.248-0.242-0.469-0.242c-0.182,0-0.393,0.01-0.635,0.03c-0.242,0.021-0.469,0.051-0.68,0.091
		c-0.212,0.041-0.389,0.091-0.53,0.151c-0.141,0.061-0.211,0.131-0.211,0.212V33.7L327.66,16.797z M320.509,17.099
		c0-0.221-0.066-0.413-0.197-0.574c-0.131-0.161-0.307-0.242-0.529-0.242c-0.181,0-0.383,0.01-0.605,0.03
		c-0.222,0.021-0.438,0.056-0.65,0.106c-0.211,0.051-0.388,0.111-0.529,0.181c-0.141,0.071-0.211,0.147-0.211,0.227v21.408
		c0,0.101,0.07,0.181,0.211,0.242c0.141,0.06,0.318,0.111,0.529,0.151c0.212,0.04,0.428,0.071,0.65,0.091
		c0.222,0.02,0.424,0.03,0.605,0.03c0.222,0,0.398-0.081,0.529-0.242c0.131-0.161,0.197-0.352,0.197-0.574V17.099z M301.35,27.35
		l10.069,10.855c0.221,0.242,0.534,0.393,0.937,0.453c0.403,0.061,0.836,0.091,1.3,0.091c0.141,0,0.303-0.02,0.484-0.06
		c0.182-0.041,0.272-0.162,0.272-0.363c0-0.222-0.161-0.504-0.484-0.847l-9.706-10.432l8.86-9.494
		c0.342-0.363,0.514-0.645,0.514-0.847c0-0.201-0.091-0.322-0.272-0.363c-0.182-0.04-0.353-0.06-0.514-0.06
		c-0.444,0-0.873,0.03-1.285,0.091c-0.414,0.06-0.731,0.211-0.953,0.453l-9.222,9.948v-9.676c0-0.221-0.066-0.413-0.197-0.574
		c-0.131-0.161-0.307-0.242-0.529-0.242c-0.181,0-0.383,0.01-0.605,0.03c-0.222,0.021-0.438,0.056-0.65,0.106
		c-0.211,0.051-0.388,0.111-0.529,0.181c-0.141,0.071-0.212,0.147-0.212,0.227v21.408c0,0.101,0.071,0.181,0.212,0.242
		c0.141,0.06,0.318,0.111,0.529,0.151c0.212,0.04,0.428,0.071,0.65,0.091c0.222,0.02,0.424,0.03,0.605,0.03
		c0.222,0,0.398-0.081,0.529-0.242c0.131-0.161,0.197-0.352,0.197-0.574V27.35z M286.41,20.304c0.02-0.201,0.05-0.382,0.091-0.544
		c0,0.101,0.025,0.283,0.075,0.544c0.05,0.263,0.096,0.444,0.136,0.545l2.903,8.799h-6.259l2.933-8.799
		C286.35,20.688,286.391,20.506,286.41,20.304 M293.033,38.643c0.342,0.071,0.796,0.106,1.36,0.106c0.182,0,0.358-0.035,0.53-0.106
		c0.171-0.071,0.257-0.196,0.257-0.378c0-0.121-0.011-0.211-0.031-0.272l-7.257-21.136c-0.12-0.382-0.352-0.574-0.695-0.574
		c-0.383,0-0.801,0.035-1.255,0.106c-0.453,0.071-0.721,0.217-0.801,0.438l-7.287,21.166c-0.041,0.121-0.061,0.212-0.061,0.272
		c0,0.182,0.086,0.307,0.257,0.378c0.171,0.071,0.358,0.106,0.56,0.106c0.463,0,0.881-0.02,1.255-0.06
		c0.372-0.041,0.599-0.182,0.68-0.424l2.116-6.259h7.681l2.026,6.138C292.467,38.406,292.69,38.572,293.033,38.643 M262.031,38.235
		c0.282,0.101,0.554,0.151,0.816,0.151h11.4c0.08,0,0.151-0.06,0.211-0.181c0.061-0.121,0.111-0.272,0.151-0.454
		c0.041-0.181,0.071-0.372,0.091-0.574c0.02-0.201,0.03-0.383,0.03-0.544c0-0.202-0.07-0.363-0.211-0.484
		c-0.142-0.121-0.303-0.182-0.484-0.182h-9.706v-7.438h8.98c0.081,0,0.151-0.06,0.212-0.181c0.06-0.121,0.116-0.273,0.166-0.454
		c0.05-0.181,0.086-0.373,0.106-0.575c0.02-0.201,0.03-0.372,0.03-0.514c0-0.221-0.071-0.393-0.211-0.514
		c-0.142-0.121-0.313-0.181-0.514-0.181h-8.769v-7.045h9.918c0.08,0,0.151-0.061,0.211-0.182c0.061-0.121,0.111-0.272,0.151-0.453
		c0.041-0.182,0.071-0.373,0.091-0.575c0.02-0.201,0.03-0.382,0.03-0.544c0-0.222-0.07-0.388-0.211-0.499
		c-0.142-0.11-0.303-0.166-0.484-0.166h-11.702c-0.484,0-0.725,0.262-0.725,0.786v20.41
		C261.608,38.004,261.747,38.134,262.031,38.235 M251.672,19.352c0.726,0.212,1.315,0.559,1.769,1.043
		c0.453,0.484,0.776,1.114,0.967,1.89c0.192,0.776,0.288,1.719,0.288,2.827v4.778c0,1.108-0.096,2.051-0.288,2.827
		c-0.191,0.776-0.514,1.406-0.967,1.89c-0.454,0.483-1.043,0.831-1.769,1.043c-0.726,0.211-1.633,0.317-2.721,0.317h-4.143V19.035
		h4.143C250.038,19.035,250.946,19.14,251.672,19.352 M242.359,16.797c-0.181,0.121-0.272,0.323-0.272,0.605v20.44
		c0,0.162,0.136,0.292,0.408,0.393c0.272,0.101,0.549,0.151,0.832,0.151h5.624c1.451,0,2.711-0.136,3.779-0.408
		c1.069-0.272,1.955-0.726,2.661-1.361s1.23-1.471,1.572-2.509c0.343-1.038,0.515-2.323,0.515-3.856V24.78
		c0-1.532-0.172-2.817-0.515-3.856c-0.342-1.038-0.866-1.874-1.572-2.509c-0.706-0.635-1.592-1.094-2.661-1.376
		c-1.068-0.282-2.328-0.423-3.779-0.423h-5.987C242.742,16.616,242.54,16.676,242.359,16.797"/>
</g>
</svg>
