<?xml version="1.0" encoding="iso-8859-1"?>
<!-- Generator: Adobe Illustrator 29.5.1, SVG Export Plug-In . SVG Version: 9.03 Build 0)  -->
<svg version="1.1" id="Layer_1" xmlns="http://www.w3.org/2000/svg" xmlns:xlink="http://www.w3.org/1999/xlink" x="0px" y="0px"
	 viewBox="0 0 720 144" style="enable-background:new 0 0 720 144;" xml:space="preserve">
<g>
	<defs>
		<rect id="SVGID_1_" width="720" height="144"/>
	</defs>
	<clipPath id="SVGID_00000165212744107113127500000009800101995906919052_">
		<use xlink:href="#SVGID_1_"  style="overflow:visible;"/>
	</clipPath>
	<path style="clip-path:url(#SVGID_00000165212744107113127500000009800101995906919052_);fill:#FFFFFF;" d="M72.921,1.3
		C33.757,1.3,2.008,32.959,2.008,72.012s31.749,70.712,70.913,70.712s70.912-31.659,70.912-70.712S112.085,1.3,72.921,1.3"/>
	<path style="clip-path:url(#SVGID_00000165212744107113127500000009800101995906919052_);fill:#FFFFFF;" d="M72.921,2.98
		c38.175,0,69.233,30.968,69.233,69.032s-31.058,69.032-69.233,69.032S3.688,110.076,3.688,72.012S34.746,2.98,72.921,2.98"/>
</g>
<rect x="191.456" y="16.617" style="fill:#FFFFFF;" width="2" height="111.776"/>
<g>
	<defs>
		<rect id="SVGID_00000041254035879149058490000005288110610061459336_" width="720" height="144"/>
	</defs>
	<clipPath id="SVGID_00000096761403751138858900000010681586881711926196_">
		<use xlink:href="#SVGID_00000041254035879149058490000005288110610061459336_"  style="overflow:visible;"/>
	</clipPath>
	<path style="clip-path:url(#SVGID_00000096761403751138858900000010681586881711926196_);" d="M114.152,102.346v4.129
		c0,0.138-0.046,0.246-0.154,0.323c-0.093,0.077-0.216,0.123-0.37,0.123c-0.092,0-0.231,0-0.385-0.015
		c-0.154-0.015-0.323-0.031-0.478-0.046c-0.154-0.015-0.292-0.062-0.416-0.108c-0.107-0.046-0.169-0.108-0.169-0.169v-4.222
		l-3.605-7.041c-0.123-0.246-0.139-0.416-0.046-0.523c0.092-0.108,0.262-0.17,0.508-0.17c0.154,0,0.308,0,0.478,0.015
		c0.154,0,0.308,0.016,0.446,0.047c0.139,0.015,0.262,0.046,0.355,0.077c0.092,0.031,0.169,0.077,0.2,0.154l2.65,5.408l2.65-5.393
		c0.031-0.061,0.092-0.123,0.2-0.154c0.093-0.031,0.216-0.061,0.355-0.092c0.138-0.016,0.292-0.031,0.446-0.047
		c0.154,0,0.324-0.015,0.478-0.015c0.246,0,0.416,0.046,0.508,0.154c0.077,0.108,0.062,0.277-0.061,0.539L114.152,102.346z
		 M103.615,96.584v9.891c0,0.138-0.046,0.246-0.154,0.323c-0.108,0.077-0.216,0.123-0.354,0.123c-0.093,0-0.231,0-0.401-0.015
		c-0.17-0.015-0.339-0.031-0.493-0.046s-0.293-0.062-0.401-0.108c-0.123-0.046-0.169-0.108-0.169-0.169v-9.984h-3.051
		c-0.123,0-0.215-0.046-0.308-0.139c-0.077-0.092-0.123-0.2-0.123-0.338c0-0.093,0-0.201,0.015-0.355
		c0.016-0.138,0.031-0.292,0.047-0.431c0.015-0.139,0.061-0.262,0.092-0.37c0.046-0.092,0.093-0.154,0.17-0.154h8.165
		c0.123,0,0.216,0.046,0.308,0.139c0.077,0.092,0.123,0.215,0.123,0.339c0,0.092,0,0.2-0.015,0.354s-0.031,0.293-0.046,0.431
		c-0.016,0.139-0.046,0.262-0.093,0.355c-0.046,0.092-0.092,0.154-0.169,0.154H103.615z M96.497,106.475
		c0,0.138-0.046,0.246-0.154,0.323c-0.092,0.077-0.216,0.123-0.37,0.123c-0.092,0-0.231,0-0.4-0.015
		c-0.17-0.015-0.324-0.031-0.493-0.046c-0.154-0.015-0.293-0.062-0.416-0.108c-0.108-0.046-0.17-0.108-0.17-0.169V94.981
		c0-0.061,0.062-0.123,0.17-0.169c0.123-0.046,0.262-0.092,0.416-0.108c0.154-0.015,0.323-0.046,0.493-0.046
		c0.169-0.016,0.292-0.016,0.4-0.016c0.139,0,0.262,0.047,0.37,0.139c0.092,0.093,0.154,0.2,0.154,0.324V106.475z M85.389,104.888
		c0.092,0.015,0.216,0.061,0.401,0.092c0.185,0.047,0.385,0.093,0.631,0.139c0.231,0.046,0.493,0.077,0.786,0.123
		c0.277,0.031,0.57,0.046,0.847,0.046c0.309,0,0.601-0.03,0.878-0.077c0.278-0.046,0.54-0.138,0.755-0.246
		c0.216-0.123,0.401-0.277,0.524-0.462c0.139-0.201,0.201-0.432,0.201-0.724c0-0.401-0.124-0.74-0.386-1.017
		c-0.261-0.278-0.585-0.539-0.97-0.786c-0.385-0.246-0.817-0.493-1.279-0.739c-0.462-0.247-0.878-0.54-1.279-0.863
		c-0.4-0.324-0.724-0.709-0.97-1.156c-0.262-0.447-0.385-0.986-0.385-1.633c0-0.539,0.092-1.001,0.292-1.371
		c0.2-0.37,0.463-0.678,0.801-0.924c0.339-0.232,0.755-0.416,1.218-0.524c0.477-0.108,1.001-0.17,1.571-0.17
		c0.123,0,0.308,0,0.555,0.016c0.246,0.015,0.508,0.03,0.785,0.061c0.278,0.031,0.555,0.062,0.817,0.108
		c0.277,0.046,0.493,0.108,0.647,0.185c0.154,0.062,0.247,0.139,0.277,0.216c0.031,0.077,0.031,0.2,0.016,0.385
		c-0.016,0.293-0.077,0.524-0.185,0.724c-0.093,0.2-0.231,0.277-0.416,0.246c-0.278-0.061-0.586-0.107-0.94-0.169
		c-0.354-0.046-0.755-0.077-1.186-0.077c-0.678,0-1.248,0.108-1.68,0.293c-0.431,0.2-0.647,0.523-0.647,0.986
		c0,0.369,0.124,0.678,0.386,0.939c0.261,0.263,0.585,0.509,0.97,0.74s0.817,0.478,1.279,0.724c0.462,0.247,0.878,0.539,1.279,0.878
		c0.385,0.339,0.724,0.74,0.97,1.202c0.262,0.462,0.385,1.048,0.385,1.71c0,0.632-0.123,1.156-0.354,1.556
		c-0.231,0.416-0.555,0.724-0.94,0.955c-0.385,0.232-0.847,0.386-1.356,0.478c-0.508,0.093-1.047,0.139-1.602,0.139
		c-0.246,0-0.524-0.016-0.801-0.031s-0.539-0.046-0.817-0.077c-0.261-0.031-0.508-0.077-0.754-0.123
		c-0.232-0.047-0.432-0.093-0.601-0.154c-0.17-0.062-0.262-0.124-0.293-0.185c-0.031-0.077-0.046-0.201-0.015-0.37
		c0.03-0.324,0.092-0.601,0.184-0.817C85.112,104.949,85.234,104.842,85.389,104.888 M79.057,96.568H76.76v3.991h2.296
		c0.447,0,0.816-0.031,1.078-0.077c0.278-0.047,0.478-0.139,0.632-0.278c0.154-0.138,0.247-0.308,0.293-0.539
		s0.077-0.539,0.077-0.909v-0.37c0-0.369-0.031-0.678-0.077-0.924c-0.046-0.231-0.154-0.416-0.293-0.555
		c-0.154-0.138-0.354-0.215-0.632-0.277C79.857,96.599,79.504,96.568,79.057,96.568 M74.773,106.567V95.228
		c0-0.123,0.046-0.216,0.154-0.308c0.108-0.077,0.216-0.123,0.37-0.123h3.651c0.755,0,1.402,0.061,1.941,0.169
		c0.539,0.108,0.971,0.308,1.31,0.585c0.339,0.278,0.585,0.648,0.739,1.11c0.155,0.462,0.231,1.032,0.231,1.741v0.37
		c0,0.523-0.046,0.97-0.123,1.355s-0.216,0.724-0.385,1.002c-0.169,0.277-0.416,0.493-0.709,0.662
		c-0.292,0.17-0.647,0.293-1.047,0.385l2.295,3.975c0.124,0.216,0.185,0.37,0.185,0.478c0,0.061-0.031,0.123-0.077,0.169
		c-0.061,0.047-0.123,0.077-0.185,0.093c-0.061,0.015-0.138,0.03-0.2,0.046c-0.077,0-0.123,0.015-0.154,0.015
		c-0.093,0-0.231,0-0.385-0.015c-0.154-0.016-0.308-0.031-0.462-0.062c-0.154-0.03-0.309-0.061-0.432-0.123
		c-0.123-0.062-0.216-0.139-0.277-0.231l-2.434-4.16h-2.034v4.16c0,0.139-0.046,0.231-0.154,0.308
		c-0.093,0.077-0.216,0.123-0.354,0.123c-0.093,0-0.232,0-0.401-0.015c-0.17-0.016-0.324-0.031-0.493-0.046
		c-0.154-0.016-0.293-0.062-0.416-0.108C74.836,106.69,74.773,106.644,74.773,106.567 M65.068,106.382V95.228
		c0-0.139,0.046-0.247,0.154-0.324c0.092-0.077,0.216-0.107,0.37-0.107h6.64c0.123,0,0.231,0.046,0.308,0.154
		c0.077,0.092,0.123,0.215,0.123,0.339c0,0.092,0,0.2-0.015,0.354c-0.016,0.154-0.031,0.293-0.046,0.431
		c-0.016,0.139-0.062,0.262-0.093,0.355c-0.046,0.092-0.108,0.154-0.169,0.154h-5.269v3.204h4.514c0.108,0,0.2,0.047,0.292,0.139
		c0.078,0.092,0.124,0.2,0.124,0.323c0,0.093,0,0.201-0.016,0.355c-0.015,0.154-0.03,0.292-0.046,0.431
		c-0.015,0.139-0.062,0.262-0.092,0.37c-0.047,0.092-0.093,0.154-0.17,0.154h-4.622v3.389h5.161c0.124,0,0.232,0.047,0.309,0.139
		c0.077,0.093,0.123,0.2,0.123,0.339c0,0.092,0,0.2-0.016,0.354c-0.015,0.139-0.03,0.293-0.046,0.432
		c-0.015,0.138-0.061,0.262-0.092,0.37c-0.046,0.107-0.108,0.154-0.17,0.154h-6.501c-0.154,0-0.324-0.031-0.493-0.108
		C65.145,106.536,65.068,106.459,65.068,106.382 M58.998,103.547l2.496-8.581c0.154-0.154,0.339-0.246,0.539-0.293
		c0.2-0.031,0.431-0.061,0.709-0.061c0.107,0,0.231,0,0.338,0.015c0.124,0.015,0.216,0.031,0.293,0.077
		c0.077,0.046,0.139,0.093,0.185,0.17c0.046,0.077,0.031,0.169,0,0.308l-3.836,11.478c-0.016,0.092-0.077,0.154-0.17,0.2
		c-0.092,0.046-0.185,0.061-0.292,0.061c-0.37,0-0.678-0.015-0.925-0.061c-0.246-0.046-0.4-0.108-0.462-0.185l-3.821-11.493
		c-0.031-0.108-0.031-0.201,0-0.278c0.031-0.077,0.077-0.123,0.154-0.169c0.062-0.046,0.139-0.077,0.231-0.093
		c0.077-0.015,0.154-0.03,0.201-0.03c0.169,0,0.339,0,0.508,0.015c0.17,0.015,0.324,0.031,0.478,0.062
		c0.138,0.031,0.262,0.077,0.369,0.123c0.093,0.062,0.17,0.123,0.201,0.216l2.557,8.504c0.046,0.139,0.077,0.277,0.093,0.416
		c0.015,0.154,0.031,0.277,0.061,0.401c0.016-0.124,0.031-0.262,0.046-0.401C58.921,103.809,58.951,103.671,58.998,103.547
		 M52.589,106.475c0,0.138-0.047,0.246-0.154,0.323c-0.093,0.077-0.216,0.123-0.37,0.123c-0.093,0-0.231,0-0.401-0.015
		c-0.169-0.015-0.323-0.031-0.493-0.046c-0.154-0.015-0.293-0.062-0.416-0.108s-0.169-0.108-0.169-0.169V94.981
		c0-0.061,0.061-0.123,0.169-0.169c0.123-0.046,0.247-0.092,0.416-0.108c0.154-0.015,0.324-0.046,0.493-0.046
		c0.17-0.016,0.293-0.016,0.401-0.016c0.138,0,0.262,0.047,0.37,0.139c0.092,0.093,0.154,0.2,0.154,0.324V106.475z M46.518,103.239
		V94.92c0-0.062,0.062-0.123,0.185-0.154c0.124-0.046,0.262-0.077,0.432-0.093c0.169-0.015,0.339-0.031,0.508-0.046
		c0.17-0.015,0.308-0.015,0.401-0.015c0.292,0,0.431,0.169,0.431,0.493v11.37c0,0.138-0.046,0.231-0.154,0.308
		c-0.108,0.077-0.216,0.123-0.339,0.123c-0.092,0-0.2,0-0.354-0.015c-0.154-0.016-0.293-0.016-0.447-0.046
		c-0.154-0.031-0.278-0.062-0.401-0.093c-0.123-0.046-0.2-0.092-0.246-0.154l-5.377-8.273v8.15c0,0.138-0.046,0.246-0.154,0.323
		c-0.092,0.077-0.216,0.123-0.355,0.123c-0.092,0-0.231,0-0.4-0.015c-0.17-0.015-0.339-0.031-0.493-0.046s-0.293-0.062-0.401-0.108
		c-0.123-0.046-0.169-0.108-0.169-0.169V94.981c0-0.061,0.061-0.123,0.169-0.169c0.124-0.046,0.247-0.092,0.401-0.108
		c0.154-0.015,0.308-0.031,0.477-0.046c0.17-0.016,0.293-0.016,0.401-0.016c0.123,0,0.231,0.031,0.308,0.108
		c0.077,0.077,0.154,0.154,0.201,0.247L46.518,103.239z M35.056,102.5v-7.488c0-0.061,0.062-0.123,0.169-0.169
		c0.124-0.046,0.262-0.093,0.416-0.123c0.17-0.031,0.339-0.062,0.493-0.078c0.17-0.015,0.293-0.03,0.401-0.03
		c0.139,0,0.262,0.046,0.354,0.154c0.093,0.108,0.139,0.215,0.139,0.339v7.487c0,0.817-0.092,1.495-0.277,2.049
		c-0.185,0.555-0.447,0.986-0.817,1.341c-0.37,0.339-0.832,0.585-1.386,0.724c-0.555,0.139-1.218,0.215-1.957,0.215h-0.139
		c-0.724,0-1.371-0.076-1.91-0.215c-0.555-0.139-1.002-0.385-1.371-0.724c-0.37-0.339-0.632-0.786-0.817-1.341
		c-0.185-0.539-0.277-1.232-0.277-2.049v-7.58c0-0.061,0.061-0.123,0.169-0.169c0.124-0.046,0.247-0.093,0.416-0.123
		c0.154-0.031,0.324-0.062,0.493-0.078c0.17-0.015,0.308-0.03,0.401-0.03c0.138,0,0.246,0.046,0.354,0.154
		c0.093,0.108,0.154,0.215,0.154,0.339v7.379c0,0.478,0.031,0.879,0.108,1.218c0.077,0.338,0.2,0.616,0.385,0.816
		c0.185,0.216,0.432,0.37,0.74,0.462c0.308,0.093,0.693,0.154,1.155,0.154h0.139c0.478,0,0.863-0.046,1.186-0.154
		c0.308-0.108,0.57-0.262,0.755-0.462c0.185-0.216,0.324-0.478,0.401-0.816C35.025,103.378,35.056,102.978,35.056,102.5
		 M106.742,75.538v14.313h-3.944V67.989h5.5l5.285,13.466V67.989h4.006v21.862h-5.023L106.742,75.538z M95.419,67.989h4.437v21.862
		h-4.437V67.989z M78.395,67.989h4.56v9.506l5.685-9.506h4.76L87.084,78.05L93.4,89.867h-5.284l-5.161-10.631v10.631h-4.56V67.989z
		 M70.967,84.998H64.62l-1.156,4.869h-4.575l6.162-21.878h5.824l6.07,21.878h-4.791L70.967,84.998z M70.06,81.193l-2.188-9.044
		l-2.296,9.044H70.06z M45.625,67.989h11.817v3.713h-7.195v4.668h6.625v3.806h-6.625v5.823h7.21v3.852H45.625V67.989z
		 M35.595,67.989c5.839,0,7.642,3.097,7.642,10.939s-1.818,10.939-7.657,10.939h-7.488V67.989H35.595z M32.683,86.092h2.08
		c3.405,0,3.836-2.003,3.836-7.241c0-5.223-0.431-7.226-3.836-7.226h-2.08V86.092z M81.507,51.366l-9.938-17.24l1.31-2.203
		l11.154,19.443H81.507z M76.808,51.366l-7.611-13.142l1.279-2.157l8.766,15.299H76.808z M72.032,51.366l-5.223-9.013l1.325-2.234
		l6.424,11.231h-2.526V51.366z M67.225,51.366l-2.804-4.869l1.325-2.234l4.052,7.103H67.225z M61.601,51.366l1.71-2.928l1.711,2.928
		H61.601z M59.429,29.889v18.365c0,7.41,6.009,13.419,13.419,13.419c7.411,0,13.419-6.009,13.419-13.419V29.889H59.429z"/>
	<path style="clip-path:url(#SVGID_00000096761403751138858900000010681586881711926196_);fill:#FFFFFF;" d="M564.434,121.23h-6.136
		l3.036-10.159L564.434,121.23z M559.874,108.842l-6.009,18.948h2.46l1.396-4.51h7.315l1.371,4.51h2.703l-6.175-18.948H559.874z
		 M548.243,127.79h2.447v-18.948h-2.447V127.79z M535.838,108.842v18.948h9.339v-2.101h-6.93v-16.847H535.838z M528.119,121.23
		h-6.136l3.036-10.159L528.119,121.23z M523.558,108.842l-6.008,18.948h2.46l1.396-4.51h7.315l1.371,4.51h2.703l-6.175-18.948
		H523.558z M509.542,110.943c0.871,0,1.544,0.241,2.018,0.724c0.474,0.482,0.711,1.215,0.711,2.197c0,1.008-0.261,1.787-0.782,2.338
		c-0.521,0.551-1.345,0.826-2.472,0.826h-2.947v-6.085H509.542z M503.636,108.842v18.948h2.434v-8.712h2.05
		c1.102,0,1.866,0.094,2.293,0.282c0.427,0.188,0.754,0.493,0.98,0.916c0.226,0.423,0.37,1.031,0.429,1.825l0.103,1.474l0.102,2.062
		c0.017,0.351,0.064,0.714,0.141,1.089c0.077,0.376,0.18,0.73,0.308,1.064h2.523c-0.401-1.691-0.612-3.327-0.634-4.907
		c-0.021-1.58-0.239-2.75-0.653-3.51s-1.228-1.243-2.44-1.448c1.11-0.213,1.964-0.705,2.562-1.473
		c0.597-0.769,0.897-1.738,0.897-2.908c0-1.435-0.408-2.577-1.224-3.427c-0.816-0.85-1.885-1.275-3.209-1.275H503.636z
		 M488.258,108.842v2.101h4.958v16.847h2.434v-16.847h4.984v-2.101H488.258z M484.314,109.796c-0.876-0.858-2.163-1.287-3.863-1.287
		c-1.759,0-3.143,0.457-4.15,1.371c-1.008,0.914-1.512,2.135-1.512,3.664c0,0.973,0.231,1.832,0.692,2.575
		c0.461,0.743,1.17,1.405,2.126,1.985c0.957,0.581,1.975,1.136,3.056,1.666c1.08,0.53,1.791,1.063,2.133,1.601
		c0.341,0.538,0.512,1.076,0.512,1.614c0,0.914-0.307,1.647-0.922,2.198c-0.615,0.55-1.418,0.826-2.409,0.826
		c-0.965,0-1.748-0.303-2.35-0.91c-0.602-0.606-0.904-1.46-0.904-2.562v-0.551h-2.382v0.743c0,1.751,0.478,3.081,1.434,3.991
		c0.957,0.909,2.34,1.364,4.151,1.364c1.751,0,3.165-0.457,4.241-1.371c1.076-0.913,1.614-2.156,1.614-3.728
		c0-1.033-0.22-1.891-0.66-2.575c-0.44-0.683-1.078-1.326-1.915-1.928c-0.837-0.602-1.772-1.135-2.806-1.601
		c-1.033-0.465-1.817-0.995-2.351-1.589c-0.533-0.593-0.8-1.244-0.8-1.953c0-0.871,0.264-1.544,0.794-2.018
		c0.529-0.474,1.264-0.711,2.204-0.711c0.965,0,1.682,0.265,2.152,0.794c0.469,0.53,0.704,1.32,0.704,2.37v0.269h2.524v-0.422
		C485.627,111.929,485.189,110.655,484.314,109.796 M459.003,108.842v13.259c0,1.939,0.506,3.434,1.518,4.484
		c1.012,1.051,2.458,1.576,4.337,1.576c1.99,0,3.465-0.553,4.426-1.659c0.961-1.106,1.441-2.756,1.441-4.951v-12.709h-2.357v12.914
		c0,1.452-0.275,2.536-0.826,3.254c-0.551,0.717-1.437,1.076-2.658,1.076c-1.145,0-2.01-0.348-2.595-1.044
		c-0.585-0.696-0.877-1.698-0.877-3.005v-13.195H459.003z M451.901,121.23h-6.137l3.037-10.159L451.901,121.23z M447.34,108.842
		l-6.008,18.948h2.459l1.397-4.51h7.315l1.371,4.51h2.703l-6.175-18.948H447.34z M424.376,108.842v18.948h9.941v-2.101h-7.533
		v-6.585h6.829v-2.076h-6.829v-6.085h7.354v-2.101H424.376z M408.986,108.842v2.101h4.957v16.847h2.434v-16.847h4.984v-2.101
		H408.986z M396.942,115.171c0-1.657,0.269-2.859,0.807-3.607c0.538-0.747,1.426-1.121,2.665-1.121c1.255,0,2.154,0.408,2.697,1.224
		c0.542,0.816,0.813,2.052,0.813,3.709v4.496c0,1.845-0.092,3.148-0.275,3.908c-0.184,0.76-0.528,1.33-1.032,1.71
		c-0.504,0.38-1.247,0.57-2.229,0.57c-1.247,0-2.133-0.391-2.658-1.172c-0.525-0.782-0.788-2.133-0.788-4.055V115.171z
		 M404.955,110.149c-0.961-1.187-2.474-1.781-4.541-1.781s-3.572,0.562-4.516,1.685c-0.944,1.123-1.416,3.047-1.416,5.771v4.932
		c0,2.52,0.463,4.375,1.39,5.567c0.927,1.191,2.394,1.787,4.401,1.787c2.161,0,3.721-0.591,4.682-1.774s1.442-3.321,1.442-6.412
		v-3.549C406.397,113.411,405.916,111.336,404.955,110.149 M373.045,108.842v18.948h2.229v-16.821l5.279,16.821h2.254l5.355-16.821
		v16.821h2.306v-18.948h-3.856l-4.855,15.899l-4.804-15.899H373.045z M359.708,108.842v18.948h9.942v-2.101h-7.533v-6.585h6.828
		v-2.076h-6.828v-6.085h7.353v-2.101H359.708z M350.858,110.943c0.871,0,1.543,0.241,2.017,0.724
		c0.474,0.482,0.711,1.215,0.711,2.197c0,1.008-0.26,1.787-0.781,2.338c-0.521,0.551-1.345,0.826-2.473,0.826h-2.946v-6.085H350.858
		z M344.952,108.842v18.948h2.434v-8.712h2.05c1.101,0,1.866,0.094,2.293,0.282c0.427,0.188,0.754,0.493,0.98,0.916
		c0.226,0.423,0.369,1.031,0.429,1.825l0.103,1.474l0.102,2.062c0.017,0.351,0.064,0.714,0.141,1.089
		c0.077,0.376,0.179,0.73,0.307,1.064h2.524c-0.401-1.691-0.613-3.327-0.634-4.907c-0.021-1.58-0.239-2.75-0.653-3.51
		c-0.415-0.76-1.228-1.243-2.441-1.448c1.11-0.213,1.965-0.705,2.562-1.473c0.598-0.769,0.897-1.738,0.897-2.908
		c0-1.435-0.408-2.577-1.223-3.427c-0.816-0.85-1.886-1.275-3.209-1.275H344.952z M331.25,124.279
		c-0.435,0.641-0.965,1.128-1.588,1.461c-0.624,0.333-1.346,0.499-2.165,0.499c-1.196,0-2.159-0.341-2.889-1.024
		c-0.731-0.684-1.096-1.585-1.096-2.704c0-0.828,0.237-1.548,0.711-2.158c0.474-0.611,1.258-1.271,2.351-1.98L331.25,124.279z
		 M325.754,113.973c-0.359-0.594-0.538-1.13-0.538-1.608c0-0.598,0.19-1.067,0.57-1.409c0.38-0.342,0.891-0.513,1.531-0.513
		c0.658,0,1.164,0.167,1.518,0.5c0.355,0.333,0.532,0.79,0.532,1.371c0,0.563-0.179,1.144-0.538,1.742
		c-0.359,0.598-0.88,1.187-1.563,1.768C326.617,115.183,326.113,114.567,325.754,113.973 M331.052,114.703
		c0.465-0.798,0.698-1.612,0.698-2.44c0-1.196-0.383-2.103-1.147-2.723c-0.764-0.619-1.851-0.929-3.26-0.929
		c-1.435,0-2.556,0.31-3.363,0.929c-0.807,0.62-1.211,1.497-1.211,2.633c0,0.717,0.224,1.51,0.673,2.376
		c0.448,0.867,1.048,1.677,1.8,2.428c-1.461,0.829-2.518,1.67-3.171,2.524c-0.653,0.854-0.98,1.913-0.98,3.177
		c0,1.708,0.561,3.053,1.685,4.035c1.123,0.983,2.645,1.474,4.567,1.474c1.161,0,2.135-0.175,2.921-0.526
		c0.785-0.35,1.541-0.956,2.267-1.819l1.525,1.948h2.729l-3.037-4.062c0.359-0.623,0.622-1.383,0.788-2.28
		c0.167-0.897,0.25-1.87,0.25-2.921v-1.883H332.8c0.017,0.077,0.026,0.184,0.026,0.32v0.987c0,0.717-0.037,1.439-0.109,2.165
		c-0.073,0.726-0.186,1.358-0.339,1.896l-3.703-4.689C329.794,116.375,330.586,115.502,331.052,114.703 M304.725,108.842v18.948
		h9.339v-2.101h-6.931v-16.847H304.725z M297.006,121.23h-6.137l3.036-10.159L297.006,121.23z M292.445,108.842l-6.009,18.948h2.46
		l1.397-4.51h7.315l1.371,4.51h2.703l-6.175-18.948H292.445z M278.429,110.943c0.871,0,1.543,0.241,2.017,0.724
		c0.474,0.482,0.711,1.215,0.711,2.197c0,1.008-0.26,1.787-0.781,2.338c-0.521,0.551-1.345,0.826-2.473,0.826h-2.946v-6.085H278.429
		z M272.523,108.842v18.948h2.434v-8.712h2.05c1.101,0,1.866,0.094,2.293,0.282c0.427,0.188,0.753,0.493,0.98,0.916
		c0.226,0.423,0.369,1.031,0.429,1.825l0.102,1.474l0.103,2.062c0.017,0.351,0.064,0.714,0.141,1.089
		c0.077,0.376,0.179,0.73,0.307,1.064h2.524c-0.401-1.691-0.613-3.327-0.634-4.907c-0.021-1.58-0.239-2.75-0.653-3.51
		c-0.415-0.76-1.228-1.243-2.441-1.448c1.11-0.213,1.964-0.705,2.562-1.473c0.598-0.769,0.897-1.738,0.897-2.908
		c0-1.435-0.408-2.577-1.223-3.427c-0.816-0.85-1.886-1.275-3.21-1.275H272.523z M256.723,108.842v13.259
		c0,1.939,0.506,3.434,1.518,4.484c1.012,1.051,2.458,1.576,4.337,1.576c1.99,0,3.465-0.553,4.426-1.659
		c0.961-1.106,1.441-2.756,1.441-4.951v-12.709h-2.357v12.914c0,1.452-0.276,2.536-0.826,3.254
		c-0.551,0.717-1.437,1.076-2.659,1.076c-1.144,0-2.009-0.348-2.594-1.044s-0.877-1.698-0.877-3.005v-13.195H256.723z
		 M248.007,110.943c0.871,0,1.544,0.241,2.018,0.724c0.474,0.482,0.711,1.215,0.711,2.197c0,1.008-0.261,1.787-0.782,2.338
		c-0.521,0.551-1.345,0.826-2.472,0.826h-2.947v-6.085H248.007z M242.101,108.842v18.948h2.434v-8.712h2.05
		c1.102,0,1.866,0.094,2.293,0.282c0.427,0.188,0.754,0.493,0.98,0.916c0.226,0.423,0.369,1.031,0.429,1.825l0.103,1.474
		l0.102,2.062c0.017,0.351,0.064,0.714,0.141,1.089c0.077,0.376,0.18,0.73,0.308,1.064h2.523c-0.401-1.691-0.613-3.327-0.634-4.907
		c-0.021-1.58-0.239-2.75-0.653-3.51s-1.228-1.243-2.441-1.448c1.111-0.213,1.965-0.705,2.563-1.473
		c0.597-0.769,0.896-1.738,0.896-2.908c0-1.435-0.408-2.577-1.223-3.427c-0.816-0.85-1.885-1.275-3.209-1.275H242.101z"/>
	<path style="clip-path:url(#SVGID_00000096761403751138858900000010681586881711926196_);fill:#FFFFFF;" d="M683.107,80.296
		c-0.875-0.858-2.163-1.287-3.862-1.287c-1.76,0-3.144,0.457-4.151,1.371c-1.008,0.914-1.512,2.135-1.512,3.664
		c0,0.973,0.231,1.832,0.692,2.575s1.17,1.405,2.126,1.985c0.957,0.581,1.975,1.136,3.056,1.666c1.08,0.53,1.791,1.063,2.133,1.601
		c0.342,0.538,0.512,1.076,0.512,1.614c0,0.914-0.307,1.647-0.922,2.198c-0.615,0.55-1.418,0.826-2.408,0.826
		c-0.966,0-1.749-0.303-2.351-0.91c-0.602-0.606-0.903-1.46-0.903-2.562v-0.551h-2.383v0.743c0,1.751,0.478,3.081,1.435,3.991
		c0.956,0.909,2.34,1.364,4.15,1.364c1.751,0,3.165-0.457,4.241-1.371c1.076-0.913,1.614-2.156,1.614-3.728
		c0-1.033-0.22-1.891-0.66-2.575c-0.44-0.683-1.078-1.326-1.915-1.928c-0.837-0.602-1.772-1.135-2.806-1.601
		c-1.033-0.465-1.817-0.995-2.35-1.589c-0.534-0.593-0.801-1.244-0.801-1.953c0-0.871,0.264-1.544,0.794-2.018
		c0.53-0.474,1.264-0.711,2.204-0.711c0.965,0,1.682,0.265,2.152,0.794c0.469,0.53,0.704,1.32,0.704,2.37v0.269h2.524v-0.422
		C684.42,82.429,683.982,81.155,683.107,80.296 M668.324,80.296c-0.876-0.858-2.163-1.287-3.863-1.287
		c-1.759,0-3.143,0.457-4.15,1.371c-1.008,0.914-1.512,2.135-1.512,3.664c0,0.973,0.23,1.832,0.692,2.575
		c0.461,0.743,1.17,1.405,2.126,1.985c0.957,0.581,1.975,1.136,3.056,1.666c1.08,0.53,1.791,1.063,2.133,1.601
		c0.341,0.538,0.512,1.076,0.512,1.614c0,0.914-0.307,1.647-0.922,2.198c-0.615,0.55-1.418,0.826-2.409,0.826
		c-0.965,0-1.748-0.303-2.351-0.91c-0.602-0.606-0.903-1.46-0.903-2.562v-0.551h-2.383v0.743c0,1.751,0.479,3.081,1.435,3.991
		c0.957,0.909,2.34,1.364,4.151,1.364c1.751,0,3.164-0.457,4.24-1.371c1.077-0.913,1.615-2.156,1.615-3.728
		c0-1.033-0.22-1.891-0.66-2.575c-0.44-0.683-1.078-1.326-1.915-1.928c-0.837-0.602-1.773-1.135-2.806-1.601
		c-1.033-0.465-1.817-0.995-2.351-1.589c-0.534-0.593-0.8-1.244-0.8-1.953c0-0.871,0.264-1.544,0.794-2.018
		c0.529-0.474,1.264-0.711,2.203-0.711c0.965,0,1.683,0.265,2.153,0.794c0.469,0.53,0.704,1.32,0.704,2.37v0.269h2.524v-0.422
		C669.637,82.429,669.199,81.155,668.324,80.296 M645.341,85.671c0-1.657,0.269-2.859,0.807-3.607
		c0.539-0.747,1.427-1.121,2.665-1.121c1.256,0,2.154,0.408,2.697,1.224c0.542,0.816,0.813,2.052,0.813,3.709v4.496
		c0,1.845-0.091,3.148-0.275,3.908c-0.184,0.76-0.528,1.33-1.031,1.71c-0.504,0.38-1.247,0.57-2.229,0.57
		c-1.247,0-2.133-0.391-2.659-1.172c-0.525-0.782-0.788-2.133-0.788-4.055V85.671z M653.355,80.649
		c-0.961-1.187-2.475-1.781-4.542-1.781c-2.067,0-3.572,0.562-4.516,1.685c-0.943,1.123-1.415,3.047-1.415,5.771v4.932
		c0,2.52,0.463,4.375,1.39,5.567c0.926,1.191,2.393,1.787,4.4,1.787c2.161,0,3.722-0.591,4.683-1.774s1.441-3.321,1.441-6.412
		v-3.549C654.796,83.911,654.316,81.836,653.355,80.649 M634.229,81.443c0.871,0,1.543,0.241,2.017,0.724
		c0.474,0.482,0.711,1.215,0.711,2.197c0,1.008-0.26,1.787-0.781,2.338c-0.521,0.551-1.345,0.826-2.473,0.826h-2.946v-6.085H634.229
		z M628.323,79.342V98.29h2.434v-8.712h2.05c1.101,0,1.866,0.094,2.293,0.282c0.427,0.188,0.754,0.493,0.98,0.916
		c0.226,0.423,0.369,1.031,0.429,1.825l0.103,1.474l0.102,2.062c0.017,0.351,0.064,0.714,0.141,1.089
		c0.077,0.376,0.179,0.73,0.307,1.064h2.524c-0.401-1.691-0.613-3.327-0.634-4.907c-0.021-1.58-0.239-2.75-0.653-3.51
		c-0.415-0.76-1.228-1.243-2.441-1.448c1.11-0.213,1.964-0.705,2.562-1.473c0.598-0.769,0.897-1.738,0.897-2.908
		c0-1.435-0.408-2.577-1.223-3.427c-0.816-0.85-1.886-1.275-3.21-1.275H628.323z M623.372,80.386
		c-0.82-0.833-2.088-1.249-3.805-1.249c-2.152,0-3.702,0.57-4.65,1.71c-0.948,1.14-1.422,3-1.422,5.58v3.997
		c0,3.108,0.474,5.246,1.422,6.412c0.948,1.165,2.357,1.748,4.228,1.748c1.887,0,3.307-0.467,4.259-1.403
		c0.952-0.935,1.429-2.367,1.429-4.298v-0.346h-2.486c-0.017,1.333-0.29,2.328-0.82,2.985c-0.529,0.658-1.306,0.987-2.331,0.987
		c-1.145,0-1.969-0.412-2.473-1.236c-0.504-0.825-0.756-2.24-0.756-4.247v-4.599c0-2.119,0.282-3.521,0.846-4.209
		c0.564-0.687,1.409-1.031,2.536-1.031c0.991,0,1.694,0.258,2.108,0.775c0.414,0.517,0.621,1.343,0.621,2.479v0.282h2.524v-0.5
		C624.602,82.498,624.192,81.219,623.372,80.386 M606.638,91.73h-6.137l3.037-10.159L606.638,91.73z M602.077,79.342l-6.008,18.948
		h2.459l1.397-4.51h7.315l1.371,4.51h2.703l-6.175-18.948H602.077z M587.062,80.296c-0.875-0.858-2.163-1.287-3.862-1.287
		c-1.76,0-3.143,0.457-4.151,1.371c-1.008,0.914-1.512,2.135-1.512,3.664c0,0.973,0.231,1.832,0.692,2.575s1.17,1.405,2.127,1.985
		c0.956,0.581,1.975,1.136,3.055,1.666c1.08,0.53,1.792,1.063,2.133,1.601c0.342,0.538,0.513,1.076,0.513,1.614
		c0,0.914-0.308,1.647-0.923,2.198c-0.615,0.55-1.418,0.826-2.408,0.826c-0.966,0-1.749-0.303-2.351-0.91
		c-0.602-0.606-0.903-1.46-0.903-2.562v-0.551h-2.383v0.743c0,1.751,0.478,3.081,1.435,3.991c0.956,0.909,2.34,1.364,4.15,1.364
		c1.751,0,3.165-0.457,4.241-1.371c1.076-0.913,1.614-2.156,1.614-3.728c0-1.033-0.22-1.891-0.66-2.575
		c-0.44-0.683-1.078-1.326-1.915-1.928c-0.837-0.602-1.772-1.135-2.805-1.601c-1.034-0.465-1.818-0.995-2.351-1.589
		c-0.534-0.593-0.801-1.244-0.801-1.953c0-0.871,0.265-1.544,0.794-2.018c0.53-0.474,1.264-0.711,2.204-0.711
		c0.965,0,1.682,0.265,2.152,0.794c0.47,0.53,0.705,1.32,0.705,2.37v0.269h2.523v-0.422
		C588.375,82.429,587.938,81.155,587.062,80.296 M564.275,79.342V98.29h9.941v-2.101h-7.533v-6.585h6.828v-2.076h-6.828v-6.085
		h7.354v-2.101H564.275z M542.69,79.342V98.29h2.229V81.469l5.278,16.821h2.255l5.355-16.821V98.29h2.306V79.342h-3.856
		l-4.856,15.899l-4.804-15.899H542.69z M529.245,85.671c0-1.657,0.269-2.859,0.807-3.607c0.538-0.747,1.426-1.121,2.665-1.121
		c1.255,0,2.154,0.408,2.696,1.224c0.543,0.816,0.814,2.052,0.814,3.709v4.496c0,1.845-0.092,3.148-0.276,3.908
		c-0.183,0.76-0.527,1.33-1.031,1.71c-0.504,0.38-1.247,0.57-2.229,0.57c-1.247,0-2.133-0.391-2.658-1.172
		c-0.526-0.782-0.788-2.133-0.788-4.055V85.671z M537.258,80.649c-0.961-1.187-2.475-1.781-4.541-1.781
		c-2.067,0-3.573,0.562-4.516,1.685c-0.944,1.123-1.416,3.047-1.416,5.771v4.932c0,2.52,0.463,4.375,1.39,5.567
		c0.927,1.191,2.393,1.787,4.401,1.787c2.16,0,3.721-0.591,4.682-1.774s1.441-3.321,1.441-6.412v-3.549
		C538.699,83.911,538.219,81.836,537.258,80.649 M521.873,80.386c-0.82-0.833-2.089-1.249-3.805-1.249
		c-2.153,0-3.703,0.57-4.651,1.71c-0.948,1.14-1.422,3-1.422,5.58v3.997c0,3.108,0.474,5.246,1.422,6.412
		c0.948,1.165,2.357,1.748,4.228,1.748c1.887,0,3.307-0.467,4.26-1.403c0.952-0.935,1.428-2.367,1.428-4.298v-0.346h-2.485
		c-0.018,1.333-0.291,2.328-0.82,2.985c-0.53,0.658-1.307,0.987-2.332,0.987c-1.145,0-1.969-0.412-2.472-1.236
		c-0.504-0.825-0.756-2.24-0.756-4.247v-4.599c0-2.119,0.282-3.521,0.845-4.209c0.564-0.687,1.409-1.031,2.537-1.031
		c0.991,0,1.693,0.258,2.107,0.775c0.414,0.517,0.622,1.343,0.622,2.479v0.282h2.523v-0.5
		C523.102,82.498,522.692,81.219,521.873,80.386 M497.145,79.342v2.101h4.957V98.29h2.435V81.443h4.983v-2.101H497.145z
		 M482.392,79.342v13.259c0,1.939,0.506,3.434,1.518,4.484c1.013,1.051,2.458,1.576,4.337,1.576c1.99,0,3.465-0.553,4.426-1.659
		c0.961-1.106,1.441-2.756,1.441-4.951V79.342h-2.357v12.914c0,1.452-0.275,2.536-0.826,3.254c-0.551,0.717-1.437,1.076-2.658,1.076
		c-1.145,0-2.01-0.348-2.595-1.044c-0.585-0.696-0.877-1.698-0.877-3.005V79.342H482.392z M469.043,85.671
		c0-1.657,0.269-2.859,0.807-3.607c0.538-0.747,1.426-1.121,2.665-1.121c1.255,0,2.154,0.408,2.697,1.224
		c0.542,0.816,0.813,2.052,0.813,3.709v4.496c0,1.845-0.092,3.148-0.275,3.908c-0.184,0.76-0.528,1.33-1.032,1.71
		c-0.504,0.38-1.247,0.57-2.229,0.57c-1.247,0-2.133-0.391-2.658-1.172c-0.525-0.782-0.788-2.133-0.788-4.055V85.671z
		 M477.056,80.649c-0.961-1.187-2.474-1.781-4.541-1.781c-2.067,0-3.572,0.562-4.516,1.685s-1.416,3.047-1.416,5.771v4.932
		c0,2.52,0.463,4.375,1.39,5.567c0.927,1.191,2.394,1.787,4.401,1.787c2.161,0,3.721-0.591,4.682-1.774s1.442-3.321,1.442-6.412
		v-3.549C478.498,83.911,478.017,81.836,477.056,80.649 M452.382,81.443c0.871,0,1.544,0.241,2.018,0.724
		c0.474,0.482,0.711,1.215,0.711,2.197c0,1.008-0.261,1.787-0.782,2.338c-0.521,0.551-1.345,0.826-2.472,0.826h-2.947v-6.085
		H452.382z M446.476,79.342V98.29h2.434v-8.712h2.05c1.102,0,1.866,0.094,2.293,0.282c0.427,0.188,0.754,0.493,0.98,0.916
		c0.226,0.423,0.369,1.031,0.429,1.825l0.103,1.474l0.102,2.062c0.017,0.351,0.064,0.714,0.141,1.089
		c0.077,0.376,0.18,0.73,0.308,1.064h2.523c-0.401-1.691-0.612-3.327-0.634-4.907c-0.021-1.58-0.239-2.75-0.653-3.51
		s-1.228-1.243-2.441-1.448c1.111-0.213,1.965-0.705,2.563-1.473c0.597-0.769,0.896-1.738,0.896-2.908
		c0-1.435-0.407-2.577-1.223-3.427c-0.816-0.85-1.885-1.275-3.209-1.275H446.476z M433.202,79.342V98.29h9.941v-2.101h-7.532v-6.585
		h6.828v-2.076h-6.828v-6.085h7.353v-2.101H433.202z M428.239,80.386c-0.82-0.833-2.088-1.249-3.805-1.249
		c-2.152,0-3.702,0.57-4.65,1.71c-0.948,1.14-1.422,3-1.422,5.58v3.997c0,3.108,0.474,5.246,1.422,6.412
		c0.948,1.165,2.357,1.748,4.227,1.748c1.888,0,3.308-0.467,4.26-1.403c0.952-0.935,1.428-2.367,1.428-4.298v-0.346h-2.485
		c-0.017,1.333-0.29,2.328-0.82,2.985c-0.529,0.658-1.307,0.987-2.331,0.987c-1.145,0-1.969-0.412-2.473-1.236
		c-0.504-0.825-0.756-2.24-0.756-4.247v-4.599c0-2.119,0.282-3.521,0.846-4.209c0.563-0.687,1.409-1.031,2.536-1.031
		c0.991,0,1.693,0.258,2.108,0.775c0.414,0.517,0.621,1.343,0.621,2.479v0.282h2.524v-0.5
		C429.469,82.498,429.059,81.219,428.239,80.386 M401.443,79.342V98.29h2.178V81.866l7.533,16.424h3.28V79.342h-2.153v16.219
		l-7.456-16.219H401.443z M393.664,91.73h-6.137l3.036-10.159L393.664,91.73z M389.103,79.342l-6.008,18.948h2.459l1.397-4.51h7.315
		l1.371,4.51h2.703l-6.175-18.948H389.103z M379.525,80.386c-0.82-0.833-2.088-1.249-3.805-1.249c-2.152,0-3.702,0.57-4.65,1.71
		c-0.948,1.14-1.422,3-1.422,5.58v3.997c0,3.108,0.474,5.246,1.422,6.412c0.948,1.165,2.357,1.748,4.227,1.748
		c1.888,0,3.308-0.467,4.26-1.403c0.952-0.935,1.429-2.367,1.429-4.298v-0.346H378.5c-0.017,1.333-0.29,2.328-0.82,2.985
		c-0.529,0.658-1.306,0.987-2.331,0.987c-1.145,0-1.969-0.412-2.473-1.236c-0.504-0.825-0.756-2.24-0.756-4.247v-4.599
		c0-2.119,0.282-3.521,0.846-4.209c0.563-0.687,1.409-1.031,2.536-1.031c0.991,0,1.693,0.258,2.108,0.775
		c0.414,0.517,0.621,1.343,0.621,2.479v0.282h2.524v-0.5C380.755,82.498,380.345,81.219,379.525,80.386 M351.206,79.342V98.29h9.941
		v-2.101h-7.533v-6.585h6.829v-2.076h-6.829v-6.085h7.354v-2.101H351.206z M338.959,79.342V98.29h9.34v-2.101h-6.931V79.342H338.959
		z M325.857,96.189v-6.765h2.691c1.007,0.018,1.785,0.124,2.331,0.321c0.547,0.196,0.987,0.561,1.32,1.095s0.499,1.189,0.499,1.966
		c0,1.179-0.331,2.037-0.992,2.575c-0.662,0.539-1.86,0.808-3.594,0.808H325.857z M325.857,87.349v-5.957h2.78
		c1.17,0,2.048,0.233,2.633,0.698c0.585,0.466,0.878,1.232,0.878,2.3c0,1.059-0.276,1.817-0.827,2.274
		c-0.551,0.457-1.402,0.685-2.555,0.685H325.857z M323.41,79.342V98.29h5.804c1.998,0,3.491-0.432,4.477-1.294
		c0.987-0.863,1.48-2.208,1.48-4.036c0-1.366-0.312-2.421-0.935-3.164c-0.624-0.743-1.597-1.2-2.921-1.371v-0.128
		c2.169-0.495,3.254-1.973,3.254-4.433c0-1.392-0.438-2.493-1.313-3.305c-0.876-0.811-2.065-1.217-3.568-1.217H323.41z
		 M315.581,91.73h-6.137l3.037-10.159L315.581,91.73z M311.02,79.342l-6.008,18.948h2.46l1.396-4.51h7.315l1.371,4.51h2.703
		l-6.175-18.948H311.02z M293.017,79.342v2.101h4.958V98.29h2.434V81.443h4.983v-2.101H293.017z M287.404,98.29h2.447V79.342h-2.447
		V98.29z M271.432,79.342v13.259c0,1.939,0.506,3.434,1.518,4.484c1.012,1.051,2.457,1.576,4.336,1.576
		c1.99,0,3.466-0.553,4.426-1.659c0.961-1.106,1.442-2.756,1.442-4.951V79.342h-2.357v12.914c0,1.452-0.276,2.536-0.827,3.254
		c-0.551,0.717-1.437,1.076-2.658,1.076c-1.145,0-2.009-0.348-2.594-1.044c-0.585-0.696-0.878-1.698-0.878-3.005V79.342H271.432z
		 M257.449,85.466c0-1.58,0.28-2.729,0.839-3.446c0.56-0.718,1.424-1.077,2.595-1.077c1.298,0,2.214,0.413,2.748,1.237
		c0.533,0.824,0.8,2.047,0.8,3.67v4.599c0,1.751-0.096,3.004-0.288,3.76c-0.192,0.756-0.544,1.301-1.057,1.634
		c-0.512,0.333-1.247,0.499-2.203,0.499c-1.256,0-2.142-0.388-2.659-1.166c-0.517-0.777-0.775-2.152-0.775-4.125V85.466z
		 M265.463,80.662c-0.953-1.196-2.471-1.794-4.555-1.794c-1.298,0-2.381,0.226-3.247,0.679c-0.867,0.453-1.529,1.2-1.986,2.242
		c-0.457,1.042-0.686,2.643-0.686,4.804v4.433c0,2.468,0.451,4.313,1.352,5.534c0.901,1.222,2.462,1.832,4.682,1.832
		c1.162,0,1.899-0.017,2.21-0.051c0.312-0.034,0.502-0.051,0.57-0.051h5.01v-2.076h-0.5c-0.863,0-1.48,0.028-1.851,0.083
		c-0.372,0.056-0.788,0.161-1.249,0.314c0.64-0.828,1.08-1.693,1.319-2.594c0.239-0.901,0.359-2.039,0.359-3.414v-3.702
		C266.891,83.937,266.415,81.857,265.463,80.662 M242.127,79.342V98.29h9.941v-2.101h-7.533v-6.585h6.829v-2.076h-6.829v-6.085
		h7.354v-2.101H242.127z"/>
	<path style="clip-path:url(#SVGID_00000096761403751138858900000010681586881711926196_);fill:#FFFFFF;" d="M420.306,24.684
		l4.399,18.367h-8.541L420.306,24.684z M415.05,16.543L403.339,58.79h8.74l2.4-9.369h12.025l2.343,9.369h9.312l-11.455-42.247
		H415.05z M381.223,23.056h1.885c2.685,0,4.437,0.428,5.256,1.285c0.818,0.857,1.228,2.333,1.228,4.428
		c0,2.113-0.414,3.646-1.243,4.598c-0.828,0.953-2.518,1.429-5.07,1.429h-2.056V23.056z M372.339,16.543V58.79h8.884V41.308h1.713
		c2.647,0,4.447,0.453,5.399,1.357c0.952,0.905,1.428,2.576,1.428,5.013v6.484c0,1.143,0.067,1.986,0.2,2.528
		c0.133,0.543,0.381,1.243,0.743,2.1h8.655c-0.191-0.571-0.328-1.324-0.414-2.257c-0.086-0.933-0.157-1.914-0.214-2.942
		l-0.429-7.255c-0.171-2.723-0.776-4.694-1.814-5.913c-1.038-1.219-2.947-2.018-5.727-2.4c2.609-0.494,4.537-1.58,5.784-3.256
		c1.247-1.675,1.871-4.018,1.871-7.027c0-3.808-0.933-6.627-2.799-8.455c-1.866-1.828-4.732-2.742-8.598-2.742H372.339z
		 M348.74,23.056h1.886c2.685,0,4.436,0.428,5.255,1.285c0.819,0.857,1.229,2.333,1.229,4.428c0,2.113-0.414,3.646-1.243,4.598
		c-0.828,0.953-2.518,1.429-5.07,1.429h-2.057V23.056z M339.857,16.543V58.79h8.883V41.308h1.714c2.647,0,4.446,0.453,5.399,1.357
		c0.952,0.905,1.428,2.576,1.428,5.013v6.484c0,1.143,0.067,1.986,0.2,2.528c0.133,0.543,0.381,1.243,0.743,2.1h8.655
		c-0.191-0.571-0.329-1.324-0.414-2.257c-0.086-0.933-0.158-1.914-0.215-2.942l-0.428-7.255c-0.171-2.723-0.776-4.694-1.814-5.913
		c-1.038-1.219-2.947-2.018-5.727-2.4c2.609-0.494,4.537-1.58,5.784-3.256c1.247-1.675,1.871-4.018,1.871-7.027
		c0-3.808-0.933-6.627-2.799-8.455c-1.867-1.828-4.732-2.742-8.598-2.742H339.857z M313.18,34.796c0-5.008,0.4-8.431,1.2-10.269
		c0.8-1.838,2.275-2.757,4.427-2.757c2.19,0,3.68,0.862,4.471,2.585c0.79,1.724,1.185,4.509,1.185,8.355v4.028
		c0,2.781-0.053,5.484-0.157,8.112c-0.105,2.628-0.543,4.69-1.314,6.185c-0.771,1.495-2.185,2.242-4.242,2.242
		c-1.467,0-2.595-0.438-3.385-1.314c-0.79-0.876-1.352-2.228-1.685-4.056c-0.334-1.828-0.5-5.008-0.5-9.541V34.796z M318.607,59.561
		c2.666,0,4.894-0.314,6.684-0.943c1.79-0.628,3.233-1.518,4.328-2.67s1.918-2.576,2.471-4.271c0.552-1.694,0.923-3.513,1.114-5.456
		c0.19-1.942,0.285-4.893,0.285-8.855c0-4.417-0.143-7.755-0.428-10.011c-0.286-2.257-0.881-4.294-1.785-6.113
		c-0.905-1.818-2.362-3.242-4.371-4.271c-2.009-1.028-4.727-1.542-8.155-1.542c-3.447,0-6.251,0.667-8.412,1.999
		c-2.162,1.334-3.728,3.438-4.699,6.313c-0.971,2.876-1.457,7.341-1.457,13.397c0,5.142,0.243,8.917,0.729,11.326
		c0.485,2.409,1.223,4.404,2.213,5.984c0.99,1.581,2.423,2.828,4.299,3.742C313.299,59.104,315.694,59.561,318.607,59.561
		 M298.558,28.597c0-4.36-1.043-7.564-3.128-9.612c-2.085-2.047-5.137-3.07-9.155-3.07c-3.428,0-6.156,0.566-8.184,1.699
		c-2.028,1.133-3.475,2.662-4.341,4.585c-0.867,1.923-1.424,4.009-1.672,6.255c-0.247,2.248-0.371,5.342-0.371,9.284
		c0,5.008,0.233,8.665,0.7,10.969c0.466,2.304,1.18,4.199,2.142,5.684s2.357,2.666,4.185,3.542s4.199,1.314,7.113,1.314
		c4.474,0,7.788-1.124,9.94-3.371s3.228-5.608,3.228-10.083v-1.228h-8.712v0.485c0,2.724-0.386,4.709-1.157,5.956
		c-0.771,1.247-1.91,1.871-3.414,1.871c-1.79,0-3.066-0.814-3.827-2.442c-0.762-1.628-1.181-3.685-1.257-6.17
		c-0.076-2.485-0.114-4.471-0.114-5.956c0-4.418,0.114-7.569,0.342-9.455c0.229-1.885,0.7-3.442,1.414-4.67
		c0.714-1.228,1.843-1.842,3.385-1.842c1.352,0,2.395,0.528,3.128,1.585s1.1,2.776,1.1,5.156v0.8h8.655V28.597z M243.685,16.543
		V58.79h23.509v-6.599h-14.683V39.966h13.111v-6.513h-13.111V23.056h14.226v-6.513H243.685z"/>
</g>
</svg>
