<?xml version="1.0" encoding="iso-8859-1"?>
<!-- Generator: Adobe Illustrator 29.5.1, SVG Export Plug-In . SVG Version: 9.03 Build 0)  -->
<svg version="1.1" id="Layer_1" xmlns="http://www.w3.org/2000/svg" xmlns:xlink="http://www.w3.org/1999/xlink" x="0px" y="0px"
	 viewBox="0 0 720 144" style="enable-background:new 0 0 720 144;" xml:space="preserve">
<g>
	<defs>
		<rect id="SVGID_1_" width="720" height="144"/>
	</defs>
	<clipPath id="SVGID_00000017499312954126839290000014485992268278751670_">
		<use xlink:href="#SVGID_1_"  style="overflow:visible;"/>
	</clipPath>
	<path style="clip-path:url(#SVGID_00000017499312954126839290000014485992268278751670_);fill:#FFFFFF;" d="M72.921,1.3
		C33.757,1.3,2.008,32.959,2.008,72.012s31.749,70.712,70.913,70.712s70.912-31.659,70.912-70.712S112.085,1.3,72.921,1.3"/>
	<path style="clip-path:url(#SVGID_00000017499312954126839290000014485992268278751670_);fill:#FFFFFF;" d="M72.921,2.98
		c38.175,0,69.233,30.968,69.233,69.032s-31.058,69.032-69.233,69.032S3.688,110.076,3.688,72.012S34.746,2.98,72.921,2.98"/>
</g>
<rect x="191.456" y="16.617" style="fill:#FFFFFF;" width="2" height="111.776"/>
<g>
	<defs>
		<rect id="SVGID_00000158748582729170371190000000764630467598182302_" width="720" height="144"/>
	</defs>
	<clipPath id="SVGID_00000114786671722767639800000004094851032031381905_">
		<use xlink:href="#SVGID_00000158748582729170371190000000764630467598182302_"  style="overflow:visible;"/>
	</clipPath>
	<path style="clip-path:url(#SVGID_00000114786671722767639800000004094851032031381905_);" d="M114.152,102.346v4.129
		c0,0.138-0.046,0.246-0.154,0.323c-0.093,0.077-0.216,0.123-0.37,0.123c-0.092,0-0.231,0-0.385-0.015
		c-0.154-0.015-0.323-0.031-0.478-0.046c-0.154-0.015-0.292-0.062-0.416-0.108c-0.107-0.046-0.169-0.108-0.169-0.169v-4.222
		l-3.605-7.041c-0.123-0.246-0.139-0.416-0.046-0.523c0.092-0.108,0.262-0.17,0.508-0.17c0.154,0,0.308,0,0.478,0.015
		c0.154,0,0.308,0.016,0.446,0.047c0.139,0.015,0.262,0.046,0.355,0.077c0.092,0.031,0.169,0.077,0.2,0.154l2.65,5.408l2.65-5.393
		c0.031-0.061,0.092-0.123,0.2-0.154c0.093-0.031,0.216-0.061,0.355-0.092c0.138-0.016,0.292-0.031,0.446-0.047
		c0.154,0,0.324-0.015,0.478-0.015c0.246,0,0.416,0.046,0.508,0.154c0.077,0.108,0.062,0.277-0.061,0.539L114.152,102.346z
		 M103.615,96.584v9.891c0,0.138-0.046,0.246-0.154,0.323c-0.108,0.077-0.216,0.123-0.354,0.123c-0.093,0-0.231,0-0.401-0.015
		c-0.17-0.015-0.339-0.031-0.493-0.046s-0.293-0.062-0.401-0.108c-0.123-0.046-0.169-0.108-0.169-0.169v-9.984h-3.051
		c-0.123,0-0.215-0.046-0.308-0.139c-0.077-0.092-0.123-0.2-0.123-0.338c0-0.093,0-0.201,0.015-0.355
		c0.016-0.138,0.031-0.292,0.047-0.431c0.015-0.139,0.061-0.262,0.092-0.37c0.046-0.092,0.093-0.154,0.17-0.154h8.165
		c0.123,0,0.216,0.046,0.308,0.139c0.077,0.092,0.123,0.215,0.123,0.339c0,0.092,0,0.2-0.015,0.354s-0.031,0.293-0.046,0.431
		c-0.016,0.139-0.046,0.262-0.093,0.355c-0.046,0.092-0.092,0.154-0.169,0.154H103.615z M96.497,106.475
		c0,0.138-0.046,0.246-0.154,0.323c-0.092,0.077-0.216,0.123-0.37,0.123c-0.092,0-0.231,0-0.4-0.015
		c-0.17-0.015-0.324-0.031-0.493-0.046c-0.154-0.015-0.293-0.062-0.416-0.108c-0.108-0.046-0.17-0.108-0.17-0.169V94.981
		c0-0.061,0.062-0.123,0.17-0.169c0.123-0.046,0.262-0.092,0.416-0.108c0.154-0.015,0.323-0.046,0.493-0.046
		c0.169-0.016,0.292-0.016,0.4-0.016c0.139,0,0.262,0.047,0.37,0.139c0.092,0.093,0.154,0.2,0.154,0.324V106.475z M85.389,104.888
		c0.092,0.015,0.216,0.061,0.401,0.092c0.185,0.047,0.385,0.093,0.631,0.139c0.231,0.046,0.493,0.077,0.786,0.123
		c0.277,0.031,0.57,0.046,0.847,0.046c0.309,0,0.601-0.03,0.878-0.077c0.278-0.046,0.54-0.138,0.755-0.246
		c0.216-0.123,0.401-0.277,0.524-0.462c0.139-0.201,0.201-0.432,0.201-0.724c0-0.401-0.124-0.74-0.386-1.017
		c-0.261-0.278-0.585-0.539-0.97-0.786c-0.385-0.246-0.817-0.493-1.279-0.739c-0.462-0.247-0.878-0.54-1.279-0.863
		c-0.4-0.324-0.724-0.709-0.97-1.156c-0.262-0.447-0.385-0.986-0.385-1.633c0-0.539,0.092-1.001,0.292-1.371
		c0.2-0.37,0.463-0.678,0.801-0.924c0.339-0.232,0.755-0.416,1.218-0.524c0.477-0.108,1.001-0.17,1.571-0.17
		c0.123,0,0.308,0,0.555,0.016c0.246,0.015,0.508,0.03,0.785,0.061c0.278,0.031,0.555,0.062,0.817,0.108
		c0.277,0.046,0.493,0.108,0.647,0.185c0.154,0.062,0.247,0.139,0.277,0.216c0.031,0.077,0.031,0.2,0.016,0.385
		c-0.016,0.293-0.077,0.524-0.185,0.724c-0.093,0.2-0.231,0.277-0.416,0.246c-0.278-0.061-0.586-0.107-0.94-0.169
		c-0.354-0.046-0.755-0.077-1.186-0.077c-0.678,0-1.248,0.108-1.68,0.293c-0.431,0.2-0.647,0.523-0.647,0.986
		c0,0.369,0.124,0.678,0.386,0.939c0.261,0.263,0.585,0.509,0.97,0.74s0.817,0.478,1.279,0.724c0.462,0.247,0.878,0.539,1.279,0.878
		c0.385,0.339,0.724,0.74,0.97,1.202c0.262,0.462,0.385,1.048,0.385,1.71c0,0.632-0.123,1.156-0.354,1.556
		c-0.231,0.416-0.555,0.724-0.94,0.955c-0.385,0.232-0.847,0.386-1.356,0.478c-0.508,0.093-1.047,0.139-1.602,0.139
		c-0.246,0-0.524-0.016-0.801-0.031s-0.539-0.046-0.817-0.077c-0.261-0.031-0.508-0.077-0.754-0.123
		c-0.232-0.047-0.432-0.093-0.601-0.154c-0.17-0.062-0.262-0.124-0.293-0.185c-0.031-0.077-0.046-0.201-0.015-0.37
		c0.03-0.324,0.092-0.601,0.184-0.817C85.112,104.949,85.234,104.842,85.389,104.888 M79.057,96.568H76.76v3.991h2.296
		c0.447,0,0.816-0.031,1.078-0.077c0.278-0.047,0.478-0.139,0.632-0.278c0.154-0.138,0.247-0.308,0.293-0.539
		s0.077-0.539,0.077-0.909v-0.37c0-0.369-0.031-0.678-0.077-0.924c-0.046-0.231-0.154-0.416-0.293-0.555
		c-0.154-0.138-0.354-0.215-0.632-0.277C79.857,96.599,79.504,96.568,79.057,96.568 M74.773,106.567V95.228
		c0-0.123,0.046-0.216,0.154-0.308c0.108-0.077,0.216-0.123,0.37-0.123h3.651c0.755,0,1.402,0.061,1.941,0.169
		c0.539,0.108,0.971,0.308,1.31,0.585c0.339,0.278,0.585,0.648,0.739,1.11c0.155,0.462,0.231,1.032,0.231,1.741v0.37
		c0,0.523-0.046,0.97-0.123,1.355s-0.216,0.724-0.385,1.002c-0.169,0.277-0.416,0.493-0.709,0.662
		c-0.292,0.17-0.647,0.293-1.047,0.385l2.295,3.975c0.124,0.216,0.185,0.37,0.185,0.478c0,0.061-0.031,0.123-0.077,0.169
		c-0.061,0.047-0.123,0.077-0.185,0.093c-0.061,0.015-0.138,0.03-0.2,0.046c-0.077,0-0.123,0.015-0.154,0.015
		c-0.093,0-0.231,0-0.385-0.015c-0.154-0.016-0.308-0.031-0.462-0.062c-0.154-0.03-0.309-0.061-0.432-0.123
		c-0.123-0.062-0.216-0.139-0.277-0.231l-2.434-4.16h-2.034v4.16c0,0.139-0.046,0.231-0.154,0.308
		c-0.093,0.077-0.216,0.123-0.354,0.123c-0.093,0-0.232,0-0.401-0.015c-0.17-0.016-0.324-0.031-0.493-0.046
		c-0.154-0.016-0.293-0.062-0.416-0.108C74.836,106.69,74.773,106.644,74.773,106.567 M65.068,106.382V95.228
		c0-0.139,0.046-0.247,0.154-0.324c0.092-0.077,0.216-0.107,0.37-0.107h6.64c0.123,0,0.231,0.046,0.308,0.154
		c0.077,0.092,0.123,0.215,0.123,0.339c0,0.092,0,0.2-0.015,0.354c-0.016,0.154-0.031,0.293-0.046,0.431
		c-0.016,0.139-0.062,0.262-0.093,0.355c-0.046,0.092-0.108,0.154-0.169,0.154h-5.269v3.204h4.514c0.108,0,0.2,0.047,0.292,0.139
		c0.078,0.092,0.124,0.2,0.124,0.323c0,0.093,0,0.201-0.016,0.355c-0.015,0.154-0.03,0.292-0.046,0.431
		c-0.015,0.139-0.062,0.262-0.092,0.37c-0.047,0.092-0.093,0.154-0.17,0.154h-4.622v3.389h5.161c0.124,0,0.232,0.047,0.309,0.139
		c0.077,0.093,0.123,0.2,0.123,0.339c0,0.092,0,0.2-0.016,0.354c-0.015,0.139-0.03,0.293-0.046,0.432
		c-0.015,0.138-0.061,0.262-0.092,0.37c-0.046,0.107-0.108,0.154-0.17,0.154h-6.501c-0.154,0-0.324-0.031-0.493-0.108
		C65.145,106.536,65.068,106.459,65.068,106.382 M58.998,103.547l2.496-8.581c0.154-0.154,0.339-0.246,0.539-0.293
		c0.2-0.031,0.431-0.061,0.709-0.061c0.107,0,0.231,0,0.338,0.015c0.124,0.015,0.216,0.031,0.293,0.077
		c0.077,0.046,0.139,0.093,0.185,0.17c0.046,0.077,0.031,0.169,0,0.308l-3.836,11.478c-0.016,0.092-0.077,0.154-0.17,0.2
		c-0.092,0.046-0.185,0.061-0.292,0.061c-0.37,0-0.678-0.015-0.925-0.061c-0.246-0.046-0.4-0.108-0.462-0.185l-3.821-11.493
		c-0.031-0.108-0.031-0.201,0-0.278c0.031-0.077,0.077-0.123,0.154-0.169c0.062-0.046,0.139-0.077,0.231-0.093
		c0.077-0.015,0.154-0.03,0.201-0.03c0.169,0,0.339,0,0.508,0.015c0.17,0.015,0.324,0.031,0.478,0.062
		c0.138,0.031,0.262,0.077,0.369,0.123c0.093,0.062,0.17,0.123,0.201,0.216l2.557,8.504c0.046,0.139,0.077,0.277,0.093,0.416
		c0.015,0.154,0.031,0.277,0.061,0.401c0.016-0.124,0.031-0.262,0.046-0.401C58.921,103.809,58.951,103.671,58.998,103.547
		 M52.589,106.475c0,0.138-0.047,0.246-0.154,0.323c-0.093,0.077-0.216,0.123-0.37,0.123c-0.093,0-0.231,0-0.401-0.015
		c-0.169-0.015-0.323-0.031-0.493-0.046c-0.154-0.015-0.293-0.062-0.416-0.108s-0.169-0.108-0.169-0.169V94.981
		c0-0.061,0.061-0.123,0.169-0.169c0.123-0.046,0.247-0.092,0.416-0.108c0.154-0.015,0.324-0.046,0.493-0.046
		c0.17-0.016,0.293-0.016,0.401-0.016c0.138,0,0.262,0.047,0.37,0.139c0.092,0.093,0.154,0.2,0.154,0.324V106.475z M46.518,103.239
		V94.92c0-0.062,0.062-0.123,0.185-0.154c0.124-0.046,0.262-0.077,0.432-0.093c0.169-0.015,0.339-0.031,0.508-0.046
		c0.17-0.015,0.308-0.015,0.401-0.015c0.292,0,0.431,0.169,0.431,0.493v11.37c0,0.138-0.046,0.231-0.154,0.308
		c-0.108,0.077-0.216,0.123-0.339,0.123c-0.092,0-0.2,0-0.354-0.015c-0.154-0.016-0.293-0.016-0.447-0.046
		c-0.154-0.031-0.278-0.062-0.401-0.093c-0.123-0.046-0.2-0.092-0.246-0.154l-5.377-8.273v8.15c0,0.138-0.046,0.246-0.154,0.323
		c-0.092,0.077-0.216,0.123-0.355,0.123c-0.092,0-0.231,0-0.4-0.015c-0.17-0.015-0.339-0.031-0.493-0.046s-0.293-0.062-0.401-0.108
		c-0.123-0.046-0.169-0.108-0.169-0.169V94.981c0-0.061,0.061-0.123,0.169-0.169c0.124-0.046,0.247-0.092,0.401-0.108
		c0.154-0.015,0.308-0.031,0.477-0.046c0.17-0.016,0.293-0.016,0.401-0.016c0.123,0,0.231,0.031,0.308,0.108
		c0.077,0.077,0.154,0.154,0.201,0.247L46.518,103.239z M35.056,102.5v-7.488c0-0.061,0.062-0.123,0.169-0.169
		c0.124-0.046,0.262-0.093,0.416-0.123c0.17-0.031,0.339-0.062,0.493-0.078c0.17-0.015,0.293-0.03,0.401-0.03
		c0.139,0,0.262,0.046,0.354,0.154c0.093,0.108,0.139,0.215,0.139,0.339v7.487c0,0.817-0.092,1.495-0.277,2.049
		c-0.185,0.555-0.447,0.986-0.817,1.341c-0.37,0.339-0.832,0.585-1.386,0.724c-0.555,0.139-1.218,0.215-1.957,0.215h-0.139
		c-0.724,0-1.371-0.076-1.91-0.215c-0.555-0.139-1.002-0.385-1.371-0.724c-0.37-0.339-0.632-0.786-0.817-1.341
		c-0.185-0.539-0.277-1.232-0.277-2.049v-7.58c0-0.061,0.061-0.123,0.169-0.169c0.124-0.046,0.247-0.093,0.416-0.123
		c0.154-0.031,0.324-0.062,0.493-0.078c0.17-0.015,0.308-0.03,0.401-0.03c0.138,0,0.246,0.046,0.354,0.154
		c0.093,0.108,0.154,0.215,0.154,0.339v7.379c0,0.478,0.031,0.879,0.108,1.218c0.077,0.338,0.2,0.616,0.385,0.816
		c0.185,0.216,0.432,0.37,0.74,0.462c0.308,0.093,0.693,0.154,1.155,0.154h0.139c0.478,0,0.863-0.046,1.186-0.154
		c0.308-0.108,0.57-0.262,0.755-0.462c0.185-0.216,0.324-0.478,0.401-0.816C35.025,103.378,35.056,102.978,35.056,102.5
		 M106.742,75.538v14.313h-3.944V67.989h5.5l5.285,13.466V67.989h4.006v21.862h-5.023L106.742,75.538z M95.419,67.989h4.437v21.862
		h-4.437V67.989z M78.395,67.989h4.56v9.506l5.685-9.506h4.76L87.084,78.05L93.4,89.867h-5.284l-5.161-10.631v10.631h-4.56V67.989z
		 M70.967,84.998H64.62l-1.156,4.869h-4.575l6.162-21.878h5.824l6.07,21.878h-4.791L70.967,84.998z M70.06,81.193l-2.188-9.044
		l-2.296,9.044H70.06z M45.625,67.989h11.817v3.713h-7.195v4.668h6.625v3.806h-6.625v5.823h7.21v3.852H45.625V67.989z
		 M35.595,67.989c5.839,0,7.642,3.097,7.642,10.939s-1.818,10.939-7.657,10.939h-7.488V67.989H35.595z M32.683,86.092h2.08
		c3.405,0,3.836-2.003,3.836-7.241c0-5.223-0.431-7.226-3.836-7.226h-2.08V86.092z M81.507,51.366l-9.938-17.24l1.31-2.203
		l11.154,19.443H81.507z M76.808,51.366l-7.611-13.142l1.279-2.157l8.766,15.299H76.808z M72.032,51.366l-5.223-9.013l1.325-2.234
		l6.424,11.231h-2.526V51.366z M67.225,51.366l-2.804-4.869l1.325-2.234l4.052,7.103H67.225z M61.601,51.366l1.71-2.928l1.711,2.928
		H61.601z M59.429,29.889v18.365c0,7.41,6.009,13.419,13.419,13.419c7.411,0,13.419-6.009,13.419-13.419V29.889H59.429z"/>
	<path style="clip-path:url(#SVGID_00000114786671722767639800000004094851032031381905_);fill:#FFFFFF;" d="M697.544,121.23h-6.136
		l3.036-10.159L697.544,121.23z M692.984,108.842l-6.009,18.947h2.46l1.396-4.509h7.316l1.37,4.509h2.703l-6.175-18.947H692.984z
		 M681.353,127.789h2.447v-18.948h-2.447V127.789z M664.036,108.842v18.947h2.177v-16.423l7.533,16.423h3.28v-18.947h-2.152v16.219
		l-7.456-16.219H664.036z M650.676,108.842v18.947h9.942v-2.101h-7.533v-6.584h6.828v-2.076h-6.828v-6.085h7.353v-2.101H650.676z
		 M638.782,110.943h2.831c1.084,0,1.885,0.263,2.402,0.788c0.517,0.525,0.775,1.296,0.775,2.312c0,1.204-0.31,2.056-0.929,2.556
		s-1.569,0.749-2.85,0.749h-2.229V110.943z M636.36,108.842v18.947h2.422v-8.34h2.831c1.802,0,3.183-0.433,4.144-1.3
		s1.441-2.193,1.441-3.978c0-1.836-0.437-3.183-1.313-4.042c-0.875-0.858-2.24-1.287-4.093-1.287H636.36z M622.805,115.171
		c0-1.657,0.269-2.859,0.807-3.607c0.538-0.747,1.427-1.121,2.665-1.121c1.256,0,2.154,0.408,2.697,1.224
		c0.542,0.815,0.813,2.052,0.813,3.709v4.496c0,1.845-0.092,3.148-0.275,3.908c-0.184,0.76-0.528,1.33-1.031,1.71
		c-0.504,0.38-1.248,0.57-2.23,0.57c-1.247,0-2.133-0.391-2.658-1.172c-0.525-0.782-0.788-2.133-0.788-4.055V115.171z
		 M630.819,110.149c-0.961-1.187-2.475-1.781-4.542-1.781s-3.572,0.562-4.516,1.685c-0.944,1.123-1.415,3.047-1.415,5.771v4.932
		c0,2.52,0.463,4.375,1.39,5.567c0.926,1.191,2.393,1.787,4.4,1.787c2.161,0,3.722-0.592,4.683-1.775
		c0.96-1.182,1.441-3.32,1.441-6.412v-3.548C632.26,113.411,631.779,111.336,630.819,110.149 M615.433,109.886
		c-0.82-0.833-2.088-1.249-3.805-1.249c-2.152,0-3.702,0.57-4.65,1.71s-1.422,3-1.422,5.579v3.997c0,3.109,0.474,5.247,1.422,6.412
		c0.948,1.166,2.357,1.749,4.227,1.749c1.888,0,3.308-0.468,4.26-1.403c0.952-0.935,1.429-2.368,1.429-4.298v-0.346h-2.486
		c-0.017,1.333-0.29,2.328-0.82,2.985c-0.529,0.658-1.306,0.987-2.331,0.987c-1.145,0-1.969-0.412-2.473-1.237
		c-0.504-0.824-0.756-2.239-0.756-4.246v-4.6c0-2.118,0.282-3.52,0.846-4.208c0.563-0.687,1.409-1.031,2.536-1.031
		c0.991,0,1.693,0.258,2.108,0.775c0.414,0.517,0.621,1.343,0.621,2.479v0.282h2.524v-0.5
		C616.663,111.998,616.253,110.719,615.433,109.886 M597.004,110.943c0.871,0,1.543,0.241,2.017,0.724
		c0.474,0.482,0.711,1.215,0.711,2.197c0,1.008-0.26,1.787-0.781,2.338s-1.345,0.826-2.473,0.826h-2.946v-6.085H597.004z
		 M591.098,108.842v18.947h2.434v-8.711h2.05c1.101,0,1.866,0.094,2.293,0.282c0.427,0.188,0.753,0.493,0.98,0.916
		c0.226,0.423,0.369,1.031,0.429,1.825l0.102,1.474l0.103,2.062c0.017,0.351,0.064,0.713,0.141,1.089
		c0.077,0.376,0.179,0.73,0.307,1.063h2.524c-0.401-1.691-0.613-3.326-0.634-4.906c-0.021-1.58-0.239-2.75-0.653-3.51
		c-0.415-0.76-1.228-1.243-2.441-1.448c1.11-0.213,1.964-0.705,2.562-1.473c0.598-0.769,0.897-1.738,0.897-2.908
		c0-1.435-0.408-2.577-1.223-3.427c-0.816-0.85-1.886-1.275-3.21-1.275H591.098z M583.404,121.23h-6.137l3.036-10.159
		L583.404,121.23z M578.843,108.842l-6.008,18.947h2.459l1.397-4.509h7.315l1.371,4.509h2.703l-6.175-18.947H578.843z
		 M569.135,109.796c-0.875-0.858-2.163-1.287-3.862-1.287c-1.76,0-3.144,0.457-4.151,1.371c-1.008,0.914-1.512,2.135-1.512,3.664
		c0,0.973,0.231,1.832,0.692,2.575c0.461,0.743,1.17,1.405,2.127,1.985c0.956,0.581,1.974,1.136,3.055,1.666
		c1.08,0.529,1.791,1.063,2.133,1.601c0.341,0.538,0.512,1.076,0.512,1.614c0,0.914-0.307,1.647-0.922,2.197
		c-0.615,0.551-1.418,0.827-2.408,0.827c-0.966,0-1.749-0.303-2.351-0.91c-0.602-0.606-0.903-1.46-0.903-2.562v-0.551h-2.383v0.743
		c0,1.751,0.478,3.081,1.435,3.991c0.956,0.909,2.34,1.364,4.15,1.364c1.751,0,3.165-0.457,4.241-1.371
		c1.076-0.913,1.614-2.156,1.614-3.728c0-1.033-0.22-1.891-0.66-2.575c-0.44-0.683-1.078-1.326-1.915-1.928
		c-0.837-0.602-1.772-1.136-2.806-1.601c-1.033-0.466-1.817-0.995-2.351-1.589c-0.533-0.593-0.8-1.244-0.8-1.953
		c0-0.872,0.264-1.544,0.794-2.018c0.53-0.474,1.264-0.711,2.204-0.711c0.965,0,1.682,0.265,2.152,0.794
		c0.469,0.53,0.704,1.32,0.704,2.37v0.269h2.524v-0.423C570.448,111.929,570.01,110.655,569.135,109.796 M540.605,125.688v-14.745
		h2.703c1.161,0,2.041,0.203,2.639,0.608c0.598,0.406,1.007,1.079,1.23,2.018c0.222,0.94,0.333,2.434,0.333,4.484
		c0,2.451-0.131,4.132-0.391,5.041c-0.261,0.91-0.711,1.57-1.352,1.98c-0.64,0.409-1.729,0.614-3.266,0.614H540.605z
		 M538.17,108.842v18.947h4.331c1.827,0,3.283-0.262,4.368-0.787c1.085-0.526,1.864-1.373,2.338-2.543s0.711-3.096,0.711-5.778
		c0-2.46-0.117-4.236-0.352-5.33c-0.235-1.093-0.583-1.958-1.044-2.594s-1.098-1.114-1.909-1.435c-0.812-0.32-1.772-0.48-2.882-0.48
		H538.17z M524.859,108.842v18.947h9.941v-2.101h-7.532v-6.584h6.828v-2.076h-6.828v-6.085h7.353v-2.101H524.859z M509.469,108.842
		v2.101h4.957v16.846h2.435v-16.846h4.983v-2.101H509.469z M505.154,121.23h-6.136l3.036-10.159L505.154,121.23z M500.594,108.842
		l-6.009,18.947h2.46l1.396-4.509h7.315l1.371,4.509h2.703l-6.175-18.947H500.594z M483.181,108.842v18.947h9.339v-2.101h-6.93
		v-16.846H483.181z M469.882,108.842v18.947h9.942v-2.101h-7.533v-6.584h6.828v-2.076h-6.828v-6.085h7.353v-2.101H469.882z
		 M461.032,110.943c0.871,0,1.543,0.241,2.017,0.724c0.474,0.482,0.711,1.215,0.711,2.197c0,1.008-0.26,1.787-0.781,2.338
		s-1.345,0.826-2.473,0.826h-2.946v-6.085H461.032z M455.126,108.842v18.947h2.434v-8.711h2.05c1.101,0,1.866,0.094,2.293,0.282
		s0.753,0.493,0.98,0.916c0.226,0.423,0.369,1.031,0.429,1.825l0.103,1.474l0.102,2.062c0.017,0.351,0.064,0.713,0.141,1.089
		c0.077,0.376,0.179,0.73,0.307,1.063h2.524c-0.401-1.691-0.613-3.326-0.634-4.906c-0.021-1.58-0.239-2.75-0.653-3.51
		c-0.415-0.76-1.228-1.243-2.441-1.448c1.11-0.213,1.964-0.705,2.562-1.473c0.598-0.769,0.897-1.738,0.897-2.908
		c0-1.435-0.408-2.577-1.223-3.427c-0.816-0.85-1.886-1.275-3.209-1.275H455.126z M445.716,121.653h5.765v-1.947h-5.765V121.653z
		 M437.519,110.943c0.871,0,1.544,0.241,2.018,0.724c0.474,0.482,0.711,1.215,0.711,2.197c0,1.008-0.261,1.787-0.782,2.338
		s-1.345,0.826-2.472,0.826h-2.947v-6.085H437.519z M431.613,108.842v18.947h2.434v-8.711h2.05c1.102,0,1.866,0.094,2.293,0.282
		s0.754,0.493,0.98,0.916c0.226,0.423,0.37,1.031,0.429,1.825l0.103,1.474l0.102,2.062c0.017,0.351,0.064,0.713,0.141,1.089
		c0.077,0.376,0.18,0.73,0.308,1.063h2.524c-0.402-1.691-0.613-3.326-0.635-4.906c-0.021-1.58-0.239-2.75-0.653-3.51
		c-0.414-0.76-1.228-1.243-2.44-1.448c1.11-0.213,1.964-0.705,2.562-1.473c0.597-0.769,0.897-1.738,0.897-2.908
		c0-1.435-0.408-2.577-1.224-3.427c-0.816-0.85-1.885-1.275-3.209-1.275H431.613z M418.339,108.842v18.947h9.942v-2.101h-7.533
		v-6.584h6.828v-2.076h-6.828v-6.085h7.353v-2.101H418.339z M413.376,109.886c-0.82-0.833-2.088-1.249-3.805-1.249
		c-2.152,0-3.702,0.57-4.65,1.71s-1.422,3-1.422,5.579v3.997c0,3.109,0.474,5.247,1.422,6.412c0.948,1.166,2.357,1.749,4.227,1.749
		c1.888,0,3.308-0.468,4.26-1.403c0.952-0.935,1.429-2.368,1.429-4.298v-0.346h-2.486c-0.017,1.333-0.29,2.328-0.82,2.985
		c-0.529,0.658-1.306,0.987-2.331,0.987c-1.145,0-1.969-0.412-2.473-1.237c-0.504-0.824-0.756-2.239-0.756-4.246v-4.6
		c0-2.118,0.282-3.52,0.846-4.208c0.564-0.687,1.409-1.031,2.536-1.031c0.991,0,1.693,0.258,2.108,0.775
		c0.414,0.517,0.621,1.343,0.621,2.479v0.282h2.524v-0.5C414.606,111.998,414.196,110.719,413.376,109.886 M386.58,108.842v18.947
		h2.178v-16.423l7.533,16.423h3.28v-18.947h-2.153v16.219l-7.456-16.219H386.58z M378.801,121.23h-6.137l3.037-10.159
		L378.801,121.23z M374.24,108.842l-6.008,18.947h2.459l1.397-4.509h7.315l1.371,4.509h2.703l-6.175-18.947H374.24z
		 M364.662,109.886c-0.82-0.833-2.088-1.249-3.805-1.249c-2.152,0-3.702,0.57-4.65,1.71s-1.422,3-1.422,5.579v3.997
		c0,3.109,0.474,5.247,1.422,6.412c0.948,1.166,2.357,1.749,4.228,1.749c1.887,0,3.307-0.468,4.259-1.403s1.429-2.368,1.429-4.298
		v-0.346h-2.486c-0.017,1.333-0.29,2.328-0.82,2.985c-0.529,0.658-1.306,0.987-2.331,0.987c-1.145,0-1.969-0.412-2.473-1.237
		c-0.504-0.824-0.756-2.239-0.756-4.246v-4.6c0-2.118,0.282-3.52,0.846-4.208c0.564-0.687,1.409-1.031,2.537-1.031
		c0.99,0,1.693,0.258,2.107,0.775c0.414,0.517,0.621,1.343,0.621,2.479v0.282h2.524v-0.5
		C365.892,111.998,365.482,110.719,364.662,109.886 M340.75,110.943c0.871,0,1.544,0.241,2.018,0.724
		c0.474,0.482,0.711,1.215,0.711,2.197c0,1.008-0.261,1.787-0.782,2.338s-1.345,0.826-2.472,0.826h-2.947v-6.085H340.75z
		 M334.844,108.842v18.947h2.434v-8.711h2.05c1.102,0,1.866,0.094,2.293,0.282s0.754,0.493,0.98,0.916
		c0.226,0.423,0.37,1.031,0.429,1.825l0.103,1.474l0.102,2.062c0.017,0.351,0.064,0.713,0.141,1.089
		c0.077,0.376,0.18,0.73,0.308,1.063h2.524c-0.402-1.691-0.613-3.326-0.635-4.906c-0.021-1.58-0.239-2.75-0.653-3.51
		c-0.414-0.76-1.228-1.243-2.44-1.448c1.11-0.213,1.964-0.705,2.562-1.473c0.598-0.769,0.897-1.738,0.897-2.908
		c0-1.435-0.408-2.577-1.224-3.427c-0.816-0.85-1.885-1.275-3.209-1.275H334.844z M321.462,115.171c0-1.657,0.269-2.859,0.807-3.607
		c0.538-0.747,1.426-1.121,2.665-1.121c1.255,0,2.154,0.408,2.697,1.224c0.542,0.815,0.813,2.052,0.813,3.709v4.496
		c0,1.845-0.092,3.148-0.275,3.908c-0.184,0.76-0.528,1.33-1.032,1.71c-0.504,0.38-1.247,0.57-2.229,0.57
		c-1.247,0-2.133-0.391-2.658-1.172c-0.525-0.782-0.788-2.133-0.788-4.055V115.171z M329.475,110.149
		c-0.96-1.187-2.474-1.781-4.541-1.781c-2.067,0-3.572,0.562-4.516,1.685s-1.416,3.047-1.416,5.771v4.932
		c0,2.52,0.464,4.375,1.39,5.567c0.927,1.191,2.394,1.787,4.401,1.787c2.161,0,3.722-0.592,4.682-1.775
		c0.961-1.182,1.442-3.32,1.442-6.412v-3.548C330.917,113.411,330.436,111.336,329.475,110.149 M306.856,108.842v18.947h2.434
		v-8.685h6.585v-2.076h-6.585v-6.085h6.956v-2.101H306.856z M288.35,108.842v18.947h9.941v-2.101h-7.532v-6.584h6.828v-2.076h-6.828
		v-6.085h7.353v-2.101H288.35z M279.499,110.943c0.872,0,1.544,0.241,2.018,0.724c0.474,0.482,0.711,1.215,0.711,2.197
		c0,1.008-0.26,1.787-0.781,2.338s-1.345,0.826-2.473,0.826h-2.946v-6.085H279.499z M273.594,108.842v18.947h2.434v-8.711h2.049
		c1.102,0,1.866,0.094,2.294,0.282c0.427,0.188,0.753,0.493,0.98,0.916c0.226,0.423,0.369,1.031,0.429,1.825l0.102,1.474
		l0.103,2.062c0.017,0.351,0.064,0.713,0.141,1.089c0.077,0.376,0.179,0.73,0.307,1.063h2.524c-0.402-1.691-0.613-3.326-0.634-4.906
		c-0.022-1.58-0.239-2.75-0.654-3.51c-0.414-0.76-1.227-1.243-2.44-1.448c1.11-0.213,1.964-0.705,2.562-1.473
		c0.598-0.769,0.897-1.738,0.897-2.908c0-1.435-0.408-2.577-1.223-3.427c-0.816-0.85-1.886-1.275-3.21-1.275H273.594z M265.9,121.23
		h-6.137l3.036-10.159L265.9,121.23z M261.339,108.842l-6.009,18.947h2.46l1.397-4.509h7.315l1.37,4.509h2.704l-6.175-18.947
		H261.339z M251.761,109.886c-0.82-0.833-2.088-1.249-3.805-1.249c-2.152,0-3.702,0.57-4.65,1.71s-1.422,3-1.422,5.579v3.997
		c0,3.109,0.474,5.247,1.422,6.412c0.948,1.166,2.357,1.749,4.227,1.749c1.888,0,3.308-0.468,4.26-1.403s1.428-2.368,1.428-4.298
		v-0.346h-2.485c-0.017,1.333-0.29,2.328-0.82,2.985c-0.529,0.658-1.307,0.987-2.331,0.987c-1.145,0-1.969-0.412-2.473-1.237
		c-0.504-0.824-0.756-2.239-0.756-4.246v-4.6c0-2.118,0.282-3.52,0.846-4.208c0.563-0.687,1.409-1.031,2.536-1.031
		c0.991,0,1.693,0.258,2.108,0.775c0.414,0.517,0.621,1.343,0.621,2.479v0.282h2.524v-0.5
		C252.991,111.998,252.581,110.719,251.761,109.886"/>
	<path style="clip-path:url(#SVGID_00000114786671722767639800000004094851032031381905_);fill:#FFFFFF;" d="M678.456,96.189V81.443
		h2.703c1.162,0,2.041,0.203,2.639,0.609c0.598,0.405,1.008,1.078,1.23,2.017c0.222,0.94,0.333,2.434,0.333,4.484
		c0,2.451-0.13,4.132-0.391,5.041c-0.26,0.91-0.711,1.57-1.351,1.98c-0.641,0.41-1.73,0.615-3.267,0.615H678.456z M676.022,79.342
		V98.29h4.33c1.828,0,3.284-0.263,4.369-0.788c1.084-0.526,1.864-1.373,2.338-2.543c0.474-1.17,0.711-3.096,0.711-5.778
		c0-2.46-0.118-4.236-0.353-5.33c-0.235-1.093-0.583-1.957-1.044-2.594c-0.461-0.636-1.097-1.114-1.909-1.435
		c-0.811-0.32-1.772-0.48-2.882-0.48H676.022z M662.71,79.342V98.29h9.942v-2.101h-7.533v-6.585h6.828v-2.076h-6.828v-6.085h7.354
		v-2.101H662.71z M645.811,79.342l5.483,18.948h2.882l5.535-18.948h-2.46l-4.471,16.667l-4.356-16.667H645.811z M634.034,85.671
		c0-1.657,0.269-2.859,0.807-3.607c0.538-0.747,1.426-1.121,2.665-1.121c1.255,0,2.154,0.408,2.697,1.224
		c0.542,0.816,0.813,2.052,0.813,3.709v4.496c0,1.845-0.092,3.148-0.275,3.908c-0.184,0.76-0.528,1.33-1.032,1.71
		c-0.504,0.38-1.247,0.57-2.229,0.57c-1.247,0-2.133-0.391-2.658-1.172c-0.525-0.782-0.788-2.133-0.788-4.055V85.671z
		 M642.047,80.649c-0.96-1.187-2.474-1.781-4.541-1.781s-3.572,0.562-4.516,1.685c-0.944,1.123-1.416,3.047-1.416,5.771v4.932
		c0,2.52,0.464,4.375,1.39,5.567c0.927,1.191,2.394,1.787,4.401,1.787c2.161,0,3.722-0.591,4.682-1.774
		c0.961-1.183,1.442-3.321,1.442-6.412v-3.549C643.489,83.911,643.008,81.836,642.047,80.649 M622.921,81.443
		c0.871,0,1.544,0.241,2.018,0.724c0.474,0.482,0.711,1.215,0.711,2.197c0,1.008-0.261,1.787-0.781,2.338
		c-0.521,0.551-1.346,0.826-2.473,0.826h-2.946v-6.085H622.921z M617.015,79.342V98.29h2.435v-8.712h2.049
		c1.102,0,1.866,0.094,2.293,0.282c0.427,0.188,0.754,0.493,0.981,0.916c0.226,0.423,0.369,1.031,0.429,1.825l0.102,1.474
		l0.103,2.062c0.017,0.351,0.064,0.714,0.141,1.089c0.076,0.376,0.179,0.73,0.307,1.064h2.524c-0.402-1.691-0.613-3.327-0.634-4.907
		c-0.022-1.58-0.24-2.75-0.654-3.51s-1.227-1.243-2.44-1.448c1.11-0.213,1.964-0.705,2.562-1.473
		c0.598-0.769,0.897-1.738,0.897-2.908c0-1.435-0.408-2.577-1.224-3.427c-0.815-0.85-1.885-1.275-3.209-1.275H617.015z
		 M605.133,81.443h2.832c1.084,0,1.885,0.263,2.402,0.788c0.516,0.525,0.775,1.296,0.775,2.312c0,1.205-0.31,2.056-0.929,2.556
		c-0.619,0.5-1.569,0.75-2.85,0.75h-2.23V81.443z M602.712,79.342V98.29h2.421v-8.34h2.832c1.802,0,3.183-0.434,4.144-1.301
		s1.441-2.192,1.441-3.978c0-1.836-0.437-3.183-1.313-4.041c-0.875-0.859-2.24-1.288-4.093-1.288H602.712z M580.97,79.342V98.29
		h2.229V81.469l5.278,16.821h2.255l5.355-16.821V98.29h2.306V79.342h-3.857l-4.855,15.899l-4.804-15.899H580.97z M574.233,98.29
		h2.447V79.342h-2.447V98.29z M554.715,85.671c0-1.657,0.269-2.859,0.808-3.607c0.538-0.747,1.426-1.121,2.664-1.121
		c1.256,0,2.155,0.408,2.697,1.224c0.542,0.816,0.813,2.052,0.813,3.709v4.496c0,1.845-0.091,3.148-0.275,3.908
		c-0.184,0.76-0.527,1.33-1.031,1.71c-0.504,0.38-1.247,0.57-2.229,0.57c-1.247,0-2.133-0.391-2.659-1.172
		c-0.525-0.782-0.788-2.133-0.788-4.055V85.671z M562.729,80.649c-0.961-1.187-2.475-1.781-4.542-1.781
		c-2.067,0-3.572,0.562-4.516,1.685c-0.943,1.123-1.415,3.047-1.415,5.771v4.932c0,2.52,0.463,4.375,1.39,5.567
		c0.926,1.191,2.393,1.787,4.4,1.787c2.161,0,3.722-0.591,4.683-1.774s1.441-3.321,1.441-6.412v-3.549
		C564.17,83.911,563.69,81.836,562.729,80.649 M537.252,79.342v2.101h4.958V98.29h2.434V81.443h4.983v-2.101H537.252z
		 M528.271,80.296c-0.876-0.858-2.163-1.287-3.863-1.287c-1.759,0-3.143,0.457-4.15,1.371c-1.008,0.914-1.512,2.135-1.512,3.664
		c0,0.973,0.23,1.832,0.692,2.575c0.461,0.743,1.17,1.405,2.126,1.985c0.957,0.581,1.975,1.136,3.056,1.666
		c1.08,0.53,1.791,1.063,2.133,1.601c0.341,0.538,0.512,1.076,0.512,1.614c0,0.914-0.307,1.647-0.922,2.198
		c-0.615,0.55-1.418,0.826-2.409,0.826c-0.965,0-1.748-0.303-2.351-0.91c-0.602-0.606-0.903-1.46-0.903-2.562v-0.551h-2.383v0.743
		c0,1.751,0.479,3.081,1.435,3.991c0.957,0.909,2.34,1.364,4.151,1.364c1.751,0,3.164-0.457,4.241-1.371
		c1.076-0.913,1.614-2.156,1.614-3.728c0-1.033-0.22-1.891-0.66-2.575c-0.44-0.683-1.078-1.326-1.915-1.928
		c-0.837-0.602-1.773-1.135-2.806-1.601c-1.033-0.465-1.817-0.995-2.351-1.589c-0.534-0.593-0.8-1.244-0.8-1.953
		c0-0.871,0.264-1.544,0.794-2.018c0.529-0.474,1.264-0.711,2.203-0.711c0.965,0,1.683,0.265,2.153,0.794
		c0.469,0.53,0.704,1.32,0.704,2.37v0.269h2.524v-0.422C529.584,82.429,529.146,81.155,528.271,80.296 M503.829,79.342l5.125,11.287
		v7.661h2.382v-7.61l5.202-11.338h-2.473l-3.805,9.16l-3.728-9.16H503.829z M499.682,91.73h-6.137l3.036-10.159L499.682,91.73z
		 M495.121,79.342l-6.009,18.948h2.46l1.397-4.51h7.315l1.37,4.51h2.704l-6.175-18.948H495.121z M466.529,79.342l4.625,18.948h2.934
		l3.856-16.424l3.625,16.424h2.934l5.009-18.948h-2.511l-3.881,16.424l-3.472-16.424h-3.113l-3.831,16.424l-3.6-16.424H466.529z
		 M452.07,79.342V98.29h2.422v-8.738h6.636v8.738h2.408V79.342h-2.408v8.109h-6.636v-8.109H452.07z M436.594,79.342v2.101h4.958
		V98.29h2.434V81.443h4.984v-2.101H436.594z M432.28,91.73h-6.136l3.036-10.159L432.28,91.73z M427.719,79.342l-6.008,18.948h2.46
		l1.396-4.51h7.315l1.371,4.51h2.703l-6.175-18.948H427.719z M412.58,81.443h2.831c1.084,0,1.885,0.263,2.402,0.788
		c0.517,0.525,0.775,1.296,0.775,2.312c0,1.205-0.31,2.056-0.929,2.556s-1.569,0.75-2.85,0.75h-2.229V81.443z M410.158,79.342V98.29
		h2.422v-8.34h2.831c1.802,0,3.183-0.434,4.144-1.301c0.961-0.867,1.442-2.192,1.442-3.978c0-1.836-0.438-3.183-1.314-4.041
		c-0.875-0.859-2.24-1.288-4.093-1.288H410.158z M398.641,80.245c-0.807-0.858-2.223-1.287-4.247-1.287
		c-1.495,0-2.699,0.243-3.613,0.73c-0.914,0.487-1.603,1.266-2.069,2.338c-0.465,1.072-0.698,2.838-0.698,5.297v2.652
		c0,3.348,0.498,5.633,1.493,6.854c0.995,1.222,2.607,1.832,4.836,1.832c1.93,0,3.741-0.465,5.432-1.396v-9.211h-5.906v2.152h3.459
		v5.611c-0.41,0.308-0.867,0.521-1.371,0.641c-0.504,0.119-1.008,0.179-1.512,0.179c-1.426,0-2.438-0.404-3.036-1.211
		s-0.897-2.256-0.897-4.349v-4.33c0-2.298,0.263-3.839,0.788-4.625c0.526-0.786,1.514-1.179,2.966-1.179
		c1.051,0,1.823,0.289,2.319,0.865c0.495,0.577,0.743,1.446,0.743,2.607h2.524v-0.269C399.852,82.404,399.448,81.104,398.641,80.245
		 M371.096,79.342V98.29h2.178V81.866l7.533,16.424h3.279V79.342h-2.152v16.219l-7.456-16.219H371.096z M364.335,98.29h2.447V79.342
		h-2.447V98.29z M348.542,79.342V98.29h2.422v-8.738h6.636v8.738h2.408V79.342H357.6v8.109h-6.636v-8.109H348.542z M343.377,80.296
		c-0.876-0.858-2.163-1.287-3.863-1.287c-1.759,0-3.143,0.457-4.15,1.371c-1.008,0.914-1.512,2.135-1.512,3.664
		c0,0.973,0.23,1.832,0.692,2.575c0.461,0.743,1.17,1.405,2.126,1.985c0.957,0.581,1.975,1.136,3.056,1.666
		c1.08,0.53,1.791,1.063,2.133,1.601c0.341,0.538,0.512,1.076,0.512,1.614c0,0.914-0.307,1.647-0.922,2.198
		c-0.615,0.55-1.418,0.826-2.409,0.826c-0.965,0-1.748-0.303-2.35-0.91c-0.603-0.606-0.904-1.46-0.904-2.562v-0.551h-2.382v0.743
		c0,1.751,0.478,3.081,1.434,3.991c0.957,0.909,2.34,1.364,4.151,1.364c1.751,0,3.164-0.457,4.241-1.371
		c1.076-0.913,1.614-2.156,1.614-3.728c0-1.033-0.22-1.891-0.66-2.575c-0.44-0.683-1.078-1.326-1.915-1.928
		c-0.837-0.602-1.773-1.135-2.806-1.601c-1.033-0.465-1.817-0.995-2.351-1.589c-0.534-0.593-0.8-1.244-0.8-1.953
		c0-0.871,0.264-1.544,0.794-2.018c0.529-0.474,1.264-0.711,2.203-0.711c0.965,0,1.683,0.265,2.153,0.794
		c0.469,0.53,0.704,1.32,0.704,2.37v0.269h2.524v-0.422C344.69,82.429,344.252,81.155,343.377,80.296 M327.206,98.29h2.447V79.342
		h-2.447V98.29z M314.801,79.342V98.29h9.34v-2.101h-6.931V79.342H314.801z M301.699,96.189v-6.765h2.691
		c1.007,0.018,1.785,0.124,2.331,0.321c0.547,0.196,0.987,0.561,1.32,1.095c0.333,0.534,0.499,1.189,0.499,1.966
		c0,1.179-0.331,2.037-0.992,2.575c-0.662,0.539-1.86,0.808-3.594,0.808H301.699z M301.699,87.349v-5.957h2.78
		c1.17,0,2.048,0.233,2.633,0.698c0.585,0.466,0.878,1.232,0.878,2.3c0,1.059-0.276,1.817-0.827,2.274s-1.403,0.685-2.556,0.685
		H301.699z M299.252,79.342V98.29h5.804c1.998,0,3.491-0.432,4.477-1.294c0.987-0.863,1.48-2.208,1.48-4.036
		c0-1.366-0.312-2.421-0.935-3.164c-0.624-0.743-1.597-1.2-2.921-1.371v-0.128c2.169-0.495,3.254-1.973,3.254-4.433
		c0-1.392-0.438-2.493-1.313-3.305c-0.876-0.811-2.065-1.217-3.568-1.217H299.252z M291.423,91.73h-6.137l3.037-10.159
		L291.423,91.73z M286.862,79.342l-6.008,18.948h2.46l1.396-4.51h7.315l1.371,4.51h2.703l-6.175-18.948H286.862z M268.859,79.342
		v2.101h4.958V98.29h2.434V81.443h4.983v-2.101H268.859z M264.915,80.296c-0.876-0.858-2.163-1.287-3.863-1.287
		c-1.759,0-3.143,0.457-4.151,1.371c-1.007,0.914-1.511,2.135-1.511,3.664c0,0.973,0.23,1.832,0.691,2.575
		c0.462,0.743,1.17,1.405,2.127,1.985c0.957,0.581,1.975,1.136,3.056,1.666c1.08,0.53,1.791,1.063,2.133,1.601
		c0.341,0.538,0.512,1.076,0.512,1.614c0,0.914-0.307,1.647-0.922,2.198c-0.615,0.55-1.418,0.826-2.409,0.826
		c-0.965,0-1.749-0.303-2.351-0.91c-0.602-0.606-0.903-1.46-0.903-2.562v-0.551h-2.383v0.743c0,1.751,0.478,3.081,1.435,3.991
		c0.957,0.909,2.34,1.364,4.151,1.364c1.751,0,3.164-0.457,4.24-1.371c1.077-0.913,1.615-2.156,1.615-3.728
		c0-1.033-0.22-1.891-0.66-2.575c-0.44-0.683-1.079-1.326-1.915-1.928c-0.838-0.602-1.773-1.135-2.806-1.601
		c-1.034-0.465-1.817-0.995-2.351-1.589c-0.534-0.593-0.801-1.244-0.801-1.953c0-0.871,0.265-1.544,0.795-2.018
		c0.529-0.474,1.264-0.711,2.203-0.711c0.965,0,1.683,0.265,2.152,0.794c0.47,0.53,0.705,1.32,0.705,2.37v0.269h2.524v-0.422
		C266.228,82.429,265.79,81.155,264.915,80.296 M242.127,79.342V98.29h9.941v-2.101h-7.533v-6.585h6.829v-2.076h-6.829v-6.085h7.354
		v-2.101H242.127z"/>
	<path style="clip-path:url(#SVGID_00000114786671722767639800000004094851032031381905_);fill:#FFFFFF;" d="M409.028,56.519
		c2.38-2.028,3.57-5.07,3.57-9.126c0-2.647-0.514-4.737-1.542-6.27c-1.028-1.533-2.685-3.014-4.97-4.442l-8.541-5.456
		c-0.933-0.59-1.614-1.266-2.042-2.028c-0.429-0.761-0.643-1.58-0.643-2.456c0-1.429,0.385-2.566,1.157-3.414
		c0.771-0.847,1.814-1.271,3.128-1.271c2.837,0,4.256,1.828,4.256,5.484v1h8.655v-1.457c0-4.075-1.043-6.965-3.128-8.669
		c-2.085-1.704-5.118-2.557-9.098-2.557c-4.456,0-7.898,0.977-10.326,2.928c-2.428,1.953-3.642,4.718-3.642,8.298
		c0,2.647,0.495,4.833,1.485,6.556c0.99,1.724,3.142,3.613,6.456,5.67l6.998,4.285c0.952,0.59,1.671,1.276,2.157,2.056
		c0.485,0.781,0.728,1.733,0.728,2.857c0,1.485-0.405,2.632-1.214,3.442c-0.809,0.809-1.966,1.214-3.47,1.214
		c-1.771,0-3.009-0.524-3.714-1.571c-0.704-1.047-1.057-2.628-1.057-4.742v-1.114h-8.969v2.628c0,3.713,1.086,6.508,3.257,8.383
		c2.17,1.876,5.36,2.814,9.569,2.814C403.001,59.561,406.647,58.547,409.028,56.519 M379.799,28.597c0-4.36-1.043-7.564-3.128-9.612
		c-2.085-2.047-5.137-3.07-9.155-3.07c-3.428,0-6.156,0.566-8.184,1.699c-2.028,1.133-3.475,2.662-4.341,4.585
		c-0.867,1.923-1.424,4.009-1.671,6.255c-0.248,2.248-0.372,5.342-0.372,9.284c0,5.008,0.233,8.665,0.7,10.969
		c0.466,2.304,1.181,4.199,2.142,5.684c0.962,1.485,2.357,2.666,4.185,3.542s4.199,1.314,7.113,1.314
		c4.474,0,7.788-1.124,9.94-3.371s3.228-5.608,3.228-10.083v-1.228h-8.712v0.485c0,2.724-0.386,4.709-1.157,5.956
		c-0.771,1.247-1.91,1.871-3.414,1.871c-1.79,0-3.066-0.814-3.827-2.442c-0.762-1.628-1.181-3.685-1.257-6.17
		s-0.114-4.471-0.114-5.956c0-4.418,0.114-7.569,0.342-9.455c0.229-1.885,0.7-3.442,1.414-4.67c0.714-1.228,1.843-1.842,3.385-1.842
		c1.352,0,2.395,0.528,3.128,1.585s1.1,2.776,1.1,5.156v0.8h8.655V28.597z M347.322,28.597c0-4.36-1.042-7.564-3.127-9.612
		c-2.086-2.047-5.138-3.07-9.155-3.07c-3.428,0-6.156,0.566-8.184,1.699c-2.028,1.133-3.476,2.662-4.342,4.585
		c-0.867,1.923-1.424,4.009-1.671,6.255c-0.248,2.248-0.371,5.342-0.371,9.284c0,5.008,0.233,8.665,0.7,10.969
		c0.466,2.304,1.18,4.199,2.142,5.684c0.961,1.485,2.357,2.666,4.185,3.542c1.828,0.876,4.199,1.314,7.112,1.314
		c4.475,0,7.789-1.124,9.941-3.371c2.151-2.247,3.227-5.608,3.227-10.083v-1.228h-8.712v0.485c0,2.724-0.385,4.709-1.157,5.956
		c-0.771,1.247-1.909,1.871-3.413,1.871c-1.79,0-3.066-0.814-3.828-2.442s-1.181-3.685-1.256-6.17
		c-0.077-2.485-0.115-4.471-0.115-5.956c0-4.418,0.115-7.569,0.343-9.455c0.229-1.885,0.7-3.442,1.414-4.67
		c0.714-1.228,1.842-1.842,3.385-1.842c1.352,0,2.394,0.528,3.128,1.585c0.733,1.057,1.099,2.776,1.099,5.156v0.8h8.655V28.597z
		 M305.172,58.79h8.826V16.543h-8.826V58.79z M281.601,35.11V23.056h2.885c2.571,0,4.284,0.49,5.141,1.471s1.286,2.499,1.286,4.556
		c0,2.114-0.486,3.647-1.457,4.599c-0.971,0.952-2.399,1.428-4.285,1.428H281.601z M272.717,16.543V58.79h8.884V41.594h6.027
		c4.227,0,7.322-1.004,9.283-3.014c1.961-2.008,2.942-5.117,2.942-9.326c0-4.475-0.976-7.712-2.927-9.712
		c-1.953-1.999-5.071-2.999-9.355-2.999H272.717z M243.685,16.543V58.79h23.509v-6.599h-14.683V39.966h13.111v-6.513h-13.111V23.056
		h14.226v-6.513H243.685z"/>
</g>
</svg>
