<?xml version="1.0" encoding="iso-8859-1"?>
<!-- Generator: Adobe Illustrator 29.5.1, SVG Export Plug-In . SVG Version: 9.03 Build 0)  -->
<svg version="1.1" id="Layer_1" xmlns="http://www.w3.org/2000/svg" xmlns:xlink="http://www.w3.org/1999/xlink" x="0px" y="0px"
	 viewBox="0 0 720 144" style="enable-background:new 0 0 720 144;" xml:space="preserve">
<g>
	<defs>
		<rect id="SVGID_1_" width="720" height="144"/>
	</defs>
	<clipPath id="SVGID_00000167381579594424931600000008284426580879528126_">
		<use xlink:href="#SVGID_1_"  style="overflow:visible;"/>
	</clipPath>
	<path style="clip-path:url(#SVGID_00000167381579594424931600000008284426580879528126_);" d="M72.921,1.3
		C33.757,1.3,2.008,32.959,2.008,72.012s31.749,70.712,70.913,70.712s70.912-31.659,70.912-70.712S112.085,1.3,72.921,1.3"/>
	<path style="clip-path:url(#SVGID_00000167381579594424931600000008284426580879528126_);fill:#FFFFFF;" d="M72.921,2.98
		c38.175,0,69.233,30.968,69.233,69.032s-31.058,69.032-69.233,69.032S3.688,110.076,3.688,72.012S34.746,2.98,72.921,2.98"/>
</g>
<rect x="191.456" y="16.617" width="2" height="111.776"/>
<g>
	<defs>
		<rect id="SVGID_00000075857877870468810200000006061223832997844412_" width="720" height="144"/>
	</defs>
	<clipPath id="SVGID_00000093875814048084843530000013274015741823262629_">
		<use xlink:href="#SVGID_00000075857877870468810200000006061223832997844412_"  style="overflow:visible;"/>
	</clipPath>
	<path style="clip-path:url(#SVGID_00000093875814048084843530000013274015741823262629_);" d="M114.152,102.346v4.129
		c0,0.138-0.046,0.246-0.154,0.323c-0.093,0.077-0.216,0.123-0.37,0.123c-0.092,0-0.231,0-0.385-0.015
		c-0.154-0.015-0.323-0.031-0.478-0.046c-0.154-0.015-0.292-0.062-0.416-0.108c-0.107-0.046-0.169-0.108-0.169-0.169v-4.222
		l-3.605-7.041c-0.123-0.246-0.139-0.416-0.046-0.523c0.092-0.108,0.262-0.17,0.508-0.17c0.154,0,0.308,0,0.478,0.015
		c0.154,0,0.308,0.016,0.446,0.047c0.139,0.015,0.262,0.046,0.355,0.077c0.092,0.031,0.169,0.077,0.2,0.154l2.65,5.408l2.65-5.393
		c0.031-0.061,0.092-0.123,0.2-0.154c0.093-0.031,0.216-0.061,0.355-0.092c0.138-0.016,0.292-0.031,0.446-0.047
		c0.154,0,0.324-0.015,0.478-0.015c0.246,0,0.416,0.046,0.508,0.154c0.077,0.108,0.062,0.277-0.061,0.539L114.152,102.346z
		 M103.615,96.584v9.891c0,0.138-0.046,0.246-0.154,0.323c-0.108,0.077-0.216,0.123-0.354,0.123c-0.093,0-0.231,0-0.401-0.015
		c-0.17-0.015-0.339-0.031-0.493-0.046s-0.293-0.062-0.401-0.108c-0.123-0.046-0.169-0.108-0.169-0.169v-9.984h-3.051
		c-0.123,0-0.215-0.046-0.308-0.139c-0.077-0.092-0.123-0.2-0.123-0.338c0-0.093,0-0.201,0.015-0.355
		c0.016-0.138,0.031-0.292,0.047-0.431c0.015-0.139,0.061-0.262,0.092-0.37c0.046-0.092,0.093-0.154,0.17-0.154h8.165
		c0.123,0,0.216,0.046,0.308,0.139c0.077,0.092,0.123,0.215,0.123,0.339c0,0.092,0,0.2-0.015,0.354s-0.031,0.293-0.046,0.431
		c-0.016,0.139-0.046,0.262-0.093,0.355c-0.046,0.092-0.092,0.154-0.169,0.154H103.615z M96.497,106.475
		c0,0.138-0.046,0.246-0.154,0.323c-0.092,0.077-0.216,0.123-0.37,0.123c-0.092,0-0.231,0-0.4-0.015
		c-0.17-0.015-0.324-0.031-0.493-0.046c-0.154-0.015-0.293-0.062-0.416-0.108c-0.108-0.046-0.17-0.108-0.17-0.169V94.981
		c0-0.061,0.062-0.123,0.17-0.169c0.123-0.046,0.262-0.092,0.416-0.108c0.154-0.015,0.323-0.046,0.493-0.046
		c0.169-0.016,0.292-0.016,0.4-0.016c0.139,0,0.262,0.047,0.37,0.139c0.092,0.093,0.154,0.2,0.154,0.324V106.475z M85.389,104.888
		c0.092,0.015,0.216,0.061,0.401,0.092c0.185,0.047,0.385,0.093,0.631,0.139c0.231,0.046,0.493,0.077,0.786,0.123
		c0.277,0.031,0.57,0.046,0.847,0.046c0.309,0,0.601-0.03,0.878-0.077c0.278-0.046,0.54-0.138,0.755-0.246
		c0.216-0.123,0.401-0.277,0.524-0.462c0.139-0.201,0.201-0.432,0.201-0.724c0-0.401-0.124-0.74-0.386-1.017
		c-0.261-0.278-0.585-0.539-0.97-0.786c-0.385-0.246-0.817-0.493-1.279-0.739c-0.462-0.247-0.878-0.54-1.279-0.863
		c-0.4-0.324-0.724-0.709-0.97-1.156c-0.262-0.447-0.385-0.986-0.385-1.633c0-0.539,0.092-1.001,0.292-1.371
		c0.2-0.37,0.463-0.678,0.801-0.924c0.339-0.232,0.755-0.416,1.218-0.524c0.477-0.108,1.001-0.17,1.571-0.17
		c0.123,0,0.308,0,0.555,0.016c0.246,0.015,0.508,0.03,0.785,0.061c0.278,0.031,0.555,0.062,0.817,0.108
		c0.277,0.046,0.493,0.108,0.647,0.185c0.154,0.062,0.247,0.139,0.277,0.216c0.031,0.077,0.031,0.2,0.016,0.385
		c-0.016,0.293-0.077,0.524-0.185,0.724c-0.093,0.2-0.231,0.277-0.416,0.246c-0.278-0.061-0.586-0.107-0.94-0.169
		c-0.354-0.046-0.755-0.077-1.186-0.077c-0.678,0-1.248,0.108-1.68,0.293c-0.431,0.2-0.647,0.523-0.647,0.986
		c0,0.369,0.124,0.678,0.386,0.939c0.261,0.263,0.585,0.509,0.97,0.74s0.817,0.478,1.279,0.724c0.462,0.247,0.878,0.539,1.279,0.878
		c0.385,0.339,0.724,0.74,0.97,1.202c0.262,0.462,0.385,1.048,0.385,1.71c0,0.632-0.123,1.156-0.354,1.556
		c-0.231,0.416-0.555,0.724-0.94,0.955c-0.385,0.232-0.847,0.386-1.356,0.478c-0.508,0.093-1.047,0.139-1.602,0.139
		c-0.246,0-0.524-0.016-0.801-0.031s-0.539-0.046-0.817-0.077c-0.261-0.031-0.508-0.077-0.754-0.123
		c-0.232-0.047-0.432-0.093-0.601-0.154c-0.17-0.062-0.262-0.124-0.293-0.185c-0.031-0.077-0.046-0.201-0.015-0.37
		c0.03-0.324,0.092-0.601,0.184-0.817C85.112,104.949,85.234,104.842,85.389,104.888 M79.057,96.568H76.76v3.991h2.296
		c0.447,0,0.816-0.031,1.078-0.077c0.278-0.047,0.478-0.139,0.632-0.278c0.154-0.138,0.247-0.308,0.293-0.539
		s0.077-0.539,0.077-0.909v-0.37c0-0.369-0.031-0.678-0.077-0.924c-0.046-0.231-0.154-0.416-0.293-0.555
		c-0.154-0.138-0.354-0.215-0.632-0.277C79.857,96.599,79.504,96.568,79.057,96.568 M74.773,106.567V95.228
		c0-0.123,0.046-0.216,0.154-0.308c0.108-0.077,0.216-0.123,0.37-0.123h3.651c0.755,0,1.402,0.061,1.941,0.169
		c0.539,0.108,0.971,0.308,1.31,0.585c0.339,0.278,0.585,0.648,0.739,1.11c0.155,0.462,0.231,1.032,0.231,1.741v0.37
		c0,0.523-0.046,0.97-0.123,1.355s-0.216,0.724-0.385,1.002c-0.169,0.277-0.416,0.493-0.709,0.662
		c-0.292,0.17-0.647,0.293-1.047,0.385l2.295,3.975c0.124,0.216,0.185,0.37,0.185,0.478c0,0.061-0.031,0.123-0.077,0.169
		c-0.061,0.047-0.123,0.077-0.185,0.093c-0.061,0.015-0.138,0.03-0.2,0.046c-0.077,0-0.123,0.015-0.154,0.015
		c-0.093,0-0.231,0-0.385-0.015c-0.154-0.016-0.308-0.031-0.462-0.062c-0.154-0.03-0.309-0.061-0.432-0.123
		c-0.123-0.062-0.216-0.139-0.277-0.231l-2.434-4.16h-2.034v4.16c0,0.139-0.046,0.231-0.154,0.308
		c-0.093,0.077-0.216,0.123-0.354,0.123c-0.093,0-0.232,0-0.401-0.015c-0.17-0.016-0.324-0.031-0.493-0.046
		c-0.154-0.016-0.293-0.062-0.416-0.108C74.836,106.69,74.773,106.644,74.773,106.567 M65.068,106.382V95.228
		c0-0.139,0.046-0.247,0.154-0.324c0.092-0.077,0.216-0.107,0.37-0.107h6.64c0.123,0,0.231,0.046,0.308,0.154
		c0.077,0.092,0.123,0.215,0.123,0.339c0,0.092,0,0.2-0.015,0.354c-0.016,0.154-0.031,0.293-0.046,0.431
		c-0.016,0.139-0.062,0.262-0.093,0.355c-0.046,0.092-0.108,0.154-0.169,0.154h-5.269v3.204h4.514c0.108,0,0.2,0.047,0.292,0.139
		c0.078,0.092,0.124,0.2,0.124,0.323c0,0.093,0,0.201-0.016,0.355c-0.015,0.154-0.03,0.292-0.046,0.431
		c-0.015,0.139-0.062,0.262-0.092,0.37c-0.047,0.092-0.093,0.154-0.17,0.154h-4.622v3.389h5.161c0.124,0,0.232,0.047,0.309,0.139
		c0.077,0.093,0.123,0.2,0.123,0.339c0,0.092,0,0.2-0.016,0.354c-0.015,0.139-0.03,0.293-0.046,0.432
		c-0.015,0.138-0.061,0.262-0.092,0.37c-0.046,0.107-0.108,0.154-0.17,0.154h-6.501c-0.154,0-0.324-0.031-0.493-0.108
		C65.145,106.536,65.068,106.459,65.068,106.382 M58.998,103.547l2.496-8.581c0.154-0.154,0.339-0.246,0.539-0.293
		c0.2-0.031,0.431-0.061,0.709-0.061c0.107,0,0.231,0,0.338,0.015c0.124,0.015,0.216,0.031,0.293,0.077
		c0.077,0.046,0.139,0.093,0.185,0.17c0.046,0.077,0.031,0.169,0,0.308l-3.836,11.478c-0.016,0.092-0.077,0.154-0.17,0.2
		c-0.092,0.046-0.185,0.061-0.292,0.061c-0.37,0-0.678-0.015-0.925-0.061c-0.246-0.046-0.4-0.108-0.462-0.185l-3.821-11.493
		c-0.031-0.108-0.031-0.201,0-0.278c0.031-0.077,0.077-0.123,0.154-0.169c0.062-0.046,0.139-0.077,0.231-0.093
		c0.077-0.015,0.154-0.03,0.201-0.03c0.169,0,0.339,0,0.508,0.015c0.17,0.015,0.324,0.031,0.478,0.062
		c0.138,0.031,0.262,0.077,0.369,0.123c0.093,0.062,0.17,0.123,0.201,0.216l2.557,8.504c0.046,0.139,0.077,0.277,0.093,0.416
		c0.015,0.154,0.031,0.277,0.061,0.401c0.016-0.124,0.031-0.262,0.046-0.401C58.921,103.809,58.951,103.671,58.998,103.547
		 M52.589,106.475c0,0.138-0.047,0.246-0.154,0.323c-0.093,0.077-0.216,0.123-0.37,0.123c-0.093,0-0.231,0-0.401-0.015
		c-0.169-0.015-0.323-0.031-0.493-0.046c-0.154-0.015-0.293-0.062-0.416-0.108s-0.169-0.108-0.169-0.169V94.981
		c0-0.061,0.061-0.123,0.169-0.169c0.123-0.046,0.247-0.092,0.416-0.108c0.154-0.015,0.324-0.046,0.493-0.046
		c0.17-0.016,0.293-0.016,0.401-0.016c0.138,0,0.262,0.047,0.37,0.139c0.092,0.093,0.154,0.2,0.154,0.324V106.475z M46.518,103.239
		V94.92c0-0.062,0.062-0.123,0.185-0.154c0.124-0.046,0.262-0.077,0.432-0.093c0.169-0.015,0.339-0.031,0.508-0.046
		c0.17-0.015,0.308-0.015,0.401-0.015c0.292,0,0.431,0.169,0.431,0.493v11.37c0,0.138-0.046,0.231-0.154,0.308
		c-0.108,0.077-0.216,0.123-0.339,0.123c-0.092,0-0.2,0-0.354-0.015c-0.154-0.016-0.293-0.016-0.447-0.046
		c-0.154-0.031-0.278-0.062-0.401-0.093c-0.123-0.046-0.2-0.092-0.246-0.154l-5.377-8.273v8.15c0,0.138-0.046,0.246-0.154,0.323
		c-0.092,0.077-0.216,0.123-0.355,0.123c-0.092,0-0.231,0-0.4-0.015c-0.17-0.015-0.339-0.031-0.493-0.046s-0.293-0.062-0.401-0.108
		c-0.123-0.046-0.169-0.108-0.169-0.169V94.981c0-0.061,0.061-0.123,0.169-0.169c0.124-0.046,0.247-0.092,0.401-0.108
		c0.154-0.015,0.308-0.031,0.477-0.046c0.17-0.016,0.293-0.016,0.401-0.016c0.123,0,0.231,0.031,0.308,0.108
		c0.077,0.077,0.154,0.154,0.201,0.247L46.518,103.239z M35.056,102.5v-7.488c0-0.061,0.062-0.123,0.169-0.169
		c0.124-0.046,0.262-0.093,0.416-0.123c0.17-0.031,0.339-0.062,0.493-0.078c0.17-0.015,0.293-0.03,0.401-0.03
		c0.139,0,0.262,0.046,0.354,0.154c0.093,0.108,0.139,0.215,0.139,0.339v7.487c0,0.817-0.092,1.495-0.277,2.049
		c-0.185,0.555-0.447,0.986-0.817,1.341c-0.37,0.339-0.832,0.585-1.386,0.724c-0.555,0.139-1.218,0.215-1.957,0.215h-0.139
		c-0.724,0-1.371-0.076-1.91-0.215c-0.555-0.139-1.002-0.385-1.371-0.724c-0.37-0.339-0.632-0.786-0.817-1.341
		c-0.185-0.539-0.277-1.232-0.277-2.049v-7.58c0-0.061,0.061-0.123,0.169-0.169c0.124-0.046,0.247-0.093,0.416-0.123
		c0.154-0.031,0.324-0.062,0.493-0.078c0.17-0.015,0.308-0.03,0.401-0.03c0.138,0,0.246,0.046,0.354,0.154
		c0.093,0.108,0.154,0.215,0.154,0.339v7.379c0,0.478,0.031,0.879,0.108,1.218c0.077,0.338,0.2,0.616,0.385,0.816
		c0.185,0.216,0.432,0.37,0.74,0.462c0.308,0.093,0.693,0.154,1.155,0.154h0.139c0.478,0,0.863-0.046,1.186-0.154
		c0.308-0.108,0.57-0.262,0.755-0.462c0.185-0.216,0.324-0.478,0.401-0.816C35.025,103.378,35.056,102.978,35.056,102.5
		 M106.742,75.538v14.313h-3.944V67.989h5.5l5.285,13.466V67.989h4.006v21.862h-5.023L106.742,75.538z M95.419,67.989h4.437v21.862
		h-4.437V67.989z M78.395,67.989h4.56v9.506l5.685-9.506h4.76L87.084,78.05L93.4,89.867h-5.284l-5.161-10.631v10.631h-4.56V67.989z
		 M70.967,84.998H64.62l-1.156,4.869h-4.575l6.162-21.878h5.824l6.07,21.878h-4.791L70.967,84.998z M70.06,81.193l-2.188-9.044
		l-2.296,9.044H70.06z M45.625,67.989h11.817v3.713h-7.195v4.668h6.625v3.806h-6.625v5.823h7.21v3.852H45.625V67.989z
		 M35.595,67.989c5.839,0,7.642,3.097,7.642,10.939s-1.818,10.939-7.657,10.939h-7.488V67.989H35.595z M32.683,86.092h2.08
		c3.405,0,3.836-2.003,3.836-7.241c0-5.223-0.431-7.226-3.836-7.226h-2.08V86.092z M81.507,51.366l-9.938-17.24l1.31-2.203
		l11.154,19.443H81.507z M76.808,51.366l-7.611-13.142l1.279-2.157l8.766,15.299H76.808z M72.032,51.366l-5.223-9.013l1.325-2.234
		l6.424,11.231h-2.526V51.366z M67.225,51.366l-2.804-4.869l1.325-2.234l4.052,7.103H67.225z M61.601,51.366l1.71-2.928l1.711,2.928
		H61.601z M59.429,29.889v18.365c0,7.41,6.009,13.419,13.419,13.419c7.411,0,13.419-6.009,13.419-13.419V29.889H59.429z"/>
	<path style="clip-path:url(#SVGID_00000093875814048084843530000013274015741823262629_);" d="M526.766,51.43l7.291,32.876h7.469
		l5.735-24.029l5.179,24.029h7.602l7.291-32.876h-6.735l-4.157,23.095l-4.957-23.095h-8.113l-5.224,23.095l-4.334-23.095H526.766z
		 M514.611,57.765l3.423,14.293h-6.646L514.611,57.765z M510.521,51.43l-9.114,32.876h6.802l1.867-7.291h9.358l1.823,7.291h7.247
		L519.59,51.43H510.521z M482.457,51.43v32.876h17.16v-5.468h-10.202V51.43H482.457z M457.787,77.704
		c-0.8,0.859-1.589,1.486-2.367,1.878c-0.778,0.393-1.678,0.589-2.701,0.589c-1.452,0-2.634-0.474-3.545-1.422
		c-0.912-0.949-1.367-2.193-1.367-3.735c0-0.978,0.255-1.911,0.766-2.801c0.512-0.889,1.345-1.792,2.501-2.711L457.787,77.704z
		 M450.563,59.777c-0.386-0.734-0.578-1.419-0.578-2.056c0-0.786,0.263-1.453,0.789-2.001c0.526-0.548,1.189-0.822,1.989-0.822
		c0.89,0,1.597,0.252,2.123,0.755c0.526,0.504,0.789,1.178,0.789,2.023c0,0.889-0.255,1.69-0.766,2.401
		c-0.512,0.711-1.345,1.445-2.501,2.2C451.563,61.344,450.948,60.51,450.563,59.777 M460.41,61.888
		c0.83-1.267,1.245-2.626,1.245-4.078c0-2.179-0.778-3.883-2.334-5.113c-1.556-1.23-3.727-1.845-6.513-1.845
		c-2.638,0-4.761,0.663-6.368,1.989c-1.609,1.327-2.412,3.116-2.412,5.369c0,1.126,0.263,2.267,0.789,3.423
		c0.526,1.156,1.374,2.43,2.545,3.823c-2.238,1.527-3.846,3.012-4.824,4.457c-0.978,1.445-1.467,3.16-1.467,5.146
		c0,3.142,1.008,5.568,3.023,7.279c2.016,1.712,4.861,2.568,8.536,2.568c1.971,0,3.66-0.234,5.068-0.7
		c1.408-0.467,2.771-1.315,4.09-2.546l2.001,2.646h6.735l-4.957-6.78c0.815-1.393,1.389-2.871,1.723-4.435
		c0.333-1.563,0.5-3.56,0.5-5.99v-0.822h-5.557c0.029,0.207,0.044,0.415,0.044,0.622c0,1.052-0.07,2.123-0.211,3.212
		c-0.141,1.089-0.33,1.997-0.567,2.723l-5.135-6.735C458.232,64.56,459.58,63.155,460.41,61.888 M426.404,82.539
		c1.852-1.579,2.779-3.946,2.779-7.102c0-2.06-0.4-3.687-1.201-4.88c-0.8-1.192-2.089-2.345-3.867-3.456l-6.647-4.246
		c-0.726-0.459-1.256-0.985-1.589-1.578c-0.333-0.592-0.5-1.23-0.5-1.911c0-1.112,0.3-1.997,0.9-2.657
		c0.6-0.659,1.412-0.989,2.434-0.989c2.208,0,3.312,1.423,3.312,4.268v0.778h6.735v-1.134c0-3.171-0.811-5.42-2.434-6.746
		c-1.622-1.326-3.982-1.989-7.079-1.989c-3.468,0-6.147,0.759-8.036,2.278c-1.889,1.519-2.834,3.671-2.834,6.457
		c0,2.06,0.385,3.761,1.156,5.102c0.77,1.341,2.445,2.812,5.023,4.412l5.446,3.334c0.741,0.46,1.301,0.993,1.679,1.601
		c0.377,0.607,0.566,1.348,0.566,2.222c0,1.156-0.315,2.049-0.944,2.679c-0.63,0.63-1.531,0.945-2.701,0.945
		c-1.378,0-2.342-0.408-2.89-1.223s-0.822-2.045-0.822-3.69v-0.867h-6.98v2.045c0,2.89,0.845,5.065,2.534,6.524
		c1.69,1.46,4.171,2.19,7.447,2.19C421.714,84.906,424.552,84.117,426.404,82.539 M401.664,82.539
		c1.852-1.579,2.779-3.946,2.779-7.102c0-2.06-0.4-3.687-1.201-4.88c-0.8-1.192-2.089-2.345-3.867-3.456l-6.647-4.246
		c-0.726-0.459-1.255-0.985-1.589-1.578c-0.333-0.592-0.5-1.23-0.5-1.911c0-1.112,0.3-1.997,0.9-2.657
		c0.6-0.659,1.412-0.989,2.434-0.989c2.208,0,3.312,1.423,3.312,4.268v0.778h6.735v-1.134c0-3.171-0.811-5.42-2.434-6.746
		c-1.622-1.326-3.982-1.989-7.079-1.989c-3.468,0-6.146,0.759-8.036,2.278c-1.889,1.519-2.834,3.671-2.834,6.457
		c0,2.06,0.385,3.761,1.156,5.102c0.77,1.341,2.445,2.812,5.024,4.412l5.445,3.334c0.741,0.46,1.301,0.993,1.679,1.601
		c0.378,0.607,0.567,1.348,0.567,2.222c0,1.156-0.316,2.049-0.945,2.679c-0.63,0.63-1.53,0.945-2.701,0.945
		c-1.378,0-2.342-0.408-2.89-1.223c-0.548-0.815-0.822-2.045-0.822-3.69v-0.867h-6.98v2.045c0,2.89,0.845,5.065,2.534,6.524
		c1.69,1.46,4.172,2.19,7.447,2.19C396.974,84.906,399.812,84.117,401.664,82.539 M361.732,51.43v32.876h18.294v-5.135H368.6v-9.514
		h10.203v-5.068H368.6v-8.091h11.07V51.43H361.732z M332.376,51.43v32.876h6.38V60.277l9.002,24.029h9.025V51.43h-6.38v22.762
		l-8.78-22.762H332.376z M320.595,84.306h6.869V51.43h-6.869V84.306z M313.909,82.539c1.853-1.579,2.779-3.946,2.779-7.102
		c0-2.06-0.4-3.687-1.2-4.88c-0.801-1.192-2.09-2.345-3.868-3.456l-6.646-4.246c-0.727-0.459-1.256-0.985-1.59-1.578
		c-0.333-0.592-0.5-1.23-0.5-1.911c0-1.112,0.3-1.997,0.9-2.657c0.601-0.659,1.412-0.989,2.435-0.989
		c2.207,0,3.312,1.423,3.312,4.268v0.778h6.735v-1.134c0-3.171-0.812-5.42-2.434-6.746c-1.623-1.326-3.983-1.989-7.08-1.989
		c-3.468,0-6.146,0.759-8.036,2.278c-1.889,1.519-2.834,3.671-2.834,6.457c0,2.06,0.385,3.761,1.156,5.102
		c0.771,1.341,2.445,2.812,5.024,4.412l5.446,3.334c0.741,0.46,1.3,0.993,1.678,1.601c0.378,0.607,0.567,1.348,0.567,2.222
		c0,1.156-0.315,2.049-0.945,2.679c-0.63,0.63-1.53,0.945-2.701,0.945c-1.378,0-2.341-0.408-2.889-1.223
		c-0.549-0.815-0.823-2.045-0.823-3.69v-0.867h-6.979v2.045c0,2.89,0.844,5.065,2.534,6.524c1.689,1.46,4.171,2.19,7.446,2.19
		C309.219,84.906,312.057,84.117,313.909,82.539 M269.299,51.43v22.006c0,3.868,0.892,6.746,2.678,8.636
		c1.786,1.889,4.546,2.834,8.28,2.834c3.912,0,6.78-0.93,8.602-2.79c1.823-1.859,2.735-4.738,2.735-8.636V51.43h-6.691v22.184
		c0,2.119-0.371,3.716-1.112,4.79c-0.741,1.075-1.882,1.612-3.423,1.612c-1.437,0-2.497-0.53-3.178-1.59
		c-0.682-1.059-1.023-2.678-1.023-4.857V51.43H269.299z M249.78,69.924h3.423c1.853,0,3.179,0.333,3.979,1
		c0.8,0.667,1.2,1.867,1.2,3.601c0,1.675-0.363,2.883-1.089,3.623c-0.726,0.742-2.304,1.112-4.734,1.112h-2.779V69.924z
		 M249.78,64.878v-8.38h2.956c2.119,0,3.531,0.333,4.235,1s1.056,1.653,1.056,2.957c0,1.259-0.152,2.137-0.456,2.634
		c-0.304,0.496-0.759,0.919-1.367,1.267s-1.534,0.522-2.778,0.522H249.78z M242.956,51.43v32.876h12.248
		c3.482,0,6.031-0.715,7.646-2.145c1.615-1.43,2.423-3.686,2.423-6.769c0-2.549-0.5-4.471-1.5-5.768s-2.553-2.093-4.657-2.39
		c1.852-0.385,3.249-1.207,4.19-2.467c0.941-1.259,1.412-2.941,1.412-5.046c0-2.904-0.816-5.012-2.446-6.324
		c-1.63-1.311-4.216-1.967-7.757-1.967H242.956z"/>
	<path style="clip-path:url(#SVGID_00000093875814048084843530000013274015741823262629_);" d="M512.042,28.529
		c0.08,0,0.151-0.06,0.212-0.181c0.06-0.121,0.11-0.273,0.151-0.454c0.04-0.181,0.07-0.368,0.091-0.559
		c0.019-0.192,0.03-0.368,0.03-0.53c0-0.221-0.071-0.393-0.212-0.514c-0.141-0.121-0.302-0.181-0.484-0.181h-8.345v-7.045h9.918
		c0.08,0,0.151-0.061,0.211-0.182c0.061-0.121,0.111-0.272,0.152-0.453c0.04-0.182,0.07-0.373,0.09-0.575
		c0.02-0.201,0.03-0.382,0.03-0.544c0-0.222-0.07-0.388-0.211-0.499c-0.141-0.11-0.303-0.166-0.484-0.166h-11.43
		c-0.665,0-0.997,0.211-0.997,0.635v20.924c0,0.081,0.07,0.156,0.211,0.227c0.141,0.07,0.318,0.125,0.529,0.166
		c0.212,0.04,0.434,0.076,0.666,0.106c0.231,0.03,0.428,0.045,0.589,0.045c0.222,0,0.398-0.086,0.529-0.257
		c0.131-0.171,0.197-0.367,0.197-0.59v-9.373H512.042z M482.349,21.756c0.191-0.746,0.514-1.346,0.967-1.799
		c0.454-0.454,1.048-0.776,1.784-0.968c0.736-0.191,1.648-0.287,2.737-0.287h0.241c1.089,0,1.996,0.096,2.722,0.287
		c0.725,0.192,1.315,0.514,1.769,0.968c0.453,0.453,0.775,1.053,0.967,1.799s0.287,1.673,0.287,2.782v5.956
		c0,1.109-0.095,2.037-0.287,2.782c-0.192,0.746-0.514,1.346-0.967,1.799c-0.454,0.454-1.044,0.777-1.769,0.968
		c-0.726,0.192-1.633,0.287-2.722,0.287h-0.241c-1.089,0-2.001-0.095-2.737-0.287c-0.736-0.191-1.33-0.514-1.784-0.968
		c-0.453-0.453-0.776-1.053-0.967-1.799c-0.192-0.745-0.288-1.673-0.288-2.782v-5.956C482.062,23.429,482.158,22.502,482.349,21.756
		 M491.828,38.341c1.068-0.272,1.955-0.726,2.661-1.361c0.705-0.635,1.234-1.471,1.587-2.509c0.353-1.038,0.529-2.323,0.529-3.856
		v-6.198c0-1.532-0.176-2.817-0.529-3.855s-0.882-1.875-1.587-2.51c-0.706-0.635-1.593-1.089-2.661-1.361
		c-1.069-0.272-2.318-0.408-3.75-0.408h-0.241c-1.452,0-2.712,0.136-3.78,0.408c-1.069,0.272-1.956,0.726-2.661,1.361
		c-0.706,0.635-1.235,1.472-1.587,2.51c-0.353,1.038-0.53,2.323-0.53,3.855v6.198c0,1.533,0.177,2.818,0.53,3.856
		c0.352,1.038,0.881,1.874,1.587,2.509c0.705,0.635,1.592,1.089,2.661,1.361c1.068,0.272,2.328,0.408,3.78,0.408h0.241
		C489.51,38.749,490.76,38.613,491.828,38.341 M469.333,17.251c0.161-0.343,0.181-0.59,0.06-0.741
		c-0.121-0.151-0.352-0.227-0.695-0.227c-0.464,0-0.897,0.025-1.3,0.076c-0.404,0.05-0.655,0.176-0.756,0.378l-5.246,10.613
		l-5.216-10.613c-0.101-0.202-0.348-0.328-0.741-0.378c-0.393-0.051-0.831-0.076-1.315-0.076c-0.767,0-0.978,0.323-0.635,0.968
		l6.561,12.881v8.103c0,0.101,0.072,0.181,0.214,0.242c0.143,0.06,0.321,0.111,0.535,0.151c0.214,0.04,0.433,0.071,0.658,0.091
		c0.224,0.02,0.428,0.03,0.611,0.03c0.224,0,0.397-0.081,0.52-0.242c0.122-0.161,0.184-0.352,0.184-0.574v-7.801L469.333,17.251z
		 M450.299,19.065c0.08,0,0.151-0.061,0.212-0.182c0.06-0.121,0.115-0.272,0.166-0.453c0.05-0.182,0.086-0.373,0.106-0.575
		c0.02-0.201,0.03-0.382,0.03-0.544c0-0.201-0.075-0.363-0.227-0.484c-0.151-0.121-0.328-0.181-0.529-0.181h-14.665
		c-0.101,0-0.181,0.065-0.242,0.196c-0.06,0.132-0.111,0.288-0.151,0.469s-0.071,0.373-0.091,0.575
		c-0.02,0.201-0.03,0.373-0.03,0.514c0,0.201,0.071,0.362,0.212,0.483c0.141,0.121,0.322,0.182,0.544,0.182h5.836v19.17
		c0,0.101,0.07,0.181,0.212,0.242c0.14,0.06,0.317,0.111,0.529,0.151c0.211,0.04,0.433,0.071,0.665,0.091
		c0.231,0.02,0.428,0.03,0.59,0.03c0.221,0,0.397-0.081,0.529-0.242c0.131-0.161,0.196-0.352,0.196-0.574V19.065H450.299z
		 M435.52,38.205c0.06-0.121,0.11-0.272,0.151-0.454c0.04-0.181,0.07-0.372,0.09-0.574c0.02-0.201,0.031-0.383,0.031-0.544
		c0-0.202-0.071-0.363-0.212-0.484c-0.141-0.121-0.313-0.182-0.514-0.182h-8.89V17.099c0-0.221-0.065-0.413-0.194-0.574
		c-0.13-0.161-0.304-0.242-0.523-0.242c-0.18,0-0.384,0.01-0.614,0.03c-0.229,0.021-0.448,0.056-0.658,0.106
		c-0.209,0.051-0.383,0.111-0.523,0.181c-0.14,0.071-0.209,0.147-0.209,0.227v21.075c0,0.162,0.129,0.283,0.389,0.363
		c0.259,0.081,0.558,0.121,0.897,0.121h10.567C435.388,38.386,435.458,38.326,435.52,38.205 M416.01,33.352
		c-0.182,0.716-0.474,1.29-0.877,1.723c-0.403,0.434-0.927,0.752-1.572,0.953c-0.646,0.202-1.442,0.302-2.389,0.302h-0.242
		c-0.907,0-1.673-0.1-2.298-0.302c-0.625-0.201-1.134-0.519-1.527-0.953c-0.393-0.433-0.675-1.007-0.847-1.723
		c-0.171-0.716-0.257-1.588-0.257-2.616V17.16c0-0.222-0.065-0.423-0.196-0.605c-0.131-0.181-0.308-0.272-0.529-0.272
		c-0.162,0-0.358,0.015-0.59,0.045c-0.232,0.031-0.453,0.071-0.665,0.121c-0.212,0.051-0.388,0.116-0.529,0.197
		s-0.212,0.161-0.212,0.242v13.969c0,1.492,0.156,2.737,0.469,3.735c0.312,0.997,0.786,1.809,1.421,2.434
		c0.635,0.625,1.431,1.068,2.389,1.33c0.957,0.262,2.081,0.393,3.371,0.393h0.242c1.31,0,2.454-0.131,3.432-0.393
		c0.977-0.262,1.794-0.705,2.449-1.33c0.655-0.625,1.144-1.437,1.467-2.434c0.322-0.998,0.483-2.243,0.483-3.735V17.16
		c0-0.222-0.065-0.423-0.196-0.605c-0.131-0.181-0.308-0.272-0.529-0.272c-0.182,0-0.383,0.015-0.605,0.045
		c-0.222,0.031-0.439,0.071-0.65,0.121c-0.212,0.051-0.389,0.116-0.529,0.197c-0.142,0.081-0.212,0.161-0.212,0.242v13.848
		C416.283,31.764,416.191,32.636,416.01,33.352 M389.137,21.877c0.181-0.786,0.488-1.421,0.922-1.905
		c0.433-0.484,1.017-0.836,1.754-1.058c0.735-0.222,1.657-0.333,2.766-0.333h0.242c0.464,0,0.917,0.02,1.361,0.06
		c0.443,0.041,0.851,0.086,1.224,0.137c0.373,0.05,0.701,0.095,0.983,0.136c0.282,0.04,0.494,0.07,0.635,0.09
		c0.182,0.021,0.312-0.161,0.393-0.544c0.081-0.383,0.121-0.796,0.121-1.24c0-0.14-0.177-0.272-0.529-0.393
		c-0.353-0.121-0.786-0.221-1.3-0.302c-0.514-0.08-1.054-0.141-1.618-0.182c-0.564-0.04-1.069-0.06-1.512-0.06h-0.242
		c-1.391,0-2.605,0.136-3.643,0.408c-1.039,0.272-1.895,0.726-2.57,1.361c-0.676,0.635-1.185,1.472-1.527,2.51
		c-0.343,1.038-0.514,2.323-0.514,3.855v6.198c0,1.533,0.166,2.818,0.499,3.856c0.332,1.038,0.836,1.874,1.511,2.509
		c0.676,0.635,1.522,1.089,2.54,1.361s2.212,0.408,3.583,0.408h0.242c0.504,0,1.048-0.02,1.633-0.06
		c0.585-0.041,1.129-0.101,1.633-0.182c0.504-0.081,0.927-0.176,1.27-0.287c0.342-0.111,0.514-0.247,0.514-0.408
		c0-0.182-0.01-0.378-0.03-0.59c-0.021-0.212-0.056-0.413-0.106-0.605c-0.051-0.191-0.116-0.347-0.197-0.468
		c-0.08-0.121-0.181-0.171-0.302-0.151c-0.262,0.04-0.771,0.126-1.527,0.257c-0.756,0.131-1.638,0.196-2.646,0.196h-0.242
		c-1.088,0-1.991-0.11-2.706-0.333c-0.716-0.221-1.29-0.574-1.723-1.058c-0.434-0.484-0.736-1.119-0.908-1.905
		c-0.171-0.786-0.257-1.754-0.257-2.903V24.78C388.864,23.631,388.954,22.663,389.137,21.877 M374.832,20.304
		c0.02-0.201,0.05-0.382,0.09-0.544c0,0.101,0.025,0.283,0.076,0.544c0.05,0.263,0.095,0.444,0.136,0.545l2.903,8.799h-6.259
		l2.933-8.799C374.771,20.688,374.81,20.506,374.832,20.304 M381.453,38.643c0.342,0.071,0.796,0.106,1.36,0.106
		c0.182,0,0.358-0.035,0.529-0.106s0.257-0.196,0.257-0.378c0-0.121-0.01-0.211-0.03-0.272l-7.257-21.136
		c-0.121-0.382-0.353-0.574-0.695-0.574c-0.383,0-0.801,0.035-1.255,0.106c-0.454,0.071-0.721,0.217-0.801,0.438l-7.287,21.166
		c-0.041,0.121-0.061,0.212-0.061,0.272c0,0.182,0.086,0.307,0.257,0.378c0.171,0.071,0.358,0.106,0.56,0.106
		c0.463,0,0.881-0.02,1.254-0.06c0.373-0.041,0.6-0.182,0.681-0.424l2.116-6.259h7.68l2.026,6.138
		C380.888,38.406,381.111,38.572,381.453,38.643 M364.216,28.529c0.08,0,0.151-0.06,0.211-0.181
		c0.061-0.121,0.111-0.273,0.152-0.454c0.04-0.181,0.07-0.368,0.09-0.559c0.02-0.192,0.03-0.368,0.03-0.53
		c0-0.221-0.07-0.393-0.211-0.514c-0.141-0.121-0.303-0.181-0.484-0.181h-8.345v-7.045h9.917c0.081,0,0.152-0.061,0.212-0.182
		s0.111-0.272,0.151-0.453c0.04-0.182,0.071-0.373,0.091-0.575c0.02-0.201,0.03-0.382,0.03-0.544c0-0.222-0.071-0.388-0.212-0.499
		c-0.141-0.11-0.302-0.166-0.483-0.166h-11.43c-0.665,0-0.998,0.211-0.998,0.635v20.924c0,0.081,0.071,0.156,0.212,0.227
		c0.141,0.07,0.317,0.125,0.529,0.166c0.212,0.04,0.433,0.076,0.665,0.106c0.232,0.03,0.428,0.045,0.59,0.045
		c0.221,0,0.398-0.086,0.529-0.257c0.131-0.171,0.197-0.367,0.197-0.59v-9.373H364.216z M327.66,16.797
		c-0.101-0.141-0.212-0.262-0.333-0.363c-0.121-0.1-0.262-0.151-0.423-0.151c-0.182,0-0.378,0.01-0.59,0.03
		c-0.212,0.021-0.419,0.056-0.62,0.106c-0.202,0.051-0.368,0.111-0.499,0.181c-0.131,0.071-0.196,0.147-0.196,0.227v21.408
		c0,0.101,0.07,0.181,0.211,0.242c0.141,0.06,0.313,0.111,0.514,0.151c0.202,0.04,0.413,0.071,0.635,0.091
		c0.222,0.02,0.413,0.03,0.575,0.03c0.222,0,0.398-0.081,0.529-0.242c0.131-0.161,0.197-0.352,0.197-0.574v-16.54l10.855,16.872
		c0.06,0.081,0.166,0.151,0.317,0.212c0.151,0.06,0.328,0.111,0.529,0.151c0.202,0.04,0.403,0.071,0.605,0.091
		c0.201,0.02,0.373,0.03,0.514,0.03c0.201,0,0.368-0.075,0.499-0.227c0.131-0.151,0.197-0.337,0.197-0.559V17.13
		c0-0.242-0.046-0.444-0.136-0.605c-0.091-0.161-0.248-0.242-0.469-0.242c-0.182,0-0.393,0.01-0.635,0.03
		c-0.242,0.021-0.469,0.051-0.68,0.091c-0.212,0.041-0.389,0.091-0.53,0.151c-0.141,0.061-0.211,0.131-0.211,0.212V33.7
		L327.66,16.797z M320.509,17.099c0-0.221-0.066-0.413-0.197-0.574c-0.131-0.161-0.307-0.242-0.529-0.242
		c-0.181,0-0.383,0.01-0.605,0.03c-0.222,0.021-0.438,0.056-0.65,0.106c-0.211,0.051-0.388,0.111-0.529,0.181
		c-0.141,0.071-0.211,0.147-0.211,0.227v21.408c0,0.101,0.07,0.181,0.211,0.242c0.141,0.06,0.318,0.111,0.529,0.151
		c0.212,0.04,0.428,0.071,0.65,0.091c0.222,0.02,0.424,0.03,0.605,0.03c0.222,0,0.398-0.081,0.529-0.242
		c0.131-0.161,0.197-0.352,0.197-0.574V17.099z M301.35,27.35l10.069,10.855c0.221,0.242,0.534,0.393,0.937,0.453
		c0.403,0.061,0.836,0.091,1.3,0.091c0.141,0,0.303-0.02,0.484-0.06c0.182-0.041,0.272-0.162,0.272-0.363
		c0-0.222-0.161-0.504-0.484-0.847l-9.706-10.432l8.86-9.494c0.342-0.363,0.514-0.645,0.514-0.847c0-0.201-0.091-0.322-0.272-0.363
		c-0.182-0.04-0.353-0.06-0.514-0.06c-0.444,0-0.873,0.03-1.285,0.091c-0.414,0.06-0.731,0.211-0.953,0.453l-9.222,9.948v-9.676
		c0-0.221-0.066-0.413-0.197-0.574c-0.131-0.161-0.307-0.242-0.529-0.242c-0.181,0-0.383,0.01-0.605,0.03
		c-0.222,0.021-0.438,0.056-0.65,0.106c-0.211,0.051-0.388,0.111-0.529,0.181c-0.141,0.071-0.212,0.147-0.212,0.227v21.408
		c0,0.101,0.071,0.181,0.212,0.242c0.141,0.06,0.318,0.111,0.529,0.151c0.212,0.04,0.428,0.071,0.65,0.091
		c0.222,0.02,0.424,0.03,0.605,0.03c0.222,0,0.398-0.081,0.529-0.242c0.131-0.161,0.197-0.352,0.197-0.574V27.35z M286.41,20.304
		c0.02-0.201,0.05-0.382,0.091-0.544c0,0.101,0.025,0.283,0.075,0.544c0.05,0.263,0.096,0.444,0.136,0.545l2.903,8.799h-6.259
		l2.933-8.799C286.35,20.688,286.391,20.506,286.41,20.304 M293.033,38.643c0.342,0.071,0.796,0.106,1.36,0.106
		c0.182,0,0.358-0.035,0.53-0.106c0.171-0.071,0.257-0.196,0.257-0.378c0-0.121-0.011-0.211-0.031-0.272l-7.257-21.136
		c-0.12-0.382-0.352-0.574-0.695-0.574c-0.383,0-0.801,0.035-1.255,0.106c-0.453,0.071-0.721,0.217-0.801,0.438l-7.287,21.166
		c-0.041,0.121-0.061,0.212-0.061,0.272c0,0.182,0.086,0.307,0.257,0.378c0.171,0.071,0.358,0.106,0.56,0.106
		c0.463,0,0.881-0.02,1.255-0.06c0.372-0.041,0.599-0.182,0.68-0.424l2.116-6.259h7.681l2.026,6.138
		C292.467,38.406,292.69,38.572,293.033,38.643 M262.031,38.235c0.282,0.101,0.554,0.151,0.816,0.151h11.4
		c0.08,0,0.151-0.06,0.211-0.181c0.061-0.121,0.111-0.272,0.151-0.454c0.041-0.181,0.071-0.372,0.091-0.574
		c0.02-0.201,0.03-0.383,0.03-0.544c0-0.202-0.07-0.363-0.211-0.484c-0.142-0.121-0.303-0.182-0.484-0.182h-9.706v-7.438h8.98
		c0.081,0,0.151-0.06,0.212-0.181c0.06-0.121,0.116-0.273,0.166-0.454c0.05-0.181,0.086-0.373,0.106-0.575
		c0.02-0.201,0.03-0.372,0.03-0.514c0-0.221-0.071-0.393-0.211-0.514c-0.142-0.121-0.313-0.181-0.514-0.181h-8.769v-7.045h9.918
		c0.08,0,0.151-0.061,0.211-0.182c0.061-0.121,0.111-0.272,0.151-0.453c0.041-0.182,0.071-0.373,0.091-0.575
		c0.02-0.201,0.03-0.382,0.03-0.544c0-0.222-0.07-0.388-0.211-0.499c-0.142-0.11-0.303-0.166-0.484-0.166h-11.702
		c-0.484,0-0.725,0.262-0.725,0.786v20.41C261.608,38.004,261.747,38.134,262.031,38.235 M251.672,19.352
		c0.726,0.212,1.315,0.559,1.769,1.043c0.453,0.484,0.776,1.114,0.967,1.89c0.192,0.776,0.288,1.719,0.288,2.827v4.778
		c0,1.108-0.096,2.051-0.288,2.827c-0.191,0.776-0.514,1.406-0.967,1.89c-0.454,0.483-1.043,0.831-1.769,1.043
		c-0.726,0.211-1.633,0.317-2.721,0.317h-4.143V19.035h4.143C250.038,19.035,250.946,19.14,251.672,19.352 M242.359,16.797
		c-0.181,0.121-0.272,0.323-0.272,0.605v20.44c0,0.162,0.136,0.292,0.408,0.393c0.272,0.101,0.549,0.151,0.832,0.151h5.624
		c1.451,0,2.711-0.136,3.779-0.408c1.069-0.272,1.955-0.726,2.661-1.361s1.23-1.471,1.572-2.509
		c0.343-1.038,0.515-2.323,0.515-3.856V24.78c0-1.532-0.172-2.817-0.515-3.856c-0.342-1.038-0.866-1.874-1.572-2.509
		c-0.706-0.635-1.592-1.094-2.661-1.376c-1.068-0.282-2.328-0.423-3.779-0.423h-5.987C242.742,16.616,242.54,16.676,242.359,16.797"
		/>
</g>
</svg>
