<?xml version="1.0" encoding="iso-8859-1"?>
<!-- Generator: Adobe Illustrator 29.5.1, SVG Export Plug-In . SVG Version: 9.03 Build 0)  -->
<svg version="1.1" id="Layer_1" xmlns="http://www.w3.org/2000/svg" xmlns:xlink="http://www.w3.org/1999/xlink" x="0px" y="0px"
	 viewBox="0 0 720 144" style="enable-background:new 0 0 720 144;" xml:space="preserve">
<g>
	<defs>
		<rect id="SVGID_1_" width="720" height="144"/>
	</defs>
	<clipPath id="SVGID_00000132075557617249618840000005455403731599183539_">
		<use xlink:href="#SVGID_1_"  style="overflow:visible;"/>
	</clipPath>
	<path style="clip-path:url(#SVGID_00000132075557617249618840000005455403731599183539_);fill:#FFFFFF;" d="M72.921,1.3
		C33.757,1.3,2.008,32.959,2.008,72.012s31.749,70.712,70.913,70.712s70.912-31.659,70.912-70.712S112.085,1.3,72.921,1.3"/>
	<path style="clip-path:url(#SVGID_00000132075557617249618840000005455403731599183539_);fill:#FFFFFF;" d="M72.921,2.98
		c38.175,0,69.233,30.968,69.233,69.032s-31.058,69.032-69.233,69.032S3.688,110.076,3.688,72.012S34.746,2.98,72.921,2.98"/>
</g>
<rect x="191.456" y="16.617" style="fill:#FFFFFF;" width="2" height="111.776"/>
<g>
	<defs>
		<rect id="SVGID_00000003072550741364296760000014552885830949935242_" width="720" height="144"/>
	</defs>
	<clipPath id="SVGID_00000067955940506088947880000014471334380876386730_">
		<use xlink:href="#SVGID_00000003072550741364296760000014552885830949935242_"  style="overflow:visible;"/>
	</clipPath>
	<path style="clip-path:url(#SVGID_00000067955940506088947880000014471334380876386730_);" d="M114.152,102.346v4.129
		c0,0.138-0.046,0.246-0.154,0.323c-0.093,0.077-0.216,0.123-0.37,0.123c-0.092,0-0.231,0-0.385-0.015
		c-0.154-0.015-0.323-0.031-0.478-0.046c-0.154-0.015-0.292-0.062-0.416-0.108c-0.107-0.046-0.169-0.108-0.169-0.169v-4.222
		l-3.605-7.041c-0.123-0.246-0.139-0.416-0.046-0.523c0.092-0.108,0.262-0.17,0.508-0.17c0.154,0,0.308,0,0.478,0.015
		c0.154,0,0.308,0.016,0.446,0.047c0.139,0.015,0.262,0.046,0.355,0.077c0.092,0.031,0.169,0.077,0.2,0.154l2.65,5.408l2.65-5.393
		c0.031-0.061,0.092-0.123,0.2-0.154c0.093-0.031,0.216-0.061,0.355-0.092c0.138-0.016,0.292-0.031,0.446-0.047
		c0.154,0,0.324-0.015,0.478-0.015c0.246,0,0.416,0.046,0.508,0.154c0.077,0.108,0.062,0.277-0.061,0.539L114.152,102.346z
		 M103.615,96.584v9.891c0,0.138-0.046,0.246-0.154,0.323c-0.108,0.077-0.216,0.123-0.354,0.123c-0.093,0-0.231,0-0.401-0.015
		c-0.17-0.015-0.339-0.031-0.493-0.046s-0.293-0.062-0.401-0.108c-0.123-0.046-0.169-0.108-0.169-0.169v-9.984h-3.051
		c-0.123,0-0.215-0.046-0.308-0.139c-0.077-0.092-0.123-0.2-0.123-0.338c0-0.093,0-0.201,0.015-0.355
		c0.016-0.138,0.031-0.292,0.047-0.431c0.015-0.139,0.061-0.262,0.092-0.37c0.046-0.092,0.093-0.154,0.17-0.154h8.165
		c0.123,0,0.216,0.046,0.308,0.139c0.077,0.092,0.123,0.215,0.123,0.339c0,0.092,0,0.2-0.015,0.354s-0.031,0.293-0.046,0.431
		c-0.016,0.139-0.046,0.262-0.093,0.355c-0.046,0.092-0.092,0.154-0.169,0.154H103.615z M96.497,106.475
		c0,0.138-0.046,0.246-0.154,0.323c-0.092,0.077-0.216,0.123-0.37,0.123c-0.092,0-0.231,0-0.4-0.015
		c-0.17-0.015-0.324-0.031-0.493-0.046c-0.154-0.015-0.293-0.062-0.416-0.108c-0.108-0.046-0.17-0.108-0.17-0.169V94.981
		c0-0.061,0.062-0.123,0.17-0.169c0.123-0.046,0.262-0.092,0.416-0.108c0.154-0.015,0.323-0.046,0.493-0.046
		c0.169-0.016,0.292-0.016,0.4-0.016c0.139,0,0.262,0.047,0.37,0.139c0.092,0.093,0.154,0.2,0.154,0.324V106.475z M85.389,104.888
		c0.092,0.015,0.216,0.061,0.401,0.092c0.185,0.047,0.385,0.093,0.631,0.139c0.231,0.046,0.493,0.077,0.786,0.123
		c0.277,0.031,0.57,0.046,0.847,0.046c0.309,0,0.601-0.03,0.878-0.077c0.278-0.046,0.54-0.138,0.755-0.246
		c0.216-0.123,0.401-0.277,0.524-0.462c0.139-0.201,0.201-0.432,0.201-0.724c0-0.401-0.124-0.74-0.386-1.017
		c-0.261-0.278-0.585-0.539-0.97-0.786c-0.385-0.246-0.817-0.493-1.279-0.739c-0.462-0.247-0.878-0.54-1.279-0.863
		c-0.4-0.324-0.724-0.709-0.97-1.156c-0.262-0.447-0.385-0.986-0.385-1.633c0-0.539,0.092-1.001,0.292-1.371
		c0.2-0.37,0.463-0.678,0.801-0.924c0.339-0.232,0.755-0.416,1.218-0.524c0.477-0.108,1.001-0.17,1.571-0.17
		c0.123,0,0.308,0,0.555,0.016c0.246,0.015,0.508,0.03,0.785,0.061c0.278,0.031,0.555,0.062,0.817,0.108
		c0.277,0.046,0.493,0.108,0.647,0.185c0.154,0.062,0.247,0.139,0.277,0.216c0.031,0.077,0.031,0.2,0.016,0.385
		c-0.016,0.293-0.077,0.524-0.185,0.724c-0.093,0.2-0.231,0.277-0.416,0.246c-0.278-0.061-0.586-0.107-0.94-0.169
		c-0.354-0.046-0.755-0.077-1.186-0.077c-0.678,0-1.248,0.108-1.68,0.293c-0.431,0.2-0.647,0.523-0.647,0.986
		c0,0.369,0.124,0.678,0.386,0.939c0.261,0.263,0.585,0.509,0.97,0.74s0.817,0.478,1.279,0.724c0.462,0.247,0.878,0.539,1.279,0.878
		c0.385,0.339,0.724,0.74,0.97,1.202c0.262,0.462,0.385,1.048,0.385,1.71c0,0.632-0.123,1.156-0.354,1.556
		c-0.231,0.416-0.555,0.724-0.94,0.955c-0.385,0.232-0.847,0.386-1.356,0.478c-0.508,0.093-1.047,0.139-1.602,0.139
		c-0.246,0-0.524-0.016-0.801-0.031s-0.539-0.046-0.817-0.077c-0.261-0.031-0.508-0.077-0.754-0.123
		c-0.232-0.047-0.432-0.093-0.601-0.154c-0.17-0.062-0.262-0.124-0.293-0.185c-0.031-0.077-0.046-0.201-0.015-0.37
		c0.03-0.324,0.092-0.601,0.184-0.817C85.112,104.949,85.234,104.842,85.389,104.888 M79.057,96.568H76.76v3.991h2.296
		c0.447,0,0.816-0.031,1.078-0.077c0.278-0.047,0.478-0.139,0.632-0.278c0.154-0.138,0.247-0.308,0.293-0.539
		s0.077-0.539,0.077-0.909v-0.37c0-0.369-0.031-0.678-0.077-0.924c-0.046-0.231-0.154-0.416-0.293-0.555
		c-0.154-0.138-0.354-0.215-0.632-0.277C79.857,96.599,79.504,96.568,79.057,96.568 M74.773,106.567V95.228
		c0-0.123,0.046-0.216,0.154-0.308c0.108-0.077,0.216-0.123,0.37-0.123h3.651c0.755,0,1.402,0.061,1.941,0.169
		c0.539,0.108,0.971,0.308,1.31,0.585c0.339,0.278,0.585,0.648,0.739,1.11c0.155,0.462,0.231,1.032,0.231,1.741v0.37
		c0,0.523-0.046,0.97-0.123,1.355s-0.216,0.724-0.385,1.002c-0.169,0.277-0.416,0.493-0.709,0.662
		c-0.292,0.17-0.647,0.293-1.047,0.385l2.295,3.975c0.124,0.216,0.185,0.37,0.185,0.478c0,0.061-0.031,0.123-0.077,0.169
		c-0.061,0.047-0.123,0.077-0.185,0.093c-0.061,0.015-0.138,0.03-0.2,0.046c-0.077,0-0.123,0.015-0.154,0.015
		c-0.093,0-0.231,0-0.385-0.015c-0.154-0.016-0.308-0.031-0.462-0.062c-0.154-0.03-0.309-0.061-0.432-0.123
		c-0.123-0.062-0.216-0.139-0.277-0.231l-2.434-4.16h-2.034v4.16c0,0.139-0.046,0.231-0.154,0.308
		c-0.093,0.077-0.216,0.123-0.354,0.123c-0.093,0-0.232,0-0.401-0.015c-0.17-0.016-0.324-0.031-0.493-0.046
		c-0.154-0.016-0.293-0.062-0.416-0.108C74.836,106.69,74.773,106.644,74.773,106.567 M65.068,106.382V95.228
		c0-0.139,0.046-0.247,0.154-0.324c0.092-0.077,0.216-0.107,0.37-0.107h6.64c0.123,0,0.231,0.046,0.308,0.154
		c0.077,0.092,0.123,0.215,0.123,0.339c0,0.092,0,0.2-0.015,0.354c-0.016,0.154-0.031,0.293-0.046,0.431
		c-0.016,0.139-0.062,0.262-0.093,0.355c-0.046,0.092-0.108,0.154-0.169,0.154h-5.269v3.204h4.514c0.108,0,0.2,0.047,0.292,0.139
		c0.078,0.092,0.124,0.2,0.124,0.323c0,0.093,0,0.201-0.016,0.355c-0.015,0.154-0.03,0.292-0.046,0.431
		c-0.015,0.139-0.062,0.262-0.092,0.37c-0.047,0.092-0.093,0.154-0.17,0.154h-4.622v3.389h5.161c0.124,0,0.232,0.047,0.309,0.139
		c0.077,0.093,0.123,0.2,0.123,0.339c0,0.092,0,0.2-0.016,0.354c-0.015,0.139-0.03,0.293-0.046,0.432
		c-0.015,0.138-0.061,0.262-0.092,0.37c-0.046,0.107-0.108,0.154-0.17,0.154h-6.501c-0.154,0-0.324-0.031-0.493-0.108
		C65.145,106.536,65.068,106.459,65.068,106.382 M58.998,103.547l2.496-8.581c0.154-0.154,0.339-0.246,0.539-0.293
		c0.2-0.031,0.431-0.061,0.709-0.061c0.107,0,0.231,0,0.338,0.015c0.124,0.015,0.216,0.031,0.293,0.077
		c0.077,0.046,0.139,0.093,0.185,0.17c0.046,0.077,0.031,0.169,0,0.308l-3.836,11.478c-0.016,0.092-0.077,0.154-0.17,0.2
		c-0.092,0.046-0.185,0.061-0.292,0.061c-0.37,0-0.678-0.015-0.925-0.061c-0.246-0.046-0.4-0.108-0.462-0.185l-3.821-11.493
		c-0.031-0.108-0.031-0.201,0-0.278c0.031-0.077,0.077-0.123,0.154-0.169c0.062-0.046,0.139-0.077,0.231-0.093
		c0.077-0.015,0.154-0.03,0.201-0.03c0.169,0,0.339,0,0.508,0.015c0.17,0.015,0.324,0.031,0.478,0.062
		c0.138,0.031,0.262,0.077,0.369,0.123c0.093,0.062,0.17,0.123,0.201,0.216l2.557,8.504c0.046,0.139,0.077,0.277,0.093,0.416
		c0.015,0.154,0.031,0.277,0.061,0.401c0.016-0.124,0.031-0.262,0.046-0.401C58.921,103.809,58.951,103.671,58.998,103.547
		 M52.589,106.475c0,0.138-0.047,0.246-0.154,0.323c-0.093,0.077-0.216,0.123-0.37,0.123c-0.093,0-0.231,0-0.401-0.015
		c-0.169-0.015-0.323-0.031-0.493-0.046c-0.154-0.015-0.293-0.062-0.416-0.108s-0.169-0.108-0.169-0.169V94.981
		c0-0.061,0.061-0.123,0.169-0.169c0.123-0.046,0.247-0.092,0.416-0.108c0.154-0.015,0.324-0.046,0.493-0.046
		c0.17-0.016,0.293-0.016,0.401-0.016c0.138,0,0.262,0.047,0.37,0.139c0.092,0.093,0.154,0.2,0.154,0.324V106.475z M46.518,103.239
		V94.92c0-0.062,0.062-0.123,0.185-0.154c0.124-0.046,0.262-0.077,0.432-0.093c0.169-0.015,0.339-0.031,0.508-0.046
		c0.17-0.015,0.308-0.015,0.401-0.015c0.292,0,0.431,0.169,0.431,0.493v11.37c0,0.138-0.046,0.231-0.154,0.308
		c-0.108,0.077-0.216,0.123-0.339,0.123c-0.092,0-0.2,0-0.354-0.015c-0.154-0.016-0.293-0.016-0.447-0.046
		c-0.154-0.031-0.278-0.062-0.401-0.093c-0.123-0.046-0.2-0.092-0.246-0.154l-5.377-8.273v8.15c0,0.138-0.046,0.246-0.154,0.323
		c-0.092,0.077-0.216,0.123-0.355,0.123c-0.092,0-0.231,0-0.4-0.015c-0.17-0.015-0.339-0.031-0.493-0.046s-0.293-0.062-0.401-0.108
		c-0.123-0.046-0.169-0.108-0.169-0.169V94.981c0-0.061,0.061-0.123,0.169-0.169c0.124-0.046,0.247-0.092,0.401-0.108
		c0.154-0.015,0.308-0.031,0.477-0.046c0.17-0.016,0.293-0.016,0.401-0.016c0.123,0,0.231,0.031,0.308,0.108
		c0.077,0.077,0.154,0.154,0.201,0.247L46.518,103.239z M35.056,102.5v-7.488c0-0.061,0.062-0.123,0.169-0.169
		c0.124-0.046,0.262-0.093,0.416-0.123c0.17-0.031,0.339-0.062,0.493-0.078c0.17-0.015,0.293-0.03,0.401-0.03
		c0.139,0,0.262,0.046,0.354,0.154c0.093,0.108,0.139,0.215,0.139,0.339v7.487c0,0.817-0.092,1.495-0.277,2.049
		c-0.185,0.555-0.447,0.986-0.817,1.341c-0.37,0.339-0.832,0.585-1.386,0.724c-0.555,0.139-1.218,0.215-1.957,0.215h-0.139
		c-0.724,0-1.371-0.076-1.91-0.215c-0.555-0.139-1.002-0.385-1.371-0.724c-0.37-0.339-0.632-0.786-0.817-1.341
		c-0.185-0.539-0.277-1.232-0.277-2.049v-7.58c0-0.061,0.061-0.123,0.169-0.169c0.124-0.046,0.247-0.093,0.416-0.123
		c0.154-0.031,0.324-0.062,0.493-0.078c0.17-0.015,0.308-0.03,0.401-0.03c0.138,0,0.246,0.046,0.354,0.154
		c0.093,0.108,0.154,0.215,0.154,0.339v7.379c0,0.478,0.031,0.879,0.108,1.218c0.077,0.338,0.2,0.616,0.385,0.816
		c0.185,0.216,0.432,0.37,0.74,0.462c0.308,0.093,0.693,0.154,1.155,0.154h0.139c0.478,0,0.863-0.046,1.186-0.154
		c0.308-0.108,0.57-0.262,0.755-0.462c0.185-0.216,0.324-0.478,0.401-0.816C35.025,103.378,35.056,102.978,35.056,102.5
		 M106.742,75.538v14.313h-3.944V67.989h5.5l5.285,13.466V67.989h4.006v21.862h-5.023L106.742,75.538z M95.419,67.989h4.437v21.862
		h-4.437V67.989z M78.395,67.989h4.56v9.506l5.685-9.506h4.76L87.084,78.05L93.4,89.867h-5.284l-5.161-10.631v10.631h-4.56V67.989z
		 M70.967,84.998H64.62l-1.156,4.869h-4.575l6.162-21.878h5.824l6.07,21.878h-4.791L70.967,84.998z M70.06,81.193l-2.188-9.044
		l-2.296,9.044H70.06z M45.625,67.989h11.817v3.713h-7.195v4.668h6.625v3.806h-6.625v5.823h7.21v3.852H45.625V67.989z
		 M35.595,67.989c5.839,0,7.642,3.097,7.642,10.939s-1.818,10.939-7.657,10.939h-7.488V67.989H35.595z M32.683,86.092h2.08
		c3.405,0,3.836-2.003,3.836-7.241c0-5.223-0.431-7.226-3.836-7.226h-2.08V86.092z M81.507,51.366l-9.938-17.24l1.31-2.203
		l11.154,19.443H81.507z M76.808,51.366l-7.611-13.142l1.279-2.157l8.766,15.299H76.808z M72.032,51.366l-5.223-9.013l1.325-2.234
		l6.424,11.231h-2.526V51.366z M67.225,51.366l-2.804-4.869l1.325-2.234l4.052,7.103H67.225z M61.601,51.366l1.71-2.928l1.711,2.928
		H61.601z M59.429,29.889v18.365c0,7.41,6.009,13.419,13.419,13.419c7.411,0,13.419-6.009,13.419-13.419V29.889H59.429z"/>
	<path style="clip-path:url(#SVGID_00000067955940506088947880000014471334380876386730_);fill:#FFFFFF;" d="M502.772,108.842
		v18.948h9.339v-2.101h-6.931v-16.847H502.772z M495.053,121.231h-6.137l3.037-10.16L495.053,121.231z M490.492,108.842
		l-6.008,18.948h2.46l1.396-4.51h7.315l1.371,4.51h2.703l-6.175-18.948H490.492z M478.861,127.79h2.447v-18.948h-2.447V127.79z
		 M469.85,110.943c0.871,0,1.544,0.242,2.018,0.724c0.474,0.483,0.711,1.215,0.711,2.197c0,1.008-0.261,1.787-0.782,2.338
		s-1.345,0.827-2.472,0.827h-2.947v-6.086H469.85z M463.944,108.842v18.948h2.434v-8.712h2.05c1.102,0,1.866,0.094,2.293,0.282
		c0.427,0.188,0.754,0.493,0.98,0.916c0.227,0.423,0.37,1.031,0.43,1.826l0.102,1.473l0.103,2.063
		c0.017,0.35,0.064,0.713,0.14,1.089c0.077,0.375,0.18,0.73,0.308,1.063h2.524c-0.402-1.691-0.613-3.327-0.634-4.907
		c-0.022-1.58-0.24-2.75-0.654-3.51c-0.414-0.76-1.228-1.243-2.44-1.448c1.11-0.213,1.964-0.704,2.562-1.473
		c0.598-0.769,0.897-1.738,0.897-2.908c0-1.435-0.408-2.577-1.224-3.427c-0.815-0.85-1.885-1.275-3.209-1.275H463.944z
		 M448.566,108.842v2.101h4.958v16.847h2.434v-16.847h4.984v-2.101H448.566z M430.163,108.842v18.948h2.408v-9.89l6.726,9.89h3.088
		l-7.29-10.39l6.905-8.558h-2.728l-6.701,8.327v-8.327H430.163z M421.312,110.943c0.872,0,1.544,0.242,2.018,0.724
		c0.474,0.483,0.711,1.215,0.711,2.197c0,1.008-0.26,1.787-0.781,2.338s-1.345,0.827-2.473,0.827h-2.946v-6.086H421.312z
		 M415.406,108.842v18.948h2.435v-8.712h2.049c1.102,0,1.866,0.094,2.294,0.282c0.427,0.188,0.753,0.493,0.98,0.916
		c0.226,0.423,0.369,1.031,0.429,1.826l0.102,1.473l0.103,2.063c0.017,0.35,0.064,0.713,0.141,1.089
		c0.077,0.375,0.179,0.73,0.307,1.063h2.524c-0.402-1.691-0.613-3.327-0.634-4.907c-0.022-1.58-0.239-2.75-0.654-3.51
		c-0.414-0.76-1.227-1.243-2.44-1.448c1.11-0.213,1.964-0.704,2.562-1.473c0.598-0.769,0.897-1.738,0.897-2.908
		c0-1.435-0.408-2.577-1.224-3.427c-0.815-0.85-1.885-1.275-3.209-1.275H415.406z M402.024,115.171c0-1.657,0.27-2.859,0.808-3.606
		c0.538-0.748,1.426-1.121,2.664-1.121c1.256,0,2.155,0.408,2.697,1.223c0.542,0.816,0.814,2.052,0.814,3.709v4.497
		c0,1.844-0.092,3.147-0.276,3.907c-0.184,0.76-0.527,1.33-1.031,1.71c-0.504,0.38-1.247,0.57-2.229,0.57
		c-1.247,0-2.133-0.39-2.659-1.172c-0.525-0.781-0.788-2.133-0.788-4.055V115.171z M410.038,110.149
		c-0.961-1.187-2.475-1.781-4.542-1.781c-2.067,0-3.572,0.562-4.516,1.685c-0.943,1.123-1.415,3.047-1.415,5.771v4.933
		c0,2.519,0.463,4.375,1.39,5.566c0.926,1.191,2.393,1.787,4.4,1.787c2.161,0,3.722-0.591,4.683-1.774s1.441-3.32,1.441-6.412
		v-3.549C411.479,113.412,410.999,111.336,410.038,110.149 M374.253,108.842l4.625,18.948h2.934l3.856-16.424l3.625,16.424h2.934
		l5.009-18.948h-2.511l-3.881,16.424l-3.472-16.424h-3.113l-3.831,16.424l-3.6-16.424H374.253z M359.815,108.842v2.101h4.958v16.847
		h2.434v-16.847h4.983v-2.101H359.815z M347.465,108.842v18.948h9.941v-2.101h-7.533v-6.585h6.829v-2.075h-6.829v-6.086h7.354
		v-2.101H347.465z M330.3,108.842v18.948h2.178v-16.424l7.533,16.424h3.28v-18.948h-2.152v16.219l-7.456-16.219H330.3z
		 M311.487,108.842v18.948h9.942v-2.101h-7.533v-6.585h6.828v-2.075h-6.828v-6.086h7.353v-2.101H311.487z M294.323,108.842v18.948
		h2.178v-16.424l7.532,16.424h3.28v-18.948h-2.152v16.219l-7.456-16.219H294.323z M287.561,127.79h2.447v-18.948h-2.447V127.79z
		 M275.157,108.842v18.948h9.339v-2.101h-6.931v-16.847H275.157z M257.98,108.842v18.948h2.178v-16.424l7.533,16.424h3.279v-18.948
		h-2.152v16.219l-7.456-16.219H257.98z M244.51,115.171c0-1.657,0.269-2.859,0.807-3.606c0.538-0.748,1.426-1.121,2.664-1.121
		c1.256,0,2.155,0.408,2.697,1.223c0.542,0.816,0.814,2.052,0.814,3.709v4.497c0,1.844-0.092,3.147-0.276,3.907
		c-0.183,0.76-0.527,1.33-1.031,1.71c-0.504,0.38-1.247,0.57-2.229,0.57c-1.247,0-2.133-0.39-2.658-1.172
		c-0.526-0.781-0.788-2.133-0.788-4.055V115.171z M252.523,110.149c-0.961-1.187-2.475-1.781-4.542-1.781
		c-2.067,0-3.572,0.562-4.515,1.685c-0.944,1.123-1.416,3.047-1.416,5.771v4.933c0,2.519,0.463,4.375,1.39,5.566
		c0.927,1.191,2.393,1.787,4.401,1.787c2.16,0,3.721-0.591,4.682-1.774s1.441-3.32,1.441-6.412v-3.549
		C253.964,113.412,253.484,111.336,252.523,110.149"/>
	<path style="clip-path:url(#SVGID_00000067955940506088947880000014471334380876386730_);fill:#FFFFFF;" d="M652.669,79.342V98.29
		h2.421v-8.738h6.636v8.738h2.408V79.342h-2.408v8.109h-6.636v-8.109H652.669z M637.193,79.342v2.101h4.957V98.29h2.435V81.443
		h4.983v-2.101H637.193z M628.338,79.342V98.29h9.339v-2.101h-6.93V79.342H628.338z M620.619,91.73h-6.136l3.036-10.159
		L620.619,91.73z M616.058,79.342L610.05,98.29h2.46l1.396-4.51h7.315l1.371,4.51h2.703l-6.175-18.948H616.058z M597.606,79.342
		V98.29h9.942v-2.101h-7.533v-6.585h6.828v-2.076h-6.828v-6.085h7.353v-2.101H597.606z M581.967,79.342V98.29h2.421v-8.738h6.636
		v8.738h2.409V79.342h-2.409v8.109h-6.636v-8.109H581.967z M564.627,79.342V98.29h9.339v-2.101h-6.931V79.342H564.627z
		 M556.908,91.73h-6.137l3.036-10.159L556.908,91.73z M552.347,79.342l-6.008,18.948h2.459l1.397-4.51h7.315l1.371,4.51h2.703
		l-6.175-18.948H552.347z M534.344,79.342v2.101h4.958V98.29h2.434V81.443h4.983v-2.101H534.344z M518.263,79.342V98.29h2.177
		V81.866l7.533,16.424h3.28V79.342h-2.152v16.219l-7.456-16.219H518.263z M504.903,79.342V98.29h9.942v-2.101h-7.533v-6.585h6.828
		v-2.076h-6.828v-6.085h7.353v-2.101H504.903z M483.319,79.342V98.29h2.229V81.469l5.278,16.821h2.255l5.355-16.821V98.29h2.306
		V79.342h-3.857l-4.855,15.899l-4.804-15.899H483.319z M471.372,98.29h2.549v-2.729h-2.549V98.29z M471.372,87.874h2.549v-2.831
		h-2.549V87.874z M457.257,79.342l5.124,11.287v7.661h2.383v-7.61l5.202-11.338h-2.473l-3.805,9.16l-3.728-9.16H457.257z
		 M450.152,81.443c0.871,0,1.544,0.241,2.018,0.724c0.474,0.482,0.711,1.215,0.711,2.197c0,1.008-0.261,1.787-0.781,2.338
		c-0.521,0.551-1.346,0.826-2.473,0.826h-2.946v-6.085H450.152z M444.246,79.342V98.29h2.435v-8.712h2.049
		c1.102,0,1.866,0.094,2.293,0.282c0.428,0.188,0.754,0.493,0.981,0.916c0.226,0.423,0.369,1.031,0.429,1.825l0.102,1.474
		l0.103,2.062c0.017,0.351,0.064,0.714,0.141,1.089c0.077,0.376,0.179,0.73,0.307,1.064h2.524c-0.402-1.691-0.613-3.327-0.634-4.907
		c-0.022-1.58-0.239-2.75-0.654-3.51c-0.414-0.76-1.228-1.243-2.44-1.448c1.11-0.213,1.964-0.705,2.562-1.473
		c0.598-0.769,0.897-1.738,0.897-2.908c0-1.435-0.408-2.577-1.224-3.427c-0.815-0.85-1.885-1.275-3.209-1.275H444.246z
		 M430.973,79.342V98.29h9.941v-2.101h-7.533v-6.585h6.828v-2.076h-6.828v-6.085h7.354v-2.101H430.973z M414.073,79.342
		l5.483,18.948h2.882l5.535-18.948h-2.46l-4.471,16.667l-4.356-16.667H414.073z M402.296,85.671c0-1.657,0.269-2.859,0.807-3.607
		c0.538-0.747,1.426-1.121,2.665-1.121c1.255,0,2.154,0.408,2.697,1.224c0.542,0.816,0.813,2.052,0.813,3.709v4.496
		c0,1.845-0.092,3.148-0.275,3.908c-0.184,0.76-0.528,1.33-1.032,1.71c-0.504,0.38-1.247,0.57-2.229,0.57
		c-1.247,0-2.133-0.391-2.658-1.172c-0.525-0.782-0.788-2.133-0.788-4.055V85.671z M410.309,80.649
		c-0.96-1.187-2.474-1.781-4.541-1.781s-3.572,0.562-4.516,1.685c-0.944,1.123-1.416,3.047-1.416,5.771v4.932
		c0,2.52,0.464,4.375,1.39,5.567c0.927,1.191,2.394,1.787,4.401,1.787c2.161,0,3.722-0.591,4.682-1.774
		c0.961-1.183,1.442-3.321,1.442-6.412v-3.549C411.751,83.911,411.27,81.836,410.309,80.649 M394.924,80.386
		c-0.82-0.833-2.088-1.249-3.805-1.249c-2.152,0-3.702,0.57-4.65,1.71c-0.948,1.14-1.422,3-1.422,5.58v3.997
		c0,3.108,0.474,5.246,1.422,6.412c0.948,1.165,2.357,1.748,4.227,1.748c1.888,0,3.308-0.467,4.26-1.403
		c0.952-0.935,1.428-2.367,1.428-4.298v-0.346h-2.485c-0.017,1.333-0.29,2.328-0.82,2.985c-0.53,0.658-1.307,0.987-2.332,0.987
		c-1.144,0-1.968-0.412-2.472-1.236c-0.504-0.825-0.756-2.24-0.756-4.247v-4.599c0-2.119,0.282-3.521,0.846-4.209
		c0.563-0.687,1.409-1.031,2.536-1.031c0.991,0,1.693,0.258,2.108,0.775c0.414,0.517,0.621,1.343,0.621,2.479v0.282h2.524v-0.5
		C396.154,82.498,395.744,81.219,394.924,80.386 M372.219,79.342V98.29h9.941v-2.101h-7.533v-6.585h6.828v-2.076h-6.828v-6.085
		h7.354v-2.101H372.219z M363.368,81.443c0.871,0,1.544,0.241,2.018,0.724c0.474,0.482,0.711,1.215,0.711,2.197
		c0,1.008-0.261,1.787-0.782,2.338c-0.521,0.551-1.345,0.826-2.472,0.826h-2.947v-6.085H363.368z M357.462,79.342V98.29h2.434
		v-8.712h2.05c1.102,0,1.866,0.094,2.293,0.282c0.427,0.188,0.754,0.493,0.98,0.916c0.227,0.423,0.37,1.031,0.429,1.825l0.103,1.474
		l0.102,2.062c0.017,0.351,0.065,0.714,0.141,1.089c0.077,0.376,0.18,0.73,0.308,1.064h2.524c-0.402-1.691-0.613-3.327-0.635-4.907
		c-0.021-1.58-0.239-2.75-0.653-3.51s-1.228-1.243-2.44-1.448c1.11-0.213,1.964-0.705,2.562-1.473
		c0.598-0.769,0.897-1.738,0.897-2.908c0-1.435-0.408-2.577-1.224-3.427s-1.885-1.275-3.209-1.275H357.462z M343.761,94.779
		c-0.436,0.641-0.966,1.128-1.589,1.461c-0.624,0.333-1.345,0.499-2.165,0.499c-1.196,0-2.159-0.341-2.889-1.024
		c-0.73-0.684-1.095-1.585-1.095-2.704c0-0.828,0.237-1.548,0.711-2.158c0.474-0.611,1.257-1.271,2.351-1.98L343.761,94.779z
		 M338.265,84.473c-0.359-0.594-0.538-1.13-0.538-1.608c0-0.598,0.19-1.067,0.57-1.409c0.38-0.342,0.89-0.513,1.531-0.513
		c0.657,0,1.163,0.167,1.518,0.5c0.354,0.333,0.531,0.79,0.531,1.371c0,0.563-0.179,1.144-0.538,1.742
		c-0.358,0.598-0.879,1.187-1.563,1.768C339.127,85.683,338.623,85.067,338.265,84.473 M343.562,85.203
		c0.465-0.798,0.698-1.612,0.698-2.44c0-1.196-0.382-2.103-1.146-2.723c-0.765-0.619-1.852-0.929-3.261-0.929
		c-1.435,0-2.556,0.31-3.363,0.929c-0.807,0.62-1.21,1.497-1.21,2.633c0,0.717,0.224,1.51,0.672,2.376
		c0.449,0.867,1.049,1.677,1.8,2.428c-1.46,0.829-2.517,1.67-3.171,2.524c-0.653,0.854-0.98,1.913-0.98,3.177
		c0,1.708,0.562,3.053,1.685,4.035c1.123,0.983,2.646,1.474,4.567,1.474c1.162,0,2.135-0.175,2.921-0.526
		c0.786-0.35,1.542-0.956,2.268-1.819l1.524,1.948h2.729l-3.036-4.062c0.358-0.623,0.621-1.383,0.788-2.28
		c0.166-0.897,0.249-1.87,0.249-2.921v-1.883h-1.985c0.017,0.077,0.025,0.184,0.025,0.32v0.987c0,0.717-0.036,1.439-0.109,2.165
		c-0.072,0.726-0.185,1.358-0.339,1.896l-3.702-4.689C342.304,86.875,343.096,86.002,343.562,85.203 M312.982,79.342V98.29h2.421
		v-8.738h6.636v8.738h2.409V79.342h-2.409v8.109h-6.636v-8.109H312.982z M297.506,79.342v2.101h4.958V98.29h2.434V81.443h4.983
		v-2.101H297.506z M288.651,79.342V98.29h9.34v-2.101h-6.931V79.342H288.651z M280.932,91.73h-6.136l3.036-10.159L280.932,91.73z
		 M276.372,79.342l-6.009,18.948h2.46l1.396-4.51h7.315l1.371,4.51h2.703l-6.175-18.948H276.372z M257.919,79.342V98.29h9.942
		v-2.101h-7.533v-6.585h6.828v-2.076h-6.828v-6.085h7.353v-2.101H257.919z M242.28,79.342V98.29h2.421v-8.738h6.636v8.738h2.409
		V79.342h-2.409v8.109h-6.636v-8.109H242.28z"/>
	<path style="clip-path:url(#SVGID_00000067955940506088947880000014471334380876386730_);fill:#FFFFFF;" d="M490.671,16.543V58.79
		h23.509v-6.599h-14.682V39.966h13.111v-6.513h-13.111V23.056h14.225v-6.513H490.671z M470.083,45.964h14.339v-5.941h-14.339V45.964
		z M432.443,16.543V58.79h8.198V27.912L452.21,58.79h11.597V16.543h-8.198v29.25l-11.283-29.25H432.443z M405.604,34.796
		c0-5.008,0.4-8.431,1.199-10.269c0.8-1.838,2.276-2.757,4.428-2.757c2.19,0,3.68,0.862,4.47,2.585
		c0.79,1.724,1.186,4.509,1.186,8.355v4.028c0,2.781-0.053,5.484-0.157,8.112c-0.105,2.628-0.543,4.69-1.314,6.185
		c-0.772,1.495-2.186,2.242-4.242,2.242c-1.467,0-2.595-0.438-3.385-1.314c-0.79-0.876-1.352-2.228-1.685-4.056
		c-0.334-1.828-0.5-5.008-0.5-9.541V34.796z M411.031,59.561c2.666,0,4.894-0.314,6.684-0.943c1.79-0.628,3.232-1.518,4.328-2.67
		c1.094-1.152,1.918-2.576,2.47-4.271c0.553-1.694,0.924-3.513,1.114-5.456c0.191-1.942,0.286-4.893,0.286-8.855
		c0-4.417-0.143-7.755-0.428-10.011c-0.286-2.257-0.881-4.294-1.786-6.113c-0.904-1.818-2.361-3.242-4.37-4.271
		c-2.009-1.028-4.727-1.542-8.155-1.542c-3.447,0-6.251,0.667-8.412,1.999c-2.162,1.334-3.728,3.438-4.699,6.313
		c-0.971,2.876-1.457,7.341-1.457,13.397c0,5.142,0.243,8.917,0.728,11.326c0.486,2.409,1.224,4.404,2.214,5.984
		c0.99,1.581,2.423,2.828,4.299,3.742C405.721,59.104,408.117,59.561,411.031,59.561 M348.634,16.543V58.79h8.37V26.198
		l7.827,32.592h8.426l8.255-32.592V58.79h8.598V16.543H376.37l-7.084,28.736l-6.684-28.736H348.634z M325.036,23.056h1.885
		c2.685,0,4.437,0.428,5.256,1.285c0.818,0.857,1.228,2.333,1.228,4.428c0,2.113-0.414,3.646-1.242,4.598
		c-0.829,0.953-2.519,1.429-5.071,1.429h-2.056V23.056z M316.151,16.543V58.79h8.884V41.308h1.714c2.646,0,4.446,0.453,5.398,1.357
		c0.952,0.905,1.429,2.576,1.429,5.013v6.484c0,1.143,0.066,1.986,0.2,2.528c0.133,0.543,0.38,1.243,0.742,2.1h8.655
		c-0.19-0.571-0.328-1.324-0.414-2.257s-0.157-1.914-0.214-2.942l-0.429-7.255c-0.171-2.723-0.776-4.694-1.814-5.913
		c-1.038-1.219-2.947-2.018-5.727-2.4c2.609-0.494,4.537-1.58,5.785-3.256c1.247-1.675,1.871-4.018,1.871-7.027
		c0-3.808-0.934-6.627-2.8-8.455c-1.866-1.828-4.732-2.742-8.598-2.742H316.151z M293.615,24.684l4.399,18.367h-8.541
		L293.615,24.684z M288.359,16.543L276.647,58.79h8.741l2.399-9.369h12.026l2.342,9.369h9.312l-11.454-42.247H288.359z
		 M243.971,16.543V58.79h8.912V40.194h9.998V58.79h8.883V16.543h-8.883v16.739h-9.998V16.543H243.971z"/>
</g>
</svg>
