<?xml version="1.0" encoding="iso-8859-1"?>
<!-- Generator: Adobe Illustrator 29.5.1, SVG Export Plug-In . SVG Version: 9.03 Build 0)  -->
<svg version="1.1" id="Layer_1" xmlns="http://www.w3.org/2000/svg" xmlns:xlink="http://www.w3.org/1999/xlink" x="0px" y="0px"
	 viewBox="0 0 720 144" style="enable-background:new 0 0 720 144;" xml:space="preserve">
<g>
	<defs>
		<rect id="SVGID_1_" width="720" height="144"/>
	</defs>
	<clipPath id="SVGID_00000131348418269460370570000012436551331870971794_">
		<use xlink:href="#SVGID_1_"  style="overflow:visible;"/>
	</clipPath>
	<path style="clip-path:url(#SVGID_00000131348418269460370570000012436551331870971794_);fill:#FFFFFF;" d="M72.921,1.3
		C33.757,1.3,2.008,32.959,2.008,72.012s31.749,70.712,70.913,70.712s70.912-31.659,70.912-70.712S112.085,1.3,72.921,1.3"/>
	<path style="clip-path:url(#SVGID_00000131348418269460370570000012436551331870971794_);fill:#FFFFFF;" d="M72.921,2.98
		c38.175,0,69.233,30.968,69.233,69.032s-31.058,69.032-69.233,69.032S3.688,110.076,3.688,72.012S34.746,2.98,72.921,2.98"/>
</g>
<rect x="191.456" y="16.617" style="fill:#FFFFFF;" width="2" height="111.776"/>
<g>
	<defs>
		<rect id="SVGID_00000112599522420091050570000013951503637117231540_" width="720" height="144"/>
	</defs>
	<clipPath id="SVGID_00000136387414828355690460000017258825500923006365_">
		<use xlink:href="#SVGID_00000112599522420091050570000013951503637117231540_"  style="overflow:visible;"/>
	</clipPath>
	<path style="clip-path:url(#SVGID_00000136387414828355690460000017258825500923006365_);" d="M114.152,102.346v4.129
		c0,0.138-0.046,0.246-0.154,0.323c-0.093,0.077-0.216,0.123-0.37,0.123c-0.092,0-0.231,0-0.385-0.015
		c-0.154-0.015-0.323-0.031-0.478-0.046c-0.154-0.015-0.292-0.062-0.416-0.108c-0.107-0.046-0.169-0.108-0.169-0.169v-4.222
		l-3.605-7.041c-0.123-0.246-0.139-0.416-0.046-0.523c0.092-0.108,0.262-0.17,0.508-0.17c0.154,0,0.308,0,0.478,0.015
		c0.154,0,0.308,0.016,0.446,0.047c0.139,0.015,0.262,0.046,0.355,0.077c0.092,0.031,0.169,0.077,0.2,0.154l2.65,5.408l2.65-5.393
		c0.031-0.061,0.092-0.123,0.2-0.154c0.093-0.031,0.216-0.061,0.355-0.092c0.138-0.016,0.292-0.031,0.446-0.047
		c0.154,0,0.324-0.015,0.478-0.015c0.246,0,0.416,0.046,0.508,0.154c0.077,0.108,0.062,0.277-0.061,0.539L114.152,102.346z
		 M103.615,96.584v9.891c0,0.138-0.046,0.246-0.154,0.323c-0.108,0.077-0.216,0.123-0.354,0.123c-0.093,0-0.231,0-0.401-0.015
		c-0.17-0.015-0.339-0.031-0.493-0.046s-0.293-0.062-0.401-0.108c-0.123-0.046-0.169-0.108-0.169-0.169v-9.984h-3.051
		c-0.123,0-0.215-0.046-0.308-0.139c-0.077-0.092-0.123-0.2-0.123-0.338c0-0.093,0-0.201,0.015-0.355
		c0.016-0.138,0.031-0.292,0.047-0.431c0.015-0.139,0.061-0.262,0.092-0.37c0.046-0.092,0.093-0.154,0.17-0.154h8.165
		c0.123,0,0.216,0.046,0.308,0.139c0.077,0.092,0.123,0.215,0.123,0.339c0,0.092,0,0.2-0.015,0.354s-0.031,0.293-0.046,0.431
		c-0.016,0.139-0.046,0.262-0.093,0.355c-0.046,0.092-0.092,0.154-0.169,0.154H103.615z M96.497,106.475
		c0,0.138-0.046,0.246-0.154,0.323c-0.092,0.077-0.216,0.123-0.37,0.123c-0.092,0-0.231,0-0.4-0.015
		c-0.17-0.015-0.324-0.031-0.493-0.046c-0.154-0.015-0.293-0.062-0.416-0.108c-0.108-0.046-0.17-0.108-0.17-0.169V94.981
		c0-0.061,0.062-0.123,0.17-0.169c0.123-0.046,0.262-0.092,0.416-0.108c0.154-0.015,0.323-0.046,0.493-0.046
		c0.169-0.016,0.292-0.016,0.4-0.016c0.139,0,0.262,0.047,0.37,0.139c0.092,0.093,0.154,0.2,0.154,0.324V106.475z M85.389,104.888
		c0.092,0.015,0.216,0.061,0.401,0.092c0.185,0.047,0.385,0.093,0.631,0.139c0.231,0.046,0.493,0.077,0.786,0.123
		c0.277,0.031,0.57,0.046,0.847,0.046c0.309,0,0.601-0.03,0.878-0.077c0.278-0.046,0.54-0.138,0.755-0.246
		c0.216-0.123,0.401-0.277,0.524-0.462c0.139-0.201,0.201-0.432,0.201-0.724c0-0.401-0.124-0.74-0.386-1.017
		c-0.261-0.278-0.585-0.539-0.97-0.786c-0.385-0.246-0.817-0.493-1.279-0.739c-0.462-0.247-0.878-0.54-1.279-0.863
		c-0.4-0.324-0.724-0.709-0.97-1.156c-0.262-0.447-0.385-0.986-0.385-1.633c0-0.539,0.092-1.001,0.292-1.371
		c0.2-0.37,0.463-0.678,0.801-0.924c0.339-0.232,0.755-0.416,1.218-0.524c0.477-0.108,1.001-0.17,1.571-0.17
		c0.123,0,0.308,0,0.555,0.016c0.246,0.015,0.508,0.03,0.785,0.061c0.278,0.031,0.555,0.062,0.817,0.108
		c0.277,0.046,0.493,0.108,0.647,0.185c0.154,0.062,0.247,0.139,0.277,0.216c0.031,0.077,0.031,0.2,0.016,0.385
		c-0.016,0.293-0.077,0.524-0.185,0.724c-0.093,0.2-0.231,0.277-0.416,0.246c-0.278-0.061-0.586-0.107-0.94-0.169
		c-0.354-0.046-0.755-0.077-1.186-0.077c-0.678,0-1.248,0.108-1.68,0.293c-0.431,0.2-0.647,0.523-0.647,0.986
		c0,0.369,0.124,0.678,0.386,0.939c0.261,0.263,0.585,0.509,0.97,0.74s0.817,0.478,1.279,0.724c0.462,0.247,0.878,0.539,1.279,0.878
		c0.385,0.339,0.724,0.74,0.97,1.202c0.262,0.462,0.385,1.048,0.385,1.71c0,0.632-0.123,1.156-0.354,1.556
		c-0.231,0.416-0.555,0.724-0.94,0.955c-0.385,0.232-0.847,0.386-1.356,0.478c-0.508,0.093-1.047,0.139-1.602,0.139
		c-0.246,0-0.524-0.016-0.801-0.031s-0.539-0.046-0.817-0.077c-0.261-0.031-0.508-0.077-0.754-0.123
		c-0.232-0.047-0.432-0.093-0.601-0.154c-0.17-0.062-0.262-0.124-0.293-0.185c-0.031-0.077-0.046-0.201-0.015-0.37
		c0.03-0.324,0.092-0.601,0.184-0.817C85.112,104.949,85.234,104.842,85.389,104.888 M79.057,96.568H76.76v3.991h2.296
		c0.447,0,0.816-0.031,1.078-0.077c0.278-0.047,0.478-0.139,0.632-0.278c0.154-0.138,0.247-0.308,0.293-0.539
		s0.077-0.539,0.077-0.909v-0.37c0-0.369-0.031-0.678-0.077-0.924c-0.046-0.231-0.154-0.416-0.293-0.555
		c-0.154-0.138-0.354-0.215-0.632-0.277C79.857,96.599,79.504,96.568,79.057,96.568 M74.773,106.567V95.228
		c0-0.123,0.046-0.216,0.154-0.308c0.108-0.077,0.216-0.123,0.37-0.123h3.651c0.755,0,1.402,0.061,1.941,0.169
		c0.539,0.108,0.971,0.308,1.31,0.585c0.339,0.278,0.585,0.648,0.739,1.11c0.155,0.462,0.231,1.032,0.231,1.741v0.37
		c0,0.523-0.046,0.97-0.123,1.355s-0.216,0.724-0.385,1.002c-0.169,0.277-0.416,0.493-0.709,0.662
		c-0.292,0.17-0.647,0.293-1.047,0.385l2.295,3.975c0.124,0.216,0.185,0.37,0.185,0.478c0,0.061-0.031,0.123-0.077,0.169
		c-0.061,0.047-0.123,0.077-0.185,0.093c-0.061,0.015-0.138,0.03-0.2,0.046c-0.077,0-0.123,0.015-0.154,0.015
		c-0.093,0-0.231,0-0.385-0.015c-0.154-0.016-0.308-0.031-0.462-0.062c-0.154-0.03-0.309-0.061-0.432-0.123
		c-0.123-0.062-0.216-0.139-0.277-0.231l-2.434-4.16h-2.034v4.16c0,0.139-0.046,0.231-0.154,0.308
		c-0.093,0.077-0.216,0.123-0.354,0.123c-0.093,0-0.232,0-0.401-0.015c-0.17-0.016-0.324-0.031-0.493-0.046
		c-0.154-0.016-0.293-0.062-0.416-0.108C74.836,106.69,74.773,106.644,74.773,106.567 M65.068,106.382V95.228
		c0-0.139,0.046-0.247,0.154-0.324c0.092-0.077,0.216-0.107,0.37-0.107h6.64c0.123,0,0.231,0.046,0.308,0.154
		c0.077,0.092,0.123,0.215,0.123,0.339c0,0.092,0,0.2-0.015,0.354c-0.016,0.154-0.031,0.293-0.046,0.431
		c-0.016,0.139-0.062,0.262-0.093,0.355c-0.046,0.092-0.108,0.154-0.169,0.154h-5.269v3.204h4.514c0.108,0,0.2,0.047,0.292,0.139
		c0.078,0.092,0.124,0.2,0.124,0.323c0,0.093,0,0.201-0.016,0.355c-0.015,0.154-0.03,0.292-0.046,0.431
		c-0.015,0.139-0.062,0.262-0.092,0.37c-0.047,0.092-0.093,0.154-0.17,0.154h-4.622v3.389h5.161c0.124,0,0.232,0.047,0.309,0.139
		c0.077,0.093,0.123,0.2,0.123,0.339c0,0.092,0,0.2-0.016,0.354c-0.015,0.139-0.03,0.293-0.046,0.432
		c-0.015,0.138-0.061,0.262-0.092,0.37c-0.046,0.107-0.108,0.154-0.17,0.154h-6.501c-0.154,0-0.324-0.031-0.493-0.108
		C65.145,106.536,65.068,106.459,65.068,106.382 M58.998,103.547l2.496-8.581c0.154-0.154,0.339-0.246,0.539-0.293
		c0.2-0.031,0.431-0.061,0.709-0.061c0.107,0,0.231,0,0.338,0.015c0.124,0.015,0.216,0.031,0.293,0.077
		c0.077,0.046,0.139,0.093,0.185,0.17c0.046,0.077,0.031,0.169,0,0.308l-3.836,11.478c-0.016,0.092-0.077,0.154-0.17,0.2
		c-0.092,0.046-0.185,0.061-0.292,0.061c-0.37,0-0.678-0.015-0.925-0.061c-0.246-0.046-0.4-0.108-0.462-0.185l-3.821-11.493
		c-0.031-0.108-0.031-0.201,0-0.278c0.031-0.077,0.077-0.123,0.154-0.169c0.062-0.046,0.139-0.077,0.231-0.093
		c0.077-0.015,0.154-0.03,0.201-0.03c0.169,0,0.339,0,0.508,0.015c0.17,0.015,0.324,0.031,0.478,0.062
		c0.138,0.031,0.262,0.077,0.369,0.123c0.093,0.062,0.17,0.123,0.201,0.216l2.557,8.504c0.046,0.139,0.077,0.277,0.093,0.416
		c0.015,0.154,0.031,0.277,0.061,0.401c0.016-0.124,0.031-0.262,0.046-0.401C58.921,103.809,58.951,103.671,58.998,103.547
		 M52.589,106.475c0,0.138-0.047,0.246-0.154,0.323c-0.093,0.077-0.216,0.123-0.37,0.123c-0.093,0-0.231,0-0.401-0.015
		c-0.169-0.015-0.323-0.031-0.493-0.046c-0.154-0.015-0.293-0.062-0.416-0.108s-0.169-0.108-0.169-0.169V94.981
		c0-0.061,0.061-0.123,0.169-0.169c0.123-0.046,0.247-0.092,0.416-0.108c0.154-0.015,0.324-0.046,0.493-0.046
		c0.17-0.016,0.293-0.016,0.401-0.016c0.138,0,0.262,0.047,0.37,0.139c0.092,0.093,0.154,0.2,0.154,0.324V106.475z M46.518,103.239
		V94.92c0-0.062,0.062-0.123,0.185-0.154c0.124-0.046,0.262-0.077,0.432-0.093c0.169-0.015,0.339-0.031,0.508-0.046
		c0.17-0.015,0.308-0.015,0.401-0.015c0.292,0,0.431,0.169,0.431,0.493v11.37c0,0.138-0.046,0.231-0.154,0.308
		c-0.108,0.077-0.216,0.123-0.339,0.123c-0.092,0-0.2,0-0.354-0.015c-0.154-0.016-0.293-0.016-0.447-0.046
		c-0.154-0.031-0.278-0.062-0.401-0.093c-0.123-0.046-0.2-0.092-0.246-0.154l-5.377-8.273v8.15c0,0.138-0.046,0.246-0.154,0.323
		c-0.092,0.077-0.216,0.123-0.355,0.123c-0.092,0-0.231,0-0.4-0.015c-0.17-0.015-0.339-0.031-0.493-0.046s-0.293-0.062-0.401-0.108
		c-0.123-0.046-0.169-0.108-0.169-0.169V94.981c0-0.061,0.061-0.123,0.169-0.169c0.124-0.046,0.247-0.092,0.401-0.108
		c0.154-0.015,0.308-0.031,0.477-0.046c0.17-0.016,0.293-0.016,0.401-0.016c0.123,0,0.231,0.031,0.308,0.108
		c0.077,0.077,0.154,0.154,0.201,0.247L46.518,103.239z M35.056,102.5v-7.488c0-0.061,0.062-0.123,0.169-0.169
		c0.124-0.046,0.262-0.093,0.416-0.123c0.17-0.031,0.339-0.062,0.493-0.078c0.17-0.015,0.293-0.03,0.401-0.03
		c0.139,0,0.262,0.046,0.354,0.154c0.093,0.108,0.139,0.215,0.139,0.339v7.487c0,0.817-0.092,1.495-0.277,2.049
		c-0.185,0.555-0.447,0.986-0.817,1.341c-0.37,0.339-0.832,0.585-1.386,0.724c-0.555,0.139-1.218,0.215-1.957,0.215h-0.139
		c-0.724,0-1.371-0.076-1.91-0.215c-0.555-0.139-1.002-0.385-1.371-0.724c-0.37-0.339-0.632-0.786-0.817-1.341
		c-0.185-0.539-0.277-1.232-0.277-2.049v-7.58c0-0.061,0.061-0.123,0.169-0.169c0.124-0.046,0.247-0.093,0.416-0.123
		c0.154-0.031,0.324-0.062,0.493-0.078c0.17-0.015,0.308-0.03,0.401-0.03c0.138,0,0.246,0.046,0.354,0.154
		c0.093,0.108,0.154,0.215,0.154,0.339v7.379c0,0.478,0.031,0.879,0.108,1.218c0.077,0.338,0.2,0.616,0.385,0.816
		c0.185,0.216,0.432,0.37,0.74,0.462c0.308,0.093,0.693,0.154,1.155,0.154h0.139c0.478,0,0.863-0.046,1.186-0.154
		c0.308-0.108,0.57-0.262,0.755-0.462c0.185-0.216,0.324-0.478,0.401-0.816C35.025,103.378,35.056,102.978,35.056,102.5
		 M106.742,75.538v14.313h-3.944V67.989h5.5l5.285,13.466V67.989h4.006v21.862h-5.023L106.742,75.538z M95.419,67.989h4.437v21.862
		h-4.437V67.989z M78.395,67.989h4.56v9.506l5.685-9.506h4.76L87.084,78.05L93.4,89.867h-5.284l-5.161-10.631v10.631h-4.56V67.989z
		 M70.967,84.998H64.62l-1.156,4.869h-4.575l6.162-21.878h5.824l6.07,21.878h-4.791L70.967,84.998z M70.06,81.193l-2.188-9.044
		l-2.296,9.044H70.06z M45.625,67.989h11.817v3.713h-7.195v4.668h6.625v3.806h-6.625v5.823h7.21v3.852H45.625V67.989z
		 M35.595,67.989c5.839,0,7.642,3.097,7.642,10.939s-1.818,10.939-7.657,10.939h-7.488V67.989H35.595z M32.683,86.092h2.08
		c3.405,0,3.836-2.003,3.836-7.241c0-5.223-0.431-7.226-3.836-7.226h-2.08V86.092z M81.507,51.366l-9.938-17.24l1.31-2.203
		l11.154,19.443H81.507z M76.808,51.366l-7.611-13.142l1.279-2.157l8.766,15.299H76.808z M72.032,51.366l-5.223-9.013l1.325-2.234
		l6.424,11.231h-2.526V51.366z M67.225,51.366l-2.804-4.869l1.325-2.234l4.052,7.103H67.225z M61.601,51.366l1.71-2.928l1.711,2.928
		H61.601z M59.429,29.889v18.365c0,7.41,6.009,13.419,13.419,13.419c7.411,0,13.419-6.009,13.419-13.419V29.889H59.429z"/>
	<path style="clip-path:url(#SVGID_00000136387414828355690460000017258825500923006365_);fill:#FFFFFF;" d="M703.086,109.796
		c-0.876-0.858-2.164-1.287-3.863-1.287c-1.759,0-3.143,0.457-4.151,1.371s-1.512,2.135-1.512,3.664
		c0,0.973,0.231,1.832,0.692,2.575c0.462,0.743,1.17,1.405,2.127,1.985c0.956,0.581,1.975,1.136,3.055,1.666
		c1.081,0.53,1.792,1.063,2.133,1.601c0.342,0.538,0.513,1.076,0.513,1.614c0,0.914-0.308,1.647-0.923,2.198
		c-0.615,0.55-1.417,0.826-2.408,0.826c-0.965,0-1.749-0.303-2.351-0.91c-0.602-0.606-0.903-1.46-0.903-2.562v-0.551h-2.383v0.743
		c0,1.751,0.478,3.081,1.435,3.991c0.956,0.909,2.34,1.364,4.151,1.364c1.75,0,3.164-0.457,4.24-1.371
		c1.076-0.913,1.614-2.156,1.614-3.728c0-1.033-0.22-1.891-0.659-2.575c-0.44-0.683-1.079-1.326-1.916-1.928
		c-0.837-0.602-1.772-1.135-2.805-1.601c-1.034-0.465-1.817-0.995-2.351-1.589c-0.534-0.593-0.801-1.244-0.801-1.953
		c0-0.871,0.265-1.544,0.795-2.018c0.529-0.474,1.263-0.711,2.203-0.711c0.965,0,1.682,0.265,2.152,0.794
		c0.47,0.53,0.705,1.32,0.705,2.37v0.269h2.524v-0.422C704.399,111.929,703.961,110.655,703.086,109.796 M681.338,108.842v18.948
		h9.339v-2.101h-6.931v-16.847H681.338z M673.619,121.23h-6.137l3.036-10.159L673.619,121.23z M669.058,108.842l-6.009,18.948h2.46
		l1.397-4.51h7.315l1.37,4.51h2.704l-6.175-18.948H669.058z M657.427,127.79h2.447v-18.948h-2.447V127.79z M648.416,110.943
		c0.871,0,1.544,0.241,2.018,0.724c0.474,0.482,0.711,1.215,0.711,2.197c0,1.008-0.261,1.787-0.782,2.338
		c-0.521,0.551-1.345,0.826-2.472,0.826h-2.947v-6.085H648.416z M642.51,108.842v18.948h2.434v-8.712h2.05
		c1.102,0,1.866,0.094,2.293,0.282c0.427,0.188,0.754,0.493,0.98,0.916c0.226,0.423,0.369,1.031,0.429,1.825l0.103,1.474
		l0.102,2.062c0.017,0.351,0.064,0.714,0.141,1.089c0.077,0.376,0.179,0.73,0.308,1.064h2.523c-0.401-1.691-0.613-3.327-0.634-4.907
		c-0.021-1.58-0.239-2.75-0.653-3.51c-0.414-0.76-1.228-1.243-2.441-1.448c1.11-0.213,1.965-0.705,2.563-1.473
		c0.597-0.769,0.896-1.738,0.896-2.908c0-1.435-0.408-2.577-1.223-3.427c-0.816-0.85-1.886-1.275-3.209-1.275H642.51z
		 M627.132,108.842v2.101h4.958v16.847h2.434v-16.847h4.983v-2.101H627.132z M605.949,108.842v18.948h2.177v-16.424l7.533,16.424
		h3.28v-18.948h-2.152v16.219l-7.456-16.219H605.949z M592.478,115.171c0-1.657,0.269-2.859,0.808-3.607
		c0.538-0.747,1.426-1.121,2.664-1.121c1.256,0,2.154,0.408,2.697,1.224c0.542,0.816,0.813,2.052,0.813,3.709v4.496
		c0,1.845-0.091,3.148-0.275,3.908c-0.184,0.76-0.527,1.33-1.031,1.71c-0.504,0.38-1.247,0.57-2.229,0.57
		c-1.247,0-2.133-0.391-2.659-1.172c-0.525-0.782-0.788-2.133-0.788-4.055V115.171z M600.492,110.149
		c-0.961-1.187-2.475-1.781-4.542-1.781c-2.067,0-3.572,0.562-4.516,1.685c-0.943,1.123-1.415,3.047-1.415,5.771v4.932
		c0,2.52,0.463,4.375,1.39,5.567c0.926,1.191,2.393,1.787,4.4,1.787c2.161,0,3.722-0.591,4.683-1.774
		c0.961-1.183,1.441-3.321,1.441-6.412v-3.549C601.933,113.411,601.453,111.336,600.492,110.149 M583.442,127.79h2.447v-18.948
		h-2.447V127.79z M567.893,108.842v2.101h4.958v16.847h2.434v-16.847h4.984v-2.101H567.893z M563.579,121.23h-6.137l3.037-10.159
		L563.579,121.23z M559.018,108.842l-6.008,18.948h2.459l1.397-4.51h7.315l1.371,4.51h2.703l-6.175-18.948H559.018z
		 M541.606,108.842v18.948h9.339v-2.101h-6.931v-16.847H541.606z M536.513,109.796c-0.875-0.858-2.163-1.287-3.862-1.287
		c-1.76,0-3.143,0.457-4.151,1.371c-1.008,0.914-1.512,2.135-1.512,3.664c0,0.973,0.231,1.832,0.692,2.575
		c0.461,0.743,1.17,1.405,2.127,1.985c0.956,0.581,1.974,1.136,3.055,1.666c1.08,0.53,1.791,1.063,2.133,1.601
		c0.342,0.538,0.513,1.076,0.513,1.614c0,0.914-0.308,1.647-0.923,2.198c-0.615,0.55-1.418,0.826-2.408,0.826
		c-0.966,0-1.749-0.303-2.351-0.91c-0.602-0.606-0.903-1.46-0.903-2.562v-0.551h-2.383v0.743c0,1.751,0.478,3.081,1.435,3.991
		c0.956,0.909,2.34,1.364,4.15,1.364c1.751,0,3.165-0.457,4.241-1.371c1.076-0.913,1.614-2.156,1.614-3.728
		c0-1.033-0.22-1.891-0.66-2.575c-0.44-0.683-1.078-1.326-1.915-1.928c-0.837-0.602-1.772-1.135-2.806-1.601
		c-1.033-0.465-1.817-0.995-2.35-1.589c-0.534-0.593-0.801-1.244-0.801-1.953c0-0.871,0.265-1.544,0.794-2.018
		c0.53-0.474,1.264-0.711,2.204-0.711c0.965,0,1.682,0.265,2.152,0.794c0.47,0.53,0.705,1.32,0.705,2.37v0.269h2.523v-0.422
		C537.826,111.929,537.389,110.655,536.513,109.796 M509.874,108.842v18.948h2.178v-16.424l7.532,16.424h3.28v-18.948h-2.152v16.219
		l-7.456-16.219H509.874z M502.094,121.23h-6.136l3.036-10.159L502.094,121.23z M497.533,108.842l-6.008,18.948h2.46l1.396-4.51
		h7.315l1.371,4.51h2.703l-6.175-18.948H497.533z M483.517,110.943c0.871,0,1.544,0.241,2.018,0.724
		c0.474,0.482,0.711,1.215,0.711,2.197c0,1.008-0.261,1.787-0.782,2.338c-0.521,0.551-1.345,0.826-2.472,0.826h-2.947v-6.085
		H483.517z M477.611,108.842v18.948h2.434v-8.712h2.05c1.102,0,1.866,0.094,2.293,0.282c0.427,0.188,0.754,0.493,0.98,0.916
		c0.226,0.423,0.37,1.031,0.429,1.825l0.103,1.474l0.102,2.062c0.017,0.351,0.065,0.714,0.141,1.089
		c0.077,0.376,0.18,0.73,0.308,1.064h2.524c-0.402-1.691-0.613-3.327-0.635-4.907c-0.021-1.58-0.239-2.75-0.653-3.51
		s-1.228-1.243-2.44-1.448c1.11-0.213,1.964-0.705,2.562-1.473c0.598-0.769,0.897-1.738,0.897-2.908
		c0-1.435-0.408-2.577-1.224-3.427c-0.816-0.85-1.885-1.275-3.209-1.275H477.611z M462.233,108.842v2.101h4.958v16.847h2.434
		v-16.847h4.984v-2.101H462.233z M446.802,108.842v18.948h9.339v-2.101h-6.93v-16.847H446.802z M439.083,121.23h-6.136l3.036-10.159
		L439.083,121.23z M434.522,108.842l-6.008,18.948h2.46l1.396-4.51h7.315l1.371,4.51h2.703l-6.175-18.948H434.522z M424.944,109.886
		c-0.819-0.833-2.088-1.249-3.804-1.249c-2.153,0-3.703,0.57-4.651,1.71s-1.422,3-1.422,5.58v3.997c0,3.108,0.474,5.246,1.422,6.412
		c0.948,1.165,2.357,1.748,4.228,1.748c1.887,0,3.307-0.467,4.259-1.403c0.953-0.935,1.429-2.367,1.429-4.298v-0.346h-2.485
		c-0.018,1.333-0.291,2.328-0.82,2.985c-0.53,0.658-1.307,0.987-2.332,0.987c-1.145,0-1.969-0.412-2.472-1.236
		c-0.505-0.825-0.756-2.24-0.756-4.247v-4.599c0-2.119,0.281-3.521,0.845-4.209c0.564-0.687,1.409-1.031,2.537-1.031
		c0.99,0,1.693,0.258,2.107,0.775c0.414,0.517,0.622,1.343,0.622,2.479v0.282h2.523v-0.5
		C426.174,111.998,425.764,110.719,424.944,109.886 M408.58,127.79h2.447v-18.948h-2.447V127.79z M391.263,108.842v18.948h2.178
		v-16.424l7.533,16.424h3.28v-18.948h-2.153v16.219l-7.456-16.219H391.263z M384.502,127.79h2.447v-18.948h-2.447V127.79z
		 M372.097,108.842v18.948h9.34v-2.101h-6.931v-16.847H372.097z M367.122,109.886c-0.82-0.833-2.088-1.249-3.805-1.249
		c-2.152,0-3.702,0.57-4.651,1.71c-0.948,1.14-1.422,3-1.422,5.58v3.997c0,3.108,0.474,5.246,1.422,6.412
		c0.949,1.165,2.358,1.748,4.228,1.748c1.888,0,3.307-0.467,4.26-1.403c0.952-0.935,1.428-2.367,1.428-4.298v-0.346h-2.485
		c-0.017,1.333-0.291,2.328-0.82,2.985c-0.53,0.658-1.307,0.987-2.332,0.987c-1.144,0-1.968-0.412-2.472-1.236
		c-0.504-0.825-0.756-2.24-0.756-4.247v-4.599c0-2.119,0.282-3.521,0.846-4.209c0.563-0.687,1.409-1.031,2.536-1.031
		c0.991,0,1.693,0.258,2.108,0.775c0.414,0.517,0.621,1.343,0.621,2.479v0.282h2.524v-0.5
		C368.352,111.998,367.942,110.719,367.122,109.886 M343.761,124.279c-0.436,0.641-0.966,1.128-1.589,1.461
		c-0.624,0.333-1.345,0.499-2.165,0.499c-1.196,0-2.159-0.341-2.889-1.024c-0.73-0.684-1.095-1.585-1.095-2.704
		c0-0.828,0.237-1.548,0.711-2.158c0.474-0.611,1.257-1.271,2.351-1.98L343.761,124.279z M338.265,113.973
		c-0.359-0.594-0.538-1.13-0.538-1.608c0-0.598,0.19-1.067,0.57-1.409c0.38-0.342,0.89-0.513,1.531-0.513
		c0.657,0,1.163,0.167,1.518,0.5c0.354,0.333,0.531,0.79,0.531,1.371c0,0.563-0.179,1.144-0.538,1.742
		c-0.358,0.598-0.879,1.187-1.563,1.768C339.127,115.183,338.623,114.567,338.265,113.973 M343.562,114.703
		c0.465-0.798,0.698-1.612,0.698-2.44c0-1.196-0.382-2.103-1.146-2.723c-0.765-0.619-1.852-0.929-3.261-0.929
		c-1.435,0-2.556,0.31-3.363,0.929c-0.807,0.62-1.21,1.497-1.21,2.633c0,0.717,0.224,1.51,0.672,2.376
		c0.449,0.867,1.049,1.677,1.8,2.428c-1.46,0.829-2.517,1.67-3.171,2.524c-0.653,0.854-0.98,1.913-0.98,3.177
		c0,1.708,0.562,3.053,1.685,4.035c1.123,0.983,2.646,1.474,4.567,1.474c1.162,0,2.135-0.175,2.921-0.526
		c0.786-0.35,1.542-0.956,2.268-1.819l1.524,1.948h2.729l-3.036-4.062c0.358-0.623,0.621-1.383,0.788-2.28
		c0.166-0.897,0.249-1.87,0.249-2.921v-1.883h-1.985c0.017,0.077,0.025,0.184,0.025,0.32v0.987c0,0.717-0.036,1.439-0.109,2.165
		c-0.072,0.726-0.185,1.358-0.339,1.896l-3.702-4.689C342.304,116.375,343.096,115.502,343.562,114.703 M312.982,108.842v18.948
		h2.421v-8.738h6.636v8.738h2.409v-18.948h-2.409v8.109h-6.636v-8.109H312.982z M297.506,108.842v2.101h4.958v16.847h2.434v-16.847
		h4.983v-2.101H297.506z M288.651,108.842v18.948h9.34v-2.101h-6.931v-16.847H288.651z M280.932,121.23h-6.136l3.036-10.159
		L280.932,121.23z M276.372,108.842l-6.009,18.948h2.46l1.396-4.51h7.315l1.371,4.51h2.703l-6.175-18.948H276.372z M257.919,108.842
		v18.948h9.942v-2.101h-7.533v-6.585h6.828v-2.076h-6.828v-6.085h7.353v-2.101H257.919z M242.28,108.842v18.948h2.421v-8.738h6.636
		v8.738h2.409v-18.948h-2.409v8.109h-6.636v-8.109H242.28z"/>
	<path style="clip-path:url(#SVGID_00000136387414828355690460000017258825500923006365_);fill:#FFFFFF;" d="M631.899,79.342V98.29
		h9.339v-2.102h-6.931V79.342H631.899z M624.18,91.73h-6.137l3.036-10.159L624.18,91.73z M619.619,79.342L613.61,98.29h2.46
		l1.397-4.51h7.315l1.371,4.51h2.703l-6.175-18.948H619.619z M610.041,80.386c-0.82-0.833-2.088-1.249-3.805-1.249
		c-2.152,0-3.702,0.57-4.65,1.71s-1.422,3-1.422,5.579v3.998c0,3.108,0.474,5.246,1.422,6.411c0.948,1.166,2.357,1.749,4.227,1.749
		c1.888,0,3.308-0.467,4.26-1.403c0.952-0.935,1.428-2.368,1.428-4.298v-0.346h-2.485c-0.017,1.333-0.29,2.328-0.82,2.985
		c-0.529,0.658-1.306,0.987-2.331,0.987c-1.145,0-1.969-0.412-2.473-1.237c-0.504-0.824-0.756-2.239-0.756-4.246v-4.6
		c0-2.118,0.282-3.52,0.846-4.208c0.563-0.687,1.409-1.031,2.536-1.031c0.991,0,1.693,0.258,2.108,0.775
		c0.414,0.517,0.621,1.343,0.621,2.479v0.282h2.524v-0.5C611.271,82.498,610.861,81.219,610.041,80.386 M593.677,98.29h2.447V79.342
		h-2.447V98.29z M588.436,80.296c-0.875-0.858-2.163-1.287-3.862-1.287c-1.76,0-3.143,0.457-4.151,1.371
		c-1.008,0.914-1.512,2.135-1.512,3.664c0,0.973,0.231,1.832,0.692,2.575c0.461,0.743,1.17,1.405,2.127,1.985
		c0.956,0.581,1.975,1.136,3.055,1.666c1.081,0.529,1.792,1.063,2.133,1.601c0.342,0.538,0.513,1.076,0.513,1.614
		c0,0.914-0.308,1.647-0.923,2.197c-0.615,0.551-1.418,0.827-2.408,0.827c-0.965,0-1.749-0.303-2.351-0.91
		c-0.602-0.606-0.903-1.46-0.903-2.562v-0.551h-2.383v0.743c0,1.751,0.478,3.081,1.435,3.991c0.956,0.909,2.34,1.364,4.151,1.364
		c1.75,0,3.164-0.457,4.24-1.371c1.076-0.913,1.614-2.156,1.614-3.728c0-1.033-0.22-1.891-0.66-2.575
		c-0.44-0.683-1.078-1.326-1.915-1.928c-0.837-0.602-1.772-1.136-2.805-1.601c-1.034-0.466-1.818-0.995-2.351-1.589
		c-0.534-0.593-0.801-1.244-0.801-1.953c0-0.872,0.265-1.544,0.794-2.018c0.53-0.474,1.264-0.711,2.204-0.711
		c0.965,0,1.682,0.265,2.152,0.794c0.47,0.53,0.705,1.32,0.705,2.37v0.269h2.524V84.12C589.75,82.429,589.312,81.155,588.436,80.296
		 M563.995,79.342l5.124,11.286v7.662h2.383v-7.61l5.201-11.338h-2.472l-3.805,9.16l-3.728-9.16H563.995z M549.511,79.342V98.29
		h2.421v-8.738h6.636v8.738h2.409V79.342h-2.409v8.109h-6.636v-8.109H549.511z M537.531,81.443h2.831
		c1.085,0,1.885,0.263,2.402,0.788c0.517,0.525,0.775,1.296,0.775,2.312c0,1.204-0.31,2.056-0.929,2.556
		c-0.619,0.5-1.569,0.749-2.85,0.749h-2.229V81.443z M535.109,79.342V98.29h2.422v-8.341h2.831c1.802,0,3.184-0.433,4.144-1.3
		c0.961-0.867,1.442-2.193,1.442-3.978c0-1.836-0.438-3.183-1.313-4.042c-0.876-0.858-2.24-1.287-4.094-1.287H535.109z
		 M521.075,94.779c-0.436,0.641-0.966,1.128-1.589,1.461c-0.623,0.333-1.345,0.499-2.165,0.499c-1.196,0-2.159-0.341-2.889-1.025
		c-0.73-0.683-1.095-1.584-1.095-2.703c0-0.828,0.237-1.548,0.711-2.158c0.474-0.611,1.257-1.271,2.351-1.98L521.075,94.779z
		 M515.579,84.473c-0.359-0.594-0.538-1.13-0.538-1.608c0-0.598,0.19-1.068,0.57-1.409c0.38-0.342,0.89-0.513,1.531-0.513
		c0.657,0,1.163,0.167,1.518,0.5c0.354,0.333,0.531,0.79,0.531,1.371c0,0.563-0.179,1.144-0.538,1.742
		c-0.358,0.598-0.879,1.187-1.563,1.768C516.441,85.683,515.937,85.066,515.579,84.473 M520.876,85.203
		c0.466-0.798,0.698-1.612,0.698-2.441c0-1.195-0.382-2.103-1.146-2.722c-0.765-0.619-1.851-0.929-3.261-0.929
		c-1.435,0-2.555,0.31-3.363,0.929c-0.807,0.619-1.21,1.497-1.21,2.633c0,0.717,0.224,1.51,0.672,2.376
		c0.449,0.867,1.049,1.677,1.8,2.428c-1.46,0.828-2.517,1.67-3.17,2.524c-0.654,0.854-0.98,1.913-0.98,3.177
		c0,1.708,0.561,3.053,1.684,4.035c1.123,0.983,2.646,1.474,4.567,1.474c1.162,0,2.135-0.176,2.921-0.526
		c0.786-0.35,1.542-0.956,2.268-1.819l1.524,1.948h2.729l-3.036-4.062c0.359-0.623,0.621-1.383,0.788-2.28
		c0.166-0.897,0.25-1.87,0.25-2.921v-1.883h-1.986c0.017,0.077,0.025,0.184,0.025,0.32v0.987c0,0.717-0.036,1.439-0.108,2.165
		c-0.073,0.726-0.186,1.358-0.34,1.896l-3.702-4.689C519.618,86.875,520.411,86.002,520.876,85.203 M494.549,79.342V98.29h9.339
		v-2.102h-6.93V79.342H494.549z M486.83,91.73h-6.136l3.036-10.159L486.83,91.73z M482.269,79.342l-6.008,18.948h2.46l1.396-4.51
		h7.315l1.371,4.51h2.703l-6.175-18.948H482.269z M464.266,79.342v2.101h4.958V98.29h2.434V81.443h4.984v-2.101H464.266z
		 M448.185,79.342V98.29h2.178V81.866l7.533,16.424h3.279V79.342h-2.152v16.219l-7.456-16.219H448.185z M434.826,79.342V98.29h9.941
		v-2.102h-7.533v-6.584h6.828v-2.076h-6.828v-6.085h7.354v-2.101H434.826z M413.241,79.342V98.29h2.229V81.469l5.278,16.821h2.255
		l5.355-16.821V98.29h2.306V79.342h-3.856l-4.856,15.898l-4.804-15.898H413.241z M398.886,81.443c0.871,0,1.544,0.241,2.018,0.724
		c0.474,0.482,0.711,1.215,0.711,2.197c0,1.008-0.261,1.787-0.782,2.338c-0.521,0.551-1.345,0.826-2.472,0.826h-2.947v-6.085
		H398.886z M392.98,79.342V98.29h2.434v-8.712h2.05c1.102,0,1.866,0.094,2.293,0.282s0.754,0.493,0.98,0.916
		s0.369,1.031,0.429,1.825l0.103,1.474l0.102,2.062c0.017,0.351,0.064,0.713,0.141,1.089c0.077,0.376,0.179,0.73,0.308,1.064h2.523
		c-0.401-1.692-0.613-3.327-0.634-4.907c-0.021-1.58-0.239-2.75-0.653-3.51c-0.415-0.76-1.228-1.243-2.441-1.448
		c1.11-0.213,1.965-0.705,2.563-1.473c0.597-0.769,0.896-1.738,0.896-2.908c0-1.435-0.408-2.577-1.223-3.427
		c-0.816-0.85-1.886-1.275-3.209-1.275H392.98z M379.598,85.671c0-1.657,0.269-2.859,0.807-3.607
		c0.538-0.747,1.426-1.121,2.665-1.121c1.255,0,2.154,0.408,2.696,1.224c0.543,0.815,0.814,2.052,0.814,3.709v4.496
		c0,1.845-0.092,3.148-0.276,3.908c-0.183,0.76-0.527,1.33-1.031,1.71c-0.504,0.38-1.247,0.57-2.229,0.57
		c-1.247,0-2.133-0.391-2.658-1.172c-0.525-0.782-0.788-2.133-0.788-4.055V85.671z M387.611,80.649
		c-0.961-1.187-2.475-1.781-4.541-1.781c-2.067,0-3.573,0.562-4.516,1.685c-0.944,1.123-1.416,3.047-1.416,5.771v4.932
		c0,2.52,0.463,4.375,1.39,5.567c0.927,1.191,2.394,1.787,4.401,1.787c2.16,0,3.721-0.592,4.682-1.775
		c0.961-1.182,1.441-3.32,1.441-6.411v-3.549C389.052,83.911,388.572,81.836,387.611,80.649 M364.992,79.342V98.29h2.434v-8.686
		h6.585v-2.076h-6.585v-6.085h6.956v-2.101H364.992z M346.486,79.342V98.29h9.941v-2.102h-7.533v-6.584h6.829v-2.076h-6.829v-6.085
		h7.354v-2.101H346.486z M331.095,79.342v2.101h4.958V98.29h2.434V81.443h4.984v-2.101H331.095z M316.343,79.342v13.259
		c0,1.939,0.506,3.434,1.518,4.484c1.012,1.051,2.458,1.576,4.337,1.576c1.99,0,3.465-0.553,4.426-1.659s1.441-2.756,1.441-4.951
		V79.342h-2.357v12.913c0,1.453-0.276,2.537-0.826,3.255c-0.551,0.717-1.437,1.076-2.659,1.076c-1.144,0-2.009-0.348-2.594-1.044
		s-0.878-1.698-0.878-3.005V79.342H316.343z M300.94,79.342v2.101h4.958V98.29h2.434V81.443h4.983v-2.101H300.94z M295.327,98.29
		h2.447V79.342h-2.447V98.29z M279.779,79.342v2.101h4.958V98.29h2.434V81.443h4.983v-2.101H279.779z M275.835,80.296
		c-0.876-0.858-2.163-1.287-3.863-1.287c-1.759,0-3.143,0.457-4.15,1.371c-1.008,0.914-1.512,2.135-1.512,3.664
		c0,0.973,0.23,1.832,0.692,2.575c0.461,0.743,1.17,1.405,2.126,1.985c0.957,0.581,1.975,1.136,3.056,1.666
		c1.08,0.529,1.791,1.063,2.133,1.601c0.341,0.538,0.512,1.076,0.512,1.614c0,0.914-0.307,1.647-0.922,2.197
		c-0.615,0.551-1.418,0.827-2.409,0.827c-0.965,0-1.748-0.303-2.351-0.91c-0.602-0.606-0.903-1.46-0.903-2.562v-0.551h-2.383v0.743
		c0,1.751,0.479,3.081,1.435,3.991c0.957,0.909,2.34,1.364,4.151,1.364c1.751,0,3.164-0.457,4.24-1.371
		c1.077-0.913,1.615-2.156,1.615-3.728c0-1.033-0.22-1.891-0.66-2.575c-0.44-0.683-1.078-1.326-1.915-1.928
		c-0.837-0.602-1.773-1.136-2.806-1.601c-1.033-0.466-1.817-0.995-2.351-1.589c-0.534-0.593-0.8-1.244-0.8-1.953
		c0-0.872,0.264-1.544,0.794-2.018c0.529-0.474,1.264-0.711,2.203-0.711c0.965,0,1.683,0.265,2.153,0.794
		c0.469,0.53,0.704,1.32,0.704,2.37v0.269h2.524V84.12C277.148,82.429,276.71,81.155,275.835,80.296 M249.195,79.342V98.29h2.178
		V81.866l7.533,16.424h3.28V79.342h-2.153v16.219l-7.456-16.219H249.195z M242.434,98.29h2.447V79.342h-2.447V98.29z"/>
	<path style="clip-path:url(#SVGID_00000136387414828355690460000017258825500923006365_);fill:#FFFFFF;" d="M615.535,56.519
		c2.38-2.028,3.57-5.071,3.57-9.127c0-2.646-0.514-4.736-1.542-6.27c-1.029-1.532-2.685-3.013-4.97-4.441l-8.541-5.456
		c-0.933-0.59-1.614-1.266-2.043-2.028c-0.428-0.762-0.642-1.581-0.642-2.457c0-1.428,0.385-2.566,1.157-3.413
		c0.771-0.847,1.813-1.271,3.127-1.271c2.838,0,4.256,1.828,4.256,5.484v1h8.655v-1.457c0-4.075-1.042-6.965-3.127-8.669
		c-2.086-1.704-5.118-2.557-9.098-2.557c-4.456,0-7.898,0.976-10.326,2.928c-2.428,1.952-3.642,4.718-3.642,8.298
		c0,2.647,0.495,4.832,1.485,6.556c0.99,1.723,3.142,3.613,6.456,5.67l6.998,4.284c0.952,0.591,1.671,1.276,2.157,2.057
		c0.485,0.781,0.728,1.733,0.728,2.856c0,1.486-0.405,2.633-1.214,3.442c-0.81,0.81-1.966,1.214-3.47,1.214
		c-1.771,0-3.01-0.523-3.714-1.571c-0.705-1.047-1.057-2.628-1.057-4.741v-1.114h-8.969v2.627c0,3.714,1.085,6.509,3.256,8.384
		c2.171,1.876,5.361,2.814,9.569,2.814C609.508,59.561,613.154,58.547,615.535,56.519 M565.644,16.543V58.79h22.052v-7.027h-13.111
		v-35.22H565.644z M543,24.684l4.399,18.366h-8.541L543,24.684z M537.744,16.543L526.033,58.79h8.74l2.4-9.37h12.026l2.342,9.37
		h9.312l-11.455-42.247H537.744z M512.422,58.79h8.826V16.543h-8.826V58.79z M488.746,23.055h1.885c2.685,0,4.437,0.429,5.256,1.286
		c0.819,0.857,1.228,2.333,1.228,4.427c0,2.114-0.414,3.647-1.242,4.599c-0.829,0.953-2.519,1.428-5.07,1.428h-2.057V23.055z
		 M479.862,16.543V58.79h8.884V41.308h1.714c2.646,0,4.446,0.453,5.398,1.357c0.952,0.905,1.429,2.576,1.429,5.013v6.484
		c0,1.143,0.066,1.985,0.2,2.528c0.133,0.543,0.38,1.243,0.742,2.1h8.655c-0.19-0.572-0.328-1.324-0.414-2.257
		c-0.086-0.933-0.157-1.914-0.214-2.942l-0.429-7.256c-0.171-2.723-0.776-4.694-1.813-5.912c-1.039-1.219-2.947-2.019-5.728-2.4
		c2.609-0.495,4.537-1.58,5.785-3.256c1.247-1.676,1.871-4.018,1.871-7.027c0-3.808-0.934-6.627-2.8-8.455
		c-1.866-1.828-4.732-2.742-8.598-2.742H479.862z M446.705,16.543v6.855h9.712V58.79h8.969V23.398h9.826v-6.855H446.705z
		 M403.756,16.543v6.855h9.712V58.79h8.969V23.398h9.826v-6.855H403.756z M399.788,28.597c0-4.361-1.043-7.565-3.128-9.612
		s-5.137-3.071-9.155-3.071c-3.428,0-6.156,0.567-8.184,1.7c-2.028,1.133-3.475,2.661-4.341,4.584
		c-0.867,1.924-1.424,4.009-1.671,6.256c-0.248,2.247-0.372,5.342-0.372,9.284c0,5.008,0.233,8.664,0.7,10.968
		c0.466,2.305,1.181,4.199,2.142,5.685c0.962,1.485,2.357,2.666,4.185,3.542c1.828,0.875,4.199,1.314,7.113,1.314
		c4.474,0,7.788-1.124,9.94-3.371s3.228-5.608,3.228-10.083v-1.229h-8.712v0.486c0,2.723-0.386,4.709-1.157,5.956
		c-0.771,1.247-1.91,1.871-3.414,1.871c-1.79,0-3.066-0.814-3.827-2.443c-0.762-1.628-1.181-3.684-1.257-6.17
		c-0.076-2.485-0.114-4.47-0.114-5.955c0-4.418,0.114-7.57,0.342-9.455c0.229-1.885,0.7-3.442,1.414-4.67
		c0.714-1.229,1.843-1.843,3.385-1.843c1.352,0,2.395,0.529,3.128,1.586c0.733,1.056,1.1,2.775,1.1,5.155v0.8h8.655V28.597z
		 M352.194,24.684l4.399,18.366h-8.541L352.194,24.684z M346.938,16.543L335.227,58.79h8.74l2.4-9.37h12.025l2.343,9.37h9.312
		l-11.455-42.247H346.938z M316.966,35.11V23.055h2.885c2.571,0,4.285,0.491,5.142,1.471c0.857,0.981,1.285,2.5,1.285,4.556
		c0,2.114-0.485,3.647-1.457,4.599c-0.971,0.953-2.399,1.429-4.284,1.429H316.966z M308.083,16.543V58.79h8.883V41.594h6.027
		c4.228,0,7.322-1.005,9.284-3.014c1.961-2.009,2.942-5.117,2.942-9.326c0-4.475-0.976-7.713-2.928-9.712
		c-1.952-2-5.07-2.999-9.355-2.999H308.083z M259.468,16.543V58.79h8.37V26.197l7.826,32.593h8.427l8.255-32.593V58.79h8.598V16.543
		h-13.74l-7.084,28.736l-6.684-28.736H259.468z M243.685,58.79h8.826V16.543h-8.826V58.79z"/>
</g>
</svg>
