<?xml version="1.0" encoding="iso-8859-1"?>
<!-- Generator: Adobe Illustrator 29.5.1, SVG Export Plug-In . SVG Version: 9.03 Build 0)  -->
<svg version="1.1" id="Layer_1" xmlns="http://www.w3.org/2000/svg" xmlns:xlink="http://www.w3.org/1999/xlink" x="0px" y="0px"
	 viewBox="0 0 720 144" style="enable-background:new 0 0 720 144;" xml:space="preserve">
<g>
	<defs>
		<rect id="SVGID_1_" width="720" height="144"/>
	</defs>
	<clipPath id="SVGID_00000048483707230755726150000016226961056462909344_">
		<use xlink:href="#SVGID_1_"  style="overflow:visible;"/>
	</clipPath>
	<path style="clip-path:url(#SVGID_00000048483707230755726150000016226961056462909344_);" d="M72.921,1.3
		C33.757,1.3,2.008,32.959,2.008,72.012s31.749,70.712,70.913,70.712s70.912-31.659,70.912-70.712S112.085,1.3,72.921,1.3"/>
	<path style="clip-path:url(#SVGID_00000048483707230755726150000016226961056462909344_);fill:#FFFFFF;" d="M72.921,2.98
		c38.175,0,69.233,30.968,69.233,69.032s-31.058,69.032-69.233,69.032S3.688,110.076,3.688,72.012S34.746,2.98,72.921,2.98"/>
</g>
<rect x="191.456" y="16.617" width="2" height="111.776"/>
<g>
	<defs>
		<rect id="SVGID_00000177476060517009455850000009647990632455197362_" width="720" height="144"/>
	</defs>
	<clipPath id="SVGID_00000074425147938706020760000002513024821345909657_">
		<use xlink:href="#SVGID_00000177476060517009455850000009647990632455197362_"  style="overflow:visible;"/>
	</clipPath>
	<path style="clip-path:url(#SVGID_00000074425147938706020760000002513024821345909657_);" d="M114.152,102.346v4.129
		c0,0.138-0.046,0.246-0.154,0.323c-0.093,0.077-0.216,0.123-0.37,0.123c-0.092,0-0.231,0-0.385-0.015
		c-0.154-0.015-0.323-0.031-0.478-0.046c-0.154-0.015-0.292-0.062-0.416-0.108c-0.107-0.046-0.169-0.108-0.169-0.169v-4.222
		l-3.605-7.041c-0.123-0.246-0.139-0.416-0.046-0.523c0.092-0.108,0.262-0.17,0.508-0.17c0.154,0,0.308,0,0.478,0.015
		c0.154,0,0.308,0.016,0.446,0.047c0.139,0.015,0.262,0.046,0.355,0.077c0.092,0.031,0.169,0.077,0.2,0.154l2.65,5.408l2.65-5.393
		c0.031-0.061,0.092-0.123,0.2-0.154c0.093-0.031,0.216-0.061,0.355-0.092c0.138-0.016,0.292-0.031,0.446-0.047
		c0.154,0,0.324-0.015,0.478-0.015c0.246,0,0.416,0.046,0.508,0.154c0.077,0.108,0.062,0.277-0.061,0.539L114.152,102.346z
		 M103.615,96.584v9.891c0,0.138-0.046,0.246-0.154,0.323c-0.108,0.077-0.216,0.123-0.354,0.123c-0.093,0-0.231,0-0.401-0.015
		c-0.17-0.015-0.339-0.031-0.493-0.046s-0.293-0.062-0.401-0.108c-0.123-0.046-0.169-0.108-0.169-0.169v-9.984h-3.051
		c-0.123,0-0.215-0.046-0.308-0.139c-0.077-0.092-0.123-0.2-0.123-0.338c0-0.093,0-0.201,0.015-0.355
		c0.016-0.138,0.031-0.292,0.047-0.431c0.015-0.139,0.061-0.262,0.092-0.37c0.046-0.092,0.093-0.154,0.17-0.154h8.165
		c0.123,0,0.216,0.046,0.308,0.139c0.077,0.092,0.123,0.215,0.123,0.339c0,0.092,0,0.2-0.015,0.354s-0.031,0.293-0.046,0.431
		c-0.016,0.139-0.046,0.262-0.093,0.355c-0.046,0.092-0.092,0.154-0.169,0.154H103.615z M96.497,106.475
		c0,0.138-0.046,0.246-0.154,0.323c-0.092,0.077-0.216,0.123-0.37,0.123c-0.092,0-0.231,0-0.4-0.015
		c-0.17-0.015-0.324-0.031-0.493-0.046c-0.154-0.015-0.293-0.062-0.416-0.108c-0.108-0.046-0.17-0.108-0.17-0.169V94.981
		c0-0.061,0.062-0.123,0.17-0.169c0.123-0.046,0.262-0.092,0.416-0.108c0.154-0.015,0.323-0.046,0.493-0.046
		c0.169-0.016,0.292-0.016,0.4-0.016c0.139,0,0.262,0.047,0.37,0.139c0.092,0.093,0.154,0.2,0.154,0.324V106.475z M85.389,104.888
		c0.092,0.015,0.216,0.061,0.401,0.092c0.185,0.047,0.385,0.093,0.631,0.139c0.231,0.046,0.493,0.077,0.786,0.123
		c0.277,0.031,0.57,0.046,0.847,0.046c0.309,0,0.601-0.03,0.878-0.077c0.278-0.046,0.54-0.138,0.755-0.246
		c0.216-0.123,0.401-0.277,0.524-0.462c0.139-0.201,0.201-0.432,0.201-0.724c0-0.401-0.124-0.74-0.386-1.017
		c-0.261-0.278-0.585-0.539-0.97-0.786c-0.385-0.246-0.817-0.493-1.279-0.739c-0.462-0.247-0.878-0.54-1.279-0.863
		c-0.4-0.324-0.724-0.709-0.97-1.156c-0.262-0.447-0.385-0.986-0.385-1.633c0-0.539,0.092-1.001,0.292-1.371
		c0.2-0.37,0.463-0.678,0.801-0.924c0.339-0.232,0.755-0.416,1.218-0.524c0.477-0.108,1.001-0.17,1.571-0.17
		c0.123,0,0.308,0,0.555,0.016c0.246,0.015,0.508,0.03,0.785,0.061c0.278,0.031,0.555,0.062,0.817,0.108
		c0.277,0.046,0.493,0.108,0.647,0.185c0.154,0.062,0.247,0.139,0.277,0.216c0.031,0.077,0.031,0.2,0.016,0.385
		c-0.016,0.293-0.077,0.524-0.185,0.724c-0.093,0.2-0.231,0.277-0.416,0.246c-0.278-0.061-0.586-0.107-0.94-0.169
		c-0.354-0.046-0.755-0.077-1.186-0.077c-0.678,0-1.248,0.108-1.68,0.293c-0.431,0.2-0.647,0.523-0.647,0.986
		c0,0.369,0.124,0.678,0.386,0.939c0.261,0.263,0.585,0.509,0.97,0.74s0.817,0.478,1.279,0.724c0.462,0.247,0.878,0.539,1.279,0.878
		c0.385,0.339,0.724,0.74,0.97,1.202c0.262,0.462,0.385,1.048,0.385,1.71c0,0.632-0.123,1.156-0.354,1.556
		c-0.231,0.416-0.555,0.724-0.94,0.955c-0.385,0.232-0.847,0.386-1.356,0.478c-0.508,0.093-1.047,0.139-1.602,0.139
		c-0.246,0-0.524-0.016-0.801-0.031s-0.539-0.046-0.817-0.077c-0.261-0.031-0.508-0.077-0.754-0.123
		c-0.232-0.047-0.432-0.093-0.601-0.154c-0.17-0.062-0.262-0.124-0.293-0.185c-0.031-0.077-0.046-0.201-0.015-0.37
		c0.03-0.324,0.092-0.601,0.184-0.817C85.112,104.949,85.234,104.842,85.389,104.888 M79.057,96.568H76.76v3.991h2.296
		c0.447,0,0.816-0.031,1.078-0.077c0.278-0.047,0.478-0.139,0.632-0.278c0.154-0.138,0.247-0.308,0.293-0.539
		s0.077-0.539,0.077-0.909v-0.37c0-0.369-0.031-0.678-0.077-0.924c-0.046-0.231-0.154-0.416-0.293-0.555
		c-0.154-0.138-0.354-0.215-0.632-0.277C79.857,96.599,79.504,96.568,79.057,96.568 M74.773,106.567V95.228
		c0-0.123,0.046-0.216,0.154-0.308c0.108-0.077,0.216-0.123,0.37-0.123h3.651c0.755,0,1.402,0.061,1.941,0.169
		c0.539,0.108,0.971,0.308,1.31,0.585c0.339,0.278,0.585,0.648,0.739,1.11c0.155,0.462,0.231,1.032,0.231,1.741v0.37
		c0,0.523-0.046,0.97-0.123,1.355s-0.216,0.724-0.385,1.002c-0.169,0.277-0.416,0.493-0.709,0.662
		c-0.292,0.17-0.647,0.293-1.047,0.385l2.295,3.975c0.124,0.216,0.185,0.37,0.185,0.478c0,0.061-0.031,0.123-0.077,0.169
		c-0.061,0.047-0.123,0.077-0.185,0.093c-0.061,0.015-0.138,0.03-0.2,0.046c-0.077,0-0.123,0.015-0.154,0.015
		c-0.093,0-0.231,0-0.385-0.015c-0.154-0.016-0.308-0.031-0.462-0.062c-0.154-0.03-0.309-0.061-0.432-0.123
		c-0.123-0.062-0.216-0.139-0.277-0.231l-2.434-4.16h-2.034v4.16c0,0.139-0.046,0.231-0.154,0.308
		c-0.093,0.077-0.216,0.123-0.354,0.123c-0.093,0-0.232,0-0.401-0.015c-0.17-0.016-0.324-0.031-0.493-0.046
		c-0.154-0.016-0.293-0.062-0.416-0.108C74.836,106.69,74.773,106.644,74.773,106.567 M65.068,106.382V95.228
		c0-0.139,0.046-0.247,0.154-0.324c0.092-0.077,0.216-0.107,0.37-0.107h6.64c0.123,0,0.231,0.046,0.308,0.154
		c0.077,0.092,0.123,0.215,0.123,0.339c0,0.092,0,0.2-0.015,0.354c-0.016,0.154-0.031,0.293-0.046,0.431
		c-0.016,0.139-0.062,0.262-0.093,0.355c-0.046,0.092-0.108,0.154-0.169,0.154h-5.269v3.204h4.514c0.108,0,0.2,0.047,0.292,0.139
		c0.078,0.092,0.124,0.2,0.124,0.323c0,0.093,0,0.201-0.016,0.355c-0.015,0.154-0.03,0.292-0.046,0.431
		c-0.015,0.139-0.062,0.262-0.092,0.37c-0.047,0.092-0.093,0.154-0.17,0.154h-4.622v3.389h5.161c0.124,0,0.232,0.047,0.309,0.139
		c0.077,0.093,0.123,0.2,0.123,0.339c0,0.092,0,0.2-0.016,0.354c-0.015,0.139-0.03,0.293-0.046,0.432
		c-0.015,0.138-0.061,0.262-0.092,0.37c-0.046,0.107-0.108,0.154-0.17,0.154h-6.501c-0.154,0-0.324-0.031-0.493-0.108
		C65.145,106.536,65.068,106.459,65.068,106.382 M58.998,103.547l2.496-8.581c0.154-0.154,0.339-0.246,0.539-0.293
		c0.2-0.031,0.431-0.061,0.709-0.061c0.107,0,0.231,0,0.338,0.015c0.124,0.015,0.216,0.031,0.293,0.077
		c0.077,0.046,0.139,0.093,0.185,0.17c0.046,0.077,0.031,0.169,0,0.308l-3.836,11.478c-0.016,0.092-0.077,0.154-0.17,0.2
		c-0.092,0.046-0.185,0.061-0.292,0.061c-0.37,0-0.678-0.015-0.925-0.061c-0.246-0.046-0.4-0.108-0.462-0.185l-3.821-11.493
		c-0.031-0.108-0.031-0.201,0-0.278c0.031-0.077,0.077-0.123,0.154-0.169c0.062-0.046,0.139-0.077,0.231-0.093
		c0.077-0.015,0.154-0.03,0.201-0.03c0.169,0,0.339,0,0.508,0.015c0.17,0.015,0.324,0.031,0.478,0.062
		c0.138,0.031,0.262,0.077,0.369,0.123c0.093,0.062,0.17,0.123,0.201,0.216l2.557,8.504c0.046,0.139,0.077,0.277,0.093,0.416
		c0.015,0.154,0.031,0.277,0.061,0.401c0.016-0.124,0.031-0.262,0.046-0.401C58.921,103.809,58.951,103.671,58.998,103.547
		 M52.589,106.475c0,0.138-0.047,0.246-0.154,0.323c-0.093,0.077-0.216,0.123-0.37,0.123c-0.093,0-0.231,0-0.401-0.015
		c-0.169-0.015-0.323-0.031-0.493-0.046c-0.154-0.015-0.293-0.062-0.416-0.108s-0.169-0.108-0.169-0.169V94.981
		c0-0.061,0.061-0.123,0.169-0.169c0.123-0.046,0.247-0.092,0.416-0.108c0.154-0.015,0.324-0.046,0.493-0.046
		c0.17-0.016,0.293-0.016,0.401-0.016c0.138,0,0.262,0.047,0.37,0.139c0.092,0.093,0.154,0.2,0.154,0.324V106.475z M46.518,103.239
		V94.92c0-0.062,0.062-0.123,0.185-0.154c0.124-0.046,0.262-0.077,0.432-0.093c0.169-0.015,0.339-0.031,0.508-0.046
		c0.17-0.015,0.308-0.015,0.401-0.015c0.292,0,0.431,0.169,0.431,0.493v11.37c0,0.138-0.046,0.231-0.154,0.308
		c-0.108,0.077-0.216,0.123-0.339,0.123c-0.092,0-0.2,0-0.354-0.015c-0.154-0.016-0.293-0.016-0.447-0.046
		c-0.154-0.031-0.278-0.062-0.401-0.093c-0.123-0.046-0.2-0.092-0.246-0.154l-5.377-8.273v8.15c0,0.138-0.046,0.246-0.154,0.323
		c-0.092,0.077-0.216,0.123-0.355,0.123c-0.092,0-0.231,0-0.4-0.015c-0.17-0.015-0.339-0.031-0.493-0.046s-0.293-0.062-0.401-0.108
		c-0.123-0.046-0.169-0.108-0.169-0.169V94.981c0-0.061,0.061-0.123,0.169-0.169c0.124-0.046,0.247-0.092,0.401-0.108
		c0.154-0.015,0.308-0.031,0.477-0.046c0.17-0.016,0.293-0.016,0.401-0.016c0.123,0,0.231,0.031,0.308,0.108
		c0.077,0.077,0.154,0.154,0.201,0.247L46.518,103.239z M35.056,102.5v-7.488c0-0.061,0.062-0.123,0.169-0.169
		c0.124-0.046,0.262-0.093,0.416-0.123c0.17-0.031,0.339-0.062,0.493-0.078c0.17-0.015,0.293-0.03,0.401-0.03
		c0.139,0,0.262,0.046,0.354,0.154c0.093,0.108,0.139,0.215,0.139,0.339v7.487c0,0.817-0.092,1.495-0.277,2.049
		c-0.185,0.555-0.447,0.986-0.817,1.341c-0.37,0.339-0.832,0.585-1.386,0.724c-0.555,0.139-1.218,0.215-1.957,0.215h-0.139
		c-0.724,0-1.371-0.076-1.91-0.215c-0.555-0.139-1.002-0.385-1.371-0.724c-0.37-0.339-0.632-0.786-0.817-1.341
		c-0.185-0.539-0.277-1.232-0.277-2.049v-7.58c0-0.061,0.061-0.123,0.169-0.169c0.124-0.046,0.247-0.093,0.416-0.123
		c0.154-0.031,0.324-0.062,0.493-0.078c0.17-0.015,0.308-0.03,0.401-0.03c0.138,0,0.246,0.046,0.354,0.154
		c0.093,0.108,0.154,0.215,0.154,0.339v7.379c0,0.478,0.031,0.879,0.108,1.218c0.077,0.338,0.2,0.616,0.385,0.816
		c0.185,0.216,0.432,0.37,0.74,0.462c0.308,0.093,0.693,0.154,1.155,0.154h0.139c0.478,0,0.863-0.046,1.186-0.154
		c0.308-0.108,0.57-0.262,0.755-0.462c0.185-0.216,0.324-0.478,0.401-0.816C35.025,103.378,35.056,102.978,35.056,102.5
		 M106.742,75.538v14.313h-3.944V67.989h5.5l5.285,13.466V67.989h4.006v21.862h-5.023L106.742,75.538z M95.419,67.989h4.437v21.862
		h-4.437V67.989z M78.395,67.989h4.56v9.506l5.685-9.506h4.76L87.084,78.05L93.4,89.867h-5.284l-5.161-10.631v10.631h-4.56V67.989z
		 M70.967,84.998H64.62l-1.156,4.869h-4.575l6.162-21.878h5.824l6.07,21.878h-4.791L70.967,84.998z M70.06,81.193l-2.188-9.044
		l-2.296,9.044H70.06z M45.625,67.989h11.817v3.713h-7.195v4.668h6.625v3.806h-6.625v5.823h7.21v3.852H45.625V67.989z
		 M35.595,67.989c5.839,0,7.642,3.097,7.642,10.939s-1.818,10.939-7.657,10.939h-7.488V67.989H35.595z M32.683,86.092h2.08
		c3.405,0,3.836-2.003,3.836-7.241c0-5.223-0.431-7.226-3.836-7.226h-2.08V86.092z M81.507,51.366l-9.938-17.24l1.31-2.203
		l11.154,19.443H81.507z M76.808,51.366l-7.611-13.142l1.279-2.157l8.766,15.299H76.808z M72.032,51.366l-5.223-9.013l1.325-2.234
		l6.424,11.231h-2.526V51.366z M67.225,51.366l-2.804-4.869l1.325-2.234l4.052,7.103H67.225z M61.601,51.366l1.71-2.928l1.711,2.928
		H61.601z M59.429,29.889v18.365c0,7.41,6.009,13.419,13.419,13.419c7.411,0,13.419-6.009,13.419-13.419V29.889H59.429z"/>
	<path style="clip-path:url(#SVGID_00000074425147938706020760000002513024821345909657_);" d="M453.341,125.839
		c1.852-1.579,2.779-3.946,2.779-7.102c0-2.06-0.4-3.687-1.201-4.88c-0.8-1.192-2.089-2.345-3.867-3.456l-6.647-4.246
		c-0.726-0.459-1.256-0.985-1.589-1.578c-0.333-0.592-0.5-1.23-0.5-1.911c0-1.112,0.3-1.997,0.9-2.657
		c0.6-0.659,1.412-0.989,2.434-0.989c2.208,0,3.312,1.423,3.312,4.268v0.778h6.735v-1.134c0-3.171-0.811-5.42-2.434-6.746
		c-1.622-1.326-3.982-1.989-7.079-1.989c-3.468,0-6.146,0.759-8.036,2.278c-1.889,1.519-2.834,3.671-2.834,6.457
		c0,2.06,0.385,3.761,1.156,5.102c0.77,1.341,2.445,2.812,5.023,4.412l5.446,3.334c0.741,0.46,1.301,0.993,1.679,1.601
		c0.378,0.607,0.566,1.348,0.566,2.222c0,1.156-0.315,2.049-0.944,2.679c-0.63,0.63-1.531,0.945-2.701,0.945
		c-1.378,0-2.342-0.408-2.89-1.223c-0.548-0.815-0.822-2.045-0.822-3.69v-0.867h-6.98v2.045c0,2.89,0.845,5.065,2.534,6.524
		c1.69,1.46,4.171,2.19,7.447,2.19C448.651,128.206,451.489,127.417,453.341,125.839 M415.168,94.73v32.876h17.16v-5.468h-10.202
		V94.73H415.168z M398.189,101.065l3.423,14.293h-6.646L398.189,101.065z M394.099,94.73l-9.114,32.876h6.802l1.867-7.291h9.359
		l1.822,7.291h7.247l-8.914-32.876H394.099z M375.036,127.606h6.869V94.73h-6.869V127.606z M357.24,99.798h1.467
		c2.089,0,3.452,0.333,4.09,1c0.637,0.667,0.955,1.816,0.955,3.446c0,1.645-0.322,2.838-0.966,3.578
		c-0.645,0.742-1.96,1.112-3.946,1.112h-1.6V99.798z M350.327,94.73v32.876h6.913v-13.604h1.333c2.06,0,3.46,0.352,4.201,1.056
		c0.741,0.704,1.112,2.004,1.112,3.901v5.046c0,0.889,0.052,1.545,0.155,1.967c0.104,0.422,0.297,0.967,0.578,1.634h6.736
		c-0.149-0.445-0.256-1.03-0.323-1.756c-0.066-0.726-0.122-1.49-0.166-2.29l-0.334-5.646c-0.133-2.119-0.604-3.653-1.411-4.601
		c-0.808-0.948-2.294-1.571-4.457-1.867c2.03-0.385,3.53-1.23,4.501-2.534c0.97-1.304,1.456-3.127,1.456-5.469
		c0-2.963-0.726-5.156-2.178-6.579c-1.453-1.423-3.683-2.134-6.691-2.134H350.327z M328.463,94.73v32.876h18.294v-5.135h-11.426
		v-9.514h10.203v-5.068h-10.203v-8.091h11.07V94.73H328.463z M303.219,94.73v5.335h7.557v27.541h6.98v-27.541h7.647V94.73H303.219z
		 M291.317,101.065l3.423,14.293h-6.646L291.317,101.065z M287.227,94.73l-9.114,32.876h6.802l1.867-7.291h9.358l1.823,7.291h7.246
		l-8.913-32.876H287.227z M242.734,94.73v32.876h6.513v-25.363l6.09,25.363h6.558l6.424-25.363v25.363h6.69V94.73h-10.691
		l-5.513,22.362l-5.201-22.362H242.734z"/>
	<path style="clip-path:url(#SVGID_00000074425147938706020760000002513024821345909657_);" d="M407.384,56.498h1.468
		c2.089,0,3.452,0.333,4.09,1c0.637,0.667,0.955,1.816,0.955,3.446c0,1.645-0.322,2.838-0.967,3.578
		c-0.644,0.742-1.959,1.112-3.945,1.112h-1.601V56.498z M400.472,51.43v32.876h6.912V70.702h1.334c2.06,0,3.46,0.352,4.201,1.056
		c0.741,0.704,1.112,2.004,1.112,3.901v5.046c0,0.889,0.051,1.545,0.155,1.967c0.104,0.422,0.297,0.967,0.578,1.634h6.735
		c-0.148-0.445-0.255-1.03-0.322-1.756c-0.067-0.726-0.122-1.49-0.167-2.29l-0.333-5.646c-0.133-2.119-0.604-3.653-1.411-4.601
		c-0.808-0.948-2.294-1.571-4.457-1.867c2.03-0.385,3.53-1.23,4.501-2.534c0.97-1.304,1.456-3.127,1.456-5.468
		c0-2.964-0.726-5.157-2.178-6.58c-1.453-1.423-3.683-2.134-6.691-2.134H400.472z M378.608,51.43v32.876h18.294v-5.135h-11.426
		v-9.514h10.203v-5.068h-10.203v-8.091h11.07V51.43H378.608z M366.866,84.306h6.869V51.43h-6.869V84.306z M341.622,51.43v5.335
		h7.557v27.541h6.98V56.765h7.647V51.43H341.622z M314.111,51.43v32.876h6.38V60.277l9.002,24.029h9.025V51.43h-6.379v22.762
		l-8.781-22.762H314.111z M293.854,65.634c0-3.897,0.311-6.561,0.933-7.991c0.623-1.43,1.771-2.145,3.446-2.145
		c1.703,0,2.863,0.67,3.478,2.011c0.615,1.342,0.923,3.509,0.923,6.502v3.134c0,2.164-0.041,4.268-0.122,6.313
		c-0.082,2.045-0.423,3.65-1.023,4.813c-0.6,1.163-1.7,1.745-3.301,1.745c-1.141,0-2.019-0.341-2.634-1.023
		c-0.615-0.681-1.052-1.734-1.311-3.156c-0.26-1.423-0.389-3.898-0.389-7.425V65.634z M298.077,84.906
		c2.074,0,3.808-0.245,5.201-0.734c1.393-0.489,2.516-1.181,3.368-2.078c0.852-0.896,1.493-2.004,1.923-3.323
		c0.429-1.319,0.718-2.734,0.867-4.246c0.148-1.511,0.222-3.808,0.222-6.891c0-3.437-0.111-6.035-0.334-7.791
		c-0.222-1.756-0.685-3.341-1.389-4.756c-0.704-1.415-1.837-2.523-3.401-3.324c-1.563-0.8-3.678-1.2-6.346-1.2
		c-2.682,0-4.864,0.519-6.546,1.556c-1.682,1.038-2.901,2.675-3.657,4.913c-0.755,2.237-1.133,5.712-1.133,10.425
		c0,4.001,0.189,6.939,0.566,8.813c0.378,1.875,0.952,3.427,1.723,4.657c0.771,1.23,1.886,2.201,3.346,2.912
		C293.946,84.55,295.81,84.906,298.077,84.906 M269.739,56.498h1.467c2.089,0,3.452,0.333,4.09,1
		c0.637,0.667,0.956,1.816,0.956,3.446c0,1.645-0.323,2.838-0.967,3.578c-0.645,0.742-1.96,1.112-3.946,1.112h-1.6V56.498z
		 M262.826,51.43v32.876h6.913V70.702h1.333c2.06,0,3.46,0.352,4.202,1.056c0.74,0.704,1.111,2.004,1.111,3.901v5.046
		c0,0.889,0.052,1.545,0.156,1.967c0.103,0.422,0.296,0.967,0.578,1.634h6.735c-0.149-0.445-0.256-1.03-0.323-1.756
		c-0.066-0.726-0.122-1.49-0.166-2.29l-0.334-5.646c-0.133-2.119-0.604-3.653-1.411-4.601c-0.808-0.948-2.294-1.571-4.457-1.867
		c2.03-0.385,3.53-1.23,4.501-2.534c0.971-1.304,1.456-3.127,1.456-5.468c0-2.964-0.726-5.157-2.178-6.58
		c-1.453-1.423-3.683-2.134-6.691-2.134H262.826z M242.734,51.43v32.876h6.913V69.968h9.692v-5.045h-9.692v-8.425h10.158V51.43
		H242.734z"/>
	<path style="clip-path:url(#SVGID_00000074425147938706020760000002513024821345909657_);" d="M549.075,19.201
		c0.575,0.111,1.018,0.313,1.331,0.605c0.312,0.292,0.529,0.695,0.65,1.209c0.121,0.514,0.181,1.175,0.181,1.981v0.514
		c0,0.806-0.06,1.466-0.181,1.98c-0.121,0.514-0.338,0.912-0.65,1.195c-0.313,0.282-0.756,0.479-1.331,0.589
		c-0.574,0.111-1.315,0.166-2.222,0.166h-4.657v-8.405h4.657C547.76,19.035,548.5,19.09,549.075,19.201 M539.701,38.447
		c0.151,0.06,0.332,0.115,0.544,0.166c0.212,0.05,0.428,0.086,0.65,0.106c0.222,0.02,0.413,0.03,0.575,0.03
		c0.221,0,0.398-0.075,0.529-0.227c0.131-0.151,0.196-0.337,0.196-0.559v-8.104h4.536l4.596,8.074
		c0.08,0.161,0.212,0.297,0.393,0.408c0.181,0.11,0.378,0.196,0.59,0.257c0.211,0.06,0.428,0.101,0.65,0.121
		c0.221,0.02,0.413,0.03,0.574,0.03c0.141,0,0.318-0.03,0.529-0.091c0.212-0.06,0.318-0.191,0.318-0.393
		c0-0.201-0.091-0.443-0.272-0.725l-4.475-7.953c0.846-0.121,1.547-0.332,2.101-0.635c0.554-0.302,1.003-0.695,1.346-1.179
		c0.342-0.484,0.584-1.078,0.725-1.784c0.141-0.705,0.212-1.532,0.212-2.479v-0.514c0-1.21-0.121-2.223-0.363-3.039
		c-0.242-0.817-0.645-1.471-1.209-1.966c-0.565-0.493-1.316-0.846-2.253-1.058c-0.937-0.212-2.091-0.317-3.462-0.317h-6.501
		c-0.222,0-0.403,0.075-0.544,0.226c-0.142,0.152-0.212,0.338-0.212,0.56v20.803C539.474,38.306,539.55,38.386,539.701,38.447
		 M521.076,21.756c0.191-0.746,0.514-1.346,0.968-1.799c0.453-0.454,1.048-0.776,1.784-0.968c0.735-0.191,1.648-0.287,2.736-0.287
		h0.242c1.089,0,1.996,0.096,2.721,0.287c0.726,0.192,1.316,0.514,1.769,0.968c0.454,0.453,0.776,1.053,0.968,1.799
		c0.191,0.746,0.287,1.673,0.287,2.782v5.956c0,1.109-0.096,2.037-0.287,2.782c-0.192,0.746-0.514,1.346-0.968,1.799
		c-0.453,0.454-1.043,0.777-1.769,0.968c-0.725,0.192-1.632,0.287-2.721,0.287h-0.242c-1.088,0-2.001-0.095-2.736-0.287
		c-0.736-0.191-1.331-0.514-1.784-0.968c-0.454-0.453-0.777-1.053-0.968-1.799c-0.192-0.745-0.287-1.673-0.287-2.782v-5.956
		C520.789,23.429,520.883,22.502,521.076,21.756 M530.555,38.341c1.069-0.272,1.955-0.726,2.661-1.361s1.235-1.471,1.588-2.509
		c0.352-1.038,0.529-2.323,0.529-3.856v-6.198c0-1.532-0.177-2.817-0.529-3.855c-0.353-1.038-0.882-1.875-1.588-2.51
		c-0.706-0.635-1.592-1.089-2.661-1.361c-1.068-0.272-2.318-0.408-3.749-0.408h-0.242c-1.451,0-2.711,0.136-3.78,0.408
		c-1.068,0.272-1.955,0.726-2.66,1.361c-0.706,0.635-1.235,1.472-1.588,2.51c-0.353,1.038-0.529,2.323-0.529,3.855v6.198
		c0,1.533,0.176,2.818,0.529,3.856c0.353,1.038,0.882,1.874,1.588,2.509c0.705,0.635,1.592,1.089,2.66,1.361
		c1.069,0.272,2.329,0.408,3.78,0.408h0.242C528.237,38.749,529.487,38.613,530.555,38.341 M513.643,28.529
		c0.08,0,0.151-0.06,0.212-0.181c0.06-0.121,0.11-0.273,0.151-0.454c0.04-0.181,0.07-0.368,0.091-0.559
		c0.019-0.192,0.03-0.368,0.03-0.53c0-0.221-0.071-0.393-0.212-0.514c-0.141-0.121-0.302-0.181-0.484-0.181h-8.345v-7.045h9.918
		c0.08,0,0.151-0.061,0.211-0.182c0.061-0.121,0.111-0.272,0.152-0.453c0.04-0.182,0.07-0.373,0.09-0.575
		c0.02-0.201,0.031-0.382,0.031-0.544c0-0.222-0.071-0.388-0.212-0.499c-0.141-0.11-0.302-0.166-0.484-0.166h-11.43
		c-0.665,0-0.997,0.211-0.997,0.635v20.924c0,0.081,0.07,0.156,0.211,0.227c0.141,0.07,0.318,0.125,0.529,0.166
		c0.212,0.04,0.434,0.076,0.666,0.106c0.231,0.03,0.428,0.045,0.589,0.045c0.222,0,0.398-0.086,0.529-0.257
		c0.131-0.171,0.197-0.367,0.197-0.59v-9.373H513.643z M478.599,38.235c0.282,0.101,0.554,0.151,0.816,0.151h11.4
		c0.08,0,0.151-0.06,0.211-0.181c0.061-0.121,0.111-0.272,0.151-0.454c0.041-0.181,0.071-0.372,0.091-0.574
		c0.02-0.201,0.03-0.383,0.03-0.544c0-0.202-0.07-0.363-0.211-0.484c-0.141-0.121-0.303-0.182-0.484-0.182h-9.706v-7.438h8.98
		c0.081,0,0.152-0.06,0.212-0.181c0.06-0.121,0.116-0.273,0.166-0.454c0.05-0.181,0.086-0.373,0.106-0.575
		c0.02-0.201,0.03-0.372,0.03-0.514c0-0.221-0.071-0.393-0.211-0.514c-0.142-0.121-0.313-0.181-0.514-0.181h-8.769v-7.045h9.918
		c0.08,0,0.151-0.061,0.211-0.182c0.061-0.121,0.111-0.272,0.151-0.453c0.041-0.182,0.071-0.373,0.091-0.575
		c0.02-0.201,0.03-0.382,0.03-0.544c0-0.222-0.07-0.388-0.211-0.499c-0.141-0.11-0.303-0.166-0.484-0.166h-11.702
		c-0.484,0-0.725,0.262-0.725,0.786v20.41C478.177,38.004,478.316,38.134,478.599,38.235 M474.403,19.065
		c0.081,0,0.152-0.061,0.212-0.182s0.116-0.272,0.166-0.453c0.05-0.182,0.086-0.373,0.106-0.575c0.02-0.201,0.03-0.382,0.03-0.544
		c0-0.201-0.075-0.363-0.226-0.484c-0.152-0.121-0.328-0.181-0.53-0.181h-14.665c-0.101,0-0.181,0.065-0.241,0.196
		c-0.061,0.132-0.111,0.288-0.152,0.469c-0.04,0.181-0.07,0.373-0.09,0.575c-0.021,0.201-0.031,0.373-0.031,0.514
		c0,0.201,0.071,0.362,0.212,0.483c0.141,0.121,0.322,0.182,0.544,0.182h5.836v19.17c0,0.101,0.071,0.181,0.212,0.242
		c0.141,0.06,0.317,0.111,0.529,0.151c0.212,0.04,0.433,0.071,0.665,0.091c0.232,0.02,0.428,0.03,0.59,0.03
		c0.221,0,0.398-0.081,0.529-0.242c0.131-0.161,0.196-0.352,0.196-0.574V19.065H474.403z M452.715,33.352
		c-0.182,0.716-0.474,1.29-0.877,1.723c-0.404,0.434-0.928,0.752-1.573,0.953c-0.645,0.202-1.441,0.302-2.388,0.302h-0.242
		c-0.907,0-1.674-0.1-2.298-0.302c-0.625-0.201-1.134-0.519-1.527-0.953c-0.393-0.433-0.676-1.007-0.847-1.723
		c-0.171-0.716-0.257-1.588-0.257-2.616V17.16c0-0.222-0.066-0.423-0.196-0.605c-0.132-0.181-0.308-0.272-0.53-0.272
		c-0.161,0-0.358,0.015-0.589,0.045c-0.232,0.031-0.454,0.071-0.665,0.121c-0.212,0.051-0.389,0.116-0.53,0.197
		s-0.211,0.161-0.211,0.242v13.969c0,1.492,0.156,2.737,0.469,3.735c0.312,0.997,0.786,1.809,1.421,2.434s1.431,1.068,2.388,1.33
		c0.958,0.262,2.082,0.393,3.372,0.393h0.242c1.31,0,2.454-0.131,3.432-0.393c0.977-0.262,1.793-0.705,2.449-1.33
		c0.655-0.625,1.144-1.437,1.466-2.434c0.323-0.998,0.484-2.243,0.484-3.735V17.16c0-0.222-0.066-0.423-0.196-0.605
		c-0.132-0.181-0.308-0.272-0.53-0.272c-0.181,0-0.383,0.015-0.604,0.045c-0.222,0.031-0.439,0.071-0.65,0.121
		c-0.212,0.051-0.389,0.116-0.53,0.197s-0.211,0.161-0.211,0.242v13.848C452.987,31.764,452.896,32.636,452.715,33.352
		 M436.211,19.065c0.08,0,0.151-0.061,0.211-0.182c0.061-0.121,0.116-0.272,0.167-0.453c0.05-0.182,0.085-0.373,0.105-0.575
		c0.02-0.201,0.031-0.382,0.031-0.544c0-0.201-0.076-0.363-0.227-0.484s-0.328-0.181-0.529-0.181h-14.665
		c-0.101,0-0.182,0.065-0.242,0.196c-0.061,0.132-0.111,0.288-0.151,0.469c-0.041,0.181-0.071,0.373-0.091,0.575
		c-0.02,0.201-0.03,0.373-0.03,0.514c0,0.201,0.07,0.362,0.211,0.483c0.141,0.121,0.323,0.182,0.545,0.182h5.835v19.17
		c0,0.101,0.071,0.181,0.212,0.242c0.141,0.06,0.318,0.111,0.529,0.151c0.212,0.04,0.433,0.071,0.665,0.091
		c0.232,0.02,0.428,0.03,0.59,0.03c0.222,0,0.398-0.081,0.529-0.242c0.131-0.161,0.197-0.352,0.197-0.574V19.065H436.211z
		 M417.531,17.099c0-0.221-0.065-0.413-0.196-0.574c-0.131-0.161-0.308-0.242-0.529-0.242c-0.182,0-0.383,0.01-0.605,0.03
		c-0.222,0.021-0.438,0.056-0.65,0.106c-0.212,0.051-0.388,0.111-0.529,0.181c-0.141,0.071-0.212,0.147-0.212,0.227v21.408
		c0,0.101,0.071,0.181,0.212,0.242c0.141,0.06,0.317,0.111,0.529,0.151s0.428,0.071,0.65,0.091c0.222,0.02,0.423,0.03,0.605,0.03
		c0.221,0,0.398-0.081,0.529-0.242c0.131-0.161,0.196-0.352,0.196-0.574V17.099z M411.036,19.065c0.08,0,0.151-0.061,0.212-0.182
		c0.06-0.121,0.115-0.272,0.166-0.453c0.05-0.182,0.085-0.373,0.106-0.575c0.02-0.201,0.03-0.382,0.03-0.544
		c0-0.201-0.076-0.363-0.227-0.484s-0.328-0.181-0.529-0.181H396.13c-0.101,0-0.181,0.065-0.242,0.196
		c-0.06,0.132-0.111,0.288-0.151,0.469c-0.041,0.181-0.071,0.373-0.091,0.575c-0.02,0.201-0.03,0.373-0.03,0.514
		c0,0.201,0.07,0.362,0.212,0.483c0.14,0.121,0.322,0.182,0.544,0.182h5.836v19.17c0,0.101,0.07,0.181,0.211,0.242
		c0.141,0.06,0.318,0.111,0.53,0.151c0.211,0.04,0.433,0.071,0.665,0.091c0.231,0.02,0.428,0.03,0.589,0.03
		c0.222,0,0.398-0.081,0.53-0.242c0.13-0.161,0.196-0.352,0.196-0.574V19.065H411.036z M380.146,36.179
		c-0.111,0.323-0.186,0.685-0.227,1.088c-0.02,0.242-0.01,0.409,0.031,0.499c0.04,0.091,0.201,0.187,0.483,0.288
		c0.283,0.101,0.637,0.191,1.061,0.272c0.424,0.08,0.879,0.151,1.364,0.211c0.485,0.061,0.98,0.111,1.485,0.152
		c0.505,0.04,0.98,0.06,1.425,0.06c0.929,0,1.833-0.086,2.712-0.257s1.662-0.463,2.349-0.877c0.687-0.413,1.233-0.972,1.637-1.678
		c0.404-0.705,0.606-1.592,0.606-2.661c0-1.189-0.241-2.207-0.725-3.054c-0.484-0.846-1.094-1.587-1.83-2.222
		c-0.736-0.635-1.527-1.204-2.373-1.709c-0.847-0.503-1.638-0.997-2.374-1.481c-0.736-0.484-1.345-0.998-1.829-1.542
		c-0.484-0.545-0.726-1.189-0.726-1.935c0-0.504,0.116-0.933,0.348-1.286c0.231-0.352,0.549-0.639,0.952-0.861
		s0.882-0.383,1.437-0.484c0.554-0.101,1.153-0.151,1.799-0.151c0.766,0,1.471,0.05,2.116,0.151c0.645,0.101,1.26,0.212,1.845,0.333
		c0.262,0.04,0.468-0.066,0.62-0.318c0.151-0.252,0.246-0.579,0.287-0.983c0.04-0.242,0.025-0.418-0.045-0.529
		c-0.071-0.11-0.227-0.216-0.469-0.317c-0.302-0.121-0.68-0.217-1.134-0.288c-0.454-0.07-0.912-0.13-1.376-0.181
		c-0.464-0.05-0.907-0.085-1.33-0.106c-0.424-0.02-0.767-0.03-1.028-0.03c-0.948,0-1.83,0.096-2.646,0.287
		c-0.816,0.192-1.53,0.489-2.141,0.892c-0.612,0.404-1.09,0.928-1.436,1.573c-0.347,0.645-0.52,1.421-0.52,2.328
		c0,1.109,0.242,2.056,0.726,2.842c0.483,0.786,1.093,1.487,1.829,2.102c0.735,0.615,1.527,1.169,2.373,1.663
		c0.847,0.494,1.638,0.997,2.374,1.511c0.736,0.514,1.346,1.074,1.829,1.679c0.484,0.604,0.726,1.32,0.726,2.146
		c0,0.646-0.141,1.17-0.423,1.573c-0.283,0.403-0.65,0.725-1.104,0.967c-0.453,0.242-0.967,0.409-1.542,0.499
		c-0.574,0.091-1.144,0.136-1.708,0.136c-0.504,0-1.003-0.025-1.497-0.075c-0.494-0.05-0.953-0.116-1.376-0.197
		c-0.423-0.08-0.812-0.161-1.164-0.242c-0.353-0.08-0.63-0.151-0.831-0.211C380.444,35.715,380.258,35.857,380.146,36.179
		 M362.809,16.797c-0.101-0.141-0.211-0.262-0.332-0.363c-0.121-0.1-0.263-0.151-0.424-0.151c-0.181,0-0.378,0.01-0.589,0.03
		c-0.212,0.021-0.419,0.056-0.62,0.106c-0.202,0.051-0.368,0.111-0.499,0.181c-0.131,0.071-0.197,0.147-0.197,0.227v21.408
		c0,0.101,0.071,0.181,0.212,0.242c0.141,0.06,0.312,0.111,0.514,0.151c0.201,0.04,0.413,0.071,0.635,0.091
		c0.222,0.02,0.413,0.03,0.575,0.03c0.221,0,0.397-0.081,0.529-0.242c0.131-0.161,0.196-0.352,0.196-0.574v-16.54l10.855,16.872
		c0.061,0.081,0.167,0.151,0.318,0.212c0.151,0.06,0.327,0.111,0.529,0.151c0.201,0.04,0.403,0.071,0.605,0.091
		c0.201,0.02,0.373,0.03,0.514,0.03c0.201,0,0.367-0.075,0.499-0.227c0.131-0.151,0.196-0.337,0.196-0.559V17.13
		c0-0.242-0.045-0.444-0.136-0.605c-0.09-0.161-0.247-0.242-0.468-0.242c-0.182,0-0.394,0.01-0.635,0.03
		c-0.242,0.021-0.469,0.051-0.681,0.091c-0.211,0.041-0.388,0.091-0.529,0.151c-0.141,0.061-0.212,0.131-0.212,0.212V33.7
		L362.809,16.797z M355.659,17.099c0-0.221-0.066-0.413-0.197-0.574c-0.131-0.161-0.308-0.242-0.529-0.242
		c-0.182,0-0.383,0.01-0.605,0.03c-0.222,0.021-0.438,0.056-0.65,0.106c-0.212,0.051-0.388,0.111-0.529,0.181
		c-0.141,0.071-0.212,0.147-0.212,0.227v21.408c0,0.101,0.071,0.181,0.212,0.242c0.141,0.06,0.317,0.111,0.529,0.151
		c0.212,0.04,0.428,0.071,0.65,0.091c0.222,0.02,0.423,0.03,0.605,0.03c0.221,0,0.398-0.081,0.529-0.242
		c0.131-0.161,0.197-0.352,0.197-0.574V17.099z M327.66,16.797c-0.101-0.141-0.212-0.262-0.333-0.363
		c-0.121-0.1-0.262-0.151-0.423-0.151c-0.182,0-0.378,0.01-0.59,0.03c-0.212,0.021-0.419,0.056-0.62,0.106
		c-0.202,0.051-0.368,0.111-0.499,0.181c-0.131,0.071-0.196,0.147-0.196,0.227v21.408c0,0.101,0.07,0.181,0.211,0.242
		c0.141,0.06,0.313,0.111,0.514,0.151c0.202,0.04,0.413,0.071,0.635,0.091c0.222,0.02,0.413,0.03,0.575,0.03
		c0.222,0,0.398-0.081,0.529-0.242c0.131-0.161,0.197-0.352,0.197-0.574v-16.54l10.855,16.872c0.06,0.081,0.166,0.151,0.317,0.212
		c0.151,0.06,0.328,0.111,0.529,0.151c0.202,0.04,0.403,0.071,0.605,0.091c0.201,0.02,0.373,0.03,0.514,0.03
		c0.201,0,0.368-0.075,0.499-0.227c0.131-0.151,0.197-0.337,0.197-0.559V17.13c0-0.242-0.046-0.444-0.136-0.605
		c-0.091-0.161-0.248-0.242-0.469-0.242c-0.182,0-0.393,0.01-0.635,0.03c-0.242,0.021-0.469,0.051-0.68,0.091
		c-0.212,0.041-0.389,0.091-0.53,0.151c-0.141,0.061-0.211,0.131-0.211,0.212V33.7L327.66,16.797z M320.509,17.099
		c0-0.221-0.066-0.413-0.197-0.574c-0.131-0.161-0.307-0.242-0.529-0.242c-0.181,0-0.383,0.01-0.605,0.03
		c-0.222,0.021-0.438,0.056-0.65,0.106c-0.211,0.051-0.388,0.111-0.529,0.181c-0.141,0.071-0.211,0.147-0.211,0.227v21.408
		c0,0.101,0.07,0.181,0.211,0.242c0.141,0.06,0.318,0.111,0.529,0.151c0.212,0.04,0.428,0.071,0.65,0.091
		c0.222,0.02,0.424,0.03,0.605,0.03c0.222,0,0.398-0.081,0.529-0.242c0.131-0.161,0.197-0.352,0.197-0.574V17.099z M301.35,27.35
		l10.069,10.855c0.221,0.242,0.534,0.393,0.937,0.453c0.403,0.061,0.836,0.091,1.3,0.091c0.141,0,0.303-0.02,0.484-0.06
		c0.182-0.041,0.272-0.162,0.272-0.363c0-0.222-0.161-0.504-0.484-0.847l-9.706-10.432l8.86-9.494
		c0.342-0.363,0.514-0.645,0.514-0.847c0-0.201-0.091-0.322-0.272-0.363c-0.182-0.04-0.353-0.06-0.514-0.06
		c-0.444,0-0.873,0.03-1.285,0.091c-0.414,0.06-0.731,0.211-0.953,0.453l-9.222,9.948v-9.676c0-0.221-0.066-0.413-0.197-0.574
		c-0.131-0.161-0.307-0.242-0.529-0.242c-0.181,0-0.383,0.01-0.605,0.03c-0.222,0.021-0.438,0.056-0.65,0.106
		c-0.211,0.051-0.388,0.111-0.529,0.181c-0.141,0.071-0.212,0.147-0.212,0.227v21.408c0,0.101,0.071,0.181,0.212,0.242
		c0.141,0.06,0.318,0.111,0.529,0.151c0.212,0.04,0.428,0.071,0.65,0.091c0.222,0.02,0.424,0.03,0.605,0.03
		c0.222,0,0.398-0.081,0.529-0.242c0.131-0.161,0.197-0.352,0.197-0.574V27.35z M286.41,20.304c0.02-0.201,0.05-0.382,0.091-0.544
		c0,0.101,0.025,0.283,0.075,0.544c0.05,0.263,0.096,0.444,0.136,0.545l2.903,8.799h-6.259l2.933-8.799
		C286.35,20.688,286.391,20.506,286.41,20.304 M293.033,38.643c0.342,0.071,0.796,0.106,1.36,0.106c0.182,0,0.358-0.035,0.53-0.106
		c0.171-0.071,0.257-0.196,0.257-0.378c0-0.121-0.011-0.211-0.031-0.272l-7.257-21.136c-0.12-0.382-0.352-0.574-0.695-0.574
		c-0.383,0-0.801,0.035-1.255,0.106c-0.453,0.071-0.721,0.217-0.801,0.438l-7.287,21.166c-0.041,0.121-0.061,0.212-0.061,0.272
		c0,0.182,0.086,0.307,0.257,0.378c0.171,0.071,0.358,0.106,0.56,0.106c0.463,0,0.881-0.02,1.255-0.06
		c0.372-0.041,0.599-0.182,0.68-0.424l2.116-6.259h7.681l2.026,6.138C292.467,38.406,292.69,38.572,293.033,38.643 M262.031,38.235
		c0.282,0.101,0.554,0.151,0.816,0.151h11.4c0.08,0,0.151-0.06,0.211-0.181c0.061-0.121,0.111-0.272,0.151-0.454
		c0.041-0.181,0.071-0.372,0.091-0.574c0.02-0.201,0.03-0.383,0.03-0.544c0-0.202-0.07-0.363-0.211-0.484
		c-0.142-0.121-0.303-0.182-0.484-0.182h-9.706v-7.438h8.98c0.081,0,0.151-0.06,0.212-0.181c0.06-0.121,0.116-0.273,0.166-0.454
		c0.05-0.181,0.086-0.373,0.106-0.575c0.02-0.201,0.03-0.372,0.03-0.514c0-0.221-0.071-0.393-0.211-0.514
		c-0.142-0.121-0.313-0.181-0.514-0.181h-8.769v-7.045h9.918c0.08,0,0.151-0.061,0.211-0.182c0.061-0.121,0.111-0.272,0.151-0.453
		c0.041-0.182,0.071-0.373,0.091-0.575c0.02-0.201,0.03-0.382,0.03-0.544c0-0.222-0.07-0.388-0.211-0.499
		c-0.142-0.11-0.303-0.166-0.484-0.166h-11.702c-0.484,0-0.725,0.262-0.725,0.786v20.41
		C261.608,38.004,261.747,38.134,262.031,38.235 M251.672,19.352c0.726,0.212,1.315,0.559,1.769,1.043
		c0.453,0.484,0.776,1.114,0.967,1.89c0.192,0.776,0.288,1.719,0.288,2.827v4.778c0,1.108-0.096,2.051-0.288,2.827
		c-0.191,0.776-0.514,1.406-0.967,1.89c-0.454,0.483-1.043,0.831-1.769,1.043c-0.726,0.211-1.633,0.317-2.721,0.317h-4.143V19.035
		h4.143C250.038,19.035,250.946,19.14,251.672,19.352 M242.359,16.797c-0.181,0.121-0.272,0.323-0.272,0.605v20.44
		c0,0.162,0.136,0.292,0.408,0.393c0.272,0.101,0.549,0.151,0.832,0.151h5.624c1.451,0,2.711-0.136,3.779-0.408
		c1.069-0.272,1.955-0.726,2.661-1.361s1.23-1.471,1.572-2.509c0.343-1.038,0.515-2.323,0.515-3.856V24.78
		c0-1.532-0.172-2.817-0.515-3.856c-0.342-1.038-0.866-1.874-1.572-2.509c-0.706-0.635-1.592-1.094-2.661-1.376
		c-1.068-0.282-2.328-0.423-3.779-0.423h-5.987C242.742,16.616,242.54,16.676,242.359,16.797"/>
</g>
</svg>
