<?xml version="1.0" encoding="iso-8859-1"?>
<!-- Generator: Adobe Illustrator 29.5.1, SVG Export Plug-In . SVG Version: 9.03 Build 0)  -->
<svg version="1.1" id="Layer_1" xmlns="http://www.w3.org/2000/svg" xmlns:xlink="http://www.w3.org/1999/xlink" x="0px" y="0px"
	 viewBox="0 0 720 144" style="enable-background:new 0 0 720 144;" xml:space="preserve">
<g>
	<defs>
		<rect id="SVGID_1_" width="720" height="144"/>
	</defs>
	<clipPath id="SVGID_00000083049253154552453190000002668679170982107278_">
		<use xlink:href="#SVGID_1_"  style="overflow:visible;"/>
	</clipPath>
	<path style="clip-path:url(#SVGID_00000083049253154552453190000002668679170982107278_);fill:#FFFFFF;" d="M72.921,1.3
		C33.757,1.3,2.008,32.959,2.008,72.012s31.749,70.712,70.913,70.712s70.912-31.659,70.912-70.712S112.085,1.3,72.921,1.3"/>
	<path style="clip-path:url(#SVGID_00000083049253154552453190000002668679170982107278_);fill:#FFFFFF;" d="M72.921,2.98
		c38.175,0,69.233,30.968,69.233,69.032s-31.058,69.032-69.233,69.032S3.688,110.076,3.688,72.012S34.746,2.98,72.921,2.98"/>
</g>
<rect x="191.456" y="16.617" style="fill:#FFFFFF;" width="2" height="111.776"/>
<g>
	<defs>
		<rect id="SVGID_00000039833416324349243550000009272903677965674899_" width="720" height="144"/>
	</defs>
	<clipPath id="SVGID_00000091707857854738973430000006373761972811228333_">
		<use xlink:href="#SVGID_00000039833416324349243550000009272903677965674899_"  style="overflow:visible;"/>
	</clipPath>
	<path style="clip-path:url(#SVGID_00000091707857854738973430000006373761972811228333_);" d="M114.152,102.346v4.129
		c0,0.138-0.046,0.246-0.154,0.323c-0.093,0.077-0.216,0.123-0.37,0.123c-0.092,0-0.231,0-0.385-0.015
		c-0.154-0.015-0.323-0.031-0.478-0.046c-0.154-0.015-0.292-0.062-0.416-0.108c-0.107-0.046-0.169-0.108-0.169-0.169v-4.222
		l-3.605-7.041c-0.123-0.246-0.139-0.416-0.046-0.523c0.092-0.108,0.262-0.17,0.508-0.17c0.154,0,0.308,0,0.478,0.015
		c0.154,0,0.308,0.016,0.446,0.047c0.139,0.015,0.262,0.046,0.355,0.077c0.092,0.031,0.169,0.077,0.2,0.154l2.65,5.408l2.65-5.393
		c0.031-0.061,0.092-0.123,0.2-0.154c0.093-0.031,0.216-0.061,0.355-0.092c0.138-0.016,0.292-0.031,0.446-0.047
		c0.154,0,0.324-0.015,0.478-0.015c0.246,0,0.416,0.046,0.508,0.154c0.077,0.108,0.062,0.277-0.061,0.539L114.152,102.346z
		 M103.615,96.584v9.891c0,0.138-0.046,0.246-0.154,0.323c-0.108,0.077-0.216,0.123-0.354,0.123c-0.093,0-0.231,0-0.401-0.015
		c-0.17-0.015-0.339-0.031-0.493-0.046s-0.293-0.062-0.401-0.108c-0.123-0.046-0.169-0.108-0.169-0.169v-9.984h-3.051
		c-0.123,0-0.215-0.046-0.308-0.139c-0.077-0.092-0.123-0.2-0.123-0.338c0-0.093,0-0.201,0.015-0.355
		c0.016-0.138,0.031-0.292,0.047-0.431c0.015-0.139,0.061-0.262,0.092-0.37c0.046-0.092,0.093-0.154,0.17-0.154h8.165
		c0.123,0,0.216,0.046,0.308,0.139c0.077,0.092,0.123,0.215,0.123,0.339c0,0.092,0,0.2-0.015,0.354s-0.031,0.293-0.046,0.431
		c-0.016,0.139-0.046,0.262-0.093,0.355c-0.046,0.092-0.092,0.154-0.169,0.154H103.615z M96.497,106.475
		c0,0.138-0.046,0.246-0.154,0.323c-0.092,0.077-0.216,0.123-0.37,0.123c-0.092,0-0.231,0-0.4-0.015
		c-0.17-0.015-0.324-0.031-0.493-0.046c-0.154-0.015-0.293-0.062-0.416-0.108c-0.108-0.046-0.17-0.108-0.17-0.169V94.981
		c0-0.061,0.062-0.123,0.17-0.169c0.123-0.046,0.262-0.092,0.416-0.108c0.154-0.015,0.323-0.046,0.493-0.046
		c0.169-0.016,0.292-0.016,0.4-0.016c0.139,0,0.262,0.047,0.37,0.139c0.092,0.093,0.154,0.2,0.154,0.324V106.475z M85.389,104.888
		c0.092,0.015,0.216,0.061,0.401,0.092c0.185,0.047,0.385,0.093,0.631,0.139c0.231,0.046,0.493,0.077,0.786,0.123
		c0.277,0.031,0.57,0.046,0.847,0.046c0.309,0,0.601-0.03,0.878-0.077c0.278-0.046,0.54-0.138,0.755-0.246
		c0.216-0.123,0.401-0.277,0.524-0.462c0.139-0.201,0.201-0.432,0.201-0.724c0-0.401-0.124-0.74-0.386-1.017
		c-0.261-0.278-0.585-0.539-0.97-0.786c-0.385-0.246-0.817-0.493-1.279-0.739c-0.462-0.247-0.878-0.54-1.279-0.863
		c-0.4-0.324-0.724-0.709-0.97-1.156c-0.262-0.447-0.385-0.986-0.385-1.633c0-0.539,0.092-1.001,0.292-1.371
		c0.2-0.37,0.463-0.678,0.801-0.924c0.339-0.232,0.755-0.416,1.218-0.524c0.477-0.108,1.001-0.17,1.571-0.17
		c0.123,0,0.308,0,0.555,0.016c0.246,0.015,0.508,0.03,0.785,0.061c0.278,0.031,0.555,0.062,0.817,0.108
		c0.277,0.046,0.493,0.108,0.647,0.185c0.154,0.062,0.247,0.139,0.277,0.216c0.031,0.077,0.031,0.2,0.016,0.385
		c-0.016,0.293-0.077,0.524-0.185,0.724c-0.093,0.2-0.231,0.277-0.416,0.246c-0.278-0.061-0.586-0.107-0.94-0.169
		c-0.354-0.046-0.755-0.077-1.186-0.077c-0.678,0-1.248,0.108-1.68,0.293c-0.431,0.2-0.647,0.523-0.647,0.986
		c0,0.369,0.124,0.678,0.386,0.939c0.261,0.263,0.585,0.509,0.97,0.74s0.817,0.478,1.279,0.724c0.462,0.247,0.878,0.539,1.279,0.878
		c0.385,0.339,0.724,0.74,0.97,1.202c0.262,0.462,0.385,1.048,0.385,1.71c0,0.632-0.123,1.156-0.354,1.556
		c-0.231,0.416-0.555,0.724-0.94,0.955c-0.385,0.232-0.847,0.386-1.356,0.478c-0.508,0.093-1.047,0.139-1.602,0.139
		c-0.246,0-0.524-0.016-0.801-0.031s-0.539-0.046-0.817-0.077c-0.261-0.031-0.508-0.077-0.754-0.123
		c-0.232-0.047-0.432-0.093-0.601-0.154c-0.17-0.062-0.262-0.124-0.293-0.185c-0.031-0.077-0.046-0.201-0.015-0.37
		c0.03-0.324,0.092-0.601,0.184-0.817C85.112,104.949,85.234,104.842,85.389,104.888 M79.057,96.568H76.76v3.991h2.296
		c0.447,0,0.816-0.031,1.078-0.077c0.278-0.047,0.478-0.139,0.632-0.278c0.154-0.138,0.247-0.308,0.293-0.539
		s0.077-0.539,0.077-0.909v-0.37c0-0.369-0.031-0.678-0.077-0.924c-0.046-0.231-0.154-0.416-0.293-0.555
		c-0.154-0.138-0.354-0.215-0.632-0.277C79.857,96.599,79.504,96.568,79.057,96.568 M74.773,106.567V95.228
		c0-0.123,0.046-0.216,0.154-0.308c0.108-0.077,0.216-0.123,0.37-0.123h3.651c0.755,0,1.402,0.061,1.941,0.169
		c0.539,0.108,0.971,0.308,1.31,0.585c0.339,0.278,0.585,0.648,0.739,1.11c0.155,0.462,0.231,1.032,0.231,1.741v0.37
		c0,0.523-0.046,0.97-0.123,1.355s-0.216,0.724-0.385,1.002c-0.169,0.277-0.416,0.493-0.709,0.662
		c-0.292,0.17-0.647,0.293-1.047,0.385l2.295,3.975c0.124,0.216,0.185,0.37,0.185,0.478c0,0.061-0.031,0.123-0.077,0.169
		c-0.061,0.047-0.123,0.077-0.185,0.093c-0.061,0.015-0.138,0.03-0.2,0.046c-0.077,0-0.123,0.015-0.154,0.015
		c-0.093,0-0.231,0-0.385-0.015c-0.154-0.016-0.308-0.031-0.462-0.062c-0.154-0.03-0.309-0.061-0.432-0.123
		c-0.123-0.062-0.216-0.139-0.277-0.231l-2.434-4.16h-2.034v4.16c0,0.139-0.046,0.231-0.154,0.308
		c-0.093,0.077-0.216,0.123-0.354,0.123c-0.093,0-0.232,0-0.401-0.015c-0.17-0.016-0.324-0.031-0.493-0.046
		c-0.154-0.016-0.293-0.062-0.416-0.108C74.836,106.69,74.773,106.644,74.773,106.567 M65.068,106.382V95.228
		c0-0.139,0.046-0.247,0.154-0.324c0.092-0.077,0.216-0.107,0.37-0.107h6.64c0.123,0,0.231,0.046,0.308,0.154
		c0.077,0.092,0.123,0.215,0.123,0.339c0,0.092,0,0.2-0.015,0.354c-0.016,0.154-0.031,0.293-0.046,0.431
		c-0.016,0.139-0.062,0.262-0.093,0.355c-0.046,0.092-0.108,0.154-0.169,0.154h-5.269v3.204h4.514c0.108,0,0.2,0.047,0.292,0.139
		c0.078,0.092,0.124,0.2,0.124,0.323c0,0.093,0,0.201-0.016,0.355c-0.015,0.154-0.03,0.292-0.046,0.431
		c-0.015,0.139-0.062,0.262-0.092,0.37c-0.047,0.092-0.093,0.154-0.17,0.154h-4.622v3.389h5.161c0.124,0,0.232,0.047,0.309,0.139
		c0.077,0.093,0.123,0.2,0.123,0.339c0,0.092,0,0.2-0.016,0.354c-0.015,0.139-0.03,0.293-0.046,0.432
		c-0.015,0.138-0.061,0.262-0.092,0.37c-0.046,0.107-0.108,0.154-0.17,0.154h-6.501c-0.154,0-0.324-0.031-0.493-0.108
		C65.145,106.536,65.068,106.459,65.068,106.382 M58.998,103.547l2.496-8.581c0.154-0.154,0.339-0.246,0.539-0.293
		c0.2-0.031,0.431-0.061,0.709-0.061c0.107,0,0.231,0,0.338,0.015c0.124,0.015,0.216,0.031,0.293,0.077
		c0.077,0.046,0.139,0.093,0.185,0.17c0.046,0.077,0.031,0.169,0,0.308l-3.836,11.478c-0.016,0.092-0.077,0.154-0.17,0.2
		c-0.092,0.046-0.185,0.061-0.292,0.061c-0.37,0-0.678-0.015-0.925-0.061c-0.246-0.046-0.4-0.108-0.462-0.185l-3.821-11.493
		c-0.031-0.108-0.031-0.201,0-0.278c0.031-0.077,0.077-0.123,0.154-0.169c0.062-0.046,0.139-0.077,0.231-0.093
		c0.077-0.015,0.154-0.03,0.201-0.03c0.169,0,0.339,0,0.508,0.015c0.17,0.015,0.324,0.031,0.478,0.062
		c0.138,0.031,0.262,0.077,0.369,0.123c0.093,0.062,0.17,0.123,0.201,0.216l2.557,8.504c0.046,0.139,0.077,0.277,0.093,0.416
		c0.015,0.154,0.031,0.277,0.061,0.401c0.016-0.124,0.031-0.262,0.046-0.401C58.921,103.809,58.951,103.671,58.998,103.547
		 M52.589,106.475c0,0.138-0.047,0.246-0.154,0.323c-0.093,0.077-0.216,0.123-0.37,0.123c-0.093,0-0.231,0-0.401-0.015
		c-0.169-0.015-0.323-0.031-0.493-0.046c-0.154-0.015-0.293-0.062-0.416-0.108s-0.169-0.108-0.169-0.169V94.981
		c0-0.061,0.061-0.123,0.169-0.169c0.123-0.046,0.247-0.092,0.416-0.108c0.154-0.015,0.324-0.046,0.493-0.046
		c0.17-0.016,0.293-0.016,0.401-0.016c0.138,0,0.262,0.047,0.37,0.139c0.092,0.093,0.154,0.2,0.154,0.324V106.475z M46.518,103.239
		V94.92c0-0.062,0.062-0.123,0.185-0.154c0.124-0.046,0.262-0.077,0.432-0.093c0.169-0.015,0.339-0.031,0.508-0.046
		c0.17-0.015,0.308-0.015,0.401-0.015c0.292,0,0.431,0.169,0.431,0.493v11.37c0,0.138-0.046,0.231-0.154,0.308
		c-0.108,0.077-0.216,0.123-0.339,0.123c-0.092,0-0.2,0-0.354-0.015c-0.154-0.016-0.293-0.016-0.447-0.046
		c-0.154-0.031-0.278-0.062-0.401-0.093c-0.123-0.046-0.2-0.092-0.246-0.154l-5.377-8.273v8.15c0,0.138-0.046,0.246-0.154,0.323
		c-0.092,0.077-0.216,0.123-0.355,0.123c-0.092,0-0.231,0-0.4-0.015c-0.17-0.015-0.339-0.031-0.493-0.046s-0.293-0.062-0.401-0.108
		c-0.123-0.046-0.169-0.108-0.169-0.169V94.981c0-0.061,0.061-0.123,0.169-0.169c0.124-0.046,0.247-0.092,0.401-0.108
		c0.154-0.015,0.308-0.031,0.477-0.046c0.17-0.016,0.293-0.016,0.401-0.016c0.123,0,0.231,0.031,0.308,0.108
		c0.077,0.077,0.154,0.154,0.201,0.247L46.518,103.239z M35.056,102.5v-7.488c0-0.061,0.062-0.123,0.169-0.169
		c0.124-0.046,0.262-0.093,0.416-0.123c0.17-0.031,0.339-0.062,0.493-0.078c0.17-0.015,0.293-0.03,0.401-0.03
		c0.139,0,0.262,0.046,0.354,0.154c0.093,0.108,0.139,0.215,0.139,0.339v7.487c0,0.817-0.092,1.495-0.277,2.049
		c-0.185,0.555-0.447,0.986-0.817,1.341c-0.37,0.339-0.832,0.585-1.386,0.724c-0.555,0.139-1.218,0.215-1.957,0.215h-0.139
		c-0.724,0-1.371-0.076-1.91-0.215c-0.555-0.139-1.002-0.385-1.371-0.724c-0.37-0.339-0.632-0.786-0.817-1.341
		c-0.185-0.539-0.277-1.232-0.277-2.049v-7.58c0-0.061,0.061-0.123,0.169-0.169c0.124-0.046,0.247-0.093,0.416-0.123
		c0.154-0.031,0.324-0.062,0.493-0.078c0.17-0.015,0.308-0.03,0.401-0.03c0.138,0,0.246,0.046,0.354,0.154
		c0.093,0.108,0.154,0.215,0.154,0.339v7.379c0,0.478,0.031,0.879,0.108,1.218c0.077,0.338,0.2,0.616,0.385,0.816
		c0.185,0.216,0.432,0.37,0.74,0.462c0.308,0.093,0.693,0.154,1.155,0.154h0.139c0.478,0,0.863-0.046,1.186-0.154
		c0.308-0.108,0.57-0.262,0.755-0.462c0.185-0.216,0.324-0.478,0.401-0.816C35.025,103.378,35.056,102.978,35.056,102.5
		 M106.742,75.538v14.313h-3.944V67.989h5.5l5.285,13.466V67.989h4.006v21.862h-5.023L106.742,75.538z M95.419,67.989h4.437v21.862
		h-4.437V67.989z M78.395,67.989h4.56v9.506l5.685-9.506h4.76L87.084,78.05L93.4,89.867h-5.284l-5.161-10.631v10.631h-4.56V67.989z
		 M70.967,84.998H64.62l-1.156,4.869h-4.575l6.162-21.878h5.824l6.07,21.878h-4.791L70.967,84.998z M70.06,81.193l-2.188-9.044
		l-2.296,9.044H70.06z M45.625,67.989h11.817v3.713h-7.195v4.668h6.625v3.806h-6.625v5.823h7.21v3.852H45.625V67.989z
		 M35.595,67.989c5.839,0,7.642,3.097,7.642,10.939s-1.818,10.939-7.657,10.939h-7.488V67.989H35.595z M32.683,86.092h2.08
		c3.405,0,3.836-2.003,3.836-7.241c0-5.223-0.431-7.226-3.836-7.226h-2.08V86.092z M81.507,51.366l-9.938-17.24l1.31-2.203
		l11.154,19.443H81.507z M76.808,51.366l-7.611-13.142l1.279-2.157l8.766,15.299H76.808z M72.032,51.366l-5.223-9.013l1.325-2.234
		l6.424,11.231h-2.526V51.366z M67.225,51.366l-2.804-4.869l1.325-2.234l4.052,7.103H67.225z M61.601,51.366l1.71-2.928l1.711,2.928
		H61.601z M59.429,29.889v18.365c0,7.41,6.009,13.419,13.419,13.419c7.411,0,13.419-6.009,13.419-13.419V29.889H59.429z"/>
	<path style="clip-path:url(#SVGID_00000091707857854738973430000006373761972811228333_);fill:#FFFFFF;" d="M464.049,108.842
		v18.948h2.229v-16.821l5.278,16.821h2.255l5.355-16.821v16.821h2.306v-18.948h-3.856l-4.855,15.899l-4.804-15.899H464.049z
		 M456.292,121.23h-6.136l3.036-10.159L456.292,121.23z M451.731,108.842l-6.008,18.948h2.46l1.396-4.51h7.315l1.371,4.51h2.703
		l-6.175-18.948H451.731z M437.715,110.943c0.871,0,1.544,0.241,2.018,0.724c0.474,0.482,0.711,1.215,0.711,2.197
		c0,1.008-0.261,1.787-0.782,2.338c-0.521,0.551-1.345,0.826-2.472,0.826h-2.947v-6.085H437.715z M431.809,108.842v18.948h2.434
		v-8.712h2.05c1.102,0,1.866,0.094,2.293,0.282c0.427,0.188,0.754,0.493,0.98,0.916c0.226,0.423,0.37,1.031,0.429,1.825l0.103,1.474
		l0.102,2.062c0.017,0.351,0.064,0.714,0.141,1.089c0.077,0.376,0.18,0.73,0.308,1.064h2.524c-0.402-1.691-0.613-3.327-0.635-4.907
		c-0.021-1.58-0.239-2.75-0.653-3.51s-1.228-1.243-2.44-1.448c1.11-0.213,1.964-0.705,2.562-1.473
		c0.597-0.769,0.897-1.738,0.897-2.908c0-1.435-0.408-2.577-1.224-3.427c-0.816-0.85-1.885-1.275-3.209-1.275H431.809z
		 M426.512,109.745c-0.808-0.858-2.223-1.287-4.247-1.287c-1.495,0-2.699,0.243-3.613,0.73s-1.604,1.266-2.069,2.338
		c-0.466,1.072-0.698,2.838-0.698,5.297v2.652c0,3.348,0.497,5.633,1.492,6.854c0.995,1.222,2.607,1.832,4.836,1.832
		c1.931,0,3.741-0.465,5.432-1.396v-9.211h-5.906v2.152h3.459v5.611c-0.41,0.308-0.867,0.521-1.37,0.641
		c-0.504,0.119-1.008,0.179-1.512,0.179c-1.426,0-2.439-0.404-3.036-1.211c-0.598-0.807-0.897-2.256-0.897-4.349v-4.33
		c0-2.298,0.263-3.839,0.788-4.625c0.525-0.786,1.514-1.179,2.966-1.179c1.05,0,1.823,0.289,2.318,0.865
		c0.496,0.577,0.743,1.446,0.743,2.607h2.524v-0.269C427.722,111.904,427.319,110.604,426.512,109.745 M402.692,115.171
		c0-1.657,0.269-2.859,0.807-3.607c0.538-0.747,1.426-1.121,2.665-1.121c1.255,0,2.154,0.408,2.696,1.224
		c0.543,0.816,0.814,2.052,0.814,3.709v4.496c0,1.845-0.092,3.148-0.276,3.908c-0.183,0.76-0.527,1.33-1.031,1.71
		c-0.504,0.38-1.247,0.57-2.229,0.57c-1.247,0-2.133-0.391-2.658-1.172c-0.526-0.782-0.788-2.133-0.788-4.055V115.171z
		 M410.705,110.149c-0.961-1.187-2.475-1.781-4.541-1.781c-2.067,0-3.573,0.562-4.516,1.685c-0.944,1.123-1.416,3.047-1.416,5.771
		v4.932c0,2.52,0.463,4.375,1.39,5.567c0.927,1.191,2.393,1.787,4.401,1.787c2.16,0,3.721-0.591,4.682-1.774
		s1.441-3.321,1.441-6.412v-3.549C412.146,113.411,411.666,111.336,410.705,110.149 M391.579,110.943
		c0.871,0,1.544,0.241,2.018,0.724c0.474,0.482,0.711,1.215,0.711,2.197c0,1.008-0.261,1.787-0.782,2.338
		c-0.521,0.551-1.345,0.826-2.472,0.826h-2.947v-6.085H391.579z M385.673,108.842v18.948h2.434v-8.712h2.05
		c1.102,0,1.866,0.094,2.293,0.282c0.427,0.188,0.754,0.493,0.98,0.916c0.226,0.423,0.369,1.031,0.429,1.825l0.103,1.474
		l0.102,2.062c0.017,0.351,0.064,0.714,0.141,1.089c0.077,0.376,0.18,0.73,0.308,1.064h2.523c-0.401-1.691-0.612-3.327-0.634-4.907
		c-0.021-1.58-0.239-2.75-0.653-3.51s-1.228-1.243-2.441-1.448c1.111-0.213,1.965-0.705,2.563-1.473
		c0.597-0.769,0.896-1.738,0.896-2.908c0-1.435-0.407-2.577-1.223-3.427c-0.816-0.85-1.885-1.275-3.209-1.275H385.673z
		 M373.791,110.943h2.831c1.085,0,1.886,0.263,2.402,0.788c0.517,0.525,0.775,1.296,0.775,2.312c0,1.205-0.309,2.056-0.928,2.556
		c-0.62,0.5-1.57,0.75-2.851,0.75h-2.229V110.943z M371.37,108.842v18.948h2.421v-8.34h2.831c1.802,0,3.184-0.434,4.145-1.301
		c0.96-0.867,1.441-2.192,1.441-3.978c0-1.836-0.438-3.183-1.313-4.041c-0.876-0.859-2.24-1.288-4.093-1.288H371.37z
		 M348.124,108.842v18.948h2.178v-16.424l7.533,16.424h3.279v-18.948h-2.152v16.219l-7.456-16.219H348.124z M334.654,115.171
		c0-1.657,0.269-2.859,0.807-3.607c0.538-0.747,1.426-1.121,2.664-1.121c1.256,0,2.155,0.408,2.697,1.224
		c0.542,0.816,0.814,2.052,0.814,3.709v4.496c0,1.845-0.092,3.148-0.276,3.908c-0.184,0.76-0.527,1.33-1.031,1.71
		c-0.504,0.38-1.247,0.57-2.229,0.57c-1.247,0-2.133-0.391-2.658-1.172c-0.526-0.782-0.788-2.133-0.788-4.055V115.171z
		 M342.667,110.149c-0.961-1.187-2.475-1.781-4.542-1.781c-2.067,0-3.572,0.562-4.515,1.685c-0.944,1.123-1.416,3.047-1.416,5.771
		v4.932c0,2.52,0.463,4.375,1.39,5.567c0.927,1.191,2.393,1.787,4.401,1.787c2.16,0,3.721-0.591,4.682-1.774
		s1.441-3.321,1.441-6.412v-3.549C344.108,113.411,343.628,111.336,342.667,110.149 M325.617,127.79h2.447v-18.948h-2.447V127.79z
		 M310.068,108.842v2.101h4.958v16.847h2.434v-16.847h4.984v-2.101H310.068z M304.456,127.79h2.447v-18.948h-2.447V127.79z
		 M295.445,110.943c0.871,0,1.543,0.241,2.017,0.724c0.474,0.482,0.711,1.215,0.711,2.197c0,1.008-0.26,1.787-0.781,2.338
		c-0.521,0.551-1.345,0.826-2.473,0.826h-2.946v-6.085H295.445z M289.539,108.842v18.948h2.434v-8.712h2.05
		c1.101,0,1.866,0.094,2.293,0.282c0.427,0.188,0.753,0.493,0.98,0.916c0.226,0.423,0.369,1.031,0.429,1.825l0.102,1.474
		l0.103,2.062c0.017,0.351,0.064,0.714,0.141,1.089c0.077,0.376,0.179,0.73,0.307,1.064h2.524c-0.401-1.691-0.613-3.327-0.634-4.907
		c-0.021-1.58-0.239-2.75-0.653-3.51c-0.415-0.76-1.228-1.243-2.441-1.448c1.11-0.213,1.964-0.705,2.562-1.473
		c0.598-0.769,0.897-1.738,0.897-2.908c0-1.435-0.408-2.577-1.223-3.427c-0.816-0.85-1.886-1.275-3.21-1.275H289.539z
		 M274.161,108.842v2.101h4.958v16.847h2.434v-16.847h4.983v-2.101H274.161z M259.408,108.842v13.259
		c0,1.939,0.506,3.434,1.519,4.484c1.012,1.051,2.457,1.576,4.336,1.576c1.99,0,3.465-0.553,4.426-1.659
		c0.961-1.106,1.442-2.756,1.442-4.951v-12.709h-2.358v12.914c0,1.452-0.275,2.536-0.826,3.254
		c-0.551,0.717-1.437,1.076-2.658,1.076c-1.145,0-2.01-0.348-2.595-1.044s-0.877-1.698-0.877-3.005v-13.195H259.408z
		 M242.255,108.842v18.948h2.178v-16.424l7.533,16.424h3.279v-18.948h-2.152v16.219l-7.456-16.219H242.255z"/>
	<path style="clip-path:url(#SVGID_00000091707857854738973430000006373761972811228333_);fill:#FFFFFF;" d="M593.637,94.779
		c-0.436,0.641-0.965,1.128-1.589,1.461c-0.623,0.333-1.345,0.499-2.165,0.499c-1.196,0-2.159-0.341-2.889-1.025
		c-0.73-0.683-1.095-1.584-1.095-2.703c0-0.828,0.237-1.548,0.711-2.158c0.474-0.611,1.257-1.271,2.351-1.98L593.637,94.779z
		 M588.141,84.473c-0.359-0.594-0.538-1.13-0.538-1.608c0-0.598,0.19-1.068,0.57-1.409c0.38-0.342,0.89-0.513,1.531-0.513
		c0.657,0,1.163,0.167,1.518,0.5c0.354,0.333,0.531,0.79,0.531,1.371c0,0.563-0.179,1.144-0.538,1.742
		c-0.358,0.598-0.879,1.187-1.563,1.768C589.003,85.683,588.5,85.066,588.141,84.473 M593.438,85.203
		c0.466-0.798,0.698-1.612,0.698-2.441c0-1.195-0.382-2.103-1.146-2.722c-0.765-0.619-1.851-0.929-3.261-0.929
		c-1.435,0-2.555,0.31-3.363,0.929c-0.807,0.619-1.21,1.497-1.21,2.633c0,0.717,0.224,1.51,0.672,2.376
		c0.449,0.867,1.049,1.677,1.8,2.428c-1.46,0.828-2.517,1.67-3.17,2.524c-0.654,0.854-0.98,1.913-0.98,3.177
		c0,1.708,0.561,3.053,1.684,4.035c1.123,0.983,2.646,1.474,4.567,1.474c1.162,0,2.135-0.176,2.921-0.526
		c0.786-0.35,1.542-0.956,2.268-1.819l1.524,1.948h2.729l-3.036-4.062c0.359-0.623,0.621-1.383,0.788-2.28
		c0.166-0.897,0.25-1.87,0.25-2.921v-1.883h-1.986c0.017,0.077,0.025,0.184,0.025,0.32v0.987c0,0.717-0.036,1.439-0.108,2.165
		c-0.073,0.726-0.186,1.358-0.34,1.896l-3.702-4.689C592.18,86.875,592.973,86.002,593.438,85.203 M563.691,79.342l5.124,11.286
		v7.662h2.383v-7.61l5.201-11.338h-2.472l-3.805,9.16l-3.728-9.16H563.691z M559.543,91.73h-6.137l3.037-10.159L559.543,91.73z
		 M554.982,79.342l-6.008,18.948h2.46l1.396-4.51h7.315l1.371,4.51h2.703l-6.175-18.948H554.982z M537.57,79.342V98.29h9.339v-2.102
		h-6.931V79.342H537.57z M525.663,81.443h2.831c1.085,0,1.885,0.263,2.402,0.788c0.517,0.525,0.775,1.296,0.775,2.312
		c0,1.204-0.31,2.056-0.929,2.556s-1.569,0.749-2.85,0.749h-2.229V81.443z M523.241,79.342V98.29h2.422v-8.341h2.831
		c1.802,0,3.184-0.433,4.144-1.3c0.961-0.867,1.442-2.193,1.442-3.978c0-1.836-0.438-3.183-1.314-4.042
		c-0.875-0.858-2.239-1.287-4.093-1.287H523.241z M504.249,79.342V98.29h9.941v-2.102h-7.533v-6.584h6.829v-2.076h-6.829v-6.085
		h7.354v-2.101H504.249z M487.349,79.342l5.483,18.948h2.883l5.534-18.948h-2.46l-4.471,16.667l-4.356-16.667H487.349z
		 M481.749,98.29h2.447V79.342h-2.447V98.29z M466.2,79.342v2.101h4.958V98.29h2.434V81.443h4.984v-2.101H466.2z M462.402,80.386
		c-0.82-0.833-2.088-1.249-3.805-1.249c-2.152,0-3.702,0.57-4.65,1.71s-1.422,3-1.422,5.579v3.998c0,3.108,0.474,5.246,1.422,6.411
		c0.948,1.166,2.357,1.749,4.227,1.749c1.888,0,3.308-0.467,4.26-1.403c0.952-0.935,1.429-2.368,1.429-4.298v-0.346h-2.486
		c-0.017,1.333-0.29,2.328-0.82,2.985c-0.529,0.658-1.306,0.987-2.331,0.987c-1.145,0-1.969-0.412-2.473-1.237
		c-0.504-0.824-0.756-2.239-0.756-4.246v-4.6c0-2.118,0.282-3.52,0.846-4.208c0.563-0.687,1.409-1.031,2.536-1.031
		c0.991,0,1.693,0.258,2.108,0.775c0.414,0.517,0.621,1.343,0.621,2.479v0.282h2.524v-0.5
		C463.632,82.498,463.222,81.219,462.402,80.386 M445.668,91.73h-6.137l3.036-10.159L445.668,91.73z M441.107,79.342l-6.008,18.948
		h2.459l1.397-4.51h7.315l1.371,4.51h2.703l-6.175-18.948H441.107z M425.561,95.561l-1.358,6.085h1.678l2.383-6.085H425.561z
		 M420.057,80.245c-0.807-0.858-2.223-1.287-4.247-1.287c-1.495,0-2.699,0.243-3.613,0.73c-0.914,0.487-1.603,1.266-2.069,2.338
		c-0.465,1.072-0.698,2.838-0.698,5.297v2.652c0,3.348,0.497,5.633,1.492,6.854c0.995,1.221,2.608,1.832,4.837,1.832
		c1.93,0,3.74-0.465,5.432-1.396v-9.212h-5.906v2.153h3.459v5.611c-0.41,0.307-0.867,0.521-1.371,0.641
		c-0.504,0.119-1.008,0.179-1.512,0.179c-1.426,0-2.438-0.404-3.036-1.211c-0.598-0.807-0.897-2.257-0.897-4.349v-4.33
		c0-2.298,0.263-3.839,0.788-4.625s1.514-1.179,2.966-1.179c1.05,0,1.823,0.289,2.319,0.865c0.495,0.577,0.743,1.446,0.743,2.607
		h2.523v-0.269C421.267,82.404,420.864,81.103,420.057,80.245 M392.511,79.342V98.29h2.178V81.866l7.533,16.424h3.28V79.342h-2.152
		v16.219l-7.456-16.219H392.511z M385.75,98.29h2.447V79.342h-2.447V98.29z M372.363,96.188V81.443h2.703
		c1.162,0,2.042,0.203,2.64,0.608c0.597,0.406,1.007,1.079,1.229,2.018c0.222,0.94,0.333,2.434,0.333,4.484
		c0,2.451-0.13,4.132-0.39,5.041c-0.261,0.91-0.711,1.57-1.352,1.98c-0.64,0.41-1.729,0.614-3.267,0.614H372.363z M369.929,79.342
		V98.29h4.33c1.828,0,3.284-0.263,4.369-0.788c1.084-0.526,1.864-1.373,2.338-2.543s0.711-3.096,0.711-5.778
		c0-2.46-0.118-4.236-0.352-5.33c-0.235-1.093-0.583-1.957-1.044-2.594c-0.462-0.636-1.098-1.114-1.909-1.435
		c-0.812-0.32-1.773-0.48-2.883-0.48H369.929z M356.618,79.342V98.29h9.941v-2.102h-7.533v-6.584h6.829v-2.076h-6.829v-6.085h7.354
		v-2.101H356.618z M343.331,79.342V98.29h9.942v-2.102h-7.533v-6.584h6.828v-2.076h-6.828v-6.085h7.353v-2.101H343.331z
		 M330.948,79.342V98.29h2.434v-8.686h6.585v-2.076h-6.585v-6.085h6.956v-2.101H330.948z M310.687,79.342v2.101h4.958V98.29h2.434
		V81.443h4.983v-2.101H310.687z M294.606,79.342V98.29h2.178V81.866l7.533,16.424h3.279V79.342h-2.152v16.219l-7.456-16.219H294.606
		z M286.826,91.73h-6.136l3.036-10.159L286.826,91.73z M282.266,79.342l-6.009,18.948h2.46l1.396-4.51h7.315l1.371,4.51h2.703
		l-6.175-18.948H282.266z M266.275,79.342V98.29h2.434v-8.686h6.585v-2.076h-6.585v-6.085h6.956v-2.101H266.275z M249.195,79.342
		V98.29h2.178V81.866l7.533,16.424h3.28V79.342h-2.153v16.219l-7.456-16.219H249.195z M242.434,98.29h2.447V79.342h-2.447V98.29z"/>
</g>
<path style="fill:#FFFFFF;" d="M396.181,16.543v6.855h9.712V58.79h8.969V23.398h9.826v-6.855H396.181z M360.004,16.543V58.79h8.198
	V27.911l11.569,30.879h11.597V16.543h-8.198v29.25l-11.283-29.25H360.004z M337.31,24.684l4.399,18.366h-8.541L337.31,24.684z
	 M332.054,16.543L320.343,58.79h8.741l2.399-9.37h12.026l2.342,9.37h9.312l-11.454-42.247H332.054z M298.043,16.543V58.79h8.883
	V40.365h12.454v-6.484h-12.454V23.055h13.054v-6.512H298.043z M259.625,16.543V58.79h8.198V27.911l11.569,30.879h11.597V16.543
	h-8.198v29.25l-11.283-29.25H259.625z M243.685,58.79h8.826V16.543h-8.826V58.79z"/>
</svg>
