<?xml version="1.0" encoding="iso-8859-1"?>
<!-- Generator: Adobe Illustrator 29.5.1, SVG Export Plug-In . SVG Version: 9.03 Build 0)  -->
<svg version="1.1" id="Layer_1" xmlns="http://www.w3.org/2000/svg" xmlns:xlink="http://www.w3.org/1999/xlink" x="0px" y="0px"
	 viewBox="0 0 720 144" style="enable-background:new 0 0 720 144;" xml:space="preserve">
<g>
	<defs>
		<rect id="SVGID_1_" width="720" height="144"/>
	</defs>
	<clipPath id="SVGID_00000009573777627033650610000010109830954981672854_">
		<use xlink:href="#SVGID_1_"  style="overflow:visible;"/>
	</clipPath>
	<path style="clip-path:url(#SVGID_00000009573777627033650610000010109830954981672854_);fill:#FFFFFF;" d="M72.921,1.3
		C33.757,1.3,2.008,32.959,2.008,72.012s31.749,70.712,70.913,70.712s70.912-31.659,70.912-70.712S112.085,1.3,72.921,1.3"/>
	<path style="clip-path:url(#SVGID_00000009573777627033650610000010109830954981672854_);fill:#FFFFFF;" d="M72.921,2.98
		c38.175,0,69.233,30.968,69.233,69.032s-31.058,69.032-69.233,69.032S3.688,110.076,3.688,72.012S34.746,2.98,72.921,2.98"/>
</g>
<rect x="191.456" y="16.617" style="fill:#FFFFFF;" width="2" height="111.776"/>
<g>
	<defs>
		<rect id="SVGID_00000044143842758768013500000000048860606769919639_" width="720" height="144"/>
	</defs>
	<clipPath id="SVGID_00000040568260418783168140000005729967976757714059_">
		<use xlink:href="#SVGID_00000044143842758768013500000000048860606769919639_"  style="overflow:visible;"/>
	</clipPath>
	<path style="clip-path:url(#SVGID_00000040568260418783168140000005729967976757714059_);" d="M114.152,102.346v4.129
		c0,0.138-0.046,0.246-0.154,0.323c-0.093,0.077-0.216,0.123-0.37,0.123c-0.092,0-0.231,0-0.385-0.015
		c-0.154-0.015-0.323-0.031-0.478-0.046c-0.154-0.015-0.292-0.062-0.416-0.108c-0.107-0.046-0.169-0.108-0.169-0.169v-4.222
		l-3.605-7.041c-0.123-0.246-0.139-0.416-0.046-0.523c0.092-0.108,0.262-0.17,0.508-0.17c0.154,0,0.308,0,0.478,0.015
		c0.154,0,0.308,0.016,0.446,0.047c0.139,0.015,0.262,0.046,0.355,0.077c0.092,0.031,0.169,0.077,0.2,0.154l2.65,5.408l2.65-5.393
		c0.031-0.061,0.092-0.123,0.2-0.154c0.093-0.031,0.216-0.061,0.355-0.092c0.138-0.016,0.292-0.031,0.446-0.047
		c0.154,0,0.324-0.015,0.478-0.015c0.246,0,0.416,0.046,0.508,0.154c0.077,0.108,0.062,0.277-0.061,0.539L114.152,102.346z
		 M103.615,96.584v9.891c0,0.138-0.046,0.246-0.154,0.323c-0.108,0.077-0.216,0.123-0.354,0.123c-0.093,0-0.231,0-0.401-0.015
		c-0.17-0.015-0.339-0.031-0.493-0.046s-0.293-0.062-0.401-0.108c-0.123-0.046-0.169-0.108-0.169-0.169v-9.984h-3.051
		c-0.123,0-0.215-0.046-0.308-0.139c-0.077-0.092-0.123-0.2-0.123-0.338c0-0.093,0-0.201,0.015-0.355
		c0.016-0.138,0.031-0.292,0.047-0.431c0.015-0.139,0.061-0.262,0.092-0.37c0.046-0.092,0.093-0.154,0.17-0.154h8.165
		c0.123,0,0.216,0.046,0.308,0.139c0.077,0.092,0.123,0.215,0.123,0.339c0,0.092,0,0.2-0.015,0.354s-0.031,0.293-0.046,0.431
		c-0.016,0.139-0.046,0.262-0.093,0.355c-0.046,0.092-0.092,0.154-0.169,0.154H103.615z M96.497,106.475
		c0,0.138-0.046,0.246-0.154,0.323c-0.092,0.077-0.216,0.123-0.37,0.123c-0.092,0-0.231,0-0.4-0.015
		c-0.17-0.015-0.324-0.031-0.493-0.046c-0.154-0.015-0.293-0.062-0.416-0.108c-0.108-0.046-0.17-0.108-0.17-0.169V94.981
		c0-0.061,0.062-0.123,0.17-0.169c0.123-0.046,0.262-0.092,0.416-0.108c0.154-0.015,0.323-0.046,0.493-0.046
		c0.169-0.016,0.292-0.016,0.4-0.016c0.139,0,0.262,0.047,0.37,0.139c0.092,0.093,0.154,0.2,0.154,0.324V106.475z M85.389,104.888
		c0.092,0.015,0.216,0.061,0.401,0.092c0.185,0.047,0.385,0.093,0.631,0.139c0.231,0.046,0.493,0.077,0.786,0.123
		c0.277,0.031,0.57,0.046,0.847,0.046c0.309,0,0.601-0.03,0.878-0.077c0.278-0.046,0.54-0.138,0.755-0.246
		c0.216-0.123,0.401-0.277,0.524-0.462c0.139-0.201,0.201-0.432,0.201-0.724c0-0.401-0.124-0.74-0.386-1.017
		c-0.261-0.278-0.585-0.539-0.97-0.786c-0.385-0.246-0.817-0.493-1.279-0.739c-0.462-0.247-0.878-0.54-1.279-0.863
		c-0.4-0.324-0.724-0.709-0.97-1.156c-0.262-0.447-0.385-0.986-0.385-1.633c0-0.539,0.092-1.001,0.292-1.371
		c0.2-0.37,0.463-0.678,0.801-0.924c0.339-0.232,0.755-0.416,1.218-0.524c0.477-0.108,1.001-0.17,1.571-0.17
		c0.123,0,0.308,0,0.555,0.016c0.246,0.015,0.508,0.03,0.785,0.061c0.278,0.031,0.555,0.062,0.817,0.108
		c0.277,0.046,0.493,0.108,0.647,0.185c0.154,0.062,0.247,0.139,0.277,0.216c0.031,0.077,0.031,0.2,0.016,0.385
		c-0.016,0.293-0.077,0.524-0.185,0.724c-0.093,0.2-0.231,0.277-0.416,0.246c-0.278-0.061-0.586-0.107-0.94-0.169
		c-0.354-0.046-0.755-0.077-1.186-0.077c-0.678,0-1.248,0.108-1.68,0.293c-0.431,0.2-0.647,0.523-0.647,0.986
		c0,0.369,0.124,0.678,0.386,0.939c0.261,0.263,0.585,0.509,0.97,0.74s0.817,0.478,1.279,0.724c0.462,0.247,0.878,0.539,1.279,0.878
		c0.385,0.339,0.724,0.74,0.97,1.202c0.262,0.462,0.385,1.048,0.385,1.71c0,0.632-0.123,1.156-0.354,1.556
		c-0.231,0.416-0.555,0.724-0.94,0.955c-0.385,0.232-0.847,0.386-1.356,0.478c-0.508,0.093-1.047,0.139-1.602,0.139
		c-0.246,0-0.524-0.016-0.801-0.031s-0.539-0.046-0.817-0.077c-0.261-0.031-0.508-0.077-0.754-0.123
		c-0.232-0.047-0.432-0.093-0.601-0.154c-0.17-0.062-0.262-0.124-0.293-0.185c-0.031-0.077-0.046-0.201-0.015-0.37
		c0.03-0.324,0.092-0.601,0.184-0.817C85.112,104.949,85.234,104.842,85.389,104.888 M79.057,96.568H76.76v3.991h2.296
		c0.447,0,0.816-0.031,1.078-0.077c0.278-0.047,0.478-0.139,0.632-0.278c0.154-0.138,0.247-0.308,0.293-0.539
		s0.077-0.539,0.077-0.909v-0.37c0-0.369-0.031-0.678-0.077-0.924c-0.046-0.231-0.154-0.416-0.293-0.555
		c-0.154-0.138-0.354-0.215-0.632-0.277C79.857,96.599,79.504,96.568,79.057,96.568 M74.773,106.567V95.228
		c0-0.123,0.046-0.216,0.154-0.308c0.108-0.077,0.216-0.123,0.37-0.123h3.651c0.755,0,1.402,0.061,1.941,0.169
		c0.539,0.108,0.971,0.308,1.31,0.585c0.339,0.278,0.585,0.648,0.739,1.11c0.155,0.462,0.231,1.032,0.231,1.741v0.37
		c0,0.523-0.046,0.97-0.123,1.355s-0.216,0.724-0.385,1.002c-0.169,0.277-0.416,0.493-0.709,0.662
		c-0.292,0.17-0.647,0.293-1.047,0.385l2.295,3.975c0.124,0.216,0.185,0.37,0.185,0.478c0,0.061-0.031,0.123-0.077,0.169
		c-0.061,0.047-0.123,0.077-0.185,0.093c-0.061,0.015-0.138,0.03-0.2,0.046c-0.077,0-0.123,0.015-0.154,0.015
		c-0.093,0-0.231,0-0.385-0.015c-0.154-0.016-0.308-0.031-0.462-0.062c-0.154-0.03-0.309-0.061-0.432-0.123
		c-0.123-0.062-0.216-0.139-0.277-0.231l-2.434-4.16h-2.034v4.16c0,0.139-0.046,0.231-0.154,0.308
		c-0.093,0.077-0.216,0.123-0.354,0.123c-0.093,0-0.232,0-0.401-0.015c-0.17-0.016-0.324-0.031-0.493-0.046
		c-0.154-0.016-0.293-0.062-0.416-0.108C74.836,106.69,74.773,106.644,74.773,106.567 M65.068,106.382V95.228
		c0-0.139,0.046-0.247,0.154-0.324c0.092-0.077,0.216-0.107,0.37-0.107h6.64c0.123,0,0.231,0.046,0.308,0.154
		c0.077,0.092,0.123,0.215,0.123,0.339c0,0.092,0,0.2-0.015,0.354c-0.016,0.154-0.031,0.293-0.046,0.431
		c-0.016,0.139-0.062,0.262-0.093,0.355c-0.046,0.092-0.108,0.154-0.169,0.154h-5.269v3.204h4.514c0.108,0,0.2,0.047,0.292,0.139
		c0.078,0.092,0.124,0.2,0.124,0.323c0,0.093,0,0.201-0.016,0.355c-0.015,0.154-0.03,0.292-0.046,0.431
		c-0.015,0.139-0.062,0.262-0.092,0.37c-0.047,0.092-0.093,0.154-0.17,0.154h-4.622v3.389h5.161c0.124,0,0.232,0.047,0.309,0.139
		c0.077,0.093,0.123,0.2,0.123,0.339c0,0.092,0,0.2-0.016,0.354c-0.015,0.139-0.03,0.293-0.046,0.432
		c-0.015,0.138-0.061,0.262-0.092,0.37c-0.046,0.107-0.108,0.154-0.17,0.154h-6.501c-0.154,0-0.324-0.031-0.493-0.108
		C65.145,106.536,65.068,106.459,65.068,106.382 M58.998,103.547l2.496-8.581c0.154-0.154,0.339-0.246,0.539-0.293
		c0.2-0.031,0.431-0.061,0.709-0.061c0.107,0,0.231,0,0.338,0.015c0.124,0.015,0.216,0.031,0.293,0.077
		c0.077,0.046,0.139,0.093,0.185,0.17c0.046,0.077,0.031,0.169,0,0.308l-3.836,11.478c-0.016,0.092-0.077,0.154-0.17,0.2
		c-0.092,0.046-0.185,0.061-0.292,0.061c-0.37,0-0.678-0.015-0.925-0.061c-0.246-0.046-0.4-0.108-0.462-0.185l-3.821-11.493
		c-0.031-0.108-0.031-0.201,0-0.278c0.031-0.077,0.077-0.123,0.154-0.169c0.062-0.046,0.139-0.077,0.231-0.093
		c0.077-0.015,0.154-0.03,0.201-0.03c0.169,0,0.339,0,0.508,0.015c0.17,0.015,0.324,0.031,0.478,0.062
		c0.138,0.031,0.262,0.077,0.369,0.123c0.093,0.062,0.17,0.123,0.201,0.216l2.557,8.504c0.046,0.139,0.077,0.277,0.093,0.416
		c0.015,0.154,0.031,0.277,0.061,0.401c0.016-0.124,0.031-0.262,0.046-0.401C58.921,103.809,58.951,103.671,58.998,103.547
		 M52.589,106.475c0,0.138-0.047,0.246-0.154,0.323c-0.093,0.077-0.216,0.123-0.37,0.123c-0.093,0-0.231,0-0.401-0.015
		c-0.169-0.015-0.323-0.031-0.493-0.046c-0.154-0.015-0.293-0.062-0.416-0.108s-0.169-0.108-0.169-0.169V94.981
		c0-0.061,0.061-0.123,0.169-0.169c0.123-0.046,0.247-0.092,0.416-0.108c0.154-0.015,0.324-0.046,0.493-0.046
		c0.17-0.016,0.293-0.016,0.401-0.016c0.138,0,0.262,0.047,0.37,0.139c0.092,0.093,0.154,0.2,0.154,0.324V106.475z M46.518,103.239
		V94.92c0-0.062,0.062-0.123,0.185-0.154c0.124-0.046,0.262-0.077,0.432-0.093c0.169-0.015,0.339-0.031,0.508-0.046
		c0.17-0.015,0.308-0.015,0.401-0.015c0.292,0,0.431,0.169,0.431,0.493v11.37c0,0.138-0.046,0.231-0.154,0.308
		c-0.108,0.077-0.216,0.123-0.339,0.123c-0.092,0-0.2,0-0.354-0.015c-0.154-0.016-0.293-0.016-0.447-0.046
		c-0.154-0.031-0.278-0.062-0.401-0.093c-0.123-0.046-0.2-0.092-0.246-0.154l-5.377-8.273v8.15c0,0.138-0.046,0.246-0.154,0.323
		c-0.092,0.077-0.216,0.123-0.355,0.123c-0.092,0-0.231,0-0.4-0.015c-0.17-0.015-0.339-0.031-0.493-0.046s-0.293-0.062-0.401-0.108
		c-0.123-0.046-0.169-0.108-0.169-0.169V94.981c0-0.061,0.061-0.123,0.169-0.169c0.124-0.046,0.247-0.092,0.401-0.108
		c0.154-0.015,0.308-0.031,0.477-0.046c0.17-0.016,0.293-0.016,0.401-0.016c0.123,0,0.231,0.031,0.308,0.108
		c0.077,0.077,0.154,0.154,0.201,0.247L46.518,103.239z M35.056,102.5v-7.488c0-0.061,0.062-0.123,0.169-0.169
		c0.124-0.046,0.262-0.093,0.416-0.123c0.17-0.031,0.339-0.062,0.493-0.078c0.17-0.015,0.293-0.03,0.401-0.03
		c0.139,0,0.262,0.046,0.354,0.154c0.093,0.108,0.139,0.215,0.139,0.339v7.487c0,0.817-0.092,1.495-0.277,2.049
		c-0.185,0.555-0.447,0.986-0.817,1.341c-0.37,0.339-0.832,0.585-1.386,0.724c-0.555,0.139-1.218,0.215-1.957,0.215h-0.139
		c-0.724,0-1.371-0.076-1.91-0.215c-0.555-0.139-1.002-0.385-1.371-0.724c-0.37-0.339-0.632-0.786-0.817-1.341
		c-0.185-0.539-0.277-1.232-0.277-2.049v-7.58c0-0.061,0.061-0.123,0.169-0.169c0.124-0.046,0.247-0.093,0.416-0.123
		c0.154-0.031,0.324-0.062,0.493-0.078c0.17-0.015,0.308-0.03,0.401-0.03c0.138,0,0.246,0.046,0.354,0.154
		c0.093,0.108,0.154,0.215,0.154,0.339v7.379c0,0.478,0.031,0.879,0.108,1.218c0.077,0.338,0.2,0.616,0.385,0.816
		c0.185,0.216,0.432,0.37,0.74,0.462c0.308,0.093,0.693,0.154,1.155,0.154h0.139c0.478,0,0.863-0.046,1.186-0.154
		c0.308-0.108,0.57-0.262,0.755-0.462c0.185-0.216,0.324-0.478,0.401-0.816C35.025,103.378,35.056,102.978,35.056,102.5
		 M106.742,75.538v14.313h-3.944V67.989h5.5l5.285,13.466V67.989h4.006v21.862h-5.023L106.742,75.538z M95.419,67.989h4.437v21.862
		h-4.437V67.989z M78.395,67.989h4.56v9.506l5.685-9.506h4.76L87.084,78.05L93.4,89.867h-5.284l-5.161-10.631v10.631h-4.56V67.989z
		 M70.967,84.998H64.62l-1.156,4.869h-4.575l6.162-21.878h5.824l6.07,21.878h-4.791L70.967,84.998z M70.06,81.193l-2.188-9.044
		l-2.296,9.044H70.06z M45.625,67.989h11.817v3.713h-7.195v4.668h6.625v3.806h-6.625v5.823h7.21v3.852H45.625V67.989z
		 M35.595,67.989c5.839,0,7.642,3.097,7.642,10.939s-1.818,10.939-7.657,10.939h-7.488V67.989H35.595z M32.683,86.092h2.08
		c3.405,0,3.836-2.003,3.836-7.241c0-5.223-0.431-7.226-3.836-7.226h-2.08V86.092z M81.507,51.366l-9.938-17.24l1.31-2.203
		l11.154,19.443H81.507z M76.808,51.366l-7.611-13.142l1.279-2.157l8.766,15.299H76.808z M72.032,51.366l-5.223-9.013l1.325-2.234
		l6.424,11.231h-2.526V51.366z M67.225,51.366l-2.804-4.869l1.325-2.234l4.052,7.103H67.225z M61.601,51.366l1.71-2.928l1.711,2.928
		H61.601z M59.429,29.889v18.365c0,7.41,6.009,13.419,13.419,13.419c7.411,0,13.419-6.009,13.419-13.419V29.889H59.429z"/>
	<path style="clip-path:url(#SVGID_00000040568260418783168140000005729967976757714059_);fill:#FFFFFF;" d="M459.952,51.429v32.876
		h18.294V79.17h-11.425v-9.513h10.203v-5.068h-10.203v-8.091h11.07v-5.069H459.952z M442.133,56.498h1.467
		c2.09,0,3.453,0.333,4.09,1s0.956,1.815,0.956,3.445c0,1.645-0.322,2.838-0.967,3.579c-0.644,0.741-1.96,1.111-3.945,1.111h-1.601
		V56.498z M435.22,51.429v32.876h6.913V70.701h1.334c2.059,0,3.46,0.353,4.201,1.056c0.741,0.704,1.111,2.005,1.111,3.901v5.046
		c0,0.889,0.052,1.545,0.156,1.967c0.104,0.423,0.296,0.967,0.578,1.634h6.735c-0.148-0.444-0.255-1.03-0.322-1.756
		c-0.067-0.726-0.122-1.489-0.167-2.289l-0.333-5.646c-0.134-2.119-0.604-3.653-1.412-4.602c-0.808-0.948-2.293-1.57-4.457-1.867
		c2.031-0.385,3.531-1.23,4.502-2.534c0.97-1.304,1.456-3.126,1.456-5.468c0-2.964-0.727-5.157-2.179-6.58
		c-1.452-1.422-3.682-2.134-6.69-2.134H435.22z M410.059,51.429v5.335h7.558v27.541h6.98V56.764h7.646v-5.335H410.059z
		 M382.549,51.429v32.876h6.38V60.276l9.002,24.029h9.025V51.429h-6.38v22.762l-8.78-22.762H382.549z M360.559,51.429v32.876h18.294
		V79.17h-11.426v-9.513h10.203v-5.068h-10.203v-8.091h11.07v-5.069H360.559z M356.55,60.81c0-3.393-0.811-5.887-2.434-7.48
		s-3.998-2.39-7.124-2.39c-2.668,0-4.79,0.442-6.369,1.323c-1.578,0.882-2.704,2.071-3.378,3.568
		c-0.675,1.497-1.108,3.119-1.301,4.868c-0.192,1.748-0.289,4.156-0.289,7.224c0,3.897,0.182,6.743,0.545,8.536
		s0.919,3.267,1.667,4.423c0.748,1.156,1.834,2.075,3.257,2.756c1.422,0.682,3.267,1.023,5.534,1.023
		c3.483,0,6.061-0.874,7.736-2.623c1.674-1.749,2.512-4.364,2.512-7.847v-0.956h-6.78v0.378c0,2.12-0.3,3.665-0.9,4.635
		c-0.6,0.971-1.486,1.456-2.656,1.456c-1.394,0-2.387-0.634-2.979-1.901c-0.593-1.267-0.919-2.867-0.978-4.801
		c-0.06-1.934-0.089-3.479-0.089-4.635c0-3.437,0.089-5.89,0.267-7.357c0.178-1.467,0.544-2.679,1.1-3.634
		c0.556-0.956,1.434-1.434,2.634-1.434c1.052,0,1.863,0.411,2.434,1.233c0.57,0.823,0.856,2.16,0.856,4.013v0.622h6.735V60.81z
		 M304.272,51.429v32.876h18.294V79.17h-11.425v-9.513h10.203v-5.068h-10.203v-8.091h11.07v-5.069H304.272z M267.092,51.429v32.876
		h6.513V58.943l6.09,25.362h6.557l6.424-25.362v25.362h6.691V51.429h-10.692l-5.512,22.362l-5.202-22.362H267.092z M260.539,82.538
		c1.852-1.578,2.779-3.946,2.779-7.102c0-2.06-0.401-3.686-1.201-4.879c-0.8-1.193-2.089-2.345-3.867-3.457l-6.647-4.245
		c-0.726-0.459-1.256-0.986-1.589-1.578c-0.334-0.593-0.5-1.23-0.5-1.912c0-1.111,0.3-1.997,0.9-2.656
		c0.6-0.66,1.412-0.989,2.434-0.989c2.208,0,3.312,1.422,3.312,4.267v0.778h6.735v-1.133c0-3.171-0.811-5.42-2.434-6.747
		c-1.622-1.326-3.982-1.989-7.08-1.989c-3.467,0-6.146,0.76-8.035,2.278c-1.889,1.52-2.834,3.672-2.834,6.458
		c0,2.06,0.385,3.76,1.156,5.101c0.77,1.341,2.445,2.812,5.023,4.412l5.446,3.335c0.741,0.459,1.301,0.993,1.679,1.6
		c0.377,0.608,0.566,1.349,0.566,2.223c0,1.156-0.315,2.049-0.944,2.678c-0.63,0.631-1.531,0.945-2.701,0.945
		c-1.378,0-2.342-0.407-2.89-1.222s-0.822-2.045-0.822-3.69v-0.867h-6.98v2.045c0,2.889,0.845,5.064,2.534,6.524
		c1.689,1.46,4.171,2.189,7.447,2.189C255.849,84.905,258.686,84.116,260.539,82.538"/>
	<path style="clip-path:url(#SVGID_00000040568260418783168140000005729967976757714059_);fill:#FFFFFF;" d="M381.496,16.798
		c-0.101-0.141-0.212-0.262-0.333-0.363s-0.262-0.151-0.423-0.151c-0.181,0-0.378,0.01-0.59,0.03
		c-0.211,0.02-0.418,0.056-0.619,0.106c-0.202,0.05-0.369,0.111-0.499,0.181c-0.132,0.071-0.197,0.147-0.197,0.227v21.408
		c0,0.101,0.07,0.181,0.212,0.242c0.141,0.06,0.312,0.11,0.514,0.151c0.201,0.04,0.413,0.07,0.635,0.09
		c0.221,0.02,0.413,0.031,0.574,0.031c0.222,0,0.398-0.081,0.529-0.242c0.131-0.161,0.197-0.353,0.197-0.575V21.394l10.855,16.872
		c0.061,0.081,0.166,0.151,0.318,0.212c0.151,0.06,0.327,0.11,0.529,0.151c0.201,0.04,0.403,0.07,0.604,0.09
		c0.202,0.02,0.373,0.031,0.514,0.031c0.202,0,0.368-0.076,0.499-0.227s0.197-0.337,0.197-0.559V17.13
		c0-0.242-0.045-0.443-0.136-0.605c-0.091-0.161-0.247-0.241-0.469-0.241c-0.181,0-0.393,0.01-0.635,0.03
		c-0.242,0.02-0.468,0.05-0.68,0.091c-0.212,0.04-0.389,0.09-0.529,0.151c-0.142,0.06-0.212,0.131-0.212,0.211V33.7L381.496,16.798z
		 M374.345,17.1c0-0.222-0.065-0.413-0.196-0.575c-0.132-0.161-0.308-0.241-0.529-0.241c-0.182,0-0.384,0.01-0.605,0.03
		c-0.222,0.02-0.439,0.056-0.65,0.106c-0.212,0.05-0.389,0.111-0.529,0.181c-0.142,0.071-0.212,0.147-0.212,0.227v21.408
		c0,0.101,0.07,0.181,0.212,0.242c0.14,0.06,0.317,0.11,0.529,0.151c0.211,0.04,0.428,0.07,0.65,0.09
		c0.221,0.02,0.423,0.031,0.605,0.031c0.221,0,0.397-0.081,0.529-0.242c0.131-0.161,0.196-0.353,0.196-0.575V17.1z M355.187,27.35
		l10.069,10.855c0.222,0.242,0.534,0.394,0.937,0.454c0.403,0.06,0.837,0.091,1.301,0.091c0.14,0,0.302-0.021,0.483-0.061
		c0.182-0.04,0.273-0.161,0.273-0.363c0-0.221-0.162-0.503-0.484-0.846l-9.706-10.432l8.859-9.494
		c0.343-0.363,0.514-0.645,0.514-0.847c0-0.201-0.091-0.322-0.272-0.363c-0.181-0.04-0.353-0.06-0.514-0.06
		c-0.444,0-0.872,0.03-1.285,0.09c-0.414,0.061-0.731,0.212-0.953,0.454l-9.222,9.948V17.1c0-0.222-0.066-0.413-0.196-0.575
		c-0.132-0.161-0.308-0.241-0.53-0.241c-0.181,0-0.383,0.01-0.604,0.03c-0.222,0.02-0.439,0.056-0.65,0.106
		c-0.212,0.05-0.389,0.111-0.53,0.181c-0.141,0.071-0.211,0.147-0.211,0.227v21.408c0,0.101,0.07,0.181,0.211,0.242
		c0.141,0.06,0.318,0.11,0.53,0.151c0.211,0.04,0.428,0.07,0.65,0.09c0.221,0.02,0.423,0.031,0.604,0.031
		c0.222,0,0.398-0.081,0.53-0.242c0.13-0.161,0.196-0.353,0.196-0.575V27.35z M340.247,20.305c0.02-0.201,0.05-0.383,0.091-0.544
		c0,0.101,0.025,0.282,0.075,0.544c0.051,0.262,0.096,0.444,0.137,0.544l2.902,8.799h-6.259l2.933-8.799
		C340.187,20.688,340.227,20.507,340.247,20.305 M346.869,38.644c0.343,0.07,0.796,0.106,1.361,0.106
		c0.181,0,0.357-0.036,0.529-0.106c0.171-0.071,0.257-0.197,0.257-0.378c0-0.121-0.01-0.212-0.03-0.272l-7.257-21.136
		c-0.121-0.383-0.353-0.574-0.696-0.574c-0.383,0-0.801,0.035-1.254,0.105c-0.454,0.071-0.721,0.217-0.802,0.439l-7.287,21.166
		c-0.041,0.121-0.06,0.211-0.06,0.272c0,0.181,0.085,0.307,0.257,0.378c0.171,0.07,0.357,0.106,0.559,0.106
		c0.463,0,0.882-0.021,1.255-0.061c0.373-0.04,0.599-0.181,0.68-0.423l2.117-6.259h7.68l2.026,6.138
		C346.305,38.407,346.526,38.573,346.869,38.644 M315.867,38.236c0.282,0.101,0.554,0.151,0.817,0.151h11.399
		c0.08,0,0.151-0.061,0.212-0.182c0.06-0.12,0.11-0.272,0.151-0.453c0.04-0.182,0.07-0.373,0.09-0.575
		c0.02-0.201,0.031-0.382,0.031-0.544c0-0.201-0.071-0.363-0.212-0.484c-0.141-0.121-0.302-0.181-0.484-0.181h-9.706V28.53h8.981
		c0.08,0,0.151-0.061,0.211-0.182c0.061-0.121,0.116-0.272,0.167-0.453c0.05-0.182,0.085-0.373,0.105-0.575
		c0.02-0.201,0.031-0.373,0.031-0.514c0-0.221-0.071-0.393-0.212-0.514c-0.141-0.121-0.313-0.181-0.514-0.181h-8.769v-7.046h9.918
		c0.08,0,0.151-0.06,0.212-0.181c0.06-0.121,0.11-0.272,0.151-0.454c0.04-0.181,0.07-0.372,0.09-0.574
		c0.02-0.201,0.031-0.383,0.031-0.544c0-0.222-0.071-0.388-0.212-0.499c-0.141-0.111-0.302-0.167-0.484-0.167h-11.702
		c-0.483,0-0.725,0.263-0.725,0.787v20.41C315.444,38.004,315.585,38.135,315.867,38.236 M305.508,19.353
		c0.726,0.211,1.316,0.559,1.769,1.043c0.454,0.484,0.776,1.114,0.968,1.89c0.191,0.776,0.287,1.718,0.287,2.827v4.777
		c0,1.109-0.096,2.052-0.287,2.827c-0.192,0.777-0.514,1.406-0.968,1.89c-0.453,0.484-1.043,0.832-1.769,1.043
		c-0.725,0.212-1.632,0.318-2.721,0.318h-4.142V19.035h4.142C303.876,19.035,304.783,19.141,305.508,19.353 M296.195,16.798
		c-0.181,0.121-0.272,0.322-0.272,0.604v20.441c0,0.161,0.136,0.292,0.408,0.393c0.273,0.101,0.549,0.151,0.832,0.151h5.624
		c1.451,0,2.711-0.136,3.78-0.408c1.068-0.272,1.955-0.726,2.66-1.361c0.706-0.635,1.23-1.471,1.573-2.51
		c0.342-1.038,0.514-2.323,0.514-3.855V24.78c0-1.531-0.172-2.817-0.514-3.855c-0.343-1.038-0.867-1.875-1.573-2.51
		c-0.705-0.635-1.592-1.093-2.66-1.375c-1.069-0.283-2.329-0.424-3.78-0.424H296.8C296.578,16.616,296.377,16.677,296.195,16.798
		 M291.738,30.508c0.081-0.133,0.141-0.296,0.182-0.49c0.04-0.194,0.065-0.393,0.075-0.597s0.015-0.378,0.015-0.521
		c0-0.163-0.045-0.306-0.136-0.429c-0.09-0.122-0.226-0.183-0.408-0.183h-6.924c-0.141,0-0.252,0.066-0.333,0.199
		c-0.08,0.133-0.141,0.296-0.181,0.49c-0.041,0.194-0.066,0.393-0.076,0.597s-0.015,0.378-0.015,0.52
		c0,0.164,0.046,0.307,0.136,0.429c0.091,0.123,0.217,0.184,0.378,0.184h6.955C291.547,30.707,291.658,30.641,291.738,30.508
		 M273.288,20.305c0.02-0.201,0.05-0.383,0.091-0.544c0,0.101,0.025,0.282,0.075,0.544c0.05,0.262,0.096,0.444,0.136,0.544
		l2.903,8.799h-6.259l2.933-8.799C273.227,20.688,273.268,20.507,273.288,20.305 M279.91,38.644c0.342,0.07,0.796,0.106,1.361,0.106
		c0.181,0,0.357-0.036,0.529-0.106c0.171-0.071,0.257-0.197,0.257-0.378c0-0.121-0.011-0.212-0.031-0.272l-7.256-21.136
		c-0.121-0.383-0.353-0.574-0.696-0.574c-0.383,0-0.801,0.035-1.255,0.105c-0.453,0.071-0.721,0.217-0.801,0.439l-7.287,21.166
		c-0.041,0.121-0.061,0.211-0.061,0.272c0,0.181,0.086,0.307,0.257,0.378c0.171,0.07,0.358,0.106,0.56,0.106
		c0.463,0,0.881-0.021,1.255-0.061c0.372-0.04,0.599-0.181,0.68-0.423l2.117-6.259h7.68l2.026,6.138
		C279.345,38.407,279.567,38.573,279.91,38.644 M258.762,19.232c0.584,0.111,1.043,0.312,1.376,0.604
		c0.332,0.293,0.564,0.696,0.695,1.21c0.131,0.514,0.197,1.164,0.197,1.95v0.514c0,0.786-0.066,1.437-0.197,1.951
		c-0.131,0.514-0.363,0.917-0.695,1.209c-0.333,0.292-0.792,0.494-1.376,0.605c-0.585,0.111-1.33,0.166-2.237,0.166h-4.536v-8.376
		h4.536C257.432,19.065,258.177,19.121,258.762,19.232 M249.494,38.447c0.152,0.061,0.333,0.116,0.545,0.167
		c0.211,0.05,0.428,0.085,0.65,0.105c0.221,0.02,0.413,0.031,0.574,0.031c0.222,0,0.398-0.076,0.529-0.227
		c0.131-0.151,0.197-0.337,0.197-0.559V29.86h4.536c1.35,0,2.489-0.095,3.416-0.287s1.678-0.529,2.253-1.013
		c0.574-0.484,0.987-1.134,1.24-1.95c0.252-0.817,0.378-1.85,0.378-3.1v-0.514c0-1.209-0.121-2.222-0.363-3.039
		c-0.242-0.816-0.646-1.466-1.21-1.95c-0.564-0.484-1.315-0.831-2.252-1.043c-0.938-0.212-2.092-0.318-3.462-0.318h-6.501
		c-0.222,0-0.404,0.046-0.545,0.137c-0.141,0.09-0.211,0.307-0.211,0.65v20.772C249.268,38.307,249.343,38.387,249.494,38.447
		 M244.808,17.1c0-0.222-0.066-0.413-0.197-0.575c-0.131-0.161-0.307-0.241-0.529-0.241c-0.181,0-0.383,0.01-0.604,0.03
		c-0.222,0.02-0.439,0.056-0.651,0.106c-0.211,0.05-0.388,0.111-0.529,0.181c-0.141,0.071-0.211,0.147-0.211,0.227v21.408
		c0,0.101,0.07,0.181,0.211,0.242c0.141,0.06,0.318,0.11,0.529,0.151c0.212,0.04,0.429,0.07,0.651,0.09
		c0.221,0.02,0.423,0.031,0.604,0.031c0.222,0,0.398-0.081,0.529-0.242c0.131-0.161,0.197-0.353,0.197-0.575V17.1z"/>
</g>
</svg>
