<?xml version="1.0" encoding="iso-8859-1"?>
<!-- Generator: Adobe Illustrator 29.5.1, SVG Export Plug-In . SVG Version: 9.03 Build 0)  -->
<svg version="1.1" id="Layer_1" xmlns="http://www.w3.org/2000/svg" xmlns:xlink="http://www.w3.org/1999/xlink" x="0px" y="0px"
	 viewBox="0 0 720 144" style="enable-background:new 0 0 720 144;" xml:space="preserve">
<g>
	<defs>
		<rect id="SVGID_1_" width="720" height="144"/>
	</defs>
	<clipPath id="SVGID_00000075872071002712639690000015417799069290901922_">
		<use xlink:href="#SVGID_1_"  style="overflow:visible;"/>
	</clipPath>
	<path style="clip-path:url(#SVGID_00000075872071002712639690000015417799069290901922_);" d="M72.921,1.3
		C33.757,1.3,2.008,32.959,2.008,72.012s31.749,70.712,70.913,70.712s70.912-31.659,70.912-70.712S112.085,1.3,72.921,1.3"/>
	<path style="clip-path:url(#SVGID_00000075872071002712639690000015417799069290901922_);fill:#FFFFFF;" d="M72.921,2.98
		c38.175,0,69.233,30.968,69.233,69.032s-31.058,69.032-69.233,69.032S3.688,110.076,3.688,72.012S34.746,2.98,72.921,2.98"/>
</g>
<rect x="191.456" y="16.617" width="2" height="111.776"/>
<g>
	<defs>
		<rect id="SVGID_00000020375454107696376100000012396447796056818595_" width="720" height="144"/>
	</defs>
	<clipPath id="SVGID_00000177473180449546616940000001469477129081153168_">
		<use xlink:href="#SVGID_00000020375454107696376100000012396447796056818595_"  style="overflow:visible;"/>
	</clipPath>
	<path style="clip-path:url(#SVGID_00000177473180449546616940000001469477129081153168_);" d="M114.152,102.346v4.129
		c0,0.138-0.046,0.246-0.154,0.323c-0.093,0.077-0.216,0.123-0.37,0.123c-0.092,0-0.231,0-0.385-0.015
		c-0.154-0.015-0.323-0.031-0.478-0.046c-0.154-0.015-0.292-0.062-0.416-0.108c-0.107-0.046-0.169-0.108-0.169-0.169v-4.222
		l-3.605-7.041c-0.123-0.246-0.139-0.416-0.046-0.523c0.092-0.108,0.262-0.17,0.508-0.17c0.154,0,0.308,0,0.478,0.015
		c0.154,0,0.308,0.016,0.446,0.047c0.139,0.015,0.262,0.046,0.355,0.077c0.092,0.031,0.169,0.077,0.2,0.154l2.65,5.408l2.65-5.393
		c0.031-0.061,0.092-0.123,0.2-0.154c0.093-0.031,0.216-0.061,0.355-0.092c0.138-0.016,0.292-0.031,0.446-0.047
		c0.154,0,0.324-0.015,0.478-0.015c0.246,0,0.416,0.046,0.508,0.154c0.077,0.108,0.062,0.277-0.061,0.539L114.152,102.346z
		 M103.615,96.584v9.891c0,0.138-0.046,0.246-0.154,0.323c-0.108,0.077-0.216,0.123-0.354,0.123c-0.093,0-0.231,0-0.401-0.015
		c-0.17-0.015-0.339-0.031-0.493-0.046s-0.293-0.062-0.401-0.108c-0.123-0.046-0.169-0.108-0.169-0.169v-9.984h-3.051
		c-0.123,0-0.215-0.046-0.308-0.139c-0.077-0.092-0.123-0.2-0.123-0.338c0-0.093,0-0.201,0.015-0.355
		c0.016-0.138,0.031-0.292,0.047-0.431c0.015-0.139,0.061-0.262,0.092-0.37c0.046-0.092,0.093-0.154,0.17-0.154h8.165
		c0.123,0,0.216,0.046,0.308,0.139c0.077,0.092,0.123,0.215,0.123,0.339c0,0.092,0,0.2-0.015,0.354s-0.031,0.293-0.046,0.431
		c-0.016,0.139-0.046,0.262-0.093,0.355c-0.046,0.092-0.092,0.154-0.169,0.154H103.615z M96.497,106.475
		c0,0.138-0.046,0.246-0.154,0.323c-0.092,0.077-0.216,0.123-0.37,0.123c-0.092,0-0.231,0-0.4-0.015
		c-0.17-0.015-0.324-0.031-0.493-0.046c-0.154-0.015-0.293-0.062-0.416-0.108c-0.108-0.046-0.17-0.108-0.17-0.169V94.981
		c0-0.061,0.062-0.123,0.17-0.169c0.123-0.046,0.262-0.092,0.416-0.108c0.154-0.015,0.323-0.046,0.493-0.046
		c0.169-0.016,0.292-0.016,0.4-0.016c0.139,0,0.262,0.047,0.37,0.139c0.092,0.093,0.154,0.2,0.154,0.324V106.475z M85.389,104.888
		c0.092,0.015,0.216,0.061,0.401,0.092c0.185,0.047,0.385,0.093,0.631,0.139c0.231,0.046,0.493,0.077,0.786,0.123
		c0.277,0.031,0.57,0.046,0.847,0.046c0.309,0,0.601-0.03,0.878-0.077c0.278-0.046,0.54-0.138,0.755-0.246
		c0.216-0.123,0.401-0.277,0.524-0.462c0.139-0.201,0.201-0.432,0.201-0.724c0-0.401-0.124-0.74-0.386-1.017
		c-0.261-0.278-0.585-0.539-0.97-0.786c-0.385-0.246-0.817-0.493-1.279-0.739c-0.462-0.247-0.878-0.54-1.279-0.863
		c-0.4-0.324-0.724-0.709-0.97-1.156c-0.262-0.447-0.385-0.986-0.385-1.633c0-0.539,0.092-1.001,0.292-1.371
		c0.2-0.37,0.463-0.678,0.801-0.924c0.339-0.232,0.755-0.416,1.218-0.524c0.477-0.108,1.001-0.17,1.571-0.17
		c0.123,0,0.308,0,0.555,0.016c0.246,0.015,0.508,0.03,0.785,0.061c0.278,0.031,0.555,0.062,0.817,0.108
		c0.277,0.046,0.493,0.108,0.647,0.185c0.154,0.062,0.247,0.139,0.277,0.216c0.031,0.077,0.031,0.2,0.016,0.385
		c-0.016,0.293-0.077,0.524-0.185,0.724c-0.093,0.2-0.231,0.277-0.416,0.246c-0.278-0.061-0.586-0.107-0.94-0.169
		c-0.354-0.046-0.755-0.077-1.186-0.077c-0.678,0-1.248,0.108-1.68,0.293c-0.431,0.2-0.647,0.523-0.647,0.986
		c0,0.369,0.124,0.678,0.386,0.939c0.261,0.263,0.585,0.509,0.97,0.74s0.817,0.478,1.279,0.724c0.462,0.247,0.878,0.539,1.279,0.878
		c0.385,0.339,0.724,0.74,0.97,1.202c0.262,0.462,0.385,1.048,0.385,1.71c0,0.632-0.123,1.156-0.354,1.556
		c-0.231,0.416-0.555,0.724-0.94,0.955c-0.385,0.232-0.847,0.386-1.356,0.478c-0.508,0.093-1.047,0.139-1.602,0.139
		c-0.246,0-0.524-0.016-0.801-0.031s-0.539-0.046-0.817-0.077c-0.261-0.031-0.508-0.077-0.754-0.123
		c-0.232-0.047-0.432-0.093-0.601-0.154c-0.17-0.062-0.262-0.124-0.293-0.185c-0.031-0.077-0.046-0.201-0.015-0.37
		c0.03-0.324,0.092-0.601,0.184-0.817C85.112,104.949,85.234,104.842,85.389,104.888 M79.057,96.568H76.76v3.991h2.296
		c0.447,0,0.816-0.031,1.078-0.077c0.278-0.047,0.478-0.139,0.632-0.278c0.154-0.138,0.247-0.308,0.293-0.539
		s0.077-0.539,0.077-0.909v-0.37c0-0.369-0.031-0.678-0.077-0.924c-0.046-0.231-0.154-0.416-0.293-0.555
		c-0.154-0.138-0.354-0.215-0.632-0.277C79.857,96.599,79.504,96.568,79.057,96.568 M74.773,106.567V95.228
		c0-0.123,0.046-0.216,0.154-0.308c0.108-0.077,0.216-0.123,0.37-0.123h3.651c0.755,0,1.402,0.061,1.941,0.169
		c0.539,0.108,0.971,0.308,1.31,0.585c0.339,0.278,0.585,0.648,0.739,1.11c0.155,0.462,0.231,1.032,0.231,1.741v0.37
		c0,0.523-0.046,0.97-0.123,1.355s-0.216,0.724-0.385,1.002c-0.169,0.277-0.416,0.493-0.709,0.662
		c-0.292,0.17-0.647,0.293-1.047,0.385l2.295,3.975c0.124,0.216,0.185,0.37,0.185,0.478c0,0.061-0.031,0.123-0.077,0.169
		c-0.061,0.047-0.123,0.077-0.185,0.093c-0.061,0.015-0.138,0.03-0.2,0.046c-0.077,0-0.123,0.015-0.154,0.015
		c-0.093,0-0.231,0-0.385-0.015c-0.154-0.016-0.308-0.031-0.462-0.062c-0.154-0.03-0.309-0.061-0.432-0.123
		c-0.123-0.062-0.216-0.139-0.277-0.231l-2.434-4.16h-2.034v4.16c0,0.139-0.046,0.231-0.154,0.308
		c-0.093,0.077-0.216,0.123-0.354,0.123c-0.093,0-0.232,0-0.401-0.015c-0.17-0.016-0.324-0.031-0.493-0.046
		c-0.154-0.016-0.293-0.062-0.416-0.108C74.836,106.69,74.773,106.644,74.773,106.567 M65.068,106.382V95.228
		c0-0.139,0.046-0.247,0.154-0.324c0.092-0.077,0.216-0.107,0.37-0.107h6.64c0.123,0,0.231,0.046,0.308,0.154
		c0.077,0.092,0.123,0.215,0.123,0.339c0,0.092,0,0.2-0.015,0.354c-0.016,0.154-0.031,0.293-0.046,0.431
		c-0.016,0.139-0.062,0.262-0.093,0.355c-0.046,0.092-0.108,0.154-0.169,0.154h-5.269v3.204h4.514c0.108,0,0.2,0.047,0.292,0.139
		c0.078,0.092,0.124,0.2,0.124,0.323c0,0.093,0,0.201-0.016,0.355c-0.015,0.154-0.03,0.292-0.046,0.431
		c-0.015,0.139-0.062,0.262-0.092,0.37c-0.047,0.092-0.093,0.154-0.17,0.154h-4.622v3.389h5.161c0.124,0,0.232,0.047,0.309,0.139
		c0.077,0.093,0.123,0.2,0.123,0.339c0,0.092,0,0.2-0.016,0.354c-0.015,0.139-0.03,0.293-0.046,0.432
		c-0.015,0.138-0.061,0.262-0.092,0.37c-0.046,0.107-0.108,0.154-0.17,0.154h-6.501c-0.154,0-0.324-0.031-0.493-0.108
		C65.145,106.536,65.068,106.459,65.068,106.382 M58.998,103.547l2.496-8.581c0.154-0.154,0.339-0.246,0.539-0.293
		c0.2-0.031,0.431-0.061,0.709-0.061c0.107,0,0.231,0,0.338,0.015c0.124,0.015,0.216,0.031,0.293,0.077
		c0.077,0.046,0.139,0.093,0.185,0.17c0.046,0.077,0.031,0.169,0,0.308l-3.836,11.478c-0.016,0.092-0.077,0.154-0.17,0.2
		c-0.092,0.046-0.185,0.061-0.292,0.061c-0.37,0-0.678-0.015-0.925-0.061c-0.246-0.046-0.4-0.108-0.462-0.185l-3.821-11.493
		c-0.031-0.108-0.031-0.201,0-0.278c0.031-0.077,0.077-0.123,0.154-0.169c0.062-0.046,0.139-0.077,0.231-0.093
		c0.077-0.015,0.154-0.03,0.201-0.03c0.169,0,0.339,0,0.508,0.015c0.17,0.015,0.324,0.031,0.478,0.062
		c0.138,0.031,0.262,0.077,0.369,0.123c0.093,0.062,0.17,0.123,0.201,0.216l2.557,8.504c0.046,0.139,0.077,0.277,0.093,0.416
		c0.015,0.154,0.031,0.277,0.061,0.401c0.016-0.124,0.031-0.262,0.046-0.401C58.921,103.809,58.951,103.671,58.998,103.547
		 M52.589,106.475c0,0.138-0.047,0.246-0.154,0.323c-0.093,0.077-0.216,0.123-0.37,0.123c-0.093,0-0.231,0-0.401-0.015
		c-0.169-0.015-0.323-0.031-0.493-0.046c-0.154-0.015-0.293-0.062-0.416-0.108s-0.169-0.108-0.169-0.169V94.981
		c0-0.061,0.061-0.123,0.169-0.169c0.123-0.046,0.247-0.092,0.416-0.108c0.154-0.015,0.324-0.046,0.493-0.046
		c0.17-0.016,0.293-0.016,0.401-0.016c0.138,0,0.262,0.047,0.37,0.139c0.092,0.093,0.154,0.2,0.154,0.324V106.475z M46.518,103.239
		V94.92c0-0.062,0.062-0.123,0.185-0.154c0.124-0.046,0.262-0.077,0.432-0.093c0.169-0.015,0.339-0.031,0.508-0.046
		c0.17-0.015,0.308-0.015,0.401-0.015c0.292,0,0.431,0.169,0.431,0.493v11.37c0,0.138-0.046,0.231-0.154,0.308
		c-0.108,0.077-0.216,0.123-0.339,0.123c-0.092,0-0.2,0-0.354-0.015c-0.154-0.016-0.293-0.016-0.447-0.046
		c-0.154-0.031-0.278-0.062-0.401-0.093c-0.123-0.046-0.2-0.092-0.246-0.154l-5.377-8.273v8.15c0,0.138-0.046,0.246-0.154,0.323
		c-0.092,0.077-0.216,0.123-0.355,0.123c-0.092,0-0.231,0-0.4-0.015c-0.17-0.015-0.339-0.031-0.493-0.046s-0.293-0.062-0.401-0.108
		c-0.123-0.046-0.169-0.108-0.169-0.169V94.981c0-0.061,0.061-0.123,0.169-0.169c0.124-0.046,0.247-0.092,0.401-0.108
		c0.154-0.015,0.308-0.031,0.477-0.046c0.17-0.016,0.293-0.016,0.401-0.016c0.123,0,0.231,0.031,0.308,0.108
		c0.077,0.077,0.154,0.154,0.201,0.247L46.518,103.239z M35.056,102.5v-7.488c0-0.061,0.062-0.123,0.169-0.169
		c0.124-0.046,0.262-0.093,0.416-0.123c0.17-0.031,0.339-0.062,0.493-0.078c0.17-0.015,0.293-0.03,0.401-0.03
		c0.139,0,0.262,0.046,0.354,0.154c0.093,0.108,0.139,0.215,0.139,0.339v7.487c0,0.817-0.092,1.495-0.277,2.049
		c-0.185,0.555-0.447,0.986-0.817,1.341c-0.37,0.339-0.832,0.585-1.386,0.724c-0.555,0.139-1.218,0.215-1.957,0.215h-0.139
		c-0.724,0-1.371-0.076-1.91-0.215c-0.555-0.139-1.002-0.385-1.371-0.724c-0.37-0.339-0.632-0.786-0.817-1.341
		c-0.185-0.539-0.277-1.232-0.277-2.049v-7.58c0-0.061,0.061-0.123,0.169-0.169c0.124-0.046,0.247-0.093,0.416-0.123
		c0.154-0.031,0.324-0.062,0.493-0.078c0.17-0.015,0.308-0.03,0.401-0.03c0.138,0,0.246,0.046,0.354,0.154
		c0.093,0.108,0.154,0.215,0.154,0.339v7.379c0,0.478,0.031,0.879,0.108,1.218c0.077,0.338,0.2,0.616,0.385,0.816
		c0.185,0.216,0.432,0.37,0.74,0.462c0.308,0.093,0.693,0.154,1.155,0.154h0.139c0.478,0,0.863-0.046,1.186-0.154
		c0.308-0.108,0.57-0.262,0.755-0.462c0.185-0.216,0.324-0.478,0.401-0.816C35.025,103.378,35.056,102.978,35.056,102.5
		 M106.742,75.538v14.313h-3.944V67.989h5.5l5.285,13.466V67.989h4.006v21.862h-5.023L106.742,75.538z M95.419,67.989h4.437v21.862
		h-4.437V67.989z M78.395,67.989h4.56v9.506l5.685-9.506h4.76L87.084,78.05L93.4,89.867h-5.284l-5.161-10.631v10.631h-4.56V67.989z
		 M70.967,84.998H64.62l-1.156,4.869h-4.575l6.162-21.878h5.824l6.07,21.878h-4.791L70.967,84.998z M70.06,81.193l-2.188-9.044
		l-2.296,9.044H70.06z M45.625,67.989h11.817v3.713h-7.195v4.668h6.625v3.806h-6.625v5.823h7.21v3.852H45.625V67.989z
		 M35.595,67.989c5.839,0,7.642,3.097,7.642,10.939s-1.818,10.939-7.657,10.939h-7.488V67.989H35.595z M32.683,86.092h2.08
		c3.405,0,3.836-2.003,3.836-7.241c0-5.223-0.431-7.226-3.836-7.226h-2.08V86.092z M81.507,51.366l-9.938-17.24l1.31-2.203
		l11.154,19.443H81.507z M76.808,51.366l-7.611-13.142l1.279-2.157l8.766,15.299H76.808z M72.032,51.366l-5.223-9.013l1.325-2.234
		l6.424,11.231h-2.526V51.366z M67.225,51.366l-2.804-4.869l1.325-2.234l4.052,7.103H67.225z M61.601,51.366l1.71-2.928l1.711,2.928
		H61.601z M59.429,29.889v18.365c0,7.41,6.009,13.419,13.419,13.419c7.411,0,13.419-6.009,13.419-13.419V29.889H59.429z"/>
	<path style="clip-path:url(#SVGID_00000177473180449546616940000001469477129081153168_);" d="M533.553,108.842v18.947h2.408v-9.89
		l6.726,9.89h3.087l-7.289-10.389l6.905-8.558h-2.729l-6.7,8.327v-8.327H533.553z M524.702,110.943c0.871,0,1.544,0.241,2.018,0.724
		c0.474,0.482,0.711,1.215,0.711,2.197c0,1.008-0.261,1.787-0.782,2.338s-1.345,0.826-2.472,0.826h-2.947v-6.085H524.702z
		 M518.796,108.842v18.947h2.434v-8.711h2.05c1.102,0,1.866,0.094,2.293,0.282s0.754,0.493,0.98,0.916s0.369,1.031,0.429,1.825
		l0.103,1.474l0.102,2.062c0.017,0.351,0.064,0.713,0.141,1.089c0.077,0.376,0.18,0.73,0.308,1.063h2.523
		c-0.401-1.691-0.612-3.326-0.634-4.906c-0.021-1.58-0.239-2.75-0.653-3.51c-0.414-0.76-1.228-1.243-2.441-1.448
		c1.111-0.213,1.965-0.705,2.563-1.473c0.597-0.769,0.896-1.738,0.896-2.908c0-1.435-0.408-2.577-1.223-3.427
		c-0.816-0.85-1.885-1.275-3.209-1.275H518.796z M505.414,115.171c0-1.657,0.269-2.859,0.807-3.607
		c0.538-0.747,1.426-1.121,2.665-1.121c1.255,0,2.154,0.408,2.697,1.224c0.542,0.815,0.813,2.052,0.813,3.709v4.496
		c0,1.845-0.092,3.148-0.275,3.908c-0.184,0.76-0.528,1.33-1.032,1.71c-0.504,0.38-1.247,0.57-2.229,0.57
		c-1.247,0-2.133-0.391-2.658-1.172c-0.525-0.782-0.788-2.133-0.788-4.055V115.171z M513.427,110.149
		c-0.96-1.187-2.474-1.781-4.541-1.781c-2.067,0-3.573,0.562-4.516,1.685c-0.944,1.123-1.416,3.047-1.416,5.771v4.932
		c0,2.52,0.463,4.375,1.39,5.567c0.927,1.191,2.394,1.787,4.401,1.787c2.161,0,3.722-0.592,4.682-1.775
		c0.961-1.182,1.442-3.32,1.442-6.412v-3.548C514.869,113.411,514.388,111.336,513.427,110.149 M477.643,108.842l4.625,18.947h2.933
		l3.856-16.423l3.626,16.423h2.934l5.009-18.947h-2.511l-3.882,16.424l-3.472-16.424h-3.113l-3.83,16.424l-3.6-16.424H477.643z
		 M463.204,108.842v2.101h4.958v16.846h2.434v-16.846h4.984v-2.101H463.204z M450.855,108.842v18.947h9.941v-2.101h-7.533v-6.584
		h6.828v-2.076h-6.828v-6.085h7.354v-2.101H450.855z M433.69,108.842v18.947h2.178v-16.423l7.533,16.423h3.279v-18.947h-2.152
		v16.219l-7.456-16.219H433.69z M422.826,109.796c-0.876-0.858-2.163-1.287-3.863-1.287c-1.759,0-3.143,0.457-4.15,1.371
		c-1.008,0.914-1.512,2.135-1.512,3.664c0,0.973,0.231,1.832,0.692,2.575c0.461,0.743,1.17,1.405,2.126,1.985
		c0.957,0.581,1.975,1.136,3.056,1.666c1.08,0.529,1.791,1.063,2.133,1.601c0.341,0.538,0.512,1.076,0.512,1.614
		c0,0.914-0.307,1.647-0.922,2.197c-0.615,0.551-1.418,0.827-2.409,0.827c-0.965,0-1.748-0.303-2.35-0.91
		c-0.602-0.606-0.904-1.46-0.904-2.562v-0.551h-2.382v0.743c0,1.751,0.478,3.081,1.434,3.991c0.957,0.909,2.34,1.364,4.151,1.364
		c1.751,0,3.165-0.457,4.241-1.371c1.076-0.913,1.614-2.156,1.614-3.728c0-1.033-0.22-1.891-0.66-2.575
		c-0.44-0.683-1.078-1.326-1.915-1.928c-0.837-0.602-1.772-1.136-2.806-1.601c-1.033-0.466-1.817-0.995-2.351-1.589
		c-0.533-0.593-0.8-1.244-0.8-1.953c0-0.872,0.264-1.544,0.794-2.018c0.529-0.474,1.264-0.711,2.203-0.711
		c0.966,0,1.683,0.265,2.153,0.794c0.469,0.53,0.704,1.32,0.704,2.37v0.269h2.524v-0.423
		C424.139,111.929,423.701,110.655,422.826,109.796 M401.078,108.842v18.947h9.339v-2.101h-6.93v-16.846H401.078z M393.359,121.23
		h-6.136l3.036-10.159L393.359,121.23z M388.798,108.842l-6.008,18.947h2.46l1.396-4.509h7.315l1.371,4.509h2.703l-6.175-18.947
		H388.798z M377.167,127.789h2.447v-18.948h-2.447V127.789z M368.156,110.943c0.872,0,1.544,0.241,2.018,0.724
		c0.474,0.482,0.711,1.215,0.711,2.197c0,1.008-0.261,1.787-0.781,2.338c-0.521,0.551-1.346,0.826-2.473,0.826h-2.946v-6.085
		H368.156z M362.25,108.842v18.947h2.435v-8.711h2.049c1.102,0,1.866,0.094,2.294,0.282c0.426,0.188,0.753,0.493,0.98,0.916
		c0.226,0.423,0.369,1.031,0.429,1.825l0.102,1.474l0.103,2.062c0.017,0.351,0.064,0.713,0.141,1.089
		c0.076,0.376,0.179,0.73,0.307,1.063h2.524c-0.402-1.691-0.613-3.326-0.634-4.906c-0.022-1.58-0.24-2.75-0.654-3.51
		c-0.414-0.76-1.228-1.243-2.44-1.448c1.11-0.213,1.964-0.705,2.562-1.473c0.598-0.769,0.897-1.738,0.897-2.908
		c0-1.435-0.408-2.577-1.224-3.427c-0.815-0.85-1.885-1.275-3.209-1.275H362.25z M346.872,108.842v2.101h4.958v16.846h2.434v-16.846
		h4.984v-2.101H346.872z M331.441,108.842v18.947h9.34v-2.101h-6.931v-16.846H331.441z M323.722,121.23h-6.136l3.036-10.159
		L323.722,121.23z M319.162,108.842l-6.009,18.947h2.46l1.396-4.509h7.315l1.371,4.509h2.703l-6.175-18.947H319.162z
		 M309.584,109.886c-0.82-0.833-2.089-1.249-3.805-1.249c-2.152,0-3.703,0.57-4.651,1.71s-1.422,3-1.422,5.579v3.997
		c0,3.109,0.474,5.247,1.422,6.412c0.948,1.166,2.358,1.749,4.228,1.749c1.887,0,3.307-0.468,4.26-1.403
		c0.952-0.935,1.428-2.368,1.428-4.298v-0.346h-2.485c-0.017,1.333-0.291,2.328-0.82,2.985c-0.53,0.658-1.307,0.987-2.332,0.987
		c-1.144,0-1.968-0.412-2.472-1.237c-0.504-0.824-0.756-2.239-0.756-4.246v-4.6c0-2.118,0.282-3.52,0.845-4.208
		c0.564-0.687,1.41-1.031,2.537-1.031c0.991,0,1.693,0.258,2.107,0.775c0.415,0.517,0.622,1.343,0.622,2.479v0.282h2.524v-0.5
		C310.814,111.998,310.404,110.719,309.584,109.886 M293.22,127.789h2.447v-18.948h-2.447V127.789z M275.902,108.842v18.947h2.178
		v-16.423l7.533,16.423h3.28v-18.947h-2.152v16.219l-7.456-16.219H275.902z M269.141,127.789h2.447v-18.948h-2.447V127.789z
		 M256.737,108.842v18.947h9.339v-2.101h-6.931v-16.846H256.737z M251.761,109.886c-0.82-0.833-2.088-1.249-3.805-1.249
		c-2.152,0-3.702,0.57-4.65,1.71s-1.422,3-1.422,5.579v3.997c0,3.109,0.474,5.247,1.422,6.412c0.948,1.166,2.357,1.749,4.227,1.749
		c1.888,0,3.308-0.468,4.26-1.403s1.428-2.368,1.428-4.298v-0.346h-2.485c-0.017,1.333-0.29,2.328-0.82,2.985
		c-0.529,0.658-1.307,0.987-2.331,0.987c-1.145,0-1.969-0.412-2.473-1.237c-0.504-0.824-0.756-2.239-0.756-4.246v-4.6
		c0-2.118,0.282-3.52,0.846-4.208c0.563-0.687,1.409-1.031,2.536-1.031c0.991,0,1.693,0.258,2.108,0.775
		c0.414,0.517,0.621,1.343,0.621,2.479v0.282h2.524v-0.5C252.991,111.998,252.581,110.719,251.761,109.886"/>
	<path style="clip-path:url(#SVGID_00000177473180449546616940000001469477129081153168_);" d="M658.813,79.342V98.29h9.339v-2.101
		h-6.931V79.342H658.813z M651.094,91.73h-6.137l3.036-10.159L651.094,91.73z M646.534,79.342l-6.009,18.948h2.46l1.397-4.51h7.315
		l1.371,4.51h2.703l-6.175-18.948H646.534z M632.518,81.443c0.871,0,1.543,0.241,2.017,0.724c0.474,0.482,0.711,1.215,0.711,2.197
		c0,1.008-0.26,1.787-0.781,2.338c-0.521,0.551-1.345,0.826-2.473,0.826h-2.946v-6.085H632.518z M626.612,79.342V98.29h2.434v-8.712
		h2.05c1.101,0,1.866,0.094,2.293,0.282c0.427,0.188,0.753,0.493,0.98,0.916c0.226,0.423,0.369,1.031,0.429,1.825l0.102,1.474
		l0.103,2.062c0.017,0.351,0.064,0.714,0.141,1.089c0.077,0.376,0.179,0.73,0.307,1.064h2.524c-0.401-1.691-0.613-3.327-0.634-4.907
		s-0.239-2.75-0.653-3.51c-0.415-0.76-1.228-1.243-2.441-1.448c1.11-0.213,1.964-0.705,2.562-1.473
		c0.598-0.769,0.897-1.738,0.897-2.908c0-1.435-0.408-2.577-1.223-3.427c-0.816-0.85-1.886-1.275-3.21-1.275H626.612z
		 M613.338,79.342V98.29h9.941v-2.101h-7.533v-6.585h6.828v-2.076h-6.828v-6.085h7.354v-2.101H613.338z M596.172,79.342V98.29h2.178
		V81.866l7.533,16.424h3.28V79.342h-2.153v16.219l-7.456-16.219H596.172z M582.813,79.342V98.29h9.941v-2.101h-7.533v-6.585h6.829
		v-2.076h-6.829v-6.085h7.354v-2.101H582.813z M577.503,80.245c-0.807-0.858-2.223-1.287-4.247-1.287
		c-1.495,0-2.699,0.243-3.613,0.73s-1.603,1.266-2.069,2.338c-0.465,1.072-0.698,2.838-0.698,5.297v2.652
		c0,3.348,0.497,5.633,1.492,6.854c0.995,1.222,2.607,1.832,4.837,1.832c1.93,0,3.74-0.465,5.431-1.396v-9.211h-5.905v2.152h3.459
		v5.611c-0.41,0.308-0.867,0.521-1.371,0.641c-0.504,0.119-1.008,0.179-1.512,0.179c-1.426,0-2.438-0.404-3.036-1.211
		c-0.598-0.807-0.897-2.256-0.897-4.349v-4.33c0-2.298,0.263-3.839,0.788-4.625c0.525-0.786,1.514-1.179,2.966-1.179
		c1.05,0,1.823,0.289,2.319,0.865c0.495,0.577,0.743,1.446,0.743,2.607h2.523v-0.269C578.714,82.404,578.31,81.104,577.503,80.245
		 M554.367,91.73h-6.137l3.036-10.159L554.367,91.73z M549.805,79.342l-6.008,18.948h2.459l1.397-4.51h7.315l1.371,4.51h2.703
		l-6.175-18.948H549.805z M538.174,98.29h2.447V79.342h-2.447V98.29z M525.77,79.342V98.29h9.34v-2.101h-6.931V79.342H525.77z
		 M518.05,91.73h-6.136l3.036-10.159L518.05,91.73z M513.49,79.342l-6.009,18.948h2.46l1.396-4.51h7.316l1.37,4.51h2.703
		l-6.174-18.948H513.49z M499.474,81.443c0.872,0,1.544,0.241,2.018,0.724c0.474,0.482,0.711,1.215,0.711,2.197
		c0,1.008-0.26,1.787-0.781,2.338c-0.521,0.551-1.345,0.826-2.473,0.826h-2.946v-6.085H499.474z M493.569,79.342V98.29h2.434v-8.712
		h2.049c1.102,0,1.866,0.094,2.294,0.282c0.427,0.188,0.753,0.493,0.98,0.916c0.226,0.423,0.369,1.031,0.429,1.825l0.102,1.474
		l0.103,2.062c0.017,0.351,0.064,0.714,0.141,1.089c0.077,0.376,0.179,0.73,0.307,1.064h2.524c-0.402-1.691-0.613-3.327-0.634-4.907
		c-0.022-1.58-0.239-2.75-0.654-3.51c-0.414-0.76-1.227-1.243-2.44-1.448c1.11-0.213,1.964-0.705,2.562-1.473
		c0.598-0.769,0.897-1.738,0.897-2.908c0-1.435-0.408-2.577-1.224-3.427c-0.815-0.85-1.885-1.275-3.209-1.275H493.569z
		 M478.19,79.342v2.101h4.958V98.29h2.434V81.443h4.984v-2.101H478.19z M474.246,80.296c-0.875-0.858-2.163-1.287-3.862-1.287
		c-1.76,0-3.143,0.457-4.151,1.371c-1.008,0.914-1.512,2.135-1.512,3.664c0,0.973,0.231,1.832,0.692,2.575s1.17,1.405,2.127,1.985
		c0.956,0.581,1.975,1.136,3.055,1.666c1.081,0.53,1.792,1.063,2.133,1.601c0.342,0.538,0.513,1.076,0.513,1.614
		c0,0.914-0.308,1.647-0.923,2.198c-0.615,0.55-1.418,0.826-2.408,0.826c-0.965,0-1.749-0.303-2.351-0.91
		c-0.602-0.606-0.903-1.46-0.903-2.562v-0.551h-2.383v0.743c0,1.751,0.478,3.081,1.435,3.991c0.956,0.909,2.34,1.364,4.151,1.364
		c1.75,0,3.164-0.457,4.24-1.371c1.076-0.913,1.614-2.156,1.614-3.728c0-1.033-0.22-1.891-0.66-2.575
		c-0.439-0.683-1.078-1.326-1.915-1.928c-0.837-0.602-1.772-1.135-2.805-1.601c-1.034-0.465-1.818-0.995-2.351-1.589
		c-0.534-0.593-0.801-1.244-0.801-1.953c0-0.871,0.265-1.544,0.794-2.018c0.53-0.474,1.264-0.711,2.204-0.711
		c0.965,0,1.682,0.265,2.152,0.794c0.47,0.53,0.705,1.32,0.705,2.37v0.269h2.524v-0.422
		C475.56,82.429,475.122,81.155,474.246,80.296 M448.935,79.342v13.259c0,1.939,0.506,3.434,1.518,4.484
		c1.012,1.051,2.457,1.576,4.336,1.576c1.99,0,3.466-0.553,4.427-1.659c0.96-1.106,1.441-2.756,1.441-4.951V79.342h-2.357v12.914
		c0,1.452-0.276,2.536-0.827,3.254c-0.551,0.717-1.437,1.076-2.658,1.076c-1.145,0-2.009-0.348-2.594-1.044
		c-0.585-0.696-0.878-1.698-0.878-3.005V79.342H448.935z M441.833,91.73h-6.136l3.036-10.159L441.833,91.73z M437.271,79.342
		l-6.008,18.948h2.46l1.396-4.51h7.315l1.371,4.51h2.703l-6.175-18.948H437.271z M411.554,79.342V98.29h2.421v-8.738h6.636v8.738
		h2.409V79.342h-2.409v8.109h-6.636v-8.109H411.554z M396.078,79.342v2.101h4.958V98.29h2.434V81.443h4.983v-2.101H396.078z
		 M387.224,79.342V98.29h9.339v-2.101h-6.931V79.342H387.224z M379.505,91.73h-6.137l3.036-10.159L379.505,91.73z M374.944,79.342
		l-6.009,18.948h2.46l1.397-4.51h7.315l1.37,4.51h2.704l-6.175-18.948H374.944z M356.492,79.342V98.29h9.941v-2.101H358.9v-6.585
		h6.828v-2.076H358.9v-6.085h7.354v-2.101H356.492z M340.852,79.342V98.29h2.422v-8.738h6.636v8.738h2.408V79.342h-2.408v8.109
		h-6.636v-8.109H340.852z M323.512,79.342V98.29h9.34v-2.101h-6.931V79.342H323.512z M315.793,91.73h-6.136l3.036-10.159
		L315.793,91.73z M311.233,79.342l-6.009,18.948h2.46l1.396-4.51h7.315l1.371,4.51h2.703l-6.175-18.948H311.233z M293.229,79.342
		v2.101h4.958V98.29h2.434V81.443h4.984v-2.101H293.229z M277.148,79.342V98.29h2.178V81.866l7.533,16.424h3.28V79.342h-2.153
		v16.219l-7.456-16.219H277.148z M263.789,79.342V98.29h9.941v-2.101h-7.533v-6.585h6.828v-2.076h-6.828v-6.085h7.354v-2.101
		H263.789z M242.204,79.342V98.29h2.229V81.469l5.278,16.821h2.255l5.355-16.821V98.29h2.306V79.342h-3.856l-4.855,15.899
		l-4.805-15.899H242.204z"/>
	<path style="clip-path:url(#SVGID_00000177473180449546616940000001469477129081153168_);" d="M428.933,16.543v6.855h9.712V58.79
		h8.97V23.398h9.826v-6.855H428.933z M401.692,16.543V58.79H425.2v-6.599h-14.682V39.966h13.111v-6.513h-13.111V23.056h14.225
		v-6.513H401.692z M363.161,16.543V58.79h8.198V27.912l11.569,30.878h11.597V16.543h-8.198v29.25l-11.283-29.25H363.161z
		 M356.057,28.197c0-4.075-1.181-7.212-3.542-9.412c-2.361-2.199-5.722-3.299-10.083-3.299c-3.504,0-6.351,0.667-8.541,2
		c-2.19,1.333-3.799,3.409-4.827,6.227c-1.028,2.818-1.543,7.198-1.543,13.139c0,6.399,0.41,11.022,1.229,13.868
		c0.818,2.847,2.442,4.99,4.87,6.427c2.428,1.438,5.832,2.157,10.212,2.157c1.314,0,2.732-0.076,4.256-0.229
		c1.523-0.152,4.18-0.58,7.969-1.285V36.395h-13.568v6.542h4.856v9.312c-0.724,0.266-1.447,0.466-2.171,0.599
		c-0.724,0.134-1.485,0.2-2.285,0.2c-2.304,0-3.918-0.804-4.842-2.413c-0.923-1.609-1.423-3.928-1.499-6.956l-0.086-6.541
		c0-1.409,0.038-3.489,0.114-6.241c0.076-2.752,0.538-4.961,1.386-6.627c0.847-1.666,2.28-2.5,4.299-2.5
		c1.523,0,2.742,0.505,3.656,1.514c0.914,1.01,1.371,2.314,1.371,3.914v2.056h8.769V28.197z M306.763,24.684l4.399,18.367h-8.541
		L306.763,24.684z M301.507,16.543L289.796,58.79h8.741l2.399-9.369h12.026l2.342,9.369h9.312l-11.454-42.247H301.507z
		 M243.513,16.543V58.79h8.369V26.198l7.827,32.592h8.427l8.255-32.592V58.79h8.598V16.543h-13.74l-7.084,28.736l-6.684-28.736
		H243.513z"/>
</g>
</svg>
