<?xml version="1.0" encoding="iso-8859-1"?>
<!-- Generator: Adobe Illustrator 29.5.1, SVG Export Plug-In . SVG Version: 9.03 Build 0)  -->
<svg version="1.1" id="Layer_1" xmlns="http://www.w3.org/2000/svg" xmlns:xlink="http://www.w3.org/1999/xlink" x="0px" y="0px"
	 viewBox="0 0 720 144" style="enable-background:new 0 0 720 144;" xml:space="preserve">
<g>
	<defs>
		<rect id="SVGID_1_" width="720" height="144"/>
	</defs>
	<clipPath id="SVGID_00000006666526381175376960000017177704496242562441_">
		<use xlink:href="#SVGID_1_"  style="overflow:visible;"/>
	</clipPath>
	<path style="clip-path:url(#SVGID_00000006666526381175376960000017177704496242562441_);" d="M72.921,1.3
		C33.757,1.3,2.008,32.959,2.008,72.012s31.749,70.712,70.913,70.712s70.912-31.659,70.912-70.712S112.085,1.3,72.921,1.3"/>
	<path style="clip-path:url(#SVGID_00000006666526381175376960000017177704496242562441_);fill:#FFFFFF;" d="M72.921,2.98
		c38.175,0,69.233,30.968,69.233,69.032s-31.058,69.032-69.233,69.032S3.688,110.076,3.688,72.012S34.746,2.98,72.921,2.98"/>
</g>
<rect x="191.456" y="16.617" width="2" height="111.776"/>
<g>
	<defs>
		<rect id="SVGID_00000136374509841140489220000015249512135480304519_" width="720" height="144"/>
	</defs>
	<clipPath id="SVGID_00000023996682563199451660000003203993393600748706_">
		<use xlink:href="#SVGID_00000136374509841140489220000015249512135480304519_"  style="overflow:visible;"/>
	</clipPath>
	<path style="clip-path:url(#SVGID_00000023996682563199451660000003203993393600748706_);" d="M114.152,102.346v4.129
		c0,0.138-0.046,0.246-0.154,0.323c-0.093,0.077-0.216,0.123-0.37,0.123c-0.092,0-0.231,0-0.385-0.015
		c-0.154-0.015-0.323-0.031-0.478-0.046c-0.154-0.015-0.292-0.062-0.416-0.108c-0.107-0.046-0.169-0.108-0.169-0.169v-4.222
		l-3.605-7.041c-0.123-0.246-0.139-0.416-0.046-0.523c0.092-0.108,0.262-0.17,0.508-0.17c0.154,0,0.308,0,0.478,0.015
		c0.154,0,0.308,0.016,0.446,0.047c0.139,0.015,0.262,0.046,0.355,0.077c0.092,0.031,0.169,0.077,0.2,0.154l2.65,5.408l2.65-5.393
		c0.031-0.061,0.092-0.123,0.2-0.154c0.093-0.031,0.216-0.061,0.355-0.092c0.138-0.016,0.292-0.031,0.446-0.047
		c0.154,0,0.324-0.015,0.478-0.015c0.246,0,0.416,0.046,0.508,0.154c0.077,0.108,0.062,0.277-0.061,0.539L114.152,102.346z
		 M103.615,96.584v9.891c0,0.138-0.046,0.246-0.154,0.323c-0.108,0.077-0.216,0.123-0.354,0.123c-0.093,0-0.231,0-0.401-0.015
		c-0.17-0.015-0.339-0.031-0.493-0.046s-0.293-0.062-0.401-0.108c-0.123-0.046-0.169-0.108-0.169-0.169v-9.984h-3.051
		c-0.123,0-0.215-0.046-0.308-0.139c-0.077-0.092-0.123-0.2-0.123-0.338c0-0.093,0-0.201,0.015-0.355
		c0.016-0.138,0.031-0.292,0.047-0.431c0.015-0.139,0.061-0.262,0.092-0.37c0.046-0.092,0.093-0.154,0.17-0.154h8.165
		c0.123,0,0.216,0.046,0.308,0.139c0.077,0.092,0.123,0.215,0.123,0.339c0,0.092,0,0.2-0.015,0.354s-0.031,0.293-0.046,0.431
		c-0.016,0.139-0.046,0.262-0.093,0.355c-0.046,0.092-0.092,0.154-0.169,0.154H103.615z M96.497,106.475
		c0,0.138-0.046,0.246-0.154,0.323c-0.092,0.077-0.216,0.123-0.37,0.123c-0.092,0-0.231,0-0.4-0.015
		c-0.17-0.015-0.324-0.031-0.493-0.046c-0.154-0.015-0.293-0.062-0.416-0.108c-0.108-0.046-0.17-0.108-0.17-0.169V94.981
		c0-0.061,0.062-0.123,0.17-0.169c0.123-0.046,0.262-0.092,0.416-0.108c0.154-0.015,0.323-0.046,0.493-0.046
		c0.169-0.016,0.292-0.016,0.4-0.016c0.139,0,0.262,0.047,0.37,0.139c0.092,0.093,0.154,0.2,0.154,0.324V106.475z M85.389,104.888
		c0.092,0.015,0.216,0.061,0.401,0.092c0.185,0.047,0.385,0.093,0.631,0.139c0.231,0.046,0.493,0.077,0.786,0.123
		c0.277,0.031,0.57,0.046,0.847,0.046c0.309,0,0.601-0.03,0.878-0.077c0.278-0.046,0.54-0.138,0.755-0.246
		c0.216-0.123,0.401-0.277,0.524-0.462c0.139-0.201,0.201-0.432,0.201-0.724c0-0.401-0.124-0.74-0.386-1.017
		c-0.261-0.278-0.585-0.539-0.97-0.786c-0.385-0.246-0.817-0.493-1.279-0.739c-0.462-0.247-0.878-0.54-1.279-0.863
		c-0.4-0.324-0.724-0.709-0.97-1.156c-0.262-0.447-0.385-0.986-0.385-1.633c0-0.539,0.092-1.001,0.292-1.371
		c0.2-0.37,0.463-0.678,0.801-0.924c0.339-0.232,0.755-0.416,1.218-0.524c0.477-0.108,1.001-0.17,1.571-0.17
		c0.123,0,0.308,0,0.555,0.016c0.246,0.015,0.508,0.03,0.785,0.061c0.278,0.031,0.555,0.062,0.817,0.108
		c0.277,0.046,0.493,0.108,0.647,0.185c0.154,0.062,0.247,0.139,0.277,0.216c0.031,0.077,0.031,0.2,0.016,0.385
		c-0.016,0.293-0.077,0.524-0.185,0.724c-0.093,0.2-0.231,0.277-0.416,0.246c-0.278-0.061-0.586-0.107-0.94-0.169
		c-0.354-0.046-0.755-0.077-1.186-0.077c-0.678,0-1.248,0.108-1.68,0.293c-0.431,0.2-0.647,0.523-0.647,0.986
		c0,0.369,0.124,0.678,0.386,0.939c0.261,0.263,0.585,0.509,0.97,0.74s0.817,0.478,1.279,0.724c0.462,0.247,0.878,0.539,1.279,0.878
		c0.385,0.339,0.724,0.74,0.97,1.202c0.262,0.462,0.385,1.048,0.385,1.71c0,0.632-0.123,1.156-0.354,1.556
		c-0.231,0.416-0.555,0.724-0.94,0.955c-0.385,0.232-0.847,0.386-1.356,0.478c-0.508,0.093-1.047,0.139-1.602,0.139
		c-0.246,0-0.524-0.016-0.801-0.031s-0.539-0.046-0.817-0.077c-0.261-0.031-0.508-0.077-0.754-0.123
		c-0.232-0.047-0.432-0.093-0.601-0.154c-0.17-0.062-0.262-0.124-0.293-0.185c-0.031-0.077-0.046-0.201-0.015-0.37
		c0.03-0.324,0.092-0.601,0.184-0.817C85.112,104.949,85.234,104.842,85.389,104.888 M79.057,96.568H76.76v3.991h2.296
		c0.447,0,0.816-0.031,1.078-0.077c0.278-0.047,0.478-0.139,0.632-0.278c0.154-0.138,0.247-0.308,0.293-0.539
		s0.077-0.539,0.077-0.909v-0.37c0-0.369-0.031-0.678-0.077-0.924c-0.046-0.231-0.154-0.416-0.293-0.555
		c-0.154-0.138-0.354-0.215-0.632-0.277C79.857,96.599,79.504,96.568,79.057,96.568 M74.773,106.567V95.228
		c0-0.123,0.046-0.216,0.154-0.308c0.108-0.077,0.216-0.123,0.37-0.123h3.651c0.755,0,1.402,0.061,1.941,0.169
		c0.539,0.108,0.971,0.308,1.31,0.585c0.339,0.278,0.585,0.648,0.739,1.11c0.155,0.462,0.231,1.032,0.231,1.741v0.37
		c0,0.523-0.046,0.97-0.123,1.355s-0.216,0.724-0.385,1.002c-0.169,0.277-0.416,0.493-0.709,0.662
		c-0.292,0.17-0.647,0.293-1.047,0.385l2.295,3.975c0.124,0.216,0.185,0.37,0.185,0.478c0,0.061-0.031,0.123-0.077,0.169
		c-0.061,0.047-0.123,0.077-0.185,0.093c-0.061,0.015-0.138,0.03-0.2,0.046c-0.077,0-0.123,0.015-0.154,0.015
		c-0.093,0-0.231,0-0.385-0.015c-0.154-0.016-0.308-0.031-0.462-0.062c-0.154-0.03-0.309-0.061-0.432-0.123
		c-0.123-0.062-0.216-0.139-0.277-0.231l-2.434-4.16h-2.034v4.16c0,0.139-0.046,0.231-0.154,0.308
		c-0.093,0.077-0.216,0.123-0.354,0.123c-0.093,0-0.232,0-0.401-0.015c-0.17-0.016-0.324-0.031-0.493-0.046
		c-0.154-0.016-0.293-0.062-0.416-0.108C74.836,106.69,74.773,106.644,74.773,106.567 M65.068,106.382V95.228
		c0-0.139,0.046-0.247,0.154-0.324c0.092-0.077,0.216-0.107,0.37-0.107h6.64c0.123,0,0.231,0.046,0.308,0.154
		c0.077,0.092,0.123,0.215,0.123,0.339c0,0.092,0,0.2-0.015,0.354c-0.016,0.154-0.031,0.293-0.046,0.431
		c-0.016,0.139-0.062,0.262-0.093,0.355c-0.046,0.092-0.108,0.154-0.169,0.154h-5.269v3.204h4.514c0.108,0,0.2,0.047,0.292,0.139
		c0.078,0.092,0.124,0.2,0.124,0.323c0,0.093,0,0.201-0.016,0.355c-0.015,0.154-0.03,0.292-0.046,0.431
		c-0.015,0.139-0.062,0.262-0.092,0.37c-0.047,0.092-0.093,0.154-0.17,0.154h-4.622v3.389h5.161c0.124,0,0.232,0.047,0.309,0.139
		c0.077,0.093,0.123,0.2,0.123,0.339c0,0.092,0,0.2-0.016,0.354c-0.015,0.139-0.03,0.293-0.046,0.432
		c-0.015,0.138-0.061,0.262-0.092,0.37c-0.046,0.107-0.108,0.154-0.17,0.154h-6.501c-0.154,0-0.324-0.031-0.493-0.108
		C65.145,106.536,65.068,106.459,65.068,106.382 M58.998,103.547l2.496-8.581c0.154-0.154,0.339-0.246,0.539-0.293
		c0.2-0.031,0.431-0.061,0.709-0.061c0.107,0,0.231,0,0.338,0.015c0.124,0.015,0.216,0.031,0.293,0.077
		c0.077,0.046,0.139,0.093,0.185,0.17c0.046,0.077,0.031,0.169,0,0.308l-3.836,11.478c-0.016,0.092-0.077,0.154-0.17,0.2
		c-0.092,0.046-0.185,0.061-0.292,0.061c-0.37,0-0.678-0.015-0.925-0.061c-0.246-0.046-0.4-0.108-0.462-0.185l-3.821-11.493
		c-0.031-0.108-0.031-0.201,0-0.278c0.031-0.077,0.077-0.123,0.154-0.169c0.062-0.046,0.139-0.077,0.231-0.093
		c0.077-0.015,0.154-0.03,0.201-0.03c0.169,0,0.339,0,0.508,0.015c0.17,0.015,0.324,0.031,0.478,0.062
		c0.138,0.031,0.262,0.077,0.369,0.123c0.093,0.062,0.17,0.123,0.201,0.216l2.557,8.504c0.046,0.139,0.077,0.277,0.093,0.416
		c0.015,0.154,0.031,0.277,0.061,0.401c0.016-0.124,0.031-0.262,0.046-0.401C58.921,103.809,58.951,103.671,58.998,103.547
		 M52.589,106.475c0,0.138-0.047,0.246-0.154,0.323c-0.093,0.077-0.216,0.123-0.37,0.123c-0.093,0-0.231,0-0.401-0.015
		c-0.169-0.015-0.323-0.031-0.493-0.046c-0.154-0.015-0.293-0.062-0.416-0.108s-0.169-0.108-0.169-0.169V94.981
		c0-0.061,0.061-0.123,0.169-0.169c0.123-0.046,0.247-0.092,0.416-0.108c0.154-0.015,0.324-0.046,0.493-0.046
		c0.17-0.016,0.293-0.016,0.401-0.016c0.138,0,0.262,0.047,0.37,0.139c0.092,0.093,0.154,0.2,0.154,0.324V106.475z M46.518,103.239
		V94.92c0-0.062,0.062-0.123,0.185-0.154c0.124-0.046,0.262-0.077,0.432-0.093c0.169-0.015,0.339-0.031,0.508-0.046
		c0.17-0.015,0.308-0.015,0.401-0.015c0.292,0,0.431,0.169,0.431,0.493v11.37c0,0.138-0.046,0.231-0.154,0.308
		c-0.108,0.077-0.216,0.123-0.339,0.123c-0.092,0-0.2,0-0.354-0.015c-0.154-0.016-0.293-0.016-0.447-0.046
		c-0.154-0.031-0.278-0.062-0.401-0.093c-0.123-0.046-0.2-0.092-0.246-0.154l-5.377-8.273v8.15c0,0.138-0.046,0.246-0.154,0.323
		c-0.092,0.077-0.216,0.123-0.355,0.123c-0.092,0-0.231,0-0.4-0.015c-0.17-0.015-0.339-0.031-0.493-0.046s-0.293-0.062-0.401-0.108
		c-0.123-0.046-0.169-0.108-0.169-0.169V94.981c0-0.061,0.061-0.123,0.169-0.169c0.124-0.046,0.247-0.092,0.401-0.108
		c0.154-0.015,0.308-0.031,0.477-0.046c0.17-0.016,0.293-0.016,0.401-0.016c0.123,0,0.231,0.031,0.308,0.108
		c0.077,0.077,0.154,0.154,0.201,0.247L46.518,103.239z M35.056,102.5v-7.488c0-0.061,0.062-0.123,0.169-0.169
		c0.124-0.046,0.262-0.093,0.416-0.123c0.17-0.031,0.339-0.062,0.493-0.078c0.17-0.015,0.293-0.03,0.401-0.03
		c0.139,0,0.262,0.046,0.354,0.154c0.093,0.108,0.139,0.215,0.139,0.339v7.487c0,0.817-0.092,1.495-0.277,2.049
		c-0.185,0.555-0.447,0.986-0.817,1.341c-0.37,0.339-0.832,0.585-1.386,0.724c-0.555,0.139-1.218,0.215-1.957,0.215h-0.139
		c-0.724,0-1.371-0.076-1.91-0.215c-0.555-0.139-1.002-0.385-1.371-0.724c-0.37-0.339-0.632-0.786-0.817-1.341
		c-0.185-0.539-0.277-1.232-0.277-2.049v-7.58c0-0.061,0.061-0.123,0.169-0.169c0.124-0.046,0.247-0.093,0.416-0.123
		c0.154-0.031,0.324-0.062,0.493-0.078c0.17-0.015,0.308-0.03,0.401-0.03c0.138,0,0.246,0.046,0.354,0.154
		c0.093,0.108,0.154,0.215,0.154,0.339v7.379c0,0.478,0.031,0.879,0.108,1.218c0.077,0.338,0.2,0.616,0.385,0.816
		c0.185,0.216,0.432,0.37,0.74,0.462c0.308,0.093,0.693,0.154,1.155,0.154h0.139c0.478,0,0.863-0.046,1.186-0.154
		c0.308-0.108,0.57-0.262,0.755-0.462c0.185-0.216,0.324-0.478,0.401-0.816C35.025,103.378,35.056,102.978,35.056,102.5
		 M106.742,75.538v14.313h-3.944V67.989h5.5l5.285,13.466V67.989h4.006v21.862h-5.023L106.742,75.538z M95.419,67.989h4.437v21.862
		h-4.437V67.989z M78.395,67.989h4.56v9.506l5.685-9.506h4.76L87.084,78.05L93.4,89.867h-5.284l-5.161-10.631v10.631h-4.56V67.989z
		 M70.967,84.998H64.62l-1.156,4.869h-4.575l6.162-21.878h5.824l6.07,21.878h-4.791L70.967,84.998z M70.06,81.193l-2.188-9.044
		l-2.296,9.044H70.06z M45.625,67.989h11.817v3.713h-7.195v4.668h6.625v3.806h-6.625v5.823h7.21v3.852H45.625V67.989z
		 M35.595,67.989c5.839,0,7.642,3.097,7.642,10.939s-1.818,10.939-7.657,10.939h-7.488V67.989H35.595z M32.683,86.092h2.08
		c3.405,0,3.836-2.003,3.836-7.241c0-5.223-0.431-7.226-3.836-7.226h-2.08V86.092z M81.507,51.366l-9.938-17.24l1.31-2.203
		l11.154,19.443H81.507z M76.808,51.366l-7.611-13.142l1.279-2.157l8.766,15.299H76.808z M72.032,51.366l-5.223-9.013l1.325-2.234
		l6.424,11.231h-2.526V51.366z M67.225,51.366l-2.804-4.869l1.325-2.234l4.052,7.103H67.225z M61.601,51.366l1.71-2.928l1.711,2.928
		H61.601z M59.429,29.889v18.365c0,7.41,6.009,13.419,13.419,13.419c7.411,0,13.419-6.009,13.419-13.419V29.889H59.429z"/>
	<path style="clip-path:url(#SVGID_00000023996682563199451660000003203993393600748706_);" d="M672.537,108.842v18.947h9.34v-2.101
		h-6.931v-16.846H672.537z M664.818,121.23h-6.136l3.036-10.159L664.818,121.23z M660.258,108.842l-6.009,18.947h2.46l1.396-4.509
		h7.315l1.371,4.509h2.703l-6.175-18.947H660.258z M648.627,127.789h2.447v-18.948h-2.447V127.789z M639.616,110.943
		c0.871,0,1.543,0.241,2.017,0.724c0.474,0.482,0.711,1.215,0.711,2.197c0,1.008-0.26,1.787-0.781,2.338s-1.345,0.826-2.473,0.826
		h-2.946v-6.085H639.616z M633.71,108.842v18.947h2.434v-8.711h2.05c1.101,0,1.866,0.094,2.293,0.282s0.753,0.493,0.98,0.916
		c0.226,0.423,0.369,1.031,0.429,1.825l0.102,1.474l0.103,2.062c0.017,0.351,0.064,0.713,0.141,1.089
		c0.077,0.376,0.179,0.73,0.307,1.063h2.524c-0.401-1.691-0.613-3.326-0.634-4.906c-0.021-1.58-0.239-2.75-0.653-3.51
		c-0.415-0.76-1.228-1.243-2.441-1.448c1.11-0.213,1.964-0.705,2.562-1.473c0.598-0.769,0.897-1.738,0.897-2.908
		c0-1.435-0.408-2.577-1.223-3.427c-0.816-0.85-1.886-1.275-3.21-1.275H633.71z M618.332,108.842v2.101h4.958v16.846h2.434v-16.846
		h4.983v-2.101H618.332z M601.402,108.842v18.947h9.941v-2.101h-7.533v-6.584h6.828v-2.076h-6.828v-6.085h7.354v-2.101H601.402z
		 M579.817,108.842v18.947h2.229v-16.82l5.278,16.82h2.255l5.355-16.82v16.82h2.306v-18.947h-3.856l-4.856,15.898l-4.804-15.898
		H579.817z M566.372,115.171c0-1.657,0.269-2.859,0.807-3.607c0.538-0.747,1.426-1.121,2.665-1.121c1.255,0,2.154,0.408,2.696,1.224
		c0.543,0.815,0.814,2.052,0.814,3.709v4.496c0,1.845-0.092,3.148-0.276,3.908c-0.183,0.76-0.527,1.33-1.031,1.71
		c-0.504,0.38-1.247,0.57-2.229,0.57c-1.247,0-2.133-0.391-2.658-1.172c-0.526-0.782-0.788-2.133-0.788-4.055V115.171z
		 M574.385,110.149c-0.961-1.187-2.475-1.781-4.541-1.781c-2.067,0-3.573,0.562-4.516,1.685c-0.944,1.123-1.416,3.047-1.416,5.771
		v4.932c0,2.52,0.463,4.375,1.39,5.567c0.927,1.191,2.394,1.787,4.401,1.787c2.16,0,3.721-0.592,4.682-1.775
		c0.961-1.182,1.441-3.32,1.441-6.412v-3.548C575.826,113.411,575.346,111.336,574.385,110.149 M555.259,110.943
		c0.871,0,1.544,0.241,2.018,0.724c0.474,0.482,0.711,1.215,0.711,2.197c0,1.008-0.261,1.787-0.782,2.338s-1.345,0.826-2.472,0.826
		h-2.947v-6.085H555.259z M549.353,108.842v18.947h2.434v-8.711h2.05c1.102,0,1.866,0.094,2.293,0.282s0.754,0.493,0.98,0.916
		s0.37,1.031,0.429,1.825l0.103,1.474l0.102,2.062c0.017,0.351,0.064,0.713,0.141,1.089c0.077,0.376,0.18,0.73,0.308,1.063h2.524
		c-0.402-1.691-0.613-3.326-0.635-4.906c-0.021-1.58-0.239-2.75-0.653-3.51c-0.414-0.76-1.228-1.243-2.44-1.448
		c1.11-0.213,1.964-0.705,2.562-1.473c0.597-0.769,0.897-1.738,0.897-2.908c0-1.435-0.408-2.577-1.224-3.427
		c-0.816-0.85-1.885-1.275-3.209-1.275H549.353z M536.158,125.688v-14.745h2.703c1.161,0,2.041,0.203,2.639,0.608
		c0.597,0.406,1.007,1.079,1.23,2.018c0.222,0.94,0.333,2.434,0.333,4.484c0,2.451-0.131,4.132-0.391,5.041
		c-0.261,0.91-0.711,1.57-1.352,1.98c-0.64,0.409-1.729,0.614-3.266,0.614H536.158z M533.723,108.842v18.947h4.331
		c1.827,0,3.283-0.262,4.368-0.787c1.085-0.526,1.864-1.373,2.338-2.543s0.711-3.096,0.711-5.778c0-2.46-0.117-4.236-0.352-5.33
		c-0.235-1.093-0.583-1.958-1.044-2.594s-1.098-1.114-1.909-1.435c-0.812-0.32-1.772-0.48-2.883-0.48H533.723z M516.534,108.842
		v18.947h2.178v-16.423l7.533,16.423h3.279v-18.947h-2.152v16.219l-7.456-16.219H516.534z M500.809,108.842l5.125,11.286v7.661
		h2.383v-7.609l5.201-11.338h-2.473l-3.804,9.16l-3.728-9.16H500.809z M497.381,109.796c-0.876-0.858-2.163-1.287-3.863-1.287
		c-1.759,0-3.143,0.457-4.151,1.371c-1.007,0.914-1.511,2.135-1.511,3.664c0,0.973,0.23,1.832,0.691,2.575
		c0.462,0.743,1.171,1.405,2.127,1.985c0.957,0.581,1.975,1.136,3.056,1.666c1.08,0.529,1.791,1.063,2.133,1.601
		c0.341,0.538,0.512,1.076,0.512,1.614c0,0.914-0.307,1.647-0.922,2.197c-0.615,0.551-1.418,0.827-2.409,0.827
		c-0.965,0-1.749-0.303-2.351-0.91c-0.602-0.606-0.903-1.46-0.903-2.562v-0.551h-2.383v0.743c0,1.751,0.479,3.081,1.435,3.991
		c0.957,0.909,2.34,1.364,4.151,1.364c1.751,0,3.164-0.457,4.24-1.371c1.077-0.913,1.615-2.156,1.615-3.728
		c0-1.033-0.22-1.891-0.66-2.575c-0.44-0.683-1.078-1.326-1.915-1.928c-0.838-0.602-1.773-1.136-2.806-1.601
		c-1.034-0.466-1.817-0.995-2.351-1.589c-0.534-0.593-0.801-1.244-0.801-1.953c0-0.872,0.265-1.544,0.795-2.018
		c0.529-0.474,1.264-0.711,2.203-0.711c0.965,0,1.683,0.265,2.152,0.794c0.47,0.53,0.705,1.32,0.705,2.37v0.269h2.524v-0.423
		C498.694,111.929,498.256,110.655,497.381,109.796 M465.02,108.842v18.947h2.178v-16.423l7.533,16.423h3.279v-18.947h-2.152v16.219
		l-7.456-16.219H465.02z M458.259,127.789h2.447v-18.948h-2.447V127.789z M450.394,121.23h-6.136l3.036-10.159L450.394,121.23z
		 M445.833,108.842l-6.008,18.947h2.46l1.396-4.509h7.315l1.371,4.509h2.703l-6.175-18.947H445.833z M430.694,110.943h2.831
		c1.085,0,1.885,0.263,2.402,0.788c0.517,0.525,0.775,1.296,0.775,2.312c0,1.204-0.31,2.056-0.929,2.556
		c-0.619,0.5-1.569,0.749-2.85,0.749h-2.229V110.943z M428.272,108.842v18.947h2.422v-8.34h2.831c1.802,0,3.184-0.433,4.144-1.3
		c0.961-0.867,1.442-2.193,1.442-3.978c0-1.836-0.438-3.183-1.314-4.042c-0.875-0.858-2.239-1.287-4.093-1.287H428.272z
		 M417.44,109.886c-0.819-0.833-2.088-1.249-3.804-1.249c-2.153,0-3.703,0.57-4.651,1.71s-1.422,3-1.422,5.579v3.997
		c0,3.109,0.474,5.247,1.422,6.412c0.948,1.166,2.357,1.749,4.228,1.749c1.887,0,3.307-0.468,4.259-1.403
		c0.953-0.935,1.429-2.368,1.429-4.298v-0.346h-2.485c-0.018,1.333-0.291,2.328-0.82,2.985c-0.53,0.658-1.307,0.987-2.332,0.987
		c-1.145,0-1.969-0.412-2.472-1.237c-0.505-0.824-0.756-2.239-0.756-4.246v-4.6c0-2.118,0.281-3.52,0.845-4.208
		c0.564-0.687,1.409-1.031,2.537-1.031c0.99,0,1.693,0.258,2.107,0.775c0.414,0.517,0.622,1.343,0.622,2.479v0.282h2.523v-0.5
		C418.67,111.998,418.26,110.719,417.44,109.886 M401.076,127.789h2.447v-18.948h-2.447V127.789z M384.016,108.842l5.483,18.947
		h2.883l5.534-18.947h-2.46l-4.471,16.667l-4.356-16.667H384.016z M375.053,108.842v18.947h9.34v-2.101h-6.931v-16.846H375.053z
		 M361.754,108.842v18.947h9.942v-2.101h-7.533v-6.584h6.828v-2.076h-6.828v-6.085h7.353v-2.101H361.754z M349.86,110.943h2.831
		c1.085,0,1.885,0.263,2.402,0.788c0.517,0.525,0.775,1.296,0.775,2.312c0,1.204-0.309,2.056-0.929,2.556
		c-0.619,0.5-1.569,0.749-2.85,0.749h-2.229V110.943z M347.439,108.842v18.947h2.421v-8.34h2.831c1.802,0,3.184-0.433,4.145-1.3
		c0.96-0.867,1.441-2.193,1.441-3.978c0-1.836-0.438-3.183-1.313-4.042c-0.876-0.858-2.24-1.287-4.094-1.287H347.439z
		 M336.607,109.886c-0.82-0.833-2.089-1.249-3.805-1.249c-2.153,0-3.703,0.57-4.651,1.71s-1.422,3-1.422,5.579v3.997
		c0,3.109,0.474,5.247,1.422,6.412c0.948,1.166,2.358,1.749,4.228,1.749c1.887,0,3.307-0.468,4.26-1.403
		c0.952-0.935,1.428-2.368,1.428-4.298v-0.346h-2.485c-0.017,1.333-0.291,2.328-0.82,2.985c-0.53,0.658-1.307,0.987-2.332,0.987
		c-1.144,0-1.968-0.412-2.472-1.237c-0.504-0.824-0.756-2.239-0.756-4.246v-4.6c0-2.118,0.282-3.52,0.845-4.208
		c0.564-0.687,1.41-1.031,2.537-1.031c0.991,0,1.693,0.258,2.107,0.775c0.415,0.517,0.622,1.343,0.622,2.479v0.282h2.523v-0.5
		C337.836,111.998,337.427,110.719,336.607,109.886 M320.243,127.789h2.447v-18.948h-2.447V127.789z M302.925,108.842v18.947h2.178
		v-16.423l7.533,16.423h3.28v-18.947h-2.152v16.219l-7.457-16.219H302.925z M289.455,115.171c0-1.657,0.269-2.859,0.807-3.607
		c0.538-0.747,1.427-1.121,2.665-1.121c1.255,0,2.154,0.408,2.697,1.224c0.542,0.815,0.813,2.052,0.813,3.709v4.496
		c0,1.845-0.092,3.148-0.275,3.908c-0.184,0.76-0.528,1.33-1.032,1.71c-0.504,0.38-1.247,0.57-2.229,0.57
		c-1.247,0-2.133-0.391-2.658-1.172c-0.525-0.782-0.788-2.133-0.788-4.055V115.171z M297.468,110.149
		c-0.96-1.187-2.474-1.781-4.541-1.781s-3.572,0.562-4.516,1.685s-1.416,3.047-1.416,5.771v4.932c0,2.52,0.464,4.375,1.39,5.567
		c0.927,1.191,2.394,1.787,4.401,1.787c2.161,0,3.722-0.592,4.682-1.775c0.961-1.182,1.442-3.32,1.442-6.412v-3.548
		C298.91,113.411,298.429,111.336,297.468,110.149 M278.342,110.943c0.872,0,1.544,0.241,2.018,0.724
		c0.474,0.482,0.711,1.215,0.711,2.197c0,1.008-0.26,1.787-0.781,2.338s-1.345,0.826-2.473,0.826h-2.946v-6.085H278.342z
		 M272.437,108.842v18.947h2.434v-8.711h2.049c1.102,0,1.866,0.094,2.294,0.282c0.427,0.188,0.753,0.493,0.98,0.916
		c0.226,0.423,0.369,1.031,0.429,1.825l0.102,1.474l0.103,2.062c0.017,0.351,0.064,0.713,0.141,1.089
		c0.077,0.376,0.179,0.73,0.307,1.063h2.524c-0.402-1.691-0.613-3.326-0.634-4.906c-0.022-1.58-0.239-2.75-0.654-3.51
		c-0.414-0.76-1.227-1.243-2.44-1.448c1.11-0.213,1.964-0.705,2.562-1.473c0.598-0.769,0.897-1.738,0.897-2.908
		c0-1.435-0.408-2.577-1.224-3.427c-0.815-0.85-1.885-1.275-3.209-1.275H272.437z M256.81,108.842v18.947h2.421v-8.737h6.636v8.737
		h2.409v-18.947h-2.409v8.109h-6.636v-8.109H256.81z M251.761,109.886c-0.82-0.833-2.088-1.249-3.805-1.249
		c-2.152,0-3.702,0.57-4.65,1.71s-1.422,3-1.422,5.579v3.997c0,3.109,0.474,5.247,1.422,6.412c0.948,1.166,2.357,1.749,4.227,1.749
		c1.888,0,3.308-0.468,4.26-1.403s1.428-2.368,1.428-4.298v-0.346h-2.485c-0.017,1.333-0.29,2.328-0.82,2.985
		c-0.529,0.658-1.307,0.987-2.331,0.987c-1.145,0-1.969-0.412-2.473-1.237c-0.504-0.824-0.756-2.239-0.756-4.246v-4.6
		c0-2.118,0.282-3.52,0.846-4.208c0.563-0.687,1.409-1.031,2.536-1.031c0.991,0,1.693,0.258,2.108,0.775
		c0.414,0.517,0.621,1.343,0.621,2.479v0.282h2.524v-0.5C252.991,111.998,252.581,110.719,251.761,109.886"/>
	<path style="clip-path:url(#SVGID_00000023996682563199451660000003203993393600748706_);" d="M642.896,81.443
		c0.872,0,1.544,0.241,2.018,0.724c0.474,0.482,0.711,1.215,0.711,2.197c0,1.008-0.26,1.787-0.781,2.338
		c-0.521,0.551-1.345,0.826-2.473,0.826h-2.946v-6.085H642.896z M636.991,79.342V98.29h2.434v-8.712h2.049
		c1.102,0,1.866,0.094,2.294,0.282c0.427,0.188,0.753,0.493,0.98,0.916c0.226,0.423,0.369,1.031,0.429,1.825l0.102,1.474
		l0.103,2.062c0.017,0.351,0.064,0.714,0.141,1.089c0.077,0.376,0.179,0.73,0.307,1.064h2.524c-0.401-1.691-0.613-3.327-0.634-4.907
		c-0.022-1.58-0.239-2.75-0.653-3.51c-0.415-0.76-1.228-1.243-2.441-1.448c1.11-0.213,1.964-0.705,2.562-1.473
		c0.598-0.769,0.897-1.738,0.897-2.908c0-1.435-0.408-2.577-1.223-3.427c-0.816-0.85-1.886-1.275-3.21-1.275H636.991z
		 M623.609,85.671c0-1.657,0.269-2.859,0.807-3.607c0.538-0.747,1.426-1.121,2.664-1.121c1.256,0,2.155,0.408,2.697,1.224
		c0.542,0.816,0.814,2.052,0.814,3.709v4.496c0,1.845-0.092,3.148-0.276,3.908c-0.184,0.76-0.527,1.33-1.031,1.71
		c-0.504,0.38-1.247,0.57-2.229,0.57c-1.247,0-2.133-0.391-2.659-1.172c-0.525-0.782-0.787-2.133-0.787-4.055V85.671z
		 M631.622,80.649c-0.961-1.187-2.475-1.781-4.542-1.781c-2.067,0-3.572,0.562-4.515,1.685c-0.944,1.123-1.416,3.047-1.416,5.771
		v4.932c0,2.52,0.463,4.375,1.39,5.567c0.926,1.191,2.393,1.787,4.4,1.787c2.161,0,3.722-0.591,4.683-1.774s1.441-3.321,1.441-6.412
		v-3.549C633.063,83.911,632.583,81.836,631.622,80.649 M609.002,79.342V98.29h2.434v-8.686h6.585v-2.076h-6.585v-6.085h6.957
		v-2.101H609.002z M588.575,79.342l5.124,11.287v7.661h2.383v-7.61l5.201-11.338h-2.472l-3.805,9.16l-3.728-9.16H588.575z
		 M578.319,81.443h2.831c1.084,0,1.885,0.263,2.402,0.788c0.517,0.525,0.775,1.296,0.775,2.312c0,1.205-0.31,2.056-0.929,2.556
		c-0.619,0.5-1.569,0.75-2.85,0.75h-2.229V81.443z M575.897,79.342V98.29h2.422v-8.34h2.831c1.802,0,3.183-0.434,4.144-1.301
		s1.441-2.192,1.441-3.978c0-1.836-0.437-3.183-1.313-4.041c-0.875-0.859-2.24-1.288-4.093-1.288H575.897z M568.03,91.73h-6.136
		l3.036-10.159L568.03,91.73z M563.47,79.342l-6.009,18.948h2.46l1.396-4.51h7.315l1.371,4.51h2.703l-6.175-18.948H563.47z
		 M549.453,81.443c0.871,0,1.544,0.241,2.018,0.724c0.474,0.482,0.711,1.215,0.711,2.197c0,1.008-0.261,1.787-0.782,2.338
		c-0.52,0.551-1.345,0.826-2.472,0.826h-2.947v-6.085H549.453z M543.547,79.342V98.29h2.434v-8.712h2.05
		c1.102,0,1.866,0.094,2.293,0.282c0.427,0.188,0.754,0.493,0.98,0.916c0.227,0.423,0.37,1.031,0.43,1.825l0.102,1.474l0.103,2.062
		c0.017,0.351,0.064,0.714,0.141,1.089c0.076,0.376,0.179,0.73,0.307,1.064h2.524c-0.402-1.691-0.613-3.327-0.634-4.907
		c-0.022-1.58-0.24-2.75-0.654-3.51s-1.228-1.243-2.44-1.448c1.11-0.213,1.964-0.705,2.562-1.473
		c0.598-0.769,0.897-1.738,0.897-2.908c0-1.435-0.408-2.577-1.224-3.427c-0.815-0.85-1.885-1.275-3.209-1.275H543.547z
		 M530.273,79.342V98.29h9.942v-2.101h-7.533v-6.585h6.828v-2.076h-6.828v-6.085h7.353v-2.101H530.273z M514.634,79.342V98.29h2.421
		v-8.738h6.636v8.738h2.409V79.342h-2.409v8.109h-6.636v-8.109H514.634z M499.158,79.342v2.101h4.958V98.29h2.434V81.443h4.983
		v-2.101H499.158z M487.114,85.671c0-1.657,0.27-2.859,0.808-3.607c0.538-0.747,1.426-1.121,2.664-1.121
		c1.256,0,2.155,0.408,2.697,1.224c0.542,0.816,0.814,2.052,0.814,3.709v4.496c0,1.845-0.092,3.148-0.276,3.908
		c-0.184,0.76-0.527,1.33-1.031,1.71c-0.504,0.38-1.247,0.57-2.229,0.57c-1.247,0-2.133-0.391-2.659-1.172
		c-0.525-0.782-0.788-2.133-0.788-4.055V85.671z M495.128,80.649c-0.961-1.187-2.475-1.781-4.542-1.781s-3.572,0.562-4.516,1.685
		c-0.943,1.123-1.415,3.047-1.415,5.771v4.932c0,2.52,0.463,4.375,1.39,5.567c0.926,1.191,2.393,1.787,4.4,1.787
		c2.161,0,3.722-0.591,4.683-1.774s1.441-3.321,1.441-6.412v-3.549C496.569,83.911,496.089,81.836,495.128,80.649 M467.638,79.342
		V98.29h2.178V81.866l7.533,16.424h3.279V79.342h-2.152v16.219l-7.456-16.219H467.638z M455.668,81.443h2.831
		c1.085,0,1.885,0.263,2.402,0.788s0.775,1.296,0.775,2.312c0,1.205-0.309,2.056-0.929,2.556c-0.619,0.5-1.569,0.75-2.85,0.75
		h-2.229V81.443z M453.247,79.342V98.29h2.421v-8.34h2.831c1.802,0,3.184-0.434,4.144-1.301c0.961-0.867,1.442-2.192,1.442-3.978
		c0-1.836-0.438-3.183-1.313-4.041c-0.876-0.859-2.24-1.288-4.094-1.288H453.247z M437.437,79.342l5.125,11.287v7.661h2.382v-7.61
		l5.202-11.338h-2.473l-3.805,9.16l-3.728-9.16H437.437z M422.953,79.342V98.29h2.421v-8.738h6.637v8.738h2.408V79.342h-2.408v8.109
		h-6.637v-8.109H422.953z M413.445,92.153h5.765v-1.947h-5.765V92.153z M400.868,79.342V98.29h9.941v-2.101h-7.533v-6.585h6.829
		v-2.076h-6.829v-6.085h7.354v-2.101H400.868z M381.76,96.189V81.443h2.703c1.161,0,2.041,0.203,2.639,0.609
		c0.598,0.405,1.008,1.078,1.23,2.017c0.222,0.94,0.333,2.434,0.333,4.484c0,2.451-0.13,4.132-0.391,5.041
		c-0.26,0.91-0.711,1.57-1.351,1.98c-0.641,0.41-1.73,0.615-3.267,0.615H381.76z M379.326,79.342V98.29h4.33
		c1.827,0,3.284-0.263,4.368-0.788c1.085-0.526,1.864-1.373,2.338-2.543c0.474-1.17,0.711-3.096,0.711-5.778
		c0-2.46-0.117-4.236-0.352-5.33c-0.235-1.093-0.583-1.957-1.044-2.594c-0.461-0.636-1.098-1.114-1.909-1.435
		c-0.811-0.32-1.772-0.48-2.882-0.48H379.326z M366.014,79.342V98.29h9.942v-2.101h-7.533v-6.585h6.828v-2.076h-6.828v-6.085h7.353
		v-2.101H366.014z M360.934,80.296c-0.875-0.858-2.163-1.287-3.862-1.287c-1.76,0-3.143,0.457-4.151,1.371
		c-1.008,0.914-1.512,2.135-1.512,3.664c0,0.973,0.231,1.832,0.692,2.575s1.17,1.405,2.127,1.985
		c0.956,0.581,1.974,1.136,3.055,1.666c1.08,0.53,1.791,1.063,2.133,1.601c0.342,0.538,0.513,1.076,0.513,1.614
		c0,0.914-0.308,1.647-0.923,2.198c-0.615,0.55-1.418,0.826-2.408,0.826c-0.966,0-1.749-0.303-2.351-0.91
		c-0.602-0.606-0.903-1.46-0.903-2.562v-0.551h-2.383v0.743c0,1.751,0.478,3.081,1.435,3.991c0.956,0.909,2.34,1.364,4.15,1.364
		c1.751,0,3.165-0.457,4.241-1.371c1.076-0.913,1.614-2.156,1.614-3.728c0-1.033-0.22-1.891-0.66-2.575
		c-0.44-0.683-1.078-1.326-1.915-1.928c-0.837-0.602-1.772-1.135-2.806-1.601c-1.033-0.465-1.817-0.995-2.35-1.589
		c-0.534-0.593-0.801-1.244-0.801-1.953c0-0.871,0.265-1.544,0.794-2.018c0.53-0.474,1.264-0.711,2.204-0.711
		c0.965,0,1.682,0.265,2.152,0.794c0.47,0.53,0.705,1.32,0.705,2.37v0.269h2.523v-0.422
		C362.247,82.429,361.81,81.155,360.934,80.296 M344.763,98.29h2.447V79.342h-2.447V98.29z M323.028,79.342V98.29h2.23V81.469
		l5.278,16.821h2.254l5.355-16.821V98.29h2.306V79.342h-3.856l-4.855,15.899l-4.804-15.899H323.028z M309.583,85.671
		c0-1.657,0.269-2.859,0.807-3.607c0.538-0.747,1.427-1.121,2.665-1.121c1.256,0,2.154,0.408,2.697,1.224
		c0.542,0.816,0.813,2.052,0.813,3.709v4.496c0,1.845-0.092,3.148-0.275,3.908c-0.184,0.76-0.528,1.33-1.031,1.71
		c-0.504,0.38-1.248,0.57-2.23,0.57c-1.247,0-2.133-0.391-2.658-1.172c-0.525-0.782-0.788-2.133-0.788-4.055V85.671z
		 M317.597,80.649c-0.961-1.187-2.475-1.781-4.542-1.781c-2.067,0-3.572,0.562-4.516,1.685s-1.415,3.047-1.415,5.771v4.932
		c0,2.52,0.463,4.375,1.39,5.567c0.926,1.191,2.393,1.787,4.4,1.787c2.161,0,3.722-0.591,4.683-1.774
		c0.96-1.183,1.441-3.321,1.441-6.412v-3.549C319.038,83.911,318.557,81.836,317.597,80.649 M293.987,96.189V81.443h2.703
		c1.162,0,2.041,0.203,2.639,0.609c0.598,0.405,1.008,1.078,1.23,2.017c0.222,0.94,0.333,2.434,0.333,4.484
		c0,2.451-0.13,4.132-0.39,5.041c-0.261,0.91-0.712,1.57-1.352,1.98c-0.641,0.41-1.73,0.615-3.267,0.615H293.987z M291.553,79.342
		V98.29h4.33c1.828,0,3.284-0.263,4.369-0.788c1.084-0.526,1.864-1.373,2.338-2.543c0.474-1.17,0.711-3.096,0.711-5.778
		c0-2.46-0.118-4.236-0.353-5.33c-0.235-1.093-0.582-1.957-1.044-2.594c-0.461-0.636-1.097-1.114-1.909-1.435
		c-0.811-0.32-1.772-0.48-2.882-0.48H291.553z M274.363,79.342V98.29h2.178V81.866l7.533,16.424h3.28V79.342h-2.152v16.219
		l-7.456-16.219H274.363z M266.584,91.73h-6.137l3.037-10.159L266.584,91.73z M262.023,79.342l-6.008,18.948h2.46l1.396-4.51h7.315
		l1.371,4.51h2.703l-6.175-18.948H262.023z M248.007,81.443c0.871,0,1.544,0.241,2.018,0.724c0.474,0.482,0.711,1.215,0.711,2.197
		c0,1.008-0.261,1.787-0.782,2.338c-0.521,0.551-1.345,0.826-2.472,0.826h-2.947v-6.085H248.007z M242.101,79.342V98.29h2.434
		v-8.712h2.05c1.102,0,1.866,0.094,2.293,0.282c0.427,0.188,0.754,0.493,0.98,0.916c0.226,0.423,0.369,1.031,0.429,1.825
		l0.103,1.474l0.102,2.062c0.017,0.351,0.064,0.714,0.141,1.089c0.077,0.376,0.18,0.73,0.308,1.064h2.523
		c-0.401-1.691-0.613-3.327-0.634-4.907c-0.021-1.58-0.239-2.75-0.653-3.51s-1.228-1.243-2.441-1.448
		c1.111-0.213,1.965-0.705,2.563-1.473c0.597-0.769,0.896-1.738,0.896-2.908c0-1.435-0.408-2.577-1.223-3.427
		c-0.816-0.85-1.885-1.275-3.209-1.275H242.101z"/>
	<path style="clip-path:url(#SVGID_00000023996682563199451660000003203993393600748706_);" d="M335.61,16.543v6.855h9.712V58.79
		h8.969V23.398h9.826v-6.855H335.61z M328.237,56.519c2.38-2.028,3.57-5.07,3.57-9.126c0-2.647-0.514-4.737-1.542-6.27
		c-1.029-1.533-2.685-3.014-4.971-4.442l-8.54-5.456c-0.934-0.59-1.614-1.266-2.043-2.028c-0.428-0.761-0.642-1.58-0.642-2.456
		c0-1.429,0.385-2.566,1.156-3.414c0.772-0.847,1.814-1.271,3.128-1.271c2.837,0,4.256,1.828,4.256,5.484v1h8.655v-1.457
		c0-4.075-1.042-6.965-3.127-8.669c-2.086-1.704-5.118-2.557-9.098-2.557c-4.456,0-7.898,0.977-10.326,2.928
		c-2.428,1.953-3.642,4.718-3.642,8.298c0,2.647,0.495,4.833,1.485,6.556c0.99,1.724,3.142,3.613,6.456,5.67l6.998,4.285
		c0.952,0.59,1.671,1.276,2.157,2.056c0.485,0.781,0.728,1.733,0.728,2.857c0,1.485-0.405,2.632-1.214,3.442
		c-0.81,0.809-1.966,1.214-3.471,1.214c-1.771,0-3.009-0.524-3.713-1.571c-0.705-1.047-1.057-2.628-1.057-4.742v-1.114h-8.969v2.628
		c0,3.713,1.085,6.508,3.256,8.383c2.171,1.876,5.361,2.814,9.569,2.814C322.209,59.561,325.856,58.547,328.237,56.519
		 M276.108,16.543V58.79h23.509v-6.599h-14.682V39.966h13.111v-6.513h-13.111V23.056h14.225v-6.513H276.108z M252.397,23.056h1.885
		c2.685,0,4.437,0.428,5.256,1.285c0.818,0.857,1.228,2.333,1.228,4.428c0,2.113-0.414,3.646-1.243,4.598
		c-0.828,0.953-2.518,1.429-5.07,1.429h-2.056V23.056z M243.513,16.543V58.79h8.884V41.308h1.713c2.647,0,4.447,0.453,5.399,1.357
		c0.952,0.905,1.428,2.576,1.428,5.013v6.484c0,1.143,0.067,1.986,0.2,2.528c0.133,0.543,0.381,1.243,0.743,2.1h8.655
		c-0.191-0.571-0.329-1.324-0.414-2.257c-0.086-0.933-0.157-1.914-0.214-2.942l-0.429-7.255c-0.171-2.723-0.776-4.694-1.814-5.913
		c-1.038-1.219-2.947-2.018-5.727-2.4c2.609-0.494,4.537-1.58,5.784-3.256c1.247-1.675,1.871-4.018,1.871-7.027
		c0-3.808-0.933-6.627-2.799-8.455c-1.866-1.828-4.732-2.742-8.598-2.742H243.513z"/>
</g>
</svg>
