<?xml version="1.0" encoding="iso-8859-1"?>
<!-- Generator: Adobe Illustrator 29.5.1, SVG Export Plug-In . SVG Version: 9.03 Build 0)  -->
<svg version="1.1" id="Layer_1" xmlns="http://www.w3.org/2000/svg" xmlns:xlink="http://www.w3.org/1999/xlink" x="0px" y="0px"
	 viewBox="0 0 720 144" style="enable-background:new 0 0 720 144;" xml:space="preserve">
<g>
	<defs>
		<rect id="SVGID_1_" width="720" height="144"/>
	</defs>
	<clipPath id="SVGID_00000005238954102248088890000011549950354960153785_">
		<use xlink:href="#SVGID_1_"  style="overflow:visible;"/>
	</clipPath>
	<path style="clip-path:url(#SVGID_00000005238954102248088890000011549950354960153785_);" d="M72.921,1.3
		C33.757,1.3,2.008,32.959,2.008,72.012s31.749,70.712,70.913,70.712s70.912-31.659,70.912-70.712S112.085,1.3,72.921,1.3"/>
	<path style="clip-path:url(#SVGID_00000005238954102248088890000011549950354960153785_);fill:#FFFFFF;" d="M72.921,2.98
		c38.175,0,69.233,30.968,69.233,69.032s-31.058,69.032-69.233,69.032S3.688,110.076,3.688,72.012S34.746,2.98,72.921,2.98"/>
</g>
<rect x="191.456" y="16.617" width="2" height="111.776"/>
<g>
	<defs>
		<rect id="SVGID_00000109010467549356773120000009246246994315891612_" width="720" height="144"/>
	</defs>
	<clipPath id="SVGID_00000175284347513961142490000005479193294974800792_">
		<use xlink:href="#SVGID_00000109010467549356773120000009246246994315891612_"  style="overflow:visible;"/>
	</clipPath>
	<path style="clip-path:url(#SVGID_00000175284347513961142490000005479193294974800792_);" d="M114.152,102.346v4.129
		c0,0.138-0.046,0.246-0.154,0.323c-0.093,0.077-0.216,0.123-0.37,0.123c-0.092,0-0.231,0-0.385-0.015
		c-0.154-0.015-0.323-0.031-0.478-0.046c-0.154-0.015-0.292-0.062-0.416-0.108c-0.107-0.046-0.169-0.108-0.169-0.169v-4.222
		l-3.605-7.041c-0.123-0.246-0.139-0.416-0.046-0.523c0.092-0.108,0.262-0.17,0.508-0.17c0.154,0,0.308,0,0.478,0.015
		c0.154,0,0.308,0.016,0.446,0.047c0.139,0.015,0.262,0.046,0.355,0.077c0.092,0.031,0.169,0.077,0.2,0.154l2.65,5.408l2.65-5.393
		c0.031-0.061,0.092-0.123,0.2-0.154c0.093-0.031,0.216-0.061,0.355-0.092c0.138-0.016,0.292-0.031,0.446-0.047
		c0.154,0,0.324-0.015,0.478-0.015c0.246,0,0.416,0.046,0.508,0.154c0.077,0.108,0.062,0.277-0.061,0.539L114.152,102.346z
		 M103.615,96.584v9.891c0,0.138-0.046,0.246-0.154,0.323c-0.108,0.077-0.216,0.123-0.354,0.123c-0.093,0-0.231,0-0.401-0.015
		c-0.17-0.015-0.339-0.031-0.493-0.046s-0.293-0.062-0.401-0.108c-0.123-0.046-0.169-0.108-0.169-0.169v-9.984h-3.051
		c-0.123,0-0.215-0.046-0.308-0.139c-0.077-0.092-0.123-0.2-0.123-0.338c0-0.093,0-0.201,0.015-0.355
		c0.016-0.138,0.031-0.292,0.047-0.431c0.015-0.139,0.061-0.262,0.092-0.37c0.046-0.092,0.093-0.154,0.17-0.154h8.165
		c0.123,0,0.216,0.046,0.308,0.139c0.077,0.092,0.123,0.215,0.123,0.339c0,0.092,0,0.2-0.015,0.354s-0.031,0.293-0.046,0.431
		c-0.016,0.139-0.046,0.262-0.093,0.355c-0.046,0.092-0.092,0.154-0.169,0.154H103.615z M96.497,106.475
		c0,0.138-0.046,0.246-0.154,0.323c-0.092,0.077-0.216,0.123-0.37,0.123c-0.092,0-0.231,0-0.4-0.015
		c-0.17-0.015-0.324-0.031-0.493-0.046c-0.154-0.015-0.293-0.062-0.416-0.108c-0.108-0.046-0.17-0.108-0.17-0.169V94.981
		c0-0.061,0.062-0.123,0.17-0.169c0.123-0.046,0.262-0.092,0.416-0.108c0.154-0.015,0.323-0.046,0.493-0.046
		c0.169-0.016,0.292-0.016,0.4-0.016c0.139,0,0.262,0.047,0.37,0.139c0.092,0.093,0.154,0.2,0.154,0.324V106.475z M85.389,104.888
		c0.092,0.015,0.216,0.061,0.401,0.092c0.185,0.047,0.385,0.093,0.631,0.139c0.231,0.046,0.493,0.077,0.786,0.123
		c0.277,0.031,0.57,0.046,0.847,0.046c0.309,0,0.601-0.03,0.878-0.077c0.278-0.046,0.54-0.138,0.755-0.246
		c0.216-0.123,0.401-0.277,0.524-0.462c0.139-0.201,0.201-0.432,0.201-0.724c0-0.401-0.124-0.74-0.386-1.017
		c-0.261-0.278-0.585-0.539-0.97-0.786c-0.385-0.246-0.817-0.493-1.279-0.739c-0.462-0.247-0.878-0.54-1.279-0.863
		c-0.4-0.324-0.724-0.709-0.97-1.156c-0.262-0.447-0.385-0.986-0.385-1.633c0-0.539,0.092-1.001,0.292-1.371
		c0.2-0.37,0.463-0.678,0.801-0.924c0.339-0.232,0.755-0.416,1.218-0.524c0.477-0.108,1.001-0.17,1.571-0.17
		c0.123,0,0.308,0,0.555,0.016c0.246,0.015,0.508,0.03,0.785,0.061c0.278,0.031,0.555,0.062,0.817,0.108
		c0.277,0.046,0.493,0.108,0.647,0.185c0.154,0.062,0.247,0.139,0.277,0.216c0.031,0.077,0.031,0.2,0.016,0.385
		c-0.016,0.293-0.077,0.524-0.185,0.724c-0.093,0.2-0.231,0.277-0.416,0.246c-0.278-0.061-0.586-0.107-0.94-0.169
		c-0.354-0.046-0.755-0.077-1.186-0.077c-0.678,0-1.248,0.108-1.68,0.293c-0.431,0.2-0.647,0.523-0.647,0.986
		c0,0.369,0.124,0.678,0.386,0.939c0.261,0.263,0.585,0.509,0.97,0.74s0.817,0.478,1.279,0.724c0.462,0.247,0.878,0.539,1.279,0.878
		c0.385,0.339,0.724,0.74,0.97,1.202c0.262,0.462,0.385,1.048,0.385,1.71c0,0.632-0.123,1.156-0.354,1.556
		c-0.231,0.416-0.555,0.724-0.94,0.955c-0.385,0.232-0.847,0.386-1.356,0.478c-0.508,0.093-1.047,0.139-1.602,0.139
		c-0.246,0-0.524-0.016-0.801-0.031s-0.539-0.046-0.817-0.077c-0.261-0.031-0.508-0.077-0.754-0.123
		c-0.232-0.047-0.432-0.093-0.601-0.154c-0.17-0.062-0.262-0.124-0.293-0.185c-0.031-0.077-0.046-0.201-0.015-0.37
		c0.03-0.324,0.092-0.601,0.184-0.817C85.112,104.949,85.234,104.842,85.389,104.888 M79.057,96.568H76.76v3.991h2.296
		c0.447,0,0.816-0.031,1.078-0.077c0.278-0.047,0.478-0.139,0.632-0.278c0.154-0.138,0.247-0.308,0.293-0.539
		s0.077-0.539,0.077-0.909v-0.37c0-0.369-0.031-0.678-0.077-0.924c-0.046-0.231-0.154-0.416-0.293-0.555
		c-0.154-0.138-0.354-0.215-0.632-0.277C79.857,96.599,79.504,96.568,79.057,96.568 M74.773,106.567V95.228
		c0-0.123,0.046-0.216,0.154-0.308c0.108-0.077,0.216-0.123,0.37-0.123h3.651c0.755,0,1.402,0.061,1.941,0.169
		c0.539,0.108,0.971,0.308,1.31,0.585c0.339,0.278,0.585,0.648,0.739,1.11c0.155,0.462,0.231,1.032,0.231,1.741v0.37
		c0,0.523-0.046,0.97-0.123,1.355s-0.216,0.724-0.385,1.002c-0.169,0.277-0.416,0.493-0.709,0.662
		c-0.292,0.17-0.647,0.293-1.047,0.385l2.295,3.975c0.124,0.216,0.185,0.37,0.185,0.478c0,0.061-0.031,0.123-0.077,0.169
		c-0.061,0.047-0.123,0.077-0.185,0.093c-0.061,0.015-0.138,0.03-0.2,0.046c-0.077,0-0.123,0.015-0.154,0.015
		c-0.093,0-0.231,0-0.385-0.015c-0.154-0.016-0.308-0.031-0.462-0.062c-0.154-0.03-0.309-0.061-0.432-0.123
		c-0.123-0.062-0.216-0.139-0.277-0.231l-2.434-4.16h-2.034v4.16c0,0.139-0.046,0.231-0.154,0.308
		c-0.093,0.077-0.216,0.123-0.354,0.123c-0.093,0-0.232,0-0.401-0.015c-0.17-0.016-0.324-0.031-0.493-0.046
		c-0.154-0.016-0.293-0.062-0.416-0.108C74.836,106.69,74.773,106.644,74.773,106.567 M65.068,106.382V95.228
		c0-0.139,0.046-0.247,0.154-0.324c0.092-0.077,0.216-0.107,0.37-0.107h6.64c0.123,0,0.231,0.046,0.308,0.154
		c0.077,0.092,0.123,0.215,0.123,0.339c0,0.092,0,0.2-0.015,0.354c-0.016,0.154-0.031,0.293-0.046,0.431
		c-0.016,0.139-0.062,0.262-0.093,0.355c-0.046,0.092-0.108,0.154-0.169,0.154h-5.269v3.204h4.514c0.108,0,0.2,0.047,0.292,0.139
		c0.078,0.092,0.124,0.2,0.124,0.323c0,0.093,0,0.201-0.016,0.355c-0.015,0.154-0.03,0.292-0.046,0.431
		c-0.015,0.139-0.062,0.262-0.092,0.37c-0.047,0.092-0.093,0.154-0.17,0.154h-4.622v3.389h5.161c0.124,0,0.232,0.047,0.309,0.139
		c0.077,0.093,0.123,0.2,0.123,0.339c0,0.092,0,0.2-0.016,0.354c-0.015,0.139-0.03,0.293-0.046,0.432
		c-0.015,0.138-0.061,0.262-0.092,0.37c-0.046,0.107-0.108,0.154-0.17,0.154h-6.501c-0.154,0-0.324-0.031-0.493-0.108
		C65.145,106.536,65.068,106.459,65.068,106.382 M58.998,103.547l2.496-8.581c0.154-0.154,0.339-0.246,0.539-0.293
		c0.2-0.031,0.431-0.061,0.709-0.061c0.107,0,0.231,0,0.338,0.015c0.124,0.015,0.216,0.031,0.293,0.077
		c0.077,0.046,0.139,0.093,0.185,0.17c0.046,0.077,0.031,0.169,0,0.308l-3.836,11.478c-0.016,0.092-0.077,0.154-0.17,0.2
		c-0.092,0.046-0.185,0.061-0.292,0.061c-0.37,0-0.678-0.015-0.925-0.061c-0.246-0.046-0.4-0.108-0.462-0.185l-3.821-11.493
		c-0.031-0.108-0.031-0.201,0-0.278c0.031-0.077,0.077-0.123,0.154-0.169c0.062-0.046,0.139-0.077,0.231-0.093
		c0.077-0.015,0.154-0.03,0.201-0.03c0.169,0,0.339,0,0.508,0.015c0.17,0.015,0.324,0.031,0.478,0.062
		c0.138,0.031,0.262,0.077,0.369,0.123c0.093,0.062,0.17,0.123,0.201,0.216l2.557,8.504c0.046,0.139,0.077,0.277,0.093,0.416
		c0.015,0.154,0.031,0.277,0.061,0.401c0.016-0.124,0.031-0.262,0.046-0.401C58.921,103.809,58.951,103.671,58.998,103.547
		 M52.589,106.475c0,0.138-0.047,0.246-0.154,0.323c-0.093,0.077-0.216,0.123-0.37,0.123c-0.093,0-0.231,0-0.401-0.015
		c-0.169-0.015-0.323-0.031-0.493-0.046c-0.154-0.015-0.293-0.062-0.416-0.108s-0.169-0.108-0.169-0.169V94.981
		c0-0.061,0.061-0.123,0.169-0.169c0.123-0.046,0.247-0.092,0.416-0.108c0.154-0.015,0.324-0.046,0.493-0.046
		c0.17-0.016,0.293-0.016,0.401-0.016c0.138,0,0.262,0.047,0.37,0.139c0.092,0.093,0.154,0.2,0.154,0.324V106.475z M46.518,103.239
		V94.92c0-0.062,0.062-0.123,0.185-0.154c0.124-0.046,0.262-0.077,0.432-0.093c0.169-0.015,0.339-0.031,0.508-0.046
		c0.17-0.015,0.308-0.015,0.401-0.015c0.292,0,0.431,0.169,0.431,0.493v11.37c0,0.138-0.046,0.231-0.154,0.308
		c-0.108,0.077-0.216,0.123-0.339,0.123c-0.092,0-0.2,0-0.354-0.015c-0.154-0.016-0.293-0.016-0.447-0.046
		c-0.154-0.031-0.278-0.062-0.401-0.093c-0.123-0.046-0.2-0.092-0.246-0.154l-5.377-8.273v8.15c0,0.138-0.046,0.246-0.154,0.323
		c-0.092,0.077-0.216,0.123-0.355,0.123c-0.092,0-0.231,0-0.4-0.015c-0.17-0.015-0.339-0.031-0.493-0.046s-0.293-0.062-0.401-0.108
		c-0.123-0.046-0.169-0.108-0.169-0.169V94.981c0-0.061,0.061-0.123,0.169-0.169c0.124-0.046,0.247-0.092,0.401-0.108
		c0.154-0.015,0.308-0.031,0.477-0.046c0.17-0.016,0.293-0.016,0.401-0.016c0.123,0,0.231,0.031,0.308,0.108
		c0.077,0.077,0.154,0.154,0.201,0.247L46.518,103.239z M35.056,102.5v-7.488c0-0.061,0.062-0.123,0.169-0.169
		c0.124-0.046,0.262-0.093,0.416-0.123c0.17-0.031,0.339-0.062,0.493-0.078c0.17-0.015,0.293-0.03,0.401-0.03
		c0.139,0,0.262,0.046,0.354,0.154c0.093,0.108,0.139,0.215,0.139,0.339v7.487c0,0.817-0.092,1.495-0.277,2.049
		c-0.185,0.555-0.447,0.986-0.817,1.341c-0.37,0.339-0.832,0.585-1.386,0.724c-0.555,0.139-1.218,0.215-1.957,0.215h-0.139
		c-0.724,0-1.371-0.076-1.91-0.215c-0.555-0.139-1.002-0.385-1.371-0.724c-0.37-0.339-0.632-0.786-0.817-1.341
		c-0.185-0.539-0.277-1.232-0.277-2.049v-7.58c0-0.061,0.061-0.123,0.169-0.169c0.124-0.046,0.247-0.093,0.416-0.123
		c0.154-0.031,0.324-0.062,0.493-0.078c0.17-0.015,0.308-0.03,0.401-0.03c0.138,0,0.246,0.046,0.354,0.154
		c0.093,0.108,0.154,0.215,0.154,0.339v7.379c0,0.478,0.031,0.879,0.108,1.218c0.077,0.338,0.2,0.616,0.385,0.816
		c0.185,0.216,0.432,0.37,0.74,0.462c0.308,0.093,0.693,0.154,1.155,0.154h0.139c0.478,0,0.863-0.046,1.186-0.154
		c0.308-0.108,0.57-0.262,0.755-0.462c0.185-0.216,0.324-0.478,0.401-0.816C35.025,103.378,35.056,102.978,35.056,102.5
		 M106.742,75.538v14.313h-3.944V67.989h5.5l5.285,13.466V67.989h4.006v21.862h-5.023L106.742,75.538z M95.419,67.989h4.437v21.862
		h-4.437V67.989z M78.395,67.989h4.56v9.506l5.685-9.506h4.76L87.084,78.05L93.4,89.867h-5.284l-5.161-10.631v10.631h-4.56V67.989z
		 M70.967,84.998H64.62l-1.156,4.869h-4.575l6.162-21.878h5.824l6.07,21.878h-4.791L70.967,84.998z M70.06,81.193l-2.188-9.044
		l-2.296,9.044H70.06z M45.625,67.989h11.817v3.713h-7.195v4.668h6.625v3.806h-6.625v5.823h7.21v3.852H45.625V67.989z
		 M35.595,67.989c5.839,0,7.642,3.097,7.642,10.939s-1.818,10.939-7.657,10.939h-7.488V67.989H35.595z M32.683,86.092h2.08
		c3.405,0,3.836-2.003,3.836-7.241c0-5.223-0.431-7.226-3.836-7.226h-2.08V86.092z M81.507,51.366l-9.938-17.24l1.31-2.203
		l11.154,19.443H81.507z M76.808,51.366l-7.611-13.142l1.279-2.157l8.766,15.299H76.808z M72.032,51.366l-5.223-9.013l1.325-2.234
		l6.424,11.231h-2.526V51.366z M67.225,51.366l-2.804-4.869l1.325-2.234l4.052,7.103H67.225z M61.601,51.366l1.71-2.928l1.711,2.928
		H61.601z M59.429,29.889v18.365c0,7.41,6.009,13.419,13.419,13.419c7.411,0,13.419-6.009,13.419-13.419V29.889H59.429z"/>
	<path style="clip-path:url(#SVGID_00000175284347513961142490000005479193294974800792_);" d="M548.229,108.842v18.948h2.421
		v-8.738h6.636v8.738h2.409v-18.948h-2.409v8.109h-6.636v-8.109H548.229z M532.753,108.842v2.101h4.958v16.847h2.434v-16.847h4.983
		v-2.101H532.753z M523.898,108.842v18.948h9.34v-2.101h-6.931v-16.847H523.898z M516.179,121.23h-6.136l3.036-10.159
		L516.179,121.23z M511.619,108.842l-6.009,18.948h2.46l1.396-4.51h7.315l1.371,4.51h2.703l-6.175-18.948H511.619z M493.167,108.842
		v18.948h9.941v-2.101h-7.533v-6.585h6.828v-2.076h-6.828v-6.085h7.354v-2.101H493.167z M477.527,108.842v18.948h2.421v-8.738h6.637
		v8.738h2.408v-18.948h-2.408v8.109h-6.637v-8.109H477.527z M463.095,110.943c0.871,0,1.544,0.241,2.018,0.724
		c0.474,0.482,0.711,1.215,0.711,2.197c0,1.008-0.261,1.787-0.782,2.338c-0.521,0.551-1.345,0.826-2.472,0.826h-2.947v-6.085
		H463.095z M457.189,108.842v18.948h2.434v-8.712h2.05c1.102,0,1.866,0.094,2.293,0.282c0.427,0.188,0.754,0.493,0.98,0.916
		c0.227,0.423,0.37,1.031,0.43,1.825l0.102,1.474l0.103,2.062c0.017,0.351,0.064,0.714,0.14,1.089
		c0.077,0.376,0.18,0.73,0.308,1.064h2.524c-0.402-1.691-0.613-3.327-0.634-4.907c-0.022-1.58-0.24-2.75-0.654-3.51
		s-1.228-1.243-2.44-1.448c1.11-0.213,1.964-0.705,2.562-1.473c0.598-0.769,0.897-1.738,0.897-2.908
		c0-1.435-0.408-2.577-1.224-3.427c-0.815-0.85-1.885-1.275-3.209-1.275H457.189z M443.807,115.171c0-1.657,0.269-2.859,0.807-3.607
		c0.538-0.747,1.427-1.121,2.665-1.121c1.256,0,2.154,0.408,2.697,1.224c0.542,0.816,0.813,2.052,0.813,3.709v4.496
		c0,1.845-0.092,3.148-0.275,3.908c-0.184,0.76-0.528,1.33-1.031,1.71c-0.504,0.38-1.248,0.57-2.23,0.57
		c-1.247,0-2.133-0.391-2.658-1.172c-0.525-0.782-0.788-2.133-0.788-4.055V115.171z M451.821,110.149
		c-0.961-1.187-2.475-1.781-4.542-1.781s-3.572,0.562-4.516,1.685s-1.415,3.047-1.415,5.771v4.932c0,2.52,0.463,4.375,1.39,5.567
		c0.926,1.191,2.393,1.787,4.4,1.787c2.161,0,3.722-0.591,4.683-1.774c0.96-1.183,1.441-3.321,1.441-6.412v-3.549
		C453.262,113.411,452.781,111.336,451.821,110.149 M429.201,108.842v18.948h2.434v-8.686h6.585v-2.076h-6.585v-6.085h6.956v-2.101
		H429.201z M418.644,109.796c-0.875-0.858-2.163-1.287-3.862-1.287c-1.76,0-3.143,0.457-4.151,1.371s-1.512,2.135-1.512,3.664
		c0,0.973,0.231,1.832,0.692,2.575c0.461,0.743,1.17,1.405,2.127,1.985c0.956,0.581,1.975,1.136,3.055,1.666
		c1.081,0.53,1.792,1.063,2.133,1.601c0.342,0.538,0.513,1.076,0.513,1.614c0,0.914-0.308,1.647-0.923,2.198
		c-0.615,0.55-1.417,0.826-2.408,0.826c-0.965,0-1.749-0.303-2.351-0.91c-0.602-0.606-0.903-1.46-0.903-2.562v-0.551h-2.383v0.743
		c0,1.751,0.478,3.081,1.435,3.991c0.956,0.909,2.34,1.364,4.151,1.364c1.75,0,3.164-0.457,4.24-1.371
		c1.076-0.913,1.614-2.156,1.614-3.728c0-1.033-0.22-1.891-0.659-2.575c-0.44-0.683-1.079-1.326-1.916-1.928
		c-0.837-0.602-1.772-1.135-2.805-1.601c-1.034-0.465-1.818-0.995-2.351-1.589c-0.534-0.593-0.801-1.244-0.801-1.953
		c0-0.871,0.265-1.544,0.794-2.018c0.53-0.474,1.264-0.711,2.204-0.711c0.965,0,1.682,0.265,2.152,0.794
		c0.47,0.53,0.705,1.32,0.705,2.37v0.269h2.524v-0.422C419.958,111.929,419.52,110.655,418.644,109.796 M394.02,108.842v2.101h4.958
		v16.847h2.434v-16.847h4.984v-2.101H394.02z M377.939,108.842v18.948h2.178v-16.424l7.533,16.424h3.28v-18.948h-2.153v16.219
		l-7.456-16.219H377.939z M364.58,108.842v18.948h9.941v-2.101h-7.533v-6.585h6.829v-2.076h-6.829v-6.085h7.354v-2.101H364.58z
		 M342.995,108.842v18.948h2.229v-16.821l5.278,16.821h2.255l5.355-16.821v16.821h2.306v-18.948h-3.856l-4.855,15.899l-4.805-15.899
		H342.995z M325.78,108.842v18.948h2.178v-16.424l7.533,16.424h3.279v-18.948h-2.152v16.219l-7.456-16.219H325.78z M312.31,115.171
		c0-1.657,0.269-2.859,0.807-3.607c0.538-0.747,1.426-1.121,2.665-1.121c1.255,0,2.154,0.408,2.696,1.224
		c0.543,0.816,0.814,2.052,0.814,3.709v4.496c0,1.845-0.092,3.148-0.276,3.908c-0.183,0.76-0.527,1.33-1.031,1.71
		c-0.504,0.38-1.247,0.57-2.229,0.57c-1.247,0-2.133-0.391-2.658-1.172c-0.526-0.782-0.788-2.133-0.788-4.055V115.171z
		 M320.323,110.149c-0.961-1.187-2.475-1.781-4.541-1.781c-2.067,0-3.573,0.562-4.516,1.685c-0.944,1.123-1.416,3.047-1.416,5.771
		v4.932c0,2.52,0.463,4.375,1.39,5.567c0.927,1.191,2.394,1.787,4.401,1.787c2.16,0,3.721-0.591,4.682-1.774
		s1.441-3.321,1.441-6.412v-3.549C321.764,113.411,321.284,111.336,320.323,110.149 M301.197,110.943
		c0.871,0,1.544,0.241,2.018,0.724c0.474,0.482,0.711,1.215,0.711,2.197c0,1.008-0.261,1.787-0.782,2.338
		c-0.521,0.551-1.345,0.826-2.472,0.826h-2.947v-6.085H301.197z M295.291,108.842v18.948h2.434v-8.712h2.05
		c1.102,0,1.866,0.094,2.293,0.282c0.427,0.188,0.754,0.493,0.98,0.916c0.226,0.423,0.37,1.031,0.429,1.825l0.103,1.474l0.102,2.062
		c0.017,0.351,0.064,0.714,0.141,1.089c0.077,0.376,0.18,0.73,0.308,1.064h2.524c-0.402-1.691-0.613-3.327-0.635-4.907
		c-0.021-1.58-0.239-2.75-0.653-3.51s-1.228-1.243-2.44-1.448c1.11-0.213,1.964-0.705,2.562-1.473
		c0.597-0.769,0.897-1.738,0.897-2.908c0-1.435-0.408-2.577-1.224-3.427c-0.816-0.85-1.885-1.275-3.209-1.275H295.291z
		 M288.615,127.79h2.447v-18.948h-2.447V127.79z M271.555,108.842l5.483,18.948h2.883l5.534-18.948h-2.46l-4.471,16.667
		l-4.356-16.667H271.555z M255.486,108.842v18.948h2.178v-16.424l7.533,16.424h3.28v-18.948h-2.152v16.219l-7.456-16.219H255.486z
		 M242.127,108.842v18.948h9.941v-2.101h-7.533v-6.585h6.829v-2.076h-6.829v-6.085h7.354v-2.101H242.127z"/>
	<path style="clip-path:url(#SVGID_00000175284347513961142490000005479193294974800792_);" d="M670.399,79.342V98.29h9.34v-2.101
		h-6.931V79.342H670.399z M663.699,98.29h2.447V79.342h-2.447V98.29z M655.834,91.73h-6.136l3.036-10.159L655.834,91.73z
		 M651.273,79.342l-6.008,18.948h2.46l1.396-4.51h7.315l1.371,4.51h2.703l-6.175-18.948H651.273z M633.27,79.342v2.101h4.958V98.29
		h2.434V81.443h4.984v-2.101H633.27z M620.92,79.342V98.29h9.941v-2.101h-7.532v-6.585h6.828v-2.076h-6.828v-6.085h7.353v-2.101
		H620.92z M612.07,81.443c0.871,0,1.543,0.241,2.017,0.724c0.474,0.482,0.711,1.215,0.711,2.197c0,1.008-0.26,1.787-0.781,2.338
		c-0.521,0.551-1.345,0.826-2.473,0.826h-2.946v-6.085H612.07z M606.164,79.342V98.29h2.434v-8.712h2.05
		c1.101,0,1.866,0.094,2.293,0.282c0.427,0.188,0.753,0.493,0.98,0.916c0.226,0.423,0.369,1.031,0.429,1.825l0.102,1.474
		l0.103,2.062c0.017,0.351,0.064,0.714,0.141,1.089c0.077,0.376,0.179,0.73,0.307,1.064h2.524c-0.401-1.691-0.613-3.327-0.634-4.907
		s-0.239-2.75-0.653-3.51c-0.415-0.76-1.228-1.243-2.441-1.448c1.11-0.213,1.964-0.705,2.562-1.473
		c0.598-0.769,0.897-1.738,0.897-2.908c0-1.435-0.408-2.577-1.223-3.427c-0.816-0.85-1.886-1.275-3.21-1.275H606.164z
		 M587.081,96.189V81.443h2.703c1.162,0,2.042,0.203,2.64,0.609c0.597,0.405,1.007,1.078,1.229,2.017
		c0.222,0.94,0.333,2.434,0.333,4.484c0,2.451-0.13,4.132-0.39,5.041c-0.261,0.91-0.711,1.57-1.352,1.98
		c-0.64,0.41-1.729,0.615-3.267,0.615H587.081z M584.647,79.342V98.29h4.33c1.828,0,3.284-0.263,4.369-0.788
		c1.084-0.526,1.864-1.373,2.338-2.543c0.474-1.17,0.711-3.096,0.711-5.778c0-2.46-0.118-4.236-0.352-5.33
		c-0.235-1.093-0.583-1.957-1.044-2.594c-0.462-0.636-1.098-1.114-1.909-1.435c-0.812-0.32-1.773-0.48-2.883-0.48H584.647z
		 M571.228,85.671c0-1.657,0.269-2.859,0.807-3.607c0.538-0.747,1.426-1.121,2.664-1.121c1.256,0,2.155,0.408,2.697,1.224
		c0.542,0.816,0.814,2.052,0.814,3.709v4.496c0,1.845-0.092,3.148-0.276,3.908c-0.184,0.76-0.527,1.33-1.031,1.71
		c-0.504,0.38-1.247,0.57-2.229,0.57c-1.247,0-2.133-0.391-2.659-1.172c-0.525-0.782-0.787-2.133-0.787-4.055V85.671z
		 M579.241,80.649c-0.961-1.187-2.475-1.781-4.542-1.781c-2.067,0-3.572,0.562-4.515,1.685c-0.944,1.123-1.416,3.047-1.416,5.771
		v4.932c0,2.52,0.463,4.375,1.39,5.567c0.927,1.191,2.393,1.787,4.401,1.787c2.16,0,3.721-0.591,4.682-1.774
		c0.961-1.183,1.441-3.321,1.441-6.412v-3.549C580.682,83.911,580.202,81.836,579.241,80.649 M555.5,85.671
		c0-1.657,0.269-2.859,0.807-3.607c0.538-0.747,1.426-1.121,2.665-1.121c1.255,0,2.154,0.408,2.697,1.224
		c0.542,0.816,0.813,2.052,0.813,3.709v4.496c0,1.845-0.092,3.148-0.275,3.908c-0.184,0.76-0.528,1.33-1.032,1.71
		c-0.504,0.38-1.247,0.57-2.229,0.57c-1.247,0-2.133-0.391-2.658-1.172c-0.525-0.782-0.788-2.133-0.788-4.055V85.671z
		 M563.513,80.649c-0.96-1.187-2.474-1.781-4.541-1.781s-3.572,0.562-4.516,1.685c-0.944,1.123-1.416,3.047-1.416,5.771v4.932
		c0,2.52,0.464,4.375,1.39,5.567c0.927,1.191,2.394,1.787,4.401,1.787c2.161,0,3.722-0.591,4.682-1.774
		c0.961-1.183,1.442-3.321,1.442-6.412v-3.549C564.955,83.911,564.474,81.836,563.513,80.649 M540.894,79.342V98.29h2.434v-8.686
		h6.585v-2.076h-6.585v-6.085h6.956v-2.101H540.894z M518.135,79.342V98.29h2.178V81.866l7.533,16.424h3.279V79.342h-2.152v16.219
		l-7.456-16.219H518.135z M511.374,98.29h2.447V79.342h-2.447V98.29z M492.381,79.342V98.29h9.941v-2.101h-7.533v-6.585h6.829
		v-2.076h-6.829v-6.085h7.354v-2.101H492.381z M487.418,80.386c-0.82-0.833-2.088-1.249-3.805-1.249c-2.152,0-3.702,0.57-4.65,1.71
		c-0.949,1.14-1.423,3-1.423,5.58v3.997c0,3.108,0.474,5.246,1.423,6.412c0.948,1.165,2.357,1.748,4.227,1.748
		c1.888,0,3.307-0.467,4.26-1.403c0.952-0.935,1.428-2.367,1.428-4.298v-0.346h-2.485c-0.017,1.333-0.291,2.328-0.82,2.985
		c-0.53,0.658-1.307,0.987-2.332,0.987c-1.144,0-1.968-0.412-2.472-1.236c-0.504-0.825-0.756-2.24-0.756-4.247v-4.599
		c0-2.119,0.282-3.521,0.846-4.209c0.563-0.687,1.409-1.031,2.536-1.031c0.991,0,1.693,0.258,2.108,0.775
		c0.414,0.517,0.621,1.343,0.621,2.479v0.282h2.524v-0.5C488.648,82.498,488.238,81.219,487.418,80.386 M460.622,79.342V98.29h2.178
		V81.866l7.533,16.424h3.279V79.342h-2.152v16.219l-7.456-16.219H460.622z M447.262,79.342V98.29h9.942v-2.101h-7.533v-6.585h6.828
		v-2.076h-6.828v-6.085h7.354v-2.101H447.262z M435.016,79.342V98.29h9.339v-2.101h-6.931V79.342H435.016z M422.757,79.342V98.29
		h9.339v-2.101h-6.931V79.342H422.757z M409.458,79.342V98.29h9.941v-2.101h-7.533v-6.585h6.828v-2.076h-6.828v-6.085h7.354v-2.101
		H409.458z M404.495,80.386c-0.82-0.833-2.089-1.249-3.805-1.249c-2.153,0-3.703,0.57-4.651,1.71c-0.948,1.14-1.422,3-1.422,5.58
		v3.997c0,3.108,0.474,5.246,1.422,6.412c0.948,1.165,2.357,1.748,4.228,1.748c1.887,0,3.307-0.467,4.26-1.403
		c0.952-0.935,1.428-2.367,1.428-4.298v-0.346h-2.485c-0.018,1.333-0.291,2.328-0.82,2.985c-0.53,0.658-1.307,0.987-2.332,0.987
		c-1.144,0-1.969-0.412-2.472-1.236c-0.504-0.825-0.756-2.24-0.756-4.247v-4.599c0-2.119,0.282-3.521,0.845-4.209
		c0.564-0.687,1.409-1.031,2.537-1.031c0.991,0,1.693,0.258,2.107,0.775c0.414,0.517,0.622,1.343,0.622,2.479v0.282h2.523v-0.5
		C405.724,82.498,405.314,81.219,404.495,80.386 M378.919,79.342l5.163,9.134l-5.457,9.814h2.626l4.176-8.11l4.407,8.11h2.908
		l-5.688-9.814l5.112-9.134h-2.652l-3.933,7.354l-3.907-7.354H378.919z M366.256,79.342V98.29h9.941v-2.101h-7.533v-6.585h6.828
		v-2.076h-6.828v-6.085h7.354v-2.101H366.256z M344.816,79.342V98.29h2.421v-8.738h6.636v8.738h2.409V79.342h-2.409v8.109h-6.636
		v-8.109H344.816z M339.767,80.386c-0.82-0.833-2.088-1.249-3.804-1.249c-2.153,0-3.703,0.57-4.651,1.71
		c-0.948,1.14-1.422,3-1.422,5.58v3.997c0,3.108,0.474,5.246,1.422,6.412c0.948,1.165,2.357,1.748,4.228,1.748
		c1.887,0,3.307-0.467,4.259-1.403c0.953-0.935,1.429-2.367,1.429-4.298v-0.346h-2.485c-0.018,1.333-0.291,2.328-0.82,2.985
		c-0.53,0.658-1.307,0.987-2.332,0.987c-1.145,0-1.969-0.412-2.473-1.236c-0.504-0.825-0.755-2.24-0.755-4.247v-4.599
		c0-2.119,0.281-3.521,0.845-4.209c0.564-0.687,1.409-1.031,2.537-1.031c0.99,0,1.693,0.258,2.107,0.775
		c0.414,0.517,0.621,1.343,0.621,2.479v0.282h2.524v-0.5C340.997,82.498,340.587,81.219,339.767,80.386 M321.338,81.443
		c0.871,0,1.544,0.241,2.018,0.724c0.474,0.482,0.711,1.215,0.711,2.197c0,1.008-0.261,1.787-0.782,2.338
		c-0.521,0.551-1.345,0.826-2.472,0.826h-2.947v-6.085H321.338z M315.432,79.342V98.29h2.434v-8.712h2.05
		c1.102,0,1.866,0.094,2.293,0.282c0.427,0.188,0.754,0.493,0.98,0.916c0.226,0.423,0.37,1.031,0.429,1.825l0.103,1.474l0.102,2.062
		c0.017,0.351,0.064,0.714,0.141,1.089c0.077,0.376,0.18,0.73,0.308,1.064h2.524c-0.402-1.691-0.613-3.327-0.635-4.907
		c-0.021-1.58-0.239-2.75-0.653-3.51s-1.228-1.243-2.441-1.448c1.111-0.213,1.965-0.705,2.563-1.473
		c0.597-0.769,0.897-1.738,0.897-2.908c0-1.435-0.408-2.577-1.224-3.427c-0.816-0.85-1.885-1.275-3.209-1.275H315.432z
		 M307.738,91.73h-6.136l3.036-10.159L307.738,91.73z M303.177,79.342l-6.008,18.948h2.46l1.396-4.51h7.315l1.371,4.51h2.703
		l-6.175-18.948H303.177z M284.725,79.342V98.29h9.942v-2.101h-7.533v-6.585h6.828v-2.076h-6.828v-6.085h7.353v-2.101H284.725z
		 M279.645,80.296c-0.875-0.858-2.163-1.287-3.862-1.287c-1.76,0-3.143,0.457-4.151,1.371c-1.008,0.914-1.512,2.135-1.512,3.664
		c0,0.973,0.231,1.832,0.692,2.575s1.17,1.405,2.127,1.985c0.956,0.581,1.975,1.136,3.055,1.666c1.08,0.53,1.791,1.063,2.133,1.601
		c0.342,0.538,0.513,1.076,0.513,1.614c0,0.914-0.308,1.647-0.923,2.198c-0.615,0.55-1.418,0.826-2.408,0.826
		c-0.966,0-1.749-0.303-2.351-0.91c-0.602-0.606-0.903-1.46-0.903-2.562v-0.551h-2.383v0.743c0,1.751,0.478,3.081,1.435,3.991
		c0.956,0.909,2.34,1.364,4.15,1.364c1.751,0,3.165-0.457,4.241-1.371c1.076-0.913,1.614-2.156,1.614-3.728
		c0-1.033-0.22-1.891-0.66-2.575c-0.44-0.683-1.078-1.326-1.915-1.928c-0.837-0.602-1.772-1.135-2.806-1.601
		c-1.033-0.465-1.817-0.995-2.35-1.589c-0.534-0.593-0.801-1.244-0.801-1.953c0-0.871,0.264-1.544,0.794-2.018
		s1.264-0.711,2.204-0.711c0.965,0,1.682,0.265,2.152,0.794c0.47,0.53,0.705,1.32,0.705,2.37v0.269h2.523v-0.422
		C280.958,82.429,280.521,81.155,279.645,80.296 M256.857,79.342V98.29h9.942v-2.101h-7.533v-6.585h6.828v-2.076h-6.828v-6.085
		h7.353v-2.101H256.857z M248.007,81.443c0.871,0,1.544,0.241,2.018,0.724c0.474,0.482,0.711,1.215,0.711,2.197
		c0,1.008-0.261,1.787-0.782,2.338c-0.521,0.551-1.345,0.826-2.472,0.826h-2.947v-6.085H248.007z M242.101,79.342V98.29h2.434
		v-8.712h2.05c1.102,0,1.866,0.094,2.293,0.282c0.427,0.188,0.754,0.493,0.98,0.916c0.226,0.423,0.369,1.031,0.429,1.825
		l0.103,1.474l0.102,2.062c0.017,0.351,0.064,0.714,0.141,1.089c0.077,0.376,0.18,0.73,0.308,1.064h2.523
		c-0.401-1.691-0.613-3.327-0.634-4.907c-0.021-1.58-0.239-2.75-0.653-3.51s-1.228-1.243-2.441-1.448
		c1.111-0.213,1.965-0.705,2.563-1.473c0.597-0.769,0.896-1.738,0.896-2.908c0-1.435-0.408-2.577-1.223-3.427
		c-0.816-0.85-1.885-1.275-3.209-1.275H242.101z"/>
	<path style="clip-path:url(#SVGID_00000175284347513961142490000005479193294974800792_);" d="M425.835,16.543V58.79h8.912V40.194
		h9.998V58.79h8.883V16.543h-8.883v16.739h-9.998V16.543H425.835z M416.378,56.519c2.381-2.028,3.571-5.07,3.571-9.126
		c0-2.647-0.514-4.737-1.542-6.27c-1.029-1.533-2.686-3.014-4.971-4.442l-8.54-5.456c-0.934-0.59-1.614-1.266-2.043-2.028
		c-0.428-0.761-0.642-1.58-0.642-2.456c0-1.429,0.385-2.566,1.156-3.414c0.772-0.847,1.814-1.271,3.128-1.271
		c2.837,0,4.256,1.828,4.256,5.484v1h8.655v-1.457c0-4.075-1.042-6.965-3.127-8.669c-2.086-1.704-5.118-2.557-9.098-2.557
		c-4.456,0-7.898,0.977-10.326,2.928c-2.428,1.953-3.642,4.718-3.642,8.298c0,2.647,0.495,4.833,1.485,6.556
		c0.99,1.724,3.142,3.613,6.456,5.67l6.998,4.285c0.952,0.59,1.671,1.276,2.157,2.056c0.485,0.781,0.728,1.733,0.728,2.857
		c0,1.485-0.405,2.632-1.214,3.442c-0.81,0.809-1.967,1.214-3.471,1.214c-1.771,0-3.009-0.524-3.713-1.571
		c-0.705-1.047-1.057-2.628-1.057-4.742v-1.114h-8.969v2.628c0,3.713,1.085,6.508,3.256,8.383c2.171,1.876,5.361,2.814,9.569,2.814
		C410.351,59.561,413.998,58.547,416.378,56.519 M364.25,16.543V58.79h23.509v-6.599h-14.682V39.966h13.111v-6.513h-13.111V23.056
		h14.225v-6.513H364.25z M340.539,23.056h1.885c2.685,0,4.437,0.428,5.256,1.285c0.818,0.857,1.228,2.333,1.228,4.428
		c0,2.113-0.414,3.646-1.243,4.598c-0.828,0.953-2.518,1.429-5.07,1.429h-2.056V23.056z M331.655,16.543V58.79h8.884V41.308h1.713
		c2.647,0,4.447,0.453,5.399,1.357c0.952,0.905,1.428,2.576,1.428,5.013v6.484c0,1.143,0.067,1.986,0.2,2.528
		c0.133,0.543,0.381,1.243,0.743,2.1h8.655c-0.191-0.571-0.329-1.324-0.414-2.257c-0.086-0.933-0.157-1.914-0.214-2.942
		l-0.429-7.255c-0.171-2.723-0.776-4.694-1.814-5.913c-1.038-1.219-2.947-2.018-5.727-2.4c2.609-0.494,4.537-1.58,5.784-3.256
		c1.247-1.675,1.871-4.018,1.871-7.027c0-3.808-0.933-6.627-2.799-8.455c-1.867-1.828-4.732-2.742-8.598-2.742H331.655z
		 M305.011,16.543V58.79h8.884V40.366h12.454v-6.484h-12.454V23.056h13.054v-6.513H305.011z M276.108,16.543V58.79h23.509v-6.599
		h-14.682V39.966h13.111v-6.513h-13.111V23.056h14.225v-6.513H276.108z M252.397,23.056h1.885c2.685,0,4.437,0.428,5.256,1.285
		c0.818,0.857,1.228,2.333,1.228,4.428c0,2.113-0.414,3.646-1.243,4.598c-0.828,0.953-2.518,1.429-5.07,1.429h-2.056V23.056z
		 M243.513,16.543V58.79h8.884V41.308h1.713c2.647,0,4.447,0.453,5.399,1.357c0.952,0.905,1.428,2.576,1.428,5.013v6.484
		c0,1.143,0.067,1.986,0.2,2.528c0.133,0.543,0.381,1.243,0.743,2.1h8.655c-0.191-0.571-0.329-1.324-0.414-2.257
		c-0.086-0.933-0.157-1.914-0.214-2.942l-0.429-7.255c-0.171-2.723-0.776-4.694-1.814-5.913c-1.038-1.219-2.947-2.018-5.727-2.4
		c2.609-0.494,4.537-1.58,5.784-3.256c1.247-1.675,1.871-4.018,1.871-7.027c0-3.808-0.933-6.627-2.799-8.455
		c-1.866-1.828-4.732-2.742-8.598-2.742H243.513z"/>
</g>
</svg>
