<?xml version="1.0" encoding="iso-8859-1"?>
<!-- Generator: Adobe Illustrator 29.5.1, SVG Export Plug-In . SVG Version: 9.03 Build 0)  -->
<svg version="1.1" id="Layer_1" xmlns="http://www.w3.org/2000/svg" xmlns:xlink="http://www.w3.org/1999/xlink" x="0px" y="0px"
	 viewBox="0 0 720 144" style="enable-background:new 0 0 720 144;" xml:space="preserve">
<g>
	<defs>
		<rect id="SVGID_1_" width="720" height="144"/>
	</defs>
	<clipPath id="SVGID_00000029047944852546425300000000054874386934272907_">
		<use xlink:href="#SVGID_1_"  style="overflow:visible;"/>
	</clipPath>
	<path style="clip-path:url(#SVGID_00000029047944852546425300000000054874386934272907_);" d="M72.921,1.3
		C33.757,1.3,2.008,32.959,2.008,72.012s31.749,70.712,70.913,70.712s70.912-31.659,70.912-70.712S112.085,1.3,72.921,1.3"/>
	<path style="clip-path:url(#SVGID_00000029047944852546425300000000054874386934272907_);fill:#FFFFFF;" d="M72.921,2.98
		c38.175,0,69.233,30.968,69.233,69.032s-31.058,69.032-69.233,69.032S3.688,110.076,3.688,72.012S34.746,2.98,72.921,2.98"/>
</g>
<rect x="191.456" y="16.617" width="2" height="111.776"/>
<g>
	<defs>
		<rect id="SVGID_00000154411656991649326160000008090633122677314973_" width="720" height="144"/>
	</defs>
	<clipPath id="SVGID_00000030463343922377100890000000949818893339533239_">
		<use xlink:href="#SVGID_00000154411656991649326160000008090633122677314973_"  style="overflow:visible;"/>
	</clipPath>
	<path style="clip-path:url(#SVGID_00000030463343922377100890000000949818893339533239_);" d="M114.152,102.346v4.129
		c0,0.138-0.046,0.246-0.154,0.323c-0.093,0.077-0.216,0.123-0.37,0.123c-0.092,0-0.231,0-0.385-0.015
		c-0.154-0.015-0.323-0.031-0.478-0.046c-0.154-0.015-0.292-0.062-0.416-0.108c-0.107-0.046-0.169-0.108-0.169-0.169v-4.222
		l-3.605-7.041c-0.123-0.246-0.139-0.416-0.046-0.523c0.092-0.108,0.262-0.17,0.508-0.17c0.154,0,0.308,0,0.478,0.015
		c0.154,0,0.308,0.016,0.446,0.047c0.139,0.015,0.262,0.046,0.355,0.077c0.092,0.031,0.169,0.077,0.2,0.154l2.65,5.408l2.65-5.393
		c0.031-0.061,0.092-0.123,0.2-0.154c0.093-0.031,0.216-0.061,0.355-0.092c0.138-0.016,0.292-0.031,0.446-0.047
		c0.154,0,0.324-0.015,0.478-0.015c0.246,0,0.416,0.046,0.508,0.154c0.077,0.108,0.062,0.277-0.061,0.539L114.152,102.346z
		 M103.615,96.584v9.891c0,0.138-0.046,0.246-0.154,0.323c-0.108,0.077-0.216,0.123-0.354,0.123c-0.093,0-0.231,0-0.401-0.015
		c-0.17-0.015-0.339-0.031-0.493-0.046s-0.293-0.062-0.401-0.108c-0.123-0.046-0.169-0.108-0.169-0.169v-9.984h-3.051
		c-0.123,0-0.215-0.046-0.308-0.139c-0.077-0.092-0.123-0.2-0.123-0.338c0-0.093,0-0.201,0.015-0.355
		c0.016-0.138,0.031-0.292,0.047-0.431c0.015-0.139,0.061-0.262,0.092-0.37c0.046-0.092,0.093-0.154,0.17-0.154h8.165
		c0.123,0,0.216,0.046,0.308,0.139c0.077,0.092,0.123,0.215,0.123,0.339c0,0.092,0,0.2-0.015,0.354s-0.031,0.293-0.046,0.431
		c-0.016,0.139-0.046,0.262-0.093,0.355c-0.046,0.092-0.092,0.154-0.169,0.154H103.615z M96.497,106.475
		c0,0.138-0.046,0.246-0.154,0.323c-0.092,0.077-0.216,0.123-0.37,0.123c-0.092,0-0.231,0-0.4-0.015
		c-0.17-0.015-0.324-0.031-0.493-0.046c-0.154-0.015-0.293-0.062-0.416-0.108c-0.108-0.046-0.17-0.108-0.17-0.169V94.981
		c0-0.061,0.062-0.123,0.17-0.169c0.123-0.046,0.262-0.092,0.416-0.108c0.154-0.015,0.323-0.046,0.493-0.046
		c0.169-0.016,0.292-0.016,0.4-0.016c0.139,0,0.262,0.047,0.37,0.139c0.092,0.093,0.154,0.2,0.154,0.324V106.475z M85.389,104.888
		c0.092,0.015,0.216,0.061,0.401,0.092c0.185,0.047,0.385,0.093,0.631,0.139c0.231,0.046,0.493,0.077,0.786,0.123
		c0.277,0.031,0.57,0.046,0.847,0.046c0.309,0,0.601-0.03,0.878-0.077c0.278-0.046,0.54-0.138,0.755-0.246
		c0.216-0.123,0.401-0.277,0.524-0.462c0.139-0.201,0.201-0.432,0.201-0.724c0-0.401-0.124-0.74-0.386-1.017
		c-0.261-0.278-0.585-0.539-0.97-0.786c-0.385-0.246-0.817-0.493-1.279-0.739c-0.462-0.247-0.878-0.54-1.279-0.863
		c-0.4-0.324-0.724-0.709-0.97-1.156c-0.262-0.447-0.385-0.986-0.385-1.633c0-0.539,0.092-1.001,0.292-1.371
		c0.2-0.37,0.463-0.678,0.801-0.924c0.339-0.232,0.755-0.416,1.218-0.524c0.477-0.108,1.001-0.17,1.571-0.17
		c0.123,0,0.308,0,0.555,0.016c0.246,0.015,0.508,0.03,0.785,0.061c0.278,0.031,0.555,0.062,0.817,0.108
		c0.277,0.046,0.493,0.108,0.647,0.185c0.154,0.062,0.247,0.139,0.277,0.216c0.031,0.077,0.031,0.2,0.016,0.385
		c-0.016,0.293-0.077,0.524-0.185,0.724c-0.093,0.2-0.231,0.277-0.416,0.246c-0.278-0.061-0.586-0.107-0.94-0.169
		c-0.354-0.046-0.755-0.077-1.186-0.077c-0.678,0-1.248,0.108-1.68,0.293c-0.431,0.2-0.647,0.523-0.647,0.986
		c0,0.369,0.124,0.678,0.386,0.939c0.261,0.263,0.585,0.509,0.97,0.74s0.817,0.478,1.279,0.724c0.462,0.247,0.878,0.539,1.279,0.878
		c0.385,0.339,0.724,0.74,0.97,1.202c0.262,0.462,0.385,1.048,0.385,1.71c0,0.632-0.123,1.156-0.354,1.556
		c-0.231,0.416-0.555,0.724-0.94,0.955c-0.385,0.232-0.847,0.386-1.356,0.478c-0.508,0.093-1.047,0.139-1.602,0.139
		c-0.246,0-0.524-0.016-0.801-0.031s-0.539-0.046-0.817-0.077c-0.261-0.031-0.508-0.077-0.754-0.123
		c-0.232-0.047-0.432-0.093-0.601-0.154c-0.17-0.062-0.262-0.124-0.293-0.185c-0.031-0.077-0.046-0.201-0.015-0.37
		c0.03-0.324,0.092-0.601,0.184-0.817C85.112,104.949,85.234,104.842,85.389,104.888 M79.057,96.568H76.76v3.991h2.296
		c0.447,0,0.816-0.031,1.078-0.077c0.278-0.047,0.478-0.139,0.632-0.278c0.154-0.138,0.247-0.308,0.293-0.539
		s0.077-0.539,0.077-0.909v-0.37c0-0.369-0.031-0.678-0.077-0.924c-0.046-0.231-0.154-0.416-0.293-0.555
		c-0.154-0.138-0.354-0.215-0.632-0.277C79.857,96.599,79.504,96.568,79.057,96.568 M74.773,106.567V95.228
		c0-0.123,0.046-0.216,0.154-0.308c0.108-0.077,0.216-0.123,0.37-0.123h3.651c0.755,0,1.402,0.061,1.941,0.169
		c0.539,0.108,0.971,0.308,1.31,0.585c0.339,0.278,0.585,0.648,0.739,1.11c0.155,0.462,0.231,1.032,0.231,1.741v0.37
		c0,0.523-0.046,0.97-0.123,1.355s-0.216,0.724-0.385,1.002c-0.169,0.277-0.416,0.493-0.709,0.662
		c-0.292,0.17-0.647,0.293-1.047,0.385l2.295,3.975c0.124,0.216,0.185,0.37,0.185,0.478c0,0.061-0.031,0.123-0.077,0.169
		c-0.061,0.047-0.123,0.077-0.185,0.093c-0.061,0.015-0.138,0.03-0.2,0.046c-0.077,0-0.123,0.015-0.154,0.015
		c-0.093,0-0.231,0-0.385-0.015c-0.154-0.016-0.308-0.031-0.462-0.062c-0.154-0.03-0.309-0.061-0.432-0.123
		c-0.123-0.062-0.216-0.139-0.277-0.231l-2.434-4.16h-2.034v4.16c0,0.139-0.046,0.231-0.154,0.308
		c-0.093,0.077-0.216,0.123-0.354,0.123c-0.093,0-0.232,0-0.401-0.015c-0.17-0.016-0.324-0.031-0.493-0.046
		c-0.154-0.016-0.293-0.062-0.416-0.108C74.836,106.69,74.773,106.644,74.773,106.567 M65.068,106.382V95.228
		c0-0.139,0.046-0.247,0.154-0.324c0.092-0.077,0.216-0.107,0.37-0.107h6.64c0.123,0,0.231,0.046,0.308,0.154
		c0.077,0.092,0.123,0.215,0.123,0.339c0,0.092,0,0.2-0.015,0.354c-0.016,0.154-0.031,0.293-0.046,0.431
		c-0.016,0.139-0.062,0.262-0.093,0.355c-0.046,0.092-0.108,0.154-0.169,0.154h-5.269v3.204h4.514c0.108,0,0.2,0.047,0.292,0.139
		c0.078,0.092,0.124,0.2,0.124,0.323c0,0.093,0,0.201-0.016,0.355c-0.015,0.154-0.03,0.292-0.046,0.431
		c-0.015,0.139-0.062,0.262-0.092,0.37c-0.047,0.092-0.093,0.154-0.17,0.154h-4.622v3.389h5.161c0.124,0,0.232,0.047,0.309,0.139
		c0.077,0.093,0.123,0.2,0.123,0.339c0,0.092,0,0.2-0.016,0.354c-0.015,0.139-0.03,0.293-0.046,0.432
		c-0.015,0.138-0.061,0.262-0.092,0.37c-0.046,0.107-0.108,0.154-0.17,0.154h-6.501c-0.154,0-0.324-0.031-0.493-0.108
		C65.145,106.536,65.068,106.459,65.068,106.382 M58.998,103.547l2.496-8.581c0.154-0.154,0.339-0.246,0.539-0.293
		c0.2-0.031,0.431-0.061,0.709-0.061c0.107,0,0.231,0,0.338,0.015c0.124,0.015,0.216,0.031,0.293,0.077
		c0.077,0.046,0.139,0.093,0.185,0.17c0.046,0.077,0.031,0.169,0,0.308l-3.836,11.478c-0.016,0.092-0.077,0.154-0.17,0.2
		c-0.092,0.046-0.185,0.061-0.292,0.061c-0.37,0-0.678-0.015-0.925-0.061c-0.246-0.046-0.4-0.108-0.462-0.185l-3.821-11.493
		c-0.031-0.108-0.031-0.201,0-0.278c0.031-0.077,0.077-0.123,0.154-0.169c0.062-0.046,0.139-0.077,0.231-0.093
		c0.077-0.015,0.154-0.03,0.201-0.03c0.169,0,0.339,0,0.508,0.015c0.17,0.015,0.324,0.031,0.478,0.062
		c0.138,0.031,0.262,0.077,0.369,0.123c0.093,0.062,0.17,0.123,0.201,0.216l2.557,8.504c0.046,0.139,0.077,0.277,0.093,0.416
		c0.015,0.154,0.031,0.277,0.061,0.401c0.016-0.124,0.031-0.262,0.046-0.401C58.921,103.809,58.951,103.671,58.998,103.547
		 M52.589,106.475c0,0.138-0.047,0.246-0.154,0.323c-0.093,0.077-0.216,0.123-0.37,0.123c-0.093,0-0.231,0-0.401-0.015
		c-0.169-0.015-0.323-0.031-0.493-0.046c-0.154-0.015-0.293-0.062-0.416-0.108s-0.169-0.108-0.169-0.169V94.981
		c0-0.061,0.061-0.123,0.169-0.169c0.123-0.046,0.247-0.092,0.416-0.108c0.154-0.015,0.324-0.046,0.493-0.046
		c0.17-0.016,0.293-0.016,0.401-0.016c0.138,0,0.262,0.047,0.37,0.139c0.092,0.093,0.154,0.2,0.154,0.324V106.475z M46.518,103.239
		V94.92c0-0.062,0.062-0.123,0.185-0.154c0.124-0.046,0.262-0.077,0.432-0.093c0.169-0.015,0.339-0.031,0.508-0.046
		c0.17-0.015,0.308-0.015,0.401-0.015c0.292,0,0.431,0.169,0.431,0.493v11.37c0,0.138-0.046,0.231-0.154,0.308
		c-0.108,0.077-0.216,0.123-0.339,0.123c-0.092,0-0.2,0-0.354-0.015c-0.154-0.016-0.293-0.016-0.447-0.046
		c-0.154-0.031-0.278-0.062-0.401-0.093c-0.123-0.046-0.2-0.092-0.246-0.154l-5.377-8.273v8.15c0,0.138-0.046,0.246-0.154,0.323
		c-0.092,0.077-0.216,0.123-0.355,0.123c-0.092,0-0.231,0-0.4-0.015c-0.17-0.015-0.339-0.031-0.493-0.046s-0.293-0.062-0.401-0.108
		c-0.123-0.046-0.169-0.108-0.169-0.169V94.981c0-0.061,0.061-0.123,0.169-0.169c0.124-0.046,0.247-0.092,0.401-0.108
		c0.154-0.015,0.308-0.031,0.477-0.046c0.17-0.016,0.293-0.016,0.401-0.016c0.123,0,0.231,0.031,0.308,0.108
		c0.077,0.077,0.154,0.154,0.201,0.247L46.518,103.239z M35.056,102.5v-7.488c0-0.061,0.062-0.123,0.169-0.169
		c0.124-0.046,0.262-0.093,0.416-0.123c0.17-0.031,0.339-0.062,0.493-0.078c0.17-0.015,0.293-0.03,0.401-0.03
		c0.139,0,0.262,0.046,0.354,0.154c0.093,0.108,0.139,0.215,0.139,0.339v7.487c0,0.817-0.092,1.495-0.277,2.049
		c-0.185,0.555-0.447,0.986-0.817,1.341c-0.37,0.339-0.832,0.585-1.386,0.724c-0.555,0.139-1.218,0.215-1.957,0.215h-0.139
		c-0.724,0-1.371-0.076-1.91-0.215c-0.555-0.139-1.002-0.385-1.371-0.724c-0.37-0.339-0.632-0.786-0.817-1.341
		c-0.185-0.539-0.277-1.232-0.277-2.049v-7.58c0-0.061,0.061-0.123,0.169-0.169c0.124-0.046,0.247-0.093,0.416-0.123
		c0.154-0.031,0.324-0.062,0.493-0.078c0.17-0.015,0.308-0.03,0.401-0.03c0.138,0,0.246,0.046,0.354,0.154
		c0.093,0.108,0.154,0.215,0.154,0.339v7.379c0,0.478,0.031,0.879,0.108,1.218c0.077,0.338,0.2,0.616,0.385,0.816
		c0.185,0.216,0.432,0.37,0.74,0.462c0.308,0.093,0.693,0.154,1.155,0.154h0.139c0.478,0,0.863-0.046,1.186-0.154
		c0.308-0.108,0.57-0.262,0.755-0.462c0.185-0.216,0.324-0.478,0.401-0.816C35.025,103.378,35.056,102.978,35.056,102.5
		 M106.742,75.538v14.313h-3.944V67.989h5.5l5.285,13.466V67.989h4.006v21.862h-5.023L106.742,75.538z M95.419,67.989h4.437v21.862
		h-4.437V67.989z M78.395,67.989h4.56v9.506l5.685-9.506h4.76L87.084,78.05L93.4,89.867h-5.284l-5.161-10.631v10.631h-4.56V67.989z
		 M70.967,84.998H64.62l-1.156,4.869h-4.575l6.162-21.878h5.824l6.07,21.878h-4.791L70.967,84.998z M70.06,81.193l-2.188-9.044
		l-2.296,9.044H70.06z M45.625,67.989h11.817v3.713h-7.195v4.668h6.625v3.806h-6.625v5.823h7.21v3.852H45.625V67.989z
		 M35.595,67.989c5.839,0,7.642,3.097,7.642,10.939s-1.818,10.939-7.657,10.939h-7.488V67.989H35.595z M32.683,86.092h2.08
		c3.405,0,3.836-2.003,3.836-7.241c0-5.223-0.431-7.226-3.836-7.226h-2.08V86.092z M81.507,51.366l-9.938-17.24l1.31-2.203
		l11.154,19.443H81.507z M76.808,51.366l-7.611-13.142l1.279-2.157l8.766,15.299H76.808z M72.032,51.366l-5.223-9.013l1.325-2.234
		l6.424,11.231h-2.526V51.366z M67.225,51.366l-2.804-4.869l1.325-2.234l4.052,7.103H67.225z M61.601,51.366l1.71-2.928l1.711,2.928
		H61.601z M59.429,29.889v18.365c0,7.41,6.009,13.419,13.419,13.419c7.411,0,13.419-6.009,13.419-13.419V29.889H59.429z"/>
	<path style="clip-path:url(#SVGID_00000030463343922377100890000000949818893339533239_);" d="M699.611,113.224h3.423
		c1.852,0,3.179,0.333,3.979,1c0.8,0.667,1.2,1.867,1.2,3.601c0,1.675-0.363,2.883-1.089,3.623
		c-0.726,0.742-2.305,1.112-4.735,1.112h-2.778V113.224z M699.611,108.178v-8.38h2.956c2.119,0,3.531,0.333,4.235,1
		c0.703,0.667,1.055,1.653,1.055,2.957c0,1.259-0.152,2.137-0.455,2.634c-0.304,0.496-0.76,0.919-1.367,1.267
		c-0.608,0.348-1.534,0.522-2.779,0.522H699.611z M692.787,94.73v32.876h12.247c3.483,0,6.032-0.715,7.647-2.145
		c1.615-1.43,2.423-3.686,2.423-6.769c0-2.549-0.5-4.471-1.501-5.768c-1-1.297-2.552-2.093-4.656-2.39
		c1.852-0.385,3.248-1.207,4.19-2.467c0.941-1.259,1.411-2.941,1.411-5.046c0-2.904-0.815-5.012-2.445-6.324
		c-1.63-1.311-4.216-1.967-7.758-1.967H692.787z M675.764,101.065l3.423,14.293h-6.646L675.764,101.065z M671.674,94.73
		l-9.114,32.876h6.802l1.867-7.291h9.359l1.822,7.291h7.247l-8.914-32.876H671.674z M643.61,94.73v32.876h17.16v-5.468h-10.202
		V94.73H643.61z M607.004,94.73v32.876h6.935v-14.471h7.78v14.471h6.913V94.73h-6.913v13.026h-7.78V94.73H607.004z M602.896,104.11
		c0-3.393-0.812-5.886-2.434-7.479c-1.623-1.593-3.998-2.39-7.125-2.39c-2.667,0-4.79,0.441-6.368,1.323
		c-1.578,0.881-2.705,2.071-3.379,3.567c-0.674,1.497-1.108,3.12-1.3,4.868c-0.193,1.749-0.289,4.157-0.289,7.224
		c0,3.898,0.181,6.743,0.545,8.536c0.362,1.793,0.918,3.268,1.667,4.423c0.748,1.156,1.833,2.075,3.256,2.757
		c1.423,0.681,3.268,1.022,5.535,1.022c3.482,0,6.061-0.874,7.735-2.623c1.675-1.748,2.512-4.364,2.512-7.846v-0.956h-6.779v0.378
		c0,2.119-0.301,3.664-0.901,4.634c-0.6,0.971-1.485,1.456-2.656,1.456c-1.393,0-2.386-0.633-2.979-1.9
		c-0.592-1.267-0.918-2.868-0.978-4.801c-0.059-1.934-0.089-3.479-0.089-4.635c0-3.438,0.089-5.891,0.267-7.358
		c0.178-1.467,0.545-2.678,1.101-3.634c0.555-0.956,1.433-1.434,2.634-1.434c1.052,0,1.863,0.412,2.434,1.234
		c0.57,0.822,0.855,2.16,0.855,4.012v0.623h6.736V104.11z M564.91,99.798h1.467c2.089,0,3.453,0.333,4.09,1
		c0.637,0.667,0.956,1.816,0.956,3.446c0,1.645-0.323,2.838-0.967,3.578c-0.645,0.742-1.96,1.112-3.946,1.112h-1.6V99.798z
		 M557.997,94.73v32.876h6.913v-13.604h1.333c2.06,0,3.46,0.352,4.202,1.056c0.74,0.704,1.111,2.004,1.111,3.901v5.046
		c0,0.889,0.052,1.545,0.156,1.967c0.103,0.422,0.296,0.967,0.578,1.634h6.735c-0.149-0.445-0.256-1.03-0.323-1.756
		c-0.066-0.726-0.122-1.49-0.166-2.29l-0.334-5.646c-0.133-2.119-0.604-3.653-1.411-4.601c-0.808-0.948-2.294-1.571-4.457-1.867
		c2.03-0.385,3.53-1.23,4.501-2.534c0.971-1.304,1.456-3.127,1.456-5.469c0-2.963-0.726-5.156-2.178-6.579
		c-1.453-1.423-3.683-2.134-6.691-2.134H557.997z M541.101,101.065l3.423,14.293h-6.646L541.101,101.065z M537.011,94.73
		l-9.114,32.876h6.802l1.867-7.291h9.358l1.823,7.291h7.246L546.08,94.73H537.011z M507.137,94.73v32.876h18.294v-5.135h-11.425
		v-9.514h10.203v-5.068h-10.203v-8.091h11.07V94.73H507.137z M500.501,125.839c1.853-1.579,2.779-3.946,2.779-7.102
		c0-2.06-0.4-3.687-1.2-4.88c-0.801-1.192-2.09-2.345-3.868-3.456l-6.646-4.246c-0.727-0.459-1.256-0.985-1.59-1.578
		c-0.333-0.592-0.5-1.23-0.5-1.911c0-1.112,0.3-1.997,0.9-2.657c0.601-0.659,1.412-0.989,2.434-0.989
		c2.208,0,3.312,1.423,3.312,4.268v0.778h6.736v-1.134c0-3.171-0.812-5.42-2.434-6.746c-1.623-1.326-3.983-1.989-7.08-1.989
		c-3.468,0-6.146,0.759-8.036,2.278c-1.889,1.519-2.834,3.671-2.834,6.457c0,2.06,0.385,3.761,1.156,5.102
		c0.77,1.341,2.445,2.812,5.024,4.412l5.446,3.334c0.74,0.46,1.3,0.993,1.678,1.601c0.378,0.607,0.567,1.348,0.567,2.222
		c0,1.156-0.315,2.049-0.945,2.679c-0.63,0.63-1.53,0.945-2.701,0.945c-1.378,0-2.341-0.408-2.889-1.223
		c-0.549-0.815-0.823-2.045-0.823-3.69v-0.867h-6.98v2.045c0,2.89,0.845,5.065,2.534,6.524c1.69,1.46,4.172,2.19,7.447,2.19
		C495.811,128.206,498.649,127.417,500.501,125.839 M460.569,94.73v32.876h18.294v-5.135h-11.426v-9.514h10.203v-5.068h-10.203
		v-8.091h11.07V94.73H460.569z M442.75,99.798h1.467c2.089,0,3.452,0.333,4.09,1c0.637,0.667,0.956,1.816,0.956,3.446
		c0,1.645-0.323,2.838-0.967,3.578c-0.645,0.742-1.96,1.112-3.946,1.112h-1.6V99.798z M435.837,94.73v32.876h6.913v-13.604h1.333
		c2.06,0,3.46,0.352,4.202,1.056c0.74,0.704,1.111,2.004,1.111,3.901v5.046c0,0.889,0.052,1.545,0.156,1.967
		c0.103,0.422,0.296,0.967,0.578,1.634h6.735c-0.149-0.445-0.256-1.03-0.323-1.756c-0.066-0.726-0.122-1.49-0.166-2.29l-0.334-5.646
		c-0.133-2.119-0.604-3.653-1.411-4.601c-0.808-0.948-2.294-1.571-4.457-1.867c2.03-0.385,3.53-1.23,4.501-2.534
		s1.456-3.127,1.456-5.469c0-2.963-0.726-5.156-2.178-6.579c-1.453-1.423-3.683-2.134-6.691-2.134H435.837z M399.074,94.73
		l8.558,20.806v12.07h6.98v-12.07l9.136-20.806h-7.002l-5.246,13.893l-4.912-13.893H399.074z M375.039,94.73v5.335h7.558v27.541
		h6.979v-27.541h7.647V94.73H375.039z M365.129,127.606h6.869V94.73h-6.869V127.606z M344.987,94.73v32.876h17.16v-5.468h-10.203
		V94.73H344.987z M333.245,127.606h6.869V94.73h-6.869V127.606z M313.52,113.224h3.423c1.852,0,3.179,0.333,3.979,1
		c0.8,0.667,1.2,1.867,1.2,3.601c0,1.675-0.363,2.883-1.089,3.623c-0.726,0.742-2.304,1.112-4.734,1.112h-2.779V113.224z
		 M313.52,108.178v-8.38h2.956c2.119,0,3.531,0.333,4.235,1c0.704,0.667,1.056,1.653,1.056,2.957c0,1.259-0.152,2.137-0.456,2.634
		c-0.304,0.496-0.759,0.919-1.367,1.267s-1.534,0.522-2.778,0.522H313.52z M306.696,94.73v32.876h12.248
		c3.482,0,6.031-0.715,7.646-2.145c1.615-1.43,2.423-3.686,2.423-6.769c0-2.549-0.5-4.471-1.5-5.768
		c-1-1.297-2.553-2.093-4.657-2.39c1.852-0.385,3.249-1.207,4.19-2.467c0.941-1.259,1.411-2.941,1.411-5.046
		c0-2.904-0.815-5.012-2.445-6.324c-1.63-1.311-4.216-1.967-7.757-1.967H306.696z M286.438,108.934c0-3.897,0.311-6.561,0.934-7.991
		c0.622-1.43,1.77-2.145,3.445-2.145c1.704,0,2.864,0.67,3.479,2.011c0.615,1.342,0.922,3.509,0.922,6.502v3.134
		c0,2.164-0.041,4.268-0.122,6.313c-0.082,2.045-0.422,3.65-1.022,4.813c-0.601,1.163-1.701,1.745-3.301,1.745
		c-1.142,0-2.02-0.341-2.634-1.023c-0.615-0.681-1.053-1.734-1.312-3.156c-0.259-1.423-0.389-3.898-0.389-7.425V108.934z
		 M290.662,128.206c2.074,0,3.808-0.245,5.201-0.734s2.515-1.181,3.368-2.078c0.852-0.896,1.492-2.004,1.922-3.323
		c0.43-1.319,0.719-2.734,0.867-4.246c0.148-1.511,0.222-3.808,0.222-6.891c0-3.437-0.111-6.035-0.333-7.791
		c-0.222-1.756-0.686-3.341-1.389-4.756c-0.704-1.415-1.838-2.523-3.401-3.324c-1.564-0.8-3.679-1.2-6.346-1.2
		c-2.683,0-4.865,0.519-6.547,1.556c-1.682,1.038-2.9,2.675-3.656,4.913c-0.756,2.237-1.134,5.712-1.134,10.425
		c0,4.001,0.189,6.939,0.567,8.813c0.378,1.875,0.952,3.427,1.723,4.657c0.77,1.23,1.885,2.201,3.345,2.912
		C286.531,127.85,288.394,128.206,290.662,128.206 M242.734,94.73v32.876h6.513v-25.363l6.09,25.363h6.558l6.424-25.363v25.363h6.69
		V94.73h-10.691l-5.513,22.362l-5.201-22.362H242.734z"/>
	<path style="clip-path:url(#SVGID_00000030463343922377100890000000949818893339533239_);" d="M469.265,51.429v32.876h18.294V79.17
		h-11.426v-9.513h10.203v-5.068h-10.203v-8.091h11.07v-5.069H469.265z M451.446,56.498h1.467c2.089,0,3.452,0.333,4.09,1
		c0.637,0.667,0.955,1.815,0.955,3.445c0,1.645-0.322,2.838-0.966,3.579c-0.645,0.741-1.96,1.111-3.946,1.111h-1.6V56.498z
		 M444.533,51.429v32.876h6.913V70.701h1.333c2.06,0,3.46,0.353,4.201,1.056c0.741,0.704,1.112,2.005,1.112,3.901v5.046
		c0,0.889,0.052,1.545,0.155,1.967c0.104,0.423,0.297,0.967,0.578,1.634h6.736c-0.149-0.444-0.256-1.03-0.323-1.756
		c-0.066-0.726-0.122-1.489-0.166-2.289l-0.334-5.646c-0.133-2.119-0.604-3.653-1.411-4.602c-0.808-0.948-2.294-1.57-4.457-1.867
		c2.03-0.385,3.53-1.23,4.501-2.534c0.97-1.304,1.456-3.126,1.456-5.468c0-2.964-0.726-5.157-2.178-6.58
		c-1.453-1.422-3.683-2.134-6.691-2.134H444.533z M417.531,51.429v22.007c0,3.867,0.892,6.746,2.678,8.635
		c1.786,1.89,4.546,2.834,8.28,2.834c3.912,0,6.78-0.929,8.603-2.789c1.822-1.86,2.734-4.738,2.734-8.636V51.429h-6.691v22.184
		c0,2.12-0.371,3.716-1.111,4.791c-0.742,1.074-1.883,1.611-3.424,1.611c-1.437,0-2.497-0.53-3.178-1.589
		c-0.682-1.06-1.023-2.679-1.023-4.857v-22.14H417.531z M392.37,51.429v5.335h7.558v27.541h6.979V56.764h7.647v-5.335H392.37z
		 M367.093,51.429v22.007c0,3.867,0.893,6.746,2.679,8.635c1.785,1.89,4.546,2.834,8.28,2.834c3.912,0,6.78-0.929,8.602-2.789
		c1.823-1.86,2.734-4.738,2.734-8.636V51.429h-6.69v22.184c0,2.12-0.371,3.716-1.112,4.791c-0.741,1.074-1.882,1.611-3.423,1.611
		c-1.437,0-2.497-0.53-3.179-1.589c-0.681-1.06-1.022-2.679-1.022-4.857v-22.14H367.093z M347.002,51.429v32.876h6.913V69.968h9.691
		v-5.046h-9.691v-8.424h10.158v-5.069H347.002z M315.352,51.429v32.876h18.294V79.17H322.22v-9.513h10.203v-5.068H322.22v-8.091
		h11.07v-5.069H315.352z M295.172,51.429v32.876h6.913V69.968h9.692v-5.046h-9.692v-8.424h10.159v-5.069H295.172z M278.276,57.765
		l3.424,14.292h-6.647L278.276,57.765z M274.186,51.429l-9.113,32.876h6.802l1.867-7.291h9.358l1.823,7.291h7.246l-8.913-32.876
		H274.186z M260.539,82.538c1.852-1.578,2.779-3.946,2.779-7.102c0-2.06-0.401-3.686-1.201-4.879
		c-0.8-1.193-2.089-2.345-3.867-3.457l-6.647-4.245c-0.726-0.459-1.256-0.986-1.589-1.578c-0.334-0.593-0.5-1.23-0.5-1.912
		c0-1.111,0.3-1.997,0.9-2.656c0.6-0.66,1.412-0.989,2.434-0.989c2.208,0,3.312,1.422,3.312,4.267v0.778h6.735v-1.133
		c0-3.171-0.811-5.42-2.434-6.747c-1.622-1.326-3.982-1.989-7.08-1.989c-3.467,0-6.146,0.76-8.035,2.278
		c-1.889,1.52-2.834,3.672-2.834,6.458c0,2.06,0.385,3.76,1.156,5.101c0.77,1.341,2.445,2.812,5.023,4.412l5.446,3.335
		c0.741,0.459,1.301,0.993,1.679,1.6c0.377,0.608,0.566,1.349,0.566,2.223c0,1.156-0.315,2.049-0.944,2.678
		c-0.63,0.631-1.531,0.945-2.701,0.945c-1.378,0-2.342-0.407-2.89-1.222s-0.822-2.045-0.822-3.69v-0.867h-6.98v2.045
		c0,2.889,0.845,5.064,2.534,6.524c1.689,1.46,4.171,2.189,7.447,2.189C255.849,84.905,258.686,84.116,260.539,82.538"/>
	<path style="clip-path:url(#SVGID_00000030463343922377100890000000949818893339533239_);" d="M327.66,16.797
		c-0.101-0.141-0.212-0.262-0.333-0.363c-0.121-0.1-0.262-0.151-0.423-0.151c-0.182,0-0.378,0.01-0.59,0.03
		c-0.212,0.021-0.419,0.056-0.62,0.106c-0.202,0.051-0.368,0.111-0.499,0.181c-0.131,0.071-0.196,0.147-0.196,0.227v21.408
		c0,0.101,0.07,0.181,0.211,0.242c0.141,0.06,0.313,0.111,0.514,0.151c0.202,0.04,0.413,0.071,0.635,0.091
		c0.222,0.02,0.413,0.03,0.575,0.03c0.222,0,0.398-0.081,0.529-0.242c0.131-0.161,0.197-0.352,0.197-0.574v-16.54l10.855,16.872
		c0.06,0.081,0.166,0.151,0.317,0.212c0.151,0.06,0.328,0.111,0.529,0.151c0.202,0.04,0.403,0.071,0.605,0.091
		c0.201,0.02,0.373,0.03,0.514,0.03c0.201,0,0.368-0.075,0.499-0.227c0.131-0.151,0.197-0.337,0.197-0.559V17.13
		c0-0.242-0.046-0.444-0.136-0.605c-0.091-0.161-0.248-0.242-0.469-0.242c-0.182,0-0.393,0.01-0.635,0.03
		c-0.242,0.021-0.469,0.051-0.68,0.091c-0.212,0.041-0.389,0.091-0.53,0.151c-0.141,0.061-0.211,0.131-0.211,0.212V33.7
		L327.66,16.797z M320.509,17.099c0-0.221-0.066-0.413-0.197-0.574c-0.131-0.161-0.307-0.242-0.529-0.242
		c-0.181,0-0.383,0.01-0.605,0.03c-0.222,0.021-0.438,0.056-0.65,0.106c-0.211,0.051-0.388,0.111-0.529,0.181
		c-0.141,0.071-0.211,0.147-0.211,0.227v21.408c0,0.101,0.07,0.181,0.211,0.242c0.141,0.06,0.318,0.111,0.529,0.151
		c0.212,0.04,0.428,0.071,0.65,0.091c0.222,0.02,0.424,0.03,0.605,0.03c0.222,0,0.398-0.081,0.529-0.242
		c0.131-0.161,0.197-0.352,0.197-0.574V17.099z M301.35,27.35l10.069,10.855c0.221,0.242,0.534,0.393,0.937,0.453
		c0.403,0.061,0.836,0.091,1.3,0.091c0.141,0,0.303-0.02,0.484-0.06c0.182-0.041,0.272-0.162,0.272-0.363
		c0-0.222-0.161-0.504-0.484-0.847l-9.706-10.432l8.86-9.494c0.342-0.363,0.514-0.645,0.514-0.847c0-0.201-0.091-0.322-0.272-0.363
		c-0.182-0.04-0.353-0.06-0.514-0.06c-0.444,0-0.873,0.03-1.285,0.091c-0.414,0.06-0.731,0.211-0.953,0.453l-9.222,9.948v-9.676
		c0-0.221-0.066-0.413-0.197-0.574c-0.131-0.161-0.307-0.242-0.529-0.242c-0.181,0-0.383,0.01-0.605,0.03
		c-0.222,0.021-0.438,0.056-0.65,0.106c-0.211,0.051-0.388,0.111-0.529,0.181c-0.141,0.071-0.212,0.147-0.212,0.227v21.408
		c0,0.101,0.071,0.181,0.212,0.242c0.141,0.06,0.318,0.111,0.529,0.151c0.212,0.04,0.428,0.071,0.65,0.091
		c0.222,0.02,0.424,0.03,0.605,0.03c0.222,0,0.398-0.081,0.529-0.242c0.131-0.161,0.197-0.352,0.197-0.574V27.35z M286.41,20.304
		c0.02-0.201,0.05-0.382,0.091-0.544c0,0.101,0.025,0.283,0.075,0.544c0.05,0.263,0.096,0.444,0.136,0.545l2.903,8.799h-6.259
		l2.933-8.799C286.35,20.688,286.391,20.506,286.41,20.304 M293.033,38.643c0.342,0.071,0.796,0.106,1.36,0.106
		c0.182,0,0.358-0.035,0.53-0.106c0.171-0.071,0.257-0.196,0.257-0.378c0-0.121-0.011-0.211-0.031-0.272l-7.257-21.136
		c-0.12-0.382-0.352-0.574-0.695-0.574c-0.383,0-0.801,0.035-1.255,0.106c-0.453,0.071-0.721,0.217-0.801,0.438l-7.287,21.166
		c-0.041,0.121-0.061,0.212-0.061,0.272c0,0.182,0.086,0.307,0.257,0.378c0.171,0.071,0.358,0.106,0.56,0.106
		c0.463,0,0.881-0.02,1.255-0.06c0.372-0.041,0.599-0.182,0.68-0.424l2.116-6.259h7.681l2.026,6.138
		C292.467,38.406,292.69,38.572,293.033,38.643 M262.031,38.235c0.282,0.101,0.554,0.151,0.816,0.151h11.4
		c0.08,0,0.151-0.06,0.211-0.181c0.061-0.121,0.111-0.272,0.151-0.454c0.041-0.181,0.071-0.372,0.091-0.574
		c0.02-0.201,0.03-0.383,0.03-0.544c0-0.202-0.07-0.363-0.211-0.484c-0.142-0.121-0.303-0.182-0.484-0.182h-9.706v-7.438h8.98
		c0.081,0,0.151-0.06,0.212-0.181c0.06-0.121,0.116-0.273,0.166-0.454c0.05-0.181,0.086-0.373,0.106-0.575
		c0.02-0.201,0.03-0.372,0.03-0.514c0-0.221-0.071-0.393-0.211-0.514c-0.142-0.121-0.313-0.181-0.514-0.181h-8.769v-7.045h9.918
		c0.08,0,0.151-0.061,0.211-0.182c0.061-0.121,0.111-0.272,0.151-0.453c0.041-0.182,0.071-0.373,0.091-0.575
		c0.02-0.201,0.03-0.382,0.03-0.544c0-0.222-0.07-0.388-0.211-0.499c-0.142-0.11-0.303-0.166-0.484-0.166h-11.702
		c-0.484,0-0.725,0.262-0.725,0.786v20.41C261.608,38.004,261.747,38.134,262.031,38.235 M251.672,19.352
		c0.726,0.212,1.315,0.559,1.769,1.043c0.453,0.484,0.776,1.114,0.967,1.89c0.192,0.776,0.288,1.719,0.288,2.827v4.778
		c0,1.108-0.096,2.051-0.288,2.827c-0.191,0.776-0.514,1.406-0.967,1.89c-0.454,0.483-1.043,0.831-1.769,1.043
		c-0.726,0.211-1.633,0.317-2.721,0.317h-4.143V19.035h4.143C250.038,19.035,250.946,19.14,251.672,19.352 M242.359,16.797
		c-0.181,0.121-0.272,0.323-0.272,0.605v20.44c0,0.162,0.136,0.292,0.408,0.393c0.272,0.101,0.549,0.151,0.832,0.151h5.624
		c1.451,0,2.711-0.136,3.779-0.408c1.069-0.272,1.955-0.726,2.661-1.361s1.23-1.471,1.572-2.509
		c0.343-1.038,0.515-2.323,0.515-3.856V24.78c0-1.532-0.172-2.817-0.515-3.856c-0.342-1.038-0.866-1.874-1.572-2.509
		c-0.706-0.635-1.592-1.094-2.661-1.376c-1.068-0.282-2.328-0.423-3.779-0.423h-5.987C242.742,16.616,242.54,16.676,242.359,16.797"
		/>
</g>
</svg>
