<?xml version="1.0" encoding="iso-8859-1"?>
<!-- Generator: Adobe Illustrator 29.5.1, SVG Export Plug-In . SVG Version: 9.03 Build 0)  -->
<svg version="1.1" id="Layer_1" xmlns="http://www.w3.org/2000/svg" xmlns:xlink="http://www.w3.org/1999/xlink" x="0px" y="0px"
	 viewBox="0 0 720 144" style="enable-background:new 0 0 720 144;" xml:space="preserve">
<g>
	<defs>
		<rect id="SVGID_1_" width="720" height="144"/>
	</defs>
	<clipPath id="SVGID_00000032618611244580301020000011835271749211539898_">
		<use xlink:href="#SVGID_1_"  style="overflow:visible;"/>
	</clipPath>
	<path style="clip-path:url(#SVGID_00000032618611244580301020000011835271749211539898_);" d="M72.921,1.3
		C33.757,1.3,2.008,32.959,2.008,72.012s31.749,70.712,70.913,70.712s70.912-31.659,70.912-70.712S112.085,1.3,72.921,1.3"/>
	<path style="clip-path:url(#SVGID_00000032618611244580301020000011835271749211539898_);fill:#FFFFFF;" d="M72.921,2.98
		c38.175,0,69.233,30.968,69.233,69.032s-31.058,69.032-69.233,69.032S3.688,110.076,3.688,72.012S34.746,2.98,72.921,2.98"/>
</g>
<rect x="191.456" y="16.617" width="2" height="111.776"/>
<g>
	<defs>
		<rect id="SVGID_00000103260844287261275820000016276938658020314033_" width="720" height="144"/>
	</defs>
	<clipPath id="SVGID_00000094618864321891655470000003632953870988015026_">
		<use xlink:href="#SVGID_00000103260844287261275820000016276938658020314033_"  style="overflow:visible;"/>
	</clipPath>
	<path style="clip-path:url(#SVGID_00000094618864321891655470000003632953870988015026_);" d="M114.152,102.346v4.129
		c0,0.138-0.046,0.246-0.154,0.323c-0.093,0.077-0.216,0.123-0.37,0.123c-0.092,0-0.231,0-0.385-0.015
		c-0.154-0.015-0.323-0.031-0.478-0.046c-0.154-0.015-0.292-0.062-0.416-0.108c-0.107-0.046-0.169-0.108-0.169-0.169v-4.222
		l-3.605-7.041c-0.123-0.246-0.139-0.416-0.046-0.523c0.092-0.108,0.262-0.17,0.508-0.17c0.154,0,0.308,0,0.478,0.015
		c0.154,0,0.308,0.016,0.446,0.047c0.139,0.015,0.262,0.046,0.355,0.077c0.092,0.031,0.169,0.077,0.2,0.154l2.65,5.408l2.65-5.393
		c0.031-0.061,0.092-0.123,0.2-0.154c0.093-0.031,0.216-0.061,0.355-0.092c0.138-0.016,0.292-0.031,0.446-0.047
		c0.154,0,0.324-0.015,0.478-0.015c0.246,0,0.416,0.046,0.508,0.154c0.077,0.108,0.062,0.277-0.061,0.539L114.152,102.346z
		 M103.615,96.584v9.891c0,0.138-0.046,0.246-0.154,0.323c-0.108,0.077-0.216,0.123-0.354,0.123c-0.093,0-0.231,0-0.401-0.015
		c-0.17-0.015-0.339-0.031-0.493-0.046s-0.293-0.062-0.401-0.108c-0.123-0.046-0.169-0.108-0.169-0.169v-9.984h-3.051
		c-0.123,0-0.215-0.046-0.308-0.139c-0.077-0.092-0.123-0.2-0.123-0.338c0-0.093,0-0.201,0.015-0.355
		c0.016-0.138,0.031-0.292,0.047-0.431c0.015-0.139,0.061-0.262,0.092-0.37c0.046-0.092,0.093-0.154,0.17-0.154h8.165
		c0.123,0,0.216,0.046,0.308,0.139c0.077,0.092,0.123,0.215,0.123,0.339c0,0.092,0,0.2-0.015,0.354s-0.031,0.293-0.046,0.431
		c-0.016,0.139-0.046,0.262-0.093,0.355c-0.046,0.092-0.092,0.154-0.169,0.154H103.615z M96.497,106.475
		c0,0.138-0.046,0.246-0.154,0.323c-0.092,0.077-0.216,0.123-0.37,0.123c-0.092,0-0.231,0-0.4-0.015
		c-0.17-0.015-0.324-0.031-0.493-0.046c-0.154-0.015-0.293-0.062-0.416-0.108c-0.108-0.046-0.17-0.108-0.17-0.169V94.981
		c0-0.061,0.062-0.123,0.17-0.169c0.123-0.046,0.262-0.092,0.416-0.108c0.154-0.015,0.323-0.046,0.493-0.046
		c0.169-0.016,0.292-0.016,0.4-0.016c0.139,0,0.262,0.047,0.37,0.139c0.092,0.093,0.154,0.2,0.154,0.324V106.475z M85.389,104.888
		c0.092,0.015,0.216,0.061,0.401,0.092c0.185,0.047,0.385,0.093,0.631,0.139c0.231,0.046,0.493,0.077,0.786,0.123
		c0.277,0.031,0.57,0.046,0.847,0.046c0.309,0,0.601-0.03,0.878-0.077c0.278-0.046,0.54-0.138,0.755-0.246
		c0.216-0.123,0.401-0.277,0.524-0.462c0.139-0.201,0.201-0.432,0.201-0.724c0-0.401-0.124-0.74-0.386-1.017
		c-0.261-0.278-0.585-0.539-0.97-0.786c-0.385-0.246-0.817-0.493-1.279-0.739c-0.462-0.247-0.878-0.54-1.279-0.863
		c-0.4-0.324-0.724-0.709-0.97-1.156c-0.262-0.447-0.385-0.986-0.385-1.633c0-0.539,0.092-1.001,0.292-1.371
		c0.2-0.37,0.463-0.678,0.801-0.924c0.339-0.232,0.755-0.416,1.218-0.524c0.477-0.108,1.001-0.17,1.571-0.17
		c0.123,0,0.308,0,0.555,0.016c0.246,0.015,0.508,0.03,0.785,0.061c0.278,0.031,0.555,0.062,0.817,0.108
		c0.277,0.046,0.493,0.108,0.647,0.185c0.154,0.062,0.247,0.139,0.277,0.216c0.031,0.077,0.031,0.2,0.016,0.385
		c-0.016,0.293-0.077,0.524-0.185,0.724c-0.093,0.2-0.231,0.277-0.416,0.246c-0.278-0.061-0.586-0.107-0.94-0.169
		c-0.354-0.046-0.755-0.077-1.186-0.077c-0.678,0-1.248,0.108-1.68,0.293c-0.431,0.2-0.647,0.523-0.647,0.986
		c0,0.369,0.124,0.678,0.386,0.939c0.261,0.263,0.585,0.509,0.97,0.74s0.817,0.478,1.279,0.724c0.462,0.247,0.878,0.539,1.279,0.878
		c0.385,0.339,0.724,0.74,0.97,1.202c0.262,0.462,0.385,1.048,0.385,1.71c0,0.632-0.123,1.156-0.354,1.556
		c-0.231,0.416-0.555,0.724-0.94,0.955c-0.385,0.232-0.847,0.386-1.356,0.478c-0.508,0.093-1.047,0.139-1.602,0.139
		c-0.246,0-0.524-0.016-0.801-0.031s-0.539-0.046-0.817-0.077c-0.261-0.031-0.508-0.077-0.754-0.123
		c-0.232-0.047-0.432-0.093-0.601-0.154c-0.17-0.062-0.262-0.124-0.293-0.185c-0.031-0.077-0.046-0.201-0.015-0.37
		c0.03-0.324,0.092-0.601,0.184-0.817C85.112,104.949,85.234,104.842,85.389,104.888 M79.057,96.568H76.76v3.991h2.296
		c0.447,0,0.816-0.031,1.078-0.077c0.278-0.047,0.478-0.139,0.632-0.278c0.154-0.138,0.247-0.308,0.293-0.539
		s0.077-0.539,0.077-0.909v-0.37c0-0.369-0.031-0.678-0.077-0.924c-0.046-0.231-0.154-0.416-0.293-0.555
		c-0.154-0.138-0.354-0.215-0.632-0.277C79.857,96.599,79.504,96.568,79.057,96.568 M74.773,106.567V95.228
		c0-0.123,0.046-0.216,0.154-0.308c0.108-0.077,0.216-0.123,0.37-0.123h3.651c0.755,0,1.402,0.061,1.941,0.169
		c0.539,0.108,0.971,0.308,1.31,0.585c0.339,0.278,0.585,0.648,0.739,1.11c0.155,0.462,0.231,1.032,0.231,1.741v0.37
		c0,0.523-0.046,0.97-0.123,1.355s-0.216,0.724-0.385,1.002c-0.169,0.277-0.416,0.493-0.709,0.662
		c-0.292,0.17-0.647,0.293-1.047,0.385l2.295,3.975c0.124,0.216,0.185,0.37,0.185,0.478c0,0.061-0.031,0.123-0.077,0.169
		c-0.061,0.047-0.123,0.077-0.185,0.093c-0.061,0.015-0.138,0.03-0.2,0.046c-0.077,0-0.123,0.015-0.154,0.015
		c-0.093,0-0.231,0-0.385-0.015c-0.154-0.016-0.308-0.031-0.462-0.062c-0.154-0.03-0.309-0.061-0.432-0.123
		c-0.123-0.062-0.216-0.139-0.277-0.231l-2.434-4.16h-2.034v4.16c0,0.139-0.046,0.231-0.154,0.308
		c-0.093,0.077-0.216,0.123-0.354,0.123c-0.093,0-0.232,0-0.401-0.015c-0.17-0.016-0.324-0.031-0.493-0.046
		c-0.154-0.016-0.293-0.062-0.416-0.108C74.836,106.69,74.773,106.644,74.773,106.567 M65.068,106.382V95.228
		c0-0.139,0.046-0.247,0.154-0.324c0.092-0.077,0.216-0.107,0.37-0.107h6.64c0.123,0,0.231,0.046,0.308,0.154
		c0.077,0.092,0.123,0.215,0.123,0.339c0,0.092,0,0.2-0.015,0.354c-0.016,0.154-0.031,0.293-0.046,0.431
		c-0.016,0.139-0.062,0.262-0.093,0.355c-0.046,0.092-0.108,0.154-0.169,0.154h-5.269v3.204h4.514c0.108,0,0.2,0.047,0.292,0.139
		c0.078,0.092,0.124,0.2,0.124,0.323c0,0.093,0,0.201-0.016,0.355c-0.015,0.154-0.03,0.292-0.046,0.431
		c-0.015,0.139-0.062,0.262-0.092,0.37c-0.047,0.092-0.093,0.154-0.17,0.154h-4.622v3.389h5.161c0.124,0,0.232,0.047,0.309,0.139
		c0.077,0.093,0.123,0.2,0.123,0.339c0,0.092,0,0.2-0.016,0.354c-0.015,0.139-0.03,0.293-0.046,0.432
		c-0.015,0.138-0.061,0.262-0.092,0.37c-0.046,0.107-0.108,0.154-0.17,0.154h-6.501c-0.154,0-0.324-0.031-0.493-0.108
		C65.145,106.536,65.068,106.459,65.068,106.382 M58.998,103.547l2.496-8.581c0.154-0.154,0.339-0.246,0.539-0.293
		c0.2-0.031,0.431-0.061,0.709-0.061c0.107,0,0.231,0,0.338,0.015c0.124,0.015,0.216,0.031,0.293,0.077
		c0.077,0.046,0.139,0.093,0.185,0.17c0.046,0.077,0.031,0.169,0,0.308l-3.836,11.478c-0.016,0.092-0.077,0.154-0.17,0.2
		c-0.092,0.046-0.185,0.061-0.292,0.061c-0.37,0-0.678-0.015-0.925-0.061c-0.246-0.046-0.4-0.108-0.462-0.185l-3.821-11.493
		c-0.031-0.108-0.031-0.201,0-0.278c0.031-0.077,0.077-0.123,0.154-0.169c0.062-0.046,0.139-0.077,0.231-0.093
		c0.077-0.015,0.154-0.03,0.201-0.03c0.169,0,0.339,0,0.508,0.015c0.17,0.015,0.324,0.031,0.478,0.062
		c0.138,0.031,0.262,0.077,0.369,0.123c0.093,0.062,0.17,0.123,0.201,0.216l2.557,8.504c0.046,0.139,0.077,0.277,0.093,0.416
		c0.015,0.154,0.031,0.277,0.061,0.401c0.016-0.124,0.031-0.262,0.046-0.401C58.921,103.809,58.951,103.671,58.998,103.547
		 M52.589,106.475c0,0.138-0.047,0.246-0.154,0.323c-0.093,0.077-0.216,0.123-0.37,0.123c-0.093,0-0.231,0-0.401-0.015
		c-0.169-0.015-0.323-0.031-0.493-0.046c-0.154-0.015-0.293-0.062-0.416-0.108s-0.169-0.108-0.169-0.169V94.981
		c0-0.061,0.061-0.123,0.169-0.169c0.123-0.046,0.247-0.092,0.416-0.108c0.154-0.015,0.324-0.046,0.493-0.046
		c0.17-0.016,0.293-0.016,0.401-0.016c0.138,0,0.262,0.047,0.37,0.139c0.092,0.093,0.154,0.2,0.154,0.324V106.475z M46.518,103.239
		V94.92c0-0.062,0.062-0.123,0.185-0.154c0.124-0.046,0.262-0.077,0.432-0.093c0.169-0.015,0.339-0.031,0.508-0.046
		c0.17-0.015,0.308-0.015,0.401-0.015c0.292,0,0.431,0.169,0.431,0.493v11.37c0,0.138-0.046,0.231-0.154,0.308
		c-0.108,0.077-0.216,0.123-0.339,0.123c-0.092,0-0.2,0-0.354-0.015c-0.154-0.016-0.293-0.016-0.447-0.046
		c-0.154-0.031-0.278-0.062-0.401-0.093c-0.123-0.046-0.2-0.092-0.246-0.154l-5.377-8.273v8.15c0,0.138-0.046,0.246-0.154,0.323
		c-0.092,0.077-0.216,0.123-0.355,0.123c-0.092,0-0.231,0-0.4-0.015c-0.17-0.015-0.339-0.031-0.493-0.046s-0.293-0.062-0.401-0.108
		c-0.123-0.046-0.169-0.108-0.169-0.169V94.981c0-0.061,0.061-0.123,0.169-0.169c0.124-0.046,0.247-0.092,0.401-0.108
		c0.154-0.015,0.308-0.031,0.477-0.046c0.17-0.016,0.293-0.016,0.401-0.016c0.123,0,0.231,0.031,0.308,0.108
		c0.077,0.077,0.154,0.154,0.201,0.247L46.518,103.239z M35.056,102.5v-7.488c0-0.061,0.062-0.123,0.169-0.169
		c0.124-0.046,0.262-0.093,0.416-0.123c0.17-0.031,0.339-0.062,0.493-0.078c0.17-0.015,0.293-0.03,0.401-0.03
		c0.139,0,0.262,0.046,0.354,0.154c0.093,0.108,0.139,0.215,0.139,0.339v7.487c0,0.817-0.092,1.495-0.277,2.049
		c-0.185,0.555-0.447,0.986-0.817,1.341c-0.37,0.339-0.832,0.585-1.386,0.724c-0.555,0.139-1.218,0.215-1.957,0.215h-0.139
		c-0.724,0-1.371-0.076-1.91-0.215c-0.555-0.139-1.002-0.385-1.371-0.724c-0.37-0.339-0.632-0.786-0.817-1.341
		c-0.185-0.539-0.277-1.232-0.277-2.049v-7.58c0-0.061,0.061-0.123,0.169-0.169c0.124-0.046,0.247-0.093,0.416-0.123
		c0.154-0.031,0.324-0.062,0.493-0.078c0.17-0.015,0.308-0.03,0.401-0.03c0.138,0,0.246,0.046,0.354,0.154
		c0.093,0.108,0.154,0.215,0.154,0.339v7.379c0,0.478,0.031,0.879,0.108,1.218c0.077,0.338,0.2,0.616,0.385,0.816
		c0.185,0.216,0.432,0.37,0.74,0.462c0.308,0.093,0.693,0.154,1.155,0.154h0.139c0.478,0,0.863-0.046,1.186-0.154
		c0.308-0.108,0.57-0.262,0.755-0.462c0.185-0.216,0.324-0.478,0.401-0.816C35.025,103.378,35.056,102.978,35.056,102.5
		 M106.742,75.538v14.313h-3.944V67.989h5.5l5.285,13.466V67.989h4.006v21.862h-5.023L106.742,75.538z M95.419,67.989h4.437v21.862
		h-4.437V67.989z M78.395,67.989h4.56v9.506l5.685-9.506h4.76L87.084,78.05L93.4,89.867h-5.284l-5.161-10.631v10.631h-4.56V67.989z
		 M70.967,84.998H64.62l-1.156,4.869h-4.575l6.162-21.878h5.824l6.07,21.878h-4.791L70.967,84.998z M70.06,81.193l-2.188-9.044
		l-2.296,9.044H70.06z M45.625,67.989h11.817v3.713h-7.195v4.668h6.625v3.806h-6.625v5.823h7.21v3.852H45.625V67.989z
		 M35.595,67.989c5.839,0,7.642,3.097,7.642,10.939s-1.818,10.939-7.657,10.939h-7.488V67.989H35.595z M32.683,86.092h2.08
		c3.405,0,3.836-2.003,3.836-7.241c0-5.223-0.431-7.226-3.836-7.226h-2.08V86.092z M81.507,51.366l-9.938-17.24l1.31-2.203
		l11.154,19.443H81.507z M76.808,51.366l-7.611-13.142l1.279-2.157l8.766,15.299H76.808z M72.032,51.366l-5.223-9.013l1.325-2.234
		l6.424,11.231h-2.526V51.366z M67.225,51.366l-2.804-4.869l1.325-2.234l4.052,7.103H67.225z M61.601,51.366l1.71-2.928l1.711,2.928
		H61.601z M59.429,29.889v18.365c0,7.41,6.009,13.419,13.419,13.419c7.411,0,13.419-6.009,13.419-13.419V29.889H59.429z"/>
	<path style="clip-path:url(#SVGID_00000094618864321891655470000003632953870988015026_);" d="M662.77,94.73l8.558,20.805v12.07
		h6.98v-12.07l9.136-20.805h-7.002l-5.246,13.892l-4.913-13.892H662.77z M627.412,94.73v32.875h6.513v-25.362l6.09,25.362h6.558
		l6.424-25.362v25.362h6.69V94.73h-10.691l-5.513,22.361l-5.202-22.361H627.412z M607.276,108.933c0-3.897,0.311-6.56,0.934-7.991
		c0.622-1.43,1.77-2.145,3.445-2.145c1.704,0,2.864,0.671,3.479,2.012c0.615,1.341,0.922,3.509,0.922,6.502v3.134
		c0,2.164-0.041,4.268-0.122,6.313c-0.082,2.045-0.422,3.649-1.022,4.812c-0.601,1.164-1.701,1.745-3.301,1.745
		c-1.142,0-2.02-0.341-2.634-1.022c-0.615-0.682-1.053-1.734-1.312-3.157c-0.259-1.422-0.389-3.897-0.389-7.424V108.933z
		 M611.5,128.205c2.075,0,3.809-0.244,5.202-0.733c1.393-0.489,2.515-1.182,3.367-2.078c0.852-0.897,1.493-2.004,1.923-3.324
		c0.43-1.318,0.719-2.734,0.867-4.245c0.148-1.512,0.222-3.809,0.222-6.891c0-3.438-0.111-6.035-0.333-7.791
		s-0.686-3.342-1.389-4.757c-0.704-1.415-1.838-2.523-3.401-3.323c-1.564-0.8-3.679-1.2-6.346-1.2c-2.683,0-4.865,0.519-6.547,1.556
		c-1.682,1.037-2.9,2.675-3.656,4.912c-0.756,2.238-1.134,5.713-1.134,10.425c0,4.001,0.189,6.939,0.567,8.814
		s0.952,3.427,1.723,4.657c0.77,1.23,1.885,2.2,3.345,2.911C607.369,127.85,609.233,128.205,611.5,128.205 M571.397,94.73v32.875
		h6.38v-24.029l9.002,24.029h9.025V94.73h-6.379v22.761l-8.781-22.761H571.397z M551.141,108.933c0-3.897,0.311-6.56,0.933-7.991
		c0.623-1.43,1.771-2.145,3.446-2.145c1.703,0,2.863,0.671,3.478,2.012c0.615,1.341,0.923,3.509,0.923,6.502v3.134
		c0,2.164-0.041,4.268-0.123,6.313c-0.081,2.045-0.422,3.649-1.022,4.812c-0.6,1.164-1.7,1.745-3.301,1.745
		c-1.141,0-2.019-0.341-2.634-1.022c-0.615-0.682-1.052-1.734-1.311-3.157c-0.26-1.422-0.389-3.897-0.389-7.424V108.933z
		 M555.364,128.205c2.074,0,3.808-0.244,5.201-0.733c1.393-0.489,2.516-1.182,3.368-2.078c0.852-0.897,1.493-2.004,1.923-3.324
		c0.429-1.318,0.718-2.734,0.867-4.245c0.148-1.512,0.222-3.809,0.222-6.891c0-3.438-0.111-6.035-0.334-7.791
		c-0.222-1.756-0.685-3.342-1.389-4.757c-0.704-1.415-1.838-2.523-3.401-3.323c-1.563-0.8-3.679-1.2-6.346-1.2
		c-2.682,0-4.864,0.519-6.546,1.556c-1.682,1.037-2.901,2.675-3.657,4.912c-0.755,2.238-1.133,5.713-1.133,10.425
		c0,4.001,0.189,6.939,0.566,8.814c0.378,1.875,0.952,3.427,1.723,4.657c0.77,1.23,1.886,2.2,3.346,2.911
		C551.233,127.85,553.096,128.205,555.364,128.205 M540.39,104.11c0-3.393-0.811-5.887-2.434-7.48s-3.998-2.389-7.124-2.389
		c-2.668,0-4.79,0.441-6.369,1.322c-1.578,0.882-2.704,2.071-3.378,3.568c-0.675,1.497-1.108,3.119-1.301,4.868
		c-0.192,1.749-0.289,4.156-0.289,7.224c0,3.898,0.182,6.743,0.545,8.536c0.363,1.793,0.919,3.267,1.667,4.423
		c0.748,1.156,1.834,2.075,3.257,2.756c1.422,0.682,3.267,1.023,5.534,1.023c3.483,0,6.061-0.874,7.736-2.623
		c1.674-1.748,2.512-4.364,2.512-7.847v-0.955h-6.78v0.377c0,2.12-0.3,3.665-0.9,4.635c-0.6,0.971-1.486,1.456-2.656,1.456
		c-1.394,0-2.387-0.634-2.979-1.901c-0.593-1.267-0.919-2.867-0.978-4.801c-0.059-1.934-0.089-3.479-0.089-4.634
		c0-3.438,0.089-5.891,0.267-7.358s0.544-2.679,1.1-3.634c0.556-0.956,1.434-1.434,2.634-1.434c1.052,0,1.863,0.411,2.434,1.234
		c0.57,0.822,0.856,2.16,0.856,4.012v0.622h6.735V104.11z M498.307,94.73v32.875h18.294v-5.134h-11.425v-9.514h10.203v-5.068
		h-10.203v-8.091h11.07V94.73H498.307z M459.012,94.73v32.875h6.38v-24.029l9.002,24.029h9.025V94.73h-6.38v22.761l-8.78-22.761
		H459.012z M441.989,101.065l3.424,14.292h-6.647L441.989,101.065z M437.898,94.73l-9.113,32.875h6.802l1.867-7.291h9.358
		l1.823,7.291h7.246l-8.913-32.875H437.898z M408.026,94.73v32.875h18.294v-5.134h-11.426v-9.514h10.203v-5.068h-10.203v-8.091
		h11.07V94.73H408.026z M387.884,94.73v32.875h17.16v-5.468h-10.202V94.73H387.884z M383.875,104.11c0-3.393-0.811-5.887-2.434-7.48
		c-1.622-1.593-3.997-2.389-7.124-2.389c-2.667,0-4.79,0.441-6.368,1.322c-1.578,0.882-2.705,2.071-3.379,3.568
		c-0.674,1.497-1.108,3.119-1.3,4.868c-0.193,1.749-0.289,4.156-0.289,7.224c0,3.898,0.181,6.743,0.544,8.536
		s0.919,3.267,1.668,4.423c0.748,1.156,1.833,2.075,3.256,2.756c1.423,0.682,3.268,1.023,5.535,1.023
		c3.482,0,6.061-0.874,7.735-2.623c1.675-1.748,2.512-4.364,2.512-7.847v-0.955h-6.779v0.377c0,2.12-0.301,3.665-0.901,4.635
		c-0.6,0.971-1.486,1.456-2.656,1.456c-1.393,0-2.386-0.634-2.979-1.901c-0.592-1.267-0.919-2.867-0.978-4.801
		c-0.059-1.934-0.089-3.479-0.089-4.634c0-3.438,0.089-5.891,0.267-7.358s0.545-2.679,1.1-3.634
		c0.556-0.956,1.434-1.434,2.635-1.434c1.052,0,1.863,0.411,2.434,1.234c0.57,0.822,0.855,2.16,0.855,4.012v0.622h6.735V104.11z
		 M331.598,94.73v32.875h18.294v-5.134h-11.426v-9.514h10.203v-5.068h-10.203v-8.091h11.07V94.73H331.598z M305,94.73v32.875h6.936
		v-14.47h7.78v14.47h6.913V94.73h-6.913v13.025h-7.78V94.73H305z M279.651,94.73v5.334h7.558v27.541h6.98v-27.541h7.646V94.73
		H279.651z M257.583,121.003c-0.8,0.86-1.589,1.486-2.367,1.879s-1.679,0.589-2.701,0.589c-1.452,0-2.634-0.474-3.545-1.423
		c-0.912-0.948-1.367-2.193-1.367-3.734c0-0.978,0.255-1.912,0.766-2.801c0.512-0.889,1.345-1.793,2.501-2.712L257.583,121.003z
		 M250.359,103.076c-0.386-0.733-0.578-1.418-0.578-2.056c0-0.785,0.263-1.452,0.789-2s1.189-0.823,1.989-0.823
		c0.89,0,1.597,0.252,2.123,0.756s0.789,1.178,0.789,2.023c0,0.889-0.255,1.689-0.767,2.4c-0.511,0.712-1.344,1.445-2.5,2.201
		C251.359,104.643,250.743,103.81,250.359,103.076 M260.206,105.188c0.83-1.267,1.245-2.626,1.245-4.079
		c0-2.178-0.778-3.882-2.334-5.112c-1.556-1.23-3.727-1.845-6.513-1.845c-2.638,0-4.761,0.663-6.368,1.989
		c-1.609,1.326-2.412,3.116-2.412,5.368c0,1.127,0.263,2.268,0.789,3.423c0.526,1.156,1.374,2.431,2.545,3.824
		c-2.238,1.526-3.846,3.012-4.824,4.456c-0.978,1.445-1.467,3.161-1.467,5.146c0,3.142,1.008,5.568,3.023,7.28
		c2.016,1.712,4.861,2.567,8.536,2.567c1.971,0,3.66-0.233,5.068-0.7c1.408-0.467,2.771-1.315,4.09-2.545l2.001,2.645h6.735
		l-4.957-6.779c0.815-1.393,1.389-2.871,1.723-4.435c0.333-1.563,0.5-3.56,0.5-5.99v-0.823h-5.557
		c0.029,0.208,0.044,0.415,0.044,0.622c0,1.053-0.07,2.123-0.211,3.212c-0.141,1.09-0.33,1.998-0.567,2.723l-5.135-6.735
		C258.027,107.859,259.376,106.455,260.206,105.188"/>
	<path style="clip-path:url(#SVGID_00000094618864321891655470000003632953870988015026_);" d="M529.031,51.429l8.558,20.806v12.07
		h6.979v-12.07l9.136-20.806h-7.002l-5.246,13.893l-4.912-13.893H529.031z M504.995,51.429v5.335h7.558v27.541h6.98V56.764h7.646
		v-5.335H504.995z M495.085,84.305h6.869V51.429h-6.869V84.305z M474.943,51.429v32.876h17.16v-5.468H481.9V51.429H474.943z
		 M463.201,84.305h6.869V51.429h-6.869V84.305z M443.476,69.923h3.424c1.852,0,3.178,0.334,3.978,1.001
		c0.801,0.667,1.201,1.867,1.201,3.601c0,1.674-0.364,2.882-1.089,3.623c-0.727,0.741-2.305,1.111-4.735,1.111h-2.779V69.923z
		 M443.476,64.878v-8.38h2.957c2.119,0,3.53,0.333,4.234,1c0.704,0.667,1.056,1.652,1.056,2.956c0,1.26-0.152,2.138-0.456,2.634
		c-0.304,0.497-0.759,0.919-1.367,1.267c-0.607,0.349-1.533,0.523-2.778,0.523H443.476z M436.652,51.429v32.876H448.9
		c3.482,0,6.031-0.715,7.647-2.145c1.615-1.43,2.422-3.686,2.422-6.768c0-2.549-0.5-4.472-1.5-5.769
		c-1-1.296-2.553-2.093-4.657-2.389c1.852-0.385,3.249-1.208,4.19-2.468c0.941-1.259,1.412-2.941,1.412-5.045
		c0-2.905-0.815-5.013-2.445-6.324c-1.631-1.312-4.216-1.968-7.758-1.968H436.652z M419.63,57.765l3.423,14.292h-6.646
		L419.63,57.765z M415.54,51.429l-9.114,32.876h6.802l1.867-7.291h9.358l1.823,7.291h7.246l-8.913-32.876H415.54z M378.872,51.429
		v32.876h6.38V60.276l9.002,24.029h9.025V51.429h-6.38v22.762l-8.78-22.762H378.872z M367.091,84.305h6.869V51.429h-6.869V84.305z
		 M350.112,57.765l3.423,14.292h-6.646L350.112,57.765z M346.022,51.429l-9.113,32.876h6.802l1.867-7.291h9.358l1.823,7.291h7.246
		l-8.914-32.876H346.022z M316.794,51.429v5.335h7.558v27.541h6.979V56.764h7.647v-5.335H316.794z M311.703,82.538
		c1.852-1.578,2.778-3.946,2.778-7.102c0-2.06-0.4-3.686-1.2-4.879c-0.8-1.193-2.09-2.345-3.868-3.457l-6.646-4.245
		c-0.726-0.459-1.256-0.986-1.59-1.578c-0.333-0.593-0.5-1.23-0.5-1.912c0-1.111,0.3-1.997,0.901-2.656
		c0.6-0.66,1.411-0.989,2.434-0.989c2.207,0,3.312,1.422,3.312,4.267v0.778h6.735v-1.133c0-3.171-0.812-5.42-2.434-6.747
		c-1.623-1.326-3.983-1.989-7.08-1.989c-3.468,0-6.146,0.76-8.035,2.278c-1.89,1.52-2.835,3.672-2.835,6.458
		c0,2.06,0.386,3.76,1.156,5.101c0.771,1.341,2.445,2.812,5.024,4.412l5.446,3.335c0.741,0.459,1.3,0.993,1.678,1.6
		c0.378,0.608,0.567,1.349,0.567,2.223c0,1.156-0.315,2.049-0.945,2.678c-0.63,0.631-1.53,0.945-2.701,0.945
		c-1.378,0-2.341-0.407-2.889-1.222c-0.549-0.815-0.823-2.045-0.823-3.69v-0.867h-6.979v2.045c0,2.889,0.844,5.064,2.534,6.524
		c1.689,1.46,4.171,2.189,7.446,2.189C307.012,84.905,309.85,84.116,311.703,82.538 M267.092,51.429v22.007
		c0,3.867,0.892,6.746,2.678,8.635c1.786,1.89,4.546,2.834,8.28,2.834c3.912,0,6.78-0.929,8.603-2.789
		c1.822-1.86,2.734-4.738,2.734-8.636V51.429h-6.691v22.184c0,2.12-0.371,3.716-1.112,4.791c-0.741,1.074-1.882,1.611-3.423,1.611
		c-1.437,0-2.497-0.53-3.178-1.589c-0.682-1.06-1.023-2.679-1.023-4.857v-22.14H267.092z M260.539,82.538
		c1.852-1.578,2.779-3.946,2.779-7.102c0-2.06-0.401-3.686-1.201-4.879c-0.8-1.193-2.089-2.345-3.867-3.457l-6.647-4.245
		c-0.726-0.459-1.256-0.986-1.589-1.578c-0.334-0.593-0.5-1.23-0.5-1.912c0-1.111,0.3-1.997,0.9-2.656
		c0.6-0.66,1.412-0.989,2.434-0.989c2.208,0,3.312,1.422,3.312,4.267v0.778h6.735v-1.133c0-3.171-0.811-5.42-2.434-6.747
		c-1.622-1.326-3.982-1.989-7.08-1.989c-3.467,0-6.146,0.76-8.035,2.278c-1.889,1.52-2.834,3.672-2.834,6.458
		c0,2.06,0.385,3.76,1.156,5.101c0.77,1.341,2.445,2.812,5.023,4.412l5.446,3.335c0.741,0.459,1.301,0.993,1.679,1.6
		c0.377,0.608,0.566,1.349,0.566,2.223c0,1.156-0.315,2.049-0.944,2.678c-0.63,0.631-1.531,0.945-2.701,0.945
		c-1.378,0-2.342-0.407-2.89-1.222s-0.822-2.045-0.822-3.69v-0.867h-6.98v2.045c0,2.889,0.845,5.064,2.534,6.524
		c1.689,1.46,4.171,2.189,7.447,2.189C255.849,84.905,258.686,84.116,260.539,82.538"/>
	<path style="clip-path:url(#SVGID_00000094618864321891655470000003632953870988015026_);" d="M327.66,16.797
		c-0.101-0.141-0.212-0.262-0.333-0.363c-0.121-0.1-0.262-0.151-0.423-0.151c-0.182,0-0.378,0.01-0.59,0.03
		c-0.212,0.021-0.419,0.056-0.62,0.106c-0.202,0.051-0.368,0.111-0.499,0.181c-0.131,0.071-0.196,0.147-0.196,0.227v21.408
		c0,0.101,0.07,0.181,0.211,0.242c0.141,0.06,0.313,0.111,0.514,0.151c0.202,0.04,0.413,0.071,0.635,0.091
		c0.222,0.02,0.413,0.03,0.575,0.03c0.222,0,0.398-0.081,0.529-0.242c0.131-0.161,0.197-0.352,0.197-0.574v-16.54l10.855,16.872
		c0.06,0.081,0.166,0.151,0.317,0.212c0.151,0.06,0.328,0.111,0.529,0.151c0.202,0.04,0.403,0.071,0.605,0.091
		c0.201,0.02,0.373,0.03,0.514,0.03c0.201,0,0.368-0.075,0.499-0.227c0.131-0.151,0.197-0.337,0.197-0.559V17.13
		c0-0.242-0.046-0.444-0.136-0.605c-0.091-0.161-0.248-0.242-0.469-0.242c-0.182,0-0.393,0.01-0.635,0.03
		c-0.242,0.021-0.469,0.051-0.68,0.091c-0.212,0.041-0.389,0.091-0.53,0.151c-0.141,0.061-0.211,0.131-0.211,0.212V33.7
		L327.66,16.797z M320.509,17.099c0-0.221-0.066-0.413-0.197-0.574c-0.131-0.161-0.307-0.242-0.529-0.242
		c-0.181,0-0.383,0.01-0.605,0.03c-0.222,0.021-0.438,0.056-0.65,0.106c-0.211,0.051-0.388,0.111-0.529,0.181
		c-0.141,0.071-0.211,0.147-0.211,0.227v21.408c0,0.101,0.07,0.181,0.211,0.242c0.141,0.06,0.318,0.111,0.529,0.151
		c0.212,0.04,0.428,0.071,0.65,0.091c0.222,0.02,0.424,0.03,0.605,0.03c0.222,0,0.398-0.081,0.529-0.242
		c0.131-0.161,0.197-0.352,0.197-0.574V17.099z M301.35,27.35l10.069,10.855c0.221,0.242,0.534,0.393,0.937,0.453
		c0.403,0.061,0.836,0.091,1.3,0.091c0.141,0,0.303-0.02,0.484-0.06c0.182-0.041,0.272-0.162,0.272-0.363
		c0-0.222-0.161-0.504-0.484-0.847l-9.706-10.432l8.86-9.494c0.342-0.363,0.514-0.645,0.514-0.847c0-0.201-0.091-0.322-0.272-0.363
		c-0.182-0.04-0.353-0.06-0.514-0.06c-0.444,0-0.873,0.03-1.285,0.091c-0.414,0.06-0.731,0.211-0.953,0.453l-9.222,9.948v-9.676
		c0-0.221-0.066-0.413-0.197-0.574c-0.131-0.161-0.307-0.242-0.529-0.242c-0.181,0-0.383,0.01-0.605,0.03
		c-0.222,0.021-0.438,0.056-0.65,0.106c-0.211,0.051-0.388,0.111-0.529,0.181c-0.141,0.071-0.212,0.147-0.212,0.227v21.408
		c0,0.101,0.071,0.181,0.212,0.242c0.141,0.06,0.318,0.111,0.529,0.151c0.212,0.04,0.428,0.071,0.65,0.091
		c0.222,0.02,0.424,0.03,0.605,0.03c0.222,0,0.398-0.081,0.529-0.242c0.131-0.161,0.197-0.352,0.197-0.574V27.35z M286.41,20.304
		c0.02-0.201,0.05-0.382,0.091-0.544c0,0.101,0.025,0.283,0.075,0.544c0.05,0.263,0.096,0.444,0.136,0.545l2.903,8.799h-6.259
		l2.933-8.799C286.35,20.688,286.391,20.506,286.41,20.304 M293.033,38.643c0.342,0.071,0.796,0.106,1.36,0.106
		c0.182,0,0.358-0.035,0.53-0.106c0.171-0.071,0.257-0.196,0.257-0.378c0-0.121-0.011-0.211-0.031-0.272l-7.257-21.136
		c-0.12-0.382-0.352-0.574-0.695-0.574c-0.383,0-0.801,0.035-1.255,0.106c-0.453,0.071-0.721,0.217-0.801,0.438l-7.287,21.166
		c-0.041,0.121-0.061,0.212-0.061,0.272c0,0.182,0.086,0.307,0.257,0.378c0.171,0.071,0.358,0.106,0.56,0.106
		c0.463,0,0.881-0.02,1.255-0.06c0.372-0.041,0.599-0.182,0.68-0.424l2.116-6.259h7.681l2.026,6.138
		C292.467,38.406,292.69,38.572,293.033,38.643 M262.031,38.235c0.282,0.101,0.554,0.151,0.816,0.151h11.4
		c0.08,0,0.151-0.06,0.211-0.181c0.061-0.121,0.111-0.272,0.151-0.454c0.041-0.181,0.071-0.372,0.091-0.574
		c0.02-0.201,0.03-0.383,0.03-0.544c0-0.202-0.07-0.363-0.211-0.484c-0.142-0.121-0.303-0.182-0.484-0.182h-9.706v-7.438h8.98
		c0.081,0,0.151-0.06,0.212-0.181c0.06-0.121,0.116-0.273,0.166-0.454c0.05-0.181,0.086-0.373,0.106-0.575
		c0.02-0.201,0.03-0.372,0.03-0.514c0-0.221-0.071-0.393-0.211-0.514c-0.142-0.121-0.313-0.181-0.514-0.181h-8.769v-7.045h9.918
		c0.08,0,0.151-0.061,0.211-0.182c0.061-0.121,0.111-0.272,0.151-0.453c0.041-0.182,0.071-0.373,0.091-0.575
		c0.02-0.201,0.03-0.382,0.03-0.544c0-0.222-0.07-0.388-0.211-0.499c-0.142-0.11-0.303-0.166-0.484-0.166h-11.702
		c-0.484,0-0.725,0.262-0.725,0.786v20.41C261.608,38.004,261.747,38.134,262.031,38.235 M251.672,19.352
		c0.726,0.212,1.315,0.559,1.769,1.043c0.453,0.484,0.776,1.114,0.967,1.89c0.192,0.776,0.288,1.719,0.288,2.827v4.778
		c0,1.108-0.096,2.051-0.288,2.827c-0.191,0.776-0.514,1.406-0.967,1.89c-0.454,0.483-1.043,0.831-1.769,1.043
		c-0.726,0.211-1.633,0.317-2.721,0.317h-4.143V19.035h4.143C250.038,19.035,250.946,19.14,251.672,19.352 M242.359,16.797
		c-0.181,0.121-0.272,0.323-0.272,0.605v20.44c0,0.162,0.136,0.292,0.408,0.393c0.272,0.101,0.549,0.151,0.832,0.151h5.624
		c1.451,0,2.711-0.136,3.779-0.408c1.069-0.272,1.955-0.726,2.661-1.361s1.23-1.471,1.572-2.509
		c0.343-1.038,0.515-2.323,0.515-3.856V24.78c0-1.532-0.172-2.817-0.515-3.856c-0.342-1.038-0.866-1.874-1.572-2.509
		c-0.706-0.635-1.592-1.094-2.661-1.376c-1.068-0.282-2.328-0.423-3.779-0.423h-5.987C242.742,16.616,242.54,16.676,242.359,16.797"
		/>
</g>
</svg>
